<?xml version="1.0" encoding="utf-8" standalone="no"?>
<!DOCTYPE svg PUBLIC "-//W3C//DTD SVG 1.1//EN"
  "http://www.w3.org/Graphics/SVG/1.1/DTD/svg11.dtd">
<!-- Created with matplotlib (http://matplotlib.org/) -->
<svg height="886.53625pt" version="1.1" viewBox="0 0 1050.14 886.53625" width="1050.14pt" xmlns="http://www.w3.org/2000/svg" xmlns:xlink="http://www.w3.org/1999/xlink">
 <defs>
  <style type="text/css">
*{stroke-linecap:butt;stroke-linejoin:round;}
  </style>
 </defs>
 <g id="figure_1">
  <g id="patch_1">
   <path d="M 0 886.53625 
L 1050.14 886.53625 
L 1050.14 0 
L 0 0 
z
" style="fill:#ffffff;"/>
  </g>
  <g id="axes_1">
   <g id="patch_2">
    <path d="M 43.22 338.04 
L 338.631765 338.04 
L 338.631765 5.4 
L 43.22 5.4 
z
" style="fill:#ffffff;"/>
   </g>
   <g id="matplotlib.axis_1">
    <g id="xtick_1">
     <g id="line2d_1">
      <path clip-path="url(#p02e504f4bf)" d="M 117.072941 338.04 
L 117.072941 5.4 
" style="fill:none;stroke:#b0b0b0;stroke-linecap:square;stroke-width:0.8;"/>
     </g>
     <g id="line2d_2">
      <defs>
       <path d="M 0 0 
L 0 3.5 
" id="mad41711eff" style="stroke:#000000;stroke-width:0.8;"/>
      </defs>
      <g>
       <use style="stroke:#000000;stroke-width:0.8;" x="117.072941" xlink:href="#mad41711eff" y="338.04"/>
      </g>
     </g>
     <g id="text_1">
      <!-- Mapped_data.192C.S17.ELF3myc-17C-ZT10_S17_Ath-TAIR10_RPKM -->
      <defs>
       <path d="M 9.8125 72.90625 
L 24.515625 72.90625 
L 43.109375 23.296875 
L 61.8125 72.90625 
L 76.515625 72.90625 
L 76.515625 0 
L 66.890625 0 
L 66.890625 64.015625 
L 48.09375 14.015625 
L 38.1875 14.015625 
L 19.390625 64.015625 
L 19.390625 0 
L 9.8125 0 
z
" id="DejaVuSans-4d"/>
       <path d="M 34.28125 27.484375 
Q 23.390625 27.484375 19.1875 25 
Q 14.984375 22.515625 14.984375 16.5 
Q 14.984375 11.71875 18.140625 8.90625 
Q 21.296875 6.109375 26.703125 6.109375 
Q 34.1875 6.109375 38.703125 11.40625 
Q 43.21875 16.703125 43.21875 25.484375 
L 43.21875 27.484375 
z
M 52.203125 31.203125 
L 52.203125 0 
L 43.21875 0 
L 43.21875 8.296875 
Q 40.140625 3.328125 35.546875 0.953125 
Q 30.953125 -1.421875 24.3125 -1.421875 
Q 15.921875 -1.421875 10.953125 3.296875 
Q 6 8.015625 6 15.921875 
Q 6 25.140625 12.171875 29.828125 
Q 18.359375 34.515625 30.609375 34.515625 
L 43.21875 34.515625 
L 43.21875 35.40625 
Q 43.21875 41.609375 39.140625 45 
Q 35.0625 48.390625 27.6875 48.390625 
Q 23 48.390625 18.546875 47.265625 
Q 14.109375 46.140625 10.015625 43.890625 
L 10.015625 52.203125 
Q 14.9375 54.109375 19.578125 55.046875 
Q 24.21875 56 28.609375 56 
Q 40.484375 56 46.34375 49.84375 
Q 52.203125 43.703125 52.203125 31.203125 
z
" id="DejaVuSans-61"/>
       <path d="M 18.109375 8.203125 
L 18.109375 -20.796875 
L 9.078125 -20.796875 
L 9.078125 54.6875 
L 18.109375 54.6875 
L 18.109375 46.390625 
Q 20.953125 51.265625 25.265625 53.625 
Q 29.59375 56 35.59375 56 
Q 45.5625 56 51.78125 48.09375 
Q 58.015625 40.1875 58.015625 27.296875 
Q 58.015625 14.40625 51.78125 6.484375 
Q 45.5625 -1.421875 35.59375 -1.421875 
Q 29.59375 -1.421875 25.265625 0.953125 
Q 20.953125 3.328125 18.109375 8.203125 
z
M 48.6875 27.296875 
Q 48.6875 37.203125 44.609375 42.84375 
Q 40.53125 48.484375 33.40625 48.484375 
Q 26.265625 48.484375 22.1875 42.84375 
Q 18.109375 37.203125 18.109375 27.296875 
Q 18.109375 17.390625 22.1875 11.75 
Q 26.265625 6.109375 33.40625 6.109375 
Q 40.53125 6.109375 44.609375 11.75 
Q 48.6875 17.390625 48.6875 27.296875 
z
" id="DejaVuSans-70"/>
       <path d="M 56.203125 29.59375 
L 56.203125 25.203125 
L 14.890625 25.203125 
Q 15.484375 15.921875 20.484375 11.0625 
Q 25.484375 6.203125 34.421875 6.203125 
Q 39.59375 6.203125 44.453125 7.46875 
Q 49.3125 8.734375 54.109375 11.28125 
L 54.109375 2.78125 
Q 49.265625 0.734375 44.1875 -0.34375 
Q 39.109375 -1.421875 33.890625 -1.421875 
Q 20.796875 -1.421875 13.15625 6.1875 
Q 5.515625 13.8125 5.515625 26.8125 
Q 5.515625 40.234375 12.765625 48.109375 
Q 20.015625 56 32.328125 56 
Q 43.359375 56 49.78125 48.890625 
Q 56.203125 41.796875 56.203125 29.59375 
z
M 47.21875 32.234375 
Q 47.125 39.59375 43.09375 43.984375 
Q 39.0625 48.390625 32.421875 48.390625 
Q 24.90625 48.390625 20.390625 44.140625 
Q 15.875 39.890625 15.1875 32.171875 
z
" id="DejaVuSans-65"/>
       <path d="M 45.40625 46.390625 
L 45.40625 75.984375 
L 54.390625 75.984375 
L 54.390625 0 
L 45.40625 0 
L 45.40625 8.203125 
Q 42.578125 3.328125 38.25 0.953125 
Q 33.9375 -1.421875 27.875 -1.421875 
Q 17.96875 -1.421875 11.734375 6.484375 
Q 5.515625 14.40625 5.515625 27.296875 
Q 5.515625 40.1875 11.734375 48.09375 
Q 17.96875 56 27.875 56 
Q 33.9375 56 38.25 53.625 
Q 42.578125 51.265625 45.40625 46.390625 
z
M 14.796875 27.296875 
Q 14.796875 17.390625 18.875 11.75 
Q 22.953125 6.109375 30.078125 6.109375 
Q 37.203125 6.109375 41.296875 11.75 
Q 45.40625 17.390625 45.40625 27.296875 
Q 45.40625 37.203125 41.296875 42.84375 
Q 37.203125 48.484375 30.078125 48.484375 
Q 22.953125 48.484375 18.875 42.84375 
Q 14.796875 37.203125 14.796875 27.296875 
z
" id="DejaVuSans-64"/>
       <path d="M 50.984375 -16.609375 
L 50.984375 -23.578125 
L -0.984375 -23.578125 
L -0.984375 -16.609375 
z
" id="DejaVuSans-5f"/>
       <path d="M 18.3125 70.21875 
L 18.3125 54.6875 
L 36.8125 54.6875 
L 36.8125 47.703125 
L 18.3125 47.703125 
L 18.3125 18.015625 
Q 18.3125 11.328125 20.140625 9.421875 
Q 21.96875 7.515625 27.59375 7.515625 
L 36.8125 7.515625 
L 36.8125 0 
L 27.59375 0 
Q 17.1875 0 13.234375 3.875 
Q 9.28125 7.765625 9.28125 18.015625 
L 9.28125 47.703125 
L 2.6875 47.703125 
L 2.6875 54.6875 
L 9.28125 54.6875 
L 9.28125 70.21875 
z
" id="DejaVuSans-74"/>
       <path d="M 10.6875 12.40625 
L 21 12.40625 
L 21 0 
L 10.6875 0 
z
" id="DejaVuSans-2e"/>
       <path d="M 12.40625 8.296875 
L 28.515625 8.296875 
L 28.515625 63.921875 
L 10.984375 60.40625 
L 10.984375 69.390625 
L 28.421875 72.90625 
L 38.28125 72.90625 
L 38.28125 8.296875 
L 54.390625 8.296875 
L 54.390625 0 
L 12.40625 0 
z
" id="DejaVuSans-31"/>
       <path d="M 10.984375 1.515625 
L 10.984375 10.5 
Q 14.703125 8.734375 18.5 7.8125 
Q 22.3125 6.890625 25.984375 6.890625 
Q 35.75 6.890625 40.890625 13.453125 
Q 46.046875 20.015625 46.78125 33.40625 
Q 43.953125 29.203125 39.59375 26.953125 
Q 35.25 24.703125 29.984375 24.703125 
Q 19.046875 24.703125 12.671875 31.3125 
Q 6.296875 37.9375 6.296875 49.421875 
Q 6.296875 60.640625 12.9375 67.421875 
Q 19.578125 74.21875 30.609375 74.21875 
Q 43.265625 74.21875 49.921875 64.515625 
Q 56.59375 54.828125 56.59375 36.375 
Q 56.59375 19.140625 48.40625 8.859375 
Q 40.234375 -1.421875 26.421875 -1.421875 
Q 22.703125 -1.421875 18.890625 -0.6875 
Q 15.09375 0.046875 10.984375 1.515625 
z
M 30.609375 32.421875 
Q 37.25 32.421875 41.125 36.953125 
Q 45.015625 41.5 45.015625 49.421875 
Q 45.015625 57.28125 41.125 61.84375 
Q 37.25 66.40625 30.609375 66.40625 
Q 23.96875 66.40625 20.09375 61.84375 
Q 16.21875 57.28125 16.21875 49.421875 
Q 16.21875 41.5 20.09375 36.953125 
Q 23.96875 32.421875 30.609375 32.421875 
z
" id="DejaVuSans-39"/>
       <path d="M 19.1875 8.296875 
L 53.609375 8.296875 
L 53.609375 0 
L 7.328125 0 
L 7.328125 8.296875 
Q 12.9375 14.109375 22.625 23.890625 
Q 32.328125 33.6875 34.8125 36.53125 
Q 39.546875 41.84375 41.421875 45.53125 
Q 43.3125 49.21875 43.3125 52.78125 
Q 43.3125 58.59375 39.234375 62.25 
Q 35.15625 65.921875 28.609375 65.921875 
Q 23.96875 65.921875 18.8125 64.3125 
Q 13.671875 62.703125 7.8125 59.421875 
L 7.8125 69.390625 
Q 13.765625 71.78125 18.9375 73 
Q 24.125 74.21875 28.421875 74.21875 
Q 39.75 74.21875 46.484375 68.546875 
Q 53.21875 62.890625 53.21875 53.421875 
Q 53.21875 48.921875 51.53125 44.890625 
Q 49.859375 40.875 45.40625 35.40625 
Q 44.1875 33.984375 37.640625 27.21875 
Q 31.109375 20.453125 19.1875 8.296875 
z
" id="DejaVuSans-32"/>
       <path d="M 64.40625 67.28125 
L 64.40625 56.890625 
Q 59.421875 61.53125 53.78125 63.8125 
Q 48.140625 66.109375 41.796875 66.109375 
Q 29.296875 66.109375 22.65625 58.46875 
Q 16.015625 50.828125 16.015625 36.375 
Q 16.015625 21.96875 22.65625 14.328125 
Q 29.296875 6.6875 41.796875 6.6875 
Q 48.140625 6.6875 53.78125 8.984375 
Q 59.421875 11.28125 64.40625 15.921875 
L 64.40625 5.609375 
Q 59.234375 2.09375 53.4375 0.328125 
Q 47.65625 -1.421875 41.21875 -1.421875 
Q 24.65625 -1.421875 15.125 8.703125 
Q 5.609375 18.84375 5.609375 36.375 
Q 5.609375 53.953125 15.125 64.078125 
Q 24.65625 74.21875 41.21875 74.21875 
Q 47.75 74.21875 53.53125 72.484375 
Q 59.328125 70.75 64.40625 67.28125 
z
" id="DejaVuSans-43"/>
       <path d="M 53.515625 70.515625 
L 53.515625 60.890625 
Q 47.90625 63.578125 42.921875 64.890625 
Q 37.9375 66.21875 33.296875 66.21875 
Q 25.25 66.21875 20.875 63.09375 
Q 16.5 59.96875 16.5 54.203125 
Q 16.5 49.359375 19.40625 46.890625 
Q 22.3125 44.4375 30.421875 42.921875 
L 36.375 41.703125 
Q 47.40625 39.59375 52.65625 34.296875 
Q 57.90625 29 57.90625 20.125 
Q 57.90625 9.515625 50.796875 4.046875 
Q 43.703125 -1.421875 29.984375 -1.421875 
Q 24.8125 -1.421875 18.96875 -0.25 
Q 13.140625 0.921875 6.890625 3.21875 
L 6.890625 13.375 
Q 12.890625 10.015625 18.65625 8.296875 
Q 24.421875 6.59375 29.984375 6.59375 
Q 38.421875 6.59375 43.015625 9.90625 
Q 47.609375 13.234375 47.609375 19.390625 
Q 47.609375 24.75 44.3125 27.78125 
Q 41.015625 30.8125 33.5 32.328125 
L 27.484375 33.5 
Q 16.453125 35.6875 11.515625 40.375 
Q 6.59375 45.0625 6.59375 53.421875 
Q 6.59375 63.09375 13.40625 68.65625 
Q 20.21875 74.21875 32.171875 74.21875 
Q 37.3125 74.21875 42.625 73.28125 
Q 47.953125 72.359375 53.515625 70.515625 
z
" id="DejaVuSans-53"/>
       <path d="M 8.203125 72.90625 
L 55.078125 72.90625 
L 55.078125 68.703125 
L 28.609375 0 
L 18.3125 0 
L 43.21875 64.59375 
L 8.203125 64.59375 
z
" id="DejaVuSans-37"/>
       <path d="M 9.8125 72.90625 
L 55.90625 72.90625 
L 55.90625 64.59375 
L 19.671875 64.59375 
L 19.671875 43.015625 
L 54.390625 43.015625 
L 54.390625 34.71875 
L 19.671875 34.71875 
L 19.671875 8.296875 
L 56.78125 8.296875 
L 56.78125 0 
L 9.8125 0 
z
" id="DejaVuSans-45"/>
       <path d="M 9.8125 72.90625 
L 19.671875 72.90625 
L 19.671875 8.296875 
L 55.171875 8.296875 
L 55.171875 0 
L 9.8125 0 
z
" id="DejaVuSans-4c"/>
       <path d="M 9.8125 72.90625 
L 51.703125 72.90625 
L 51.703125 64.59375 
L 19.671875 64.59375 
L 19.671875 43.109375 
L 48.578125 43.109375 
L 48.578125 34.8125 
L 19.671875 34.8125 
L 19.671875 0 
L 9.8125 0 
z
" id="DejaVuSans-46"/>
       <path d="M 40.578125 39.3125 
Q 47.65625 37.796875 51.625 33 
Q 55.609375 28.21875 55.609375 21.1875 
Q 55.609375 10.40625 48.1875 4.484375 
Q 40.765625 -1.421875 27.09375 -1.421875 
Q 22.515625 -1.421875 17.65625 -0.515625 
Q 12.796875 0.390625 7.625 2.203125 
L 7.625 11.71875 
Q 11.71875 9.328125 16.59375 8.109375 
Q 21.484375 6.890625 26.8125 6.890625 
Q 36.078125 6.890625 40.9375 10.546875 
Q 45.796875 14.203125 45.796875 21.1875 
Q 45.796875 27.640625 41.28125 31.265625 
Q 36.765625 34.90625 28.71875 34.90625 
L 20.21875 34.90625 
L 20.21875 43.015625 
L 29.109375 43.015625 
Q 36.375 43.015625 40.234375 45.921875 
Q 44.09375 48.828125 44.09375 54.296875 
Q 44.09375 59.90625 40.109375 62.90625 
Q 36.140625 65.921875 28.71875 65.921875 
Q 24.65625 65.921875 20.015625 65.03125 
Q 15.375 64.15625 9.8125 62.3125 
L 9.8125 71.09375 
Q 15.4375 72.65625 20.34375 73.4375 
Q 25.25 74.21875 29.59375 74.21875 
Q 40.828125 74.21875 47.359375 69.109375 
Q 53.90625 64.015625 53.90625 55.328125 
Q 53.90625 49.265625 50.4375 45.09375 
Q 46.96875 40.921875 40.578125 39.3125 
z
" id="DejaVuSans-33"/>
       <path d="M 52 44.1875 
Q 55.375 50.25 60.0625 53.125 
Q 64.75 56 71.09375 56 
Q 79.640625 56 84.28125 50.015625 
Q 88.921875 44.046875 88.921875 33.015625 
L 88.921875 0 
L 79.890625 0 
L 79.890625 32.71875 
Q 79.890625 40.578125 77.09375 44.375 
Q 74.3125 48.1875 68.609375 48.1875 
Q 61.625 48.1875 57.5625 43.546875 
Q 53.515625 38.921875 53.515625 30.90625 
L 53.515625 0 
L 44.484375 0 
L 44.484375 32.71875 
Q 44.484375 40.625 41.703125 44.40625 
Q 38.921875 48.1875 33.109375 48.1875 
Q 26.21875 48.1875 22.15625 43.53125 
Q 18.109375 38.875 18.109375 30.90625 
L 18.109375 0 
L 9.078125 0 
L 9.078125 54.6875 
L 18.109375 54.6875 
L 18.109375 46.1875 
Q 21.1875 51.21875 25.484375 53.609375 
Q 29.78125 56 35.6875 56 
Q 41.65625 56 45.828125 52.96875 
Q 50 49.953125 52 44.1875 
z
" id="DejaVuSans-6d"/>
       <path d="M 32.171875 -5.078125 
Q 28.375 -14.84375 24.75 -17.8125 
Q 21.140625 -20.796875 15.09375 -20.796875 
L 7.90625 -20.796875 
L 7.90625 -13.28125 
L 13.1875 -13.28125 
Q 16.890625 -13.28125 18.9375 -11.515625 
Q 21 -9.765625 23.484375 -3.21875 
L 25.09375 0.875 
L 2.984375 54.6875 
L 12.5 54.6875 
L 29.59375 11.921875 
L 46.6875 54.6875 
L 56.203125 54.6875 
z
" id="DejaVuSans-79"/>
       <path d="M 48.78125 52.59375 
L 48.78125 44.1875 
Q 44.96875 46.296875 41.140625 47.34375 
Q 37.3125 48.390625 33.40625 48.390625 
Q 24.65625 48.390625 19.8125 42.84375 
Q 14.984375 37.3125 14.984375 27.296875 
Q 14.984375 17.28125 19.8125 11.734375 
Q 24.65625 6.203125 33.40625 6.203125 
Q 37.3125 6.203125 41.140625 7.25 
Q 44.96875 8.296875 48.78125 10.40625 
L 48.78125 2.09375 
Q 45.015625 0.34375 40.984375 -0.53125 
Q 36.96875 -1.421875 32.421875 -1.421875 
Q 20.0625 -1.421875 12.78125 6.34375 
Q 5.515625 14.109375 5.515625 27.296875 
Q 5.515625 40.671875 12.859375 48.328125 
Q 20.21875 56 33.015625 56 
Q 37.15625 56 41.109375 55.140625 
Q 45.0625 54.296875 48.78125 52.59375 
z
" id="DejaVuSans-63"/>
       <path d="M 4.890625 31.390625 
L 31.203125 31.390625 
L 31.203125 23.390625 
L 4.890625 23.390625 
z
" id="DejaVuSans-2d"/>
       <path d="M 5.609375 72.90625 
L 62.890625 72.90625 
L 62.890625 65.375 
L 16.796875 8.296875 
L 64.015625 8.296875 
L 64.015625 0 
L 4.5 0 
L 4.5 7.515625 
L 50.59375 64.59375 
L 5.609375 64.59375 
z
" id="DejaVuSans-5a"/>
       <path d="M -0.296875 72.90625 
L 61.375 72.90625 
L 61.375 64.59375 
L 35.5 64.59375 
L 35.5 0 
L 25.59375 0 
L 25.59375 64.59375 
L -0.296875 64.59375 
z
" id="DejaVuSans-54"/>
       <path d="M 31.78125 66.40625 
Q 24.171875 66.40625 20.328125 58.90625 
Q 16.5 51.421875 16.5 36.375 
Q 16.5 21.390625 20.328125 13.890625 
Q 24.171875 6.390625 31.78125 6.390625 
Q 39.453125 6.390625 43.28125 13.890625 
Q 47.125 21.390625 47.125 36.375 
Q 47.125 51.421875 43.28125 58.90625 
Q 39.453125 66.40625 31.78125 66.40625 
z
M 31.78125 74.21875 
Q 44.046875 74.21875 50.515625 64.515625 
Q 56.984375 54.828125 56.984375 36.375 
Q 56.984375 17.96875 50.515625 8.265625 
Q 44.046875 -1.421875 31.78125 -1.421875 
Q 19.53125 -1.421875 13.0625 8.265625 
Q 6.59375 17.96875 6.59375 36.375 
Q 6.59375 54.828125 13.0625 64.515625 
Q 19.53125 74.21875 31.78125 74.21875 
z
" id="DejaVuSans-30"/>
       <path d="M 34.1875 63.1875 
L 20.796875 26.90625 
L 47.609375 26.90625 
z
M 28.609375 72.90625 
L 39.796875 72.90625 
L 67.578125 0 
L 57.328125 0 
L 50.6875 18.703125 
L 17.828125 18.703125 
L 11.1875 0 
L 0.78125 0 
z
" id="DejaVuSans-41"/>
       <path d="M 54.890625 33.015625 
L 54.890625 0 
L 45.90625 0 
L 45.90625 32.71875 
Q 45.90625 40.484375 42.875 44.328125 
Q 39.84375 48.1875 33.796875 48.1875 
Q 26.515625 48.1875 22.3125 43.546875 
Q 18.109375 38.921875 18.109375 30.90625 
L 18.109375 0 
L 9.078125 0 
L 9.078125 75.984375 
L 18.109375 75.984375 
L 18.109375 46.1875 
Q 21.34375 51.125 25.703125 53.5625 
Q 30.078125 56 35.796875 56 
Q 45.21875 56 50.046875 50.171875 
Q 54.890625 44.34375 54.890625 33.015625 
z
" id="DejaVuSans-68"/>
       <path d="M 9.8125 72.90625 
L 19.671875 72.90625 
L 19.671875 0 
L 9.8125 0 
z
" id="DejaVuSans-49"/>
       <path d="M 44.390625 34.1875 
Q 47.5625 33.109375 50.5625 29.59375 
Q 53.5625 26.078125 56.59375 19.921875 
L 66.609375 0 
L 56 0 
L 46.6875 18.703125 
Q 43.0625 26.03125 39.671875 28.421875 
Q 36.28125 30.8125 30.421875 30.8125 
L 19.671875 30.8125 
L 19.671875 0 
L 9.8125 0 
L 9.8125 72.90625 
L 32.078125 72.90625 
Q 44.578125 72.90625 50.734375 67.671875 
Q 56.890625 62.453125 56.890625 51.90625 
Q 56.890625 45.015625 53.6875 40.46875 
Q 50.484375 35.9375 44.390625 34.1875 
z
M 19.671875 64.796875 
L 19.671875 38.921875 
L 32.078125 38.921875 
Q 39.203125 38.921875 42.84375 42.21875 
Q 46.484375 45.515625 46.484375 51.90625 
Q 46.484375 58.296875 42.84375 61.546875 
Q 39.203125 64.796875 32.078125 64.796875 
z
" id="DejaVuSans-52"/>
       <path d="M 19.671875 64.796875 
L 19.671875 37.40625 
L 32.078125 37.40625 
Q 38.96875 37.40625 42.71875 40.96875 
Q 46.484375 44.53125 46.484375 51.125 
Q 46.484375 57.671875 42.71875 61.234375 
Q 38.96875 64.796875 32.078125 64.796875 
z
M 9.8125 72.90625 
L 32.078125 72.90625 
Q 44.34375 72.90625 50.609375 67.359375 
Q 56.890625 61.8125 56.890625 51.125 
Q 56.890625 40.328125 50.609375 34.8125 
Q 44.34375 29.296875 32.078125 29.296875 
L 19.671875 29.296875 
L 19.671875 0 
L 9.8125 0 
z
" id="DejaVuSans-50"/>
       <path d="M 9.8125 72.90625 
L 19.671875 72.90625 
L 19.671875 42.09375 
L 52.390625 72.90625 
L 65.09375 72.90625 
L 28.90625 38.921875 
L 67.671875 0 
L 54.6875 0 
L 19.671875 35.109375 
L 19.671875 0 
L 9.8125 0 
z
" id="DejaVuSans-4b"/>
      </defs>
      <g transform="translate(121.265441 886.505)rotate(-90)scale(0.16 -0.16)">
       <use xlink:href="#DejaVuSans-4d"/>
       <use x="86.279297" xlink:href="#DejaVuSans-61"/>
       <use x="147.558594" xlink:href="#DejaVuSans-70"/>
       <use x="211.035156" xlink:href="#DejaVuSans-70"/>
       <use x="274.511719" xlink:href="#DejaVuSans-65"/>
       <use x="336.035156" xlink:href="#DejaVuSans-64"/>
       <use x="399.511719" xlink:href="#DejaVuSans-5f"/>
       <use x="449.511719" xlink:href="#DejaVuSans-64"/>
       <use x="512.988281" xlink:href="#DejaVuSans-61"/>
       <use x="574.267578" xlink:href="#DejaVuSans-74"/>
       <use x="613.476562" xlink:href="#DejaVuSans-61"/>
       <use x="674.755859" xlink:href="#DejaVuSans-2e"/>
       <use x="706.542969" xlink:href="#DejaVuSans-31"/>
       <use x="770.166016" xlink:href="#DejaVuSans-39"/>
       <use x="833.789062" xlink:href="#DejaVuSans-32"/>
       <use x="897.412109" xlink:href="#DejaVuSans-43"/>
       <use x="967.236328" xlink:href="#DejaVuSans-2e"/>
       <use x="999.023438" xlink:href="#DejaVuSans-53"/>
       <use x="1062.5" xlink:href="#DejaVuSans-31"/>
       <use x="1126.123047" xlink:href="#DejaVuSans-37"/>
       <use x="1189.746094" xlink:href="#DejaVuSans-2e"/>
       <use x="1221.533203" xlink:href="#DejaVuSans-45"/>
       <use x="1284.716797" xlink:href="#DejaVuSans-4c"/>
       <use x="1340.429688" xlink:href="#DejaVuSans-46"/>
       <use x="1397.949219" xlink:href="#DejaVuSans-33"/>
       <use x="1461.572266" xlink:href="#DejaVuSans-6d"/>
       <use x="1558.984375" xlink:href="#DejaVuSans-79"/>
       <use x="1618.164062" xlink:href="#DejaVuSans-63"/>
       <use x="1673.144531" xlink:href="#DejaVuSans-2d"/>
       <use x="1709.228516" xlink:href="#DejaVuSans-31"/>
       <use x="1772.851562" xlink:href="#DejaVuSans-37"/>
       <use x="1836.474609" xlink:href="#DejaVuSans-43"/>
       <use x="1906.298828" xlink:href="#DejaVuSans-2d"/>
       <use x="1942.382812" xlink:href="#DejaVuSans-5a"/>
       <use x="2010.888672" xlink:href="#DejaVuSans-54"/>
       <use x="2071.972656" xlink:href="#DejaVuSans-31"/>
       <use x="2135.595703" xlink:href="#DejaVuSans-30"/>
       <use x="2199.21875" xlink:href="#DejaVuSans-5f"/>
       <use x="2249.21875" xlink:href="#DejaVuSans-53"/>
       <use x="2312.695312" xlink:href="#DejaVuSans-31"/>
       <use x="2376.318359" xlink:href="#DejaVuSans-37"/>
       <use x="2439.941406" xlink:href="#DejaVuSans-5f"/>
       <use x="2489.941406" xlink:href="#DejaVuSans-41"/>
       <use x="2558.333984" xlink:href="#DejaVuSans-74"/>
       <use x="2597.542969" xlink:href="#DejaVuSans-68"/>
       <use x="2660.921875" xlink:href="#DejaVuSans-2d"/>
       <use x="2696.865234" xlink:href="#DejaVuSans-54"/>
       <use x="2757.839844" xlink:href="#DejaVuSans-41"/>
       <use x="2826.248047" xlink:href="#DejaVuSans-49"/>
       <use x="2855.740234" xlink:href="#DejaVuSans-52"/>
       <use x="2925.222656" xlink:href="#DejaVuSans-31"/>
       <use x="2988.845703" xlink:href="#DejaVuSans-30"/>
       <use x="3052.46875" xlink:href="#DejaVuSans-5f"/>
       <use x="3102.46875" xlink:href="#DejaVuSans-52"/>
       <use x="3171.951172" xlink:href="#DejaVuSans-50"/>
       <use x="3232.253906" xlink:href="#DejaVuSans-4b"/>
       <use x="3297.830078" xlink:href="#DejaVuSans-4d"/>
      </g>
     </g>
    </g>
    <g id="xtick_2">
     <g id="line2d_3">
      <path clip-path="url(#p02e504f4bf)" d="M 264.778824 338.04 
L 264.778824 5.4 
" style="fill:none;stroke:#b0b0b0;stroke-linecap:square;stroke-width:0.8;"/>
     </g>
     <g id="line2d_4">
      <g>
       <use style="stroke:#000000;stroke-width:0.8;" x="264.778824" xlink:href="#mad41711eff" y="338.04"/>
      </g>
     </g>
     <g id="text_2">
      <!-- Mapped_data.192C.S18.ELF3myc-27C-ZT10_S18_Ath-TAIR10_RPKM -->
      <defs>
       <path d="M 31.78125 34.625 
Q 24.75 34.625 20.71875 30.859375 
Q 16.703125 27.09375 16.703125 20.515625 
Q 16.703125 13.921875 20.71875 10.15625 
Q 24.75 6.390625 31.78125 6.390625 
Q 38.8125 6.390625 42.859375 10.171875 
Q 46.921875 13.96875 46.921875 20.515625 
Q 46.921875 27.09375 42.890625 30.859375 
Q 38.875 34.625 31.78125 34.625 
z
M 21.921875 38.8125 
Q 15.578125 40.375 12.03125 44.71875 
Q 8.5 49.078125 8.5 55.328125 
Q 8.5 64.0625 14.71875 69.140625 
Q 20.953125 74.21875 31.78125 74.21875 
Q 42.671875 74.21875 48.875 69.140625 
Q 55.078125 64.0625 55.078125 55.328125 
Q 55.078125 49.078125 51.53125 44.71875 
Q 48 40.375 41.703125 38.8125 
Q 48.828125 37.15625 52.796875 32.3125 
Q 56.78125 27.484375 56.78125 20.515625 
Q 56.78125 9.90625 50.3125 4.234375 
Q 43.84375 -1.421875 31.78125 -1.421875 
Q 19.734375 -1.421875 13.25 4.234375 
Q 6.78125 9.90625 6.78125 20.515625 
Q 6.78125 27.484375 10.78125 32.3125 
Q 14.796875 37.15625 21.921875 38.8125 
z
M 18.3125 54.390625 
Q 18.3125 48.734375 21.84375 45.5625 
Q 25.390625 42.390625 31.78125 42.390625 
Q 38.140625 42.390625 41.71875 45.5625 
Q 45.3125 48.734375 45.3125 54.390625 
Q 45.3125 60.0625 41.71875 63.234375 
Q 38.140625 66.40625 31.78125 66.40625 
Q 25.390625 66.40625 21.84375 63.234375 
Q 18.3125 60.0625 18.3125 54.390625 
z
" id="DejaVuSans-38"/>
      </defs>
      <g transform="translate(268.971324 886.505)rotate(-90)scale(0.16 -0.16)">
       <use xlink:href="#DejaVuSans-4d"/>
       <use x="86.279297" xlink:href="#DejaVuSans-61"/>
       <use x="147.558594" xlink:href="#DejaVuSans-70"/>
       <use x="211.035156" xlink:href="#DejaVuSans-70"/>
       <use x="274.511719" xlink:href="#DejaVuSans-65"/>
       <use x="336.035156" xlink:href="#DejaVuSans-64"/>
       <use x="399.511719" xlink:href="#DejaVuSans-5f"/>
       <use x="449.511719" xlink:href="#DejaVuSans-64"/>
       <use x="512.988281" xlink:href="#DejaVuSans-61"/>
       <use x="574.267578" xlink:href="#DejaVuSans-74"/>
       <use x="613.476562" xlink:href="#DejaVuSans-61"/>
       <use x="674.755859" xlink:href="#DejaVuSans-2e"/>
       <use x="706.542969" xlink:href="#DejaVuSans-31"/>
       <use x="770.166016" xlink:href="#DejaVuSans-39"/>
       <use x="833.789062" xlink:href="#DejaVuSans-32"/>
       <use x="897.412109" xlink:href="#DejaVuSans-43"/>
       <use x="967.236328" xlink:href="#DejaVuSans-2e"/>
       <use x="999.023438" xlink:href="#DejaVuSans-53"/>
       <use x="1062.5" xlink:href="#DejaVuSans-31"/>
       <use x="1126.123047" xlink:href="#DejaVuSans-38"/>
       <use x="1189.746094" xlink:href="#DejaVuSans-2e"/>
       <use x="1221.533203" xlink:href="#DejaVuSans-45"/>
       <use x="1284.716797" xlink:href="#DejaVuSans-4c"/>
       <use x="1340.429688" xlink:href="#DejaVuSans-46"/>
       <use x="1397.949219" xlink:href="#DejaVuSans-33"/>
       <use x="1461.572266" xlink:href="#DejaVuSans-6d"/>
       <use x="1558.984375" xlink:href="#DejaVuSans-79"/>
       <use x="1618.164062" xlink:href="#DejaVuSans-63"/>
       <use x="1673.144531" xlink:href="#DejaVuSans-2d"/>
       <use x="1709.228516" xlink:href="#DejaVuSans-32"/>
       <use x="1772.851562" xlink:href="#DejaVuSans-37"/>
       <use x="1836.474609" xlink:href="#DejaVuSans-43"/>
       <use x="1906.298828" xlink:href="#DejaVuSans-2d"/>
       <use x="1942.382812" xlink:href="#DejaVuSans-5a"/>
       <use x="2010.888672" xlink:href="#DejaVuSans-54"/>
       <use x="2071.972656" xlink:href="#DejaVuSans-31"/>
       <use x="2135.595703" xlink:href="#DejaVuSans-30"/>
       <use x="2199.21875" xlink:href="#DejaVuSans-5f"/>
       <use x="2249.21875" xlink:href="#DejaVuSans-53"/>
       <use x="2312.695312" xlink:href="#DejaVuSans-31"/>
       <use x="2376.318359" xlink:href="#DejaVuSans-38"/>
       <use x="2439.941406" xlink:href="#DejaVuSans-5f"/>
       <use x="2489.941406" xlink:href="#DejaVuSans-41"/>
       <use x="2558.333984" xlink:href="#DejaVuSans-74"/>
       <use x="2597.542969" xlink:href="#DejaVuSans-68"/>
       <use x="2660.921875" xlink:href="#DejaVuSans-2d"/>
       <use x="2696.865234" xlink:href="#DejaVuSans-54"/>
       <use x="2757.839844" xlink:href="#DejaVuSans-41"/>
       <use x="2826.248047" xlink:href="#DejaVuSans-49"/>
       <use x="2855.740234" xlink:href="#DejaVuSans-52"/>
       <use x="2925.222656" xlink:href="#DejaVuSans-31"/>
       <use x="2988.845703" xlink:href="#DejaVuSans-30"/>
       <use x="3052.46875" xlink:href="#DejaVuSans-5f"/>
       <use x="3102.46875" xlink:href="#DejaVuSans-52"/>
       <use x="3171.951172" xlink:href="#DejaVuSans-50"/>
       <use x="3232.253906" xlink:href="#DejaVuSans-4b"/>
       <use x="3297.830078" xlink:href="#DejaVuSans-4d"/>
      </g>
     </g>
    </g>
   </g>
   <g id="matplotlib.axis_2">
    <g id="ytick_1">
     <g id="line2d_5">
      <path clip-path="url(#p02e504f4bf)" d="M 43.22 338.04 
L 338.631765 338.04 
" style="fill:none;stroke:#b0b0b0;stroke-linecap:square;stroke-width:0.8;"/>
     </g>
     <g id="line2d_6">
      <defs>
       <path d="M 0 0 
L -3.5 0 
" id="mf96fc3ca96" style="stroke:#000000;stroke-width:0.8;"/>
      </defs>
      <g>
       <use style="stroke:#000000;stroke-width:0.8;" x="43.22" xlink:href="#mf96fc3ca96" y="338.04"/>
      </g>
     </g>
     <g id="text_3">
      <!-- 0 -->
      <g transform="translate(27.3125 343.358906)scale(0.14 -0.14)">
       <use xlink:href="#DejaVuSans-30"/>
      </g>
     </g>
    </g>
    <g id="ytick_2">
     <g id="line2d_7">
      <path clip-path="url(#p02e504f4bf)" d="M 43.22 282.6 
L 338.631765 282.6 
" style="fill:none;stroke:#b0b0b0;stroke-linecap:square;stroke-width:0.8;"/>
     </g>
     <g id="line2d_8">
      <g>
       <use style="stroke:#000000;stroke-width:0.8;" x="43.22" xlink:href="#mf96fc3ca96" y="282.6"/>
      </g>
     </g>
     <g id="text_4">
      <!-- 2 -->
      <g transform="translate(27.3125 287.918906)scale(0.14 -0.14)">
       <use xlink:href="#DejaVuSans-32"/>
      </g>
     </g>
    </g>
    <g id="ytick_3">
     <g id="line2d_9">
      <path clip-path="url(#p02e504f4bf)" d="M 43.22 227.16 
L 338.631765 227.16 
" style="fill:none;stroke:#b0b0b0;stroke-linecap:square;stroke-width:0.8;"/>
     </g>
     <g id="line2d_10">
      <g>
       <use style="stroke:#000000;stroke-width:0.8;" x="43.22" xlink:href="#mf96fc3ca96" y="227.16"/>
      </g>
     </g>
     <g id="text_5">
      <!-- 4 -->
      <defs>
       <path d="M 37.796875 64.3125 
L 12.890625 25.390625 
L 37.796875 25.390625 
z
M 35.203125 72.90625 
L 47.609375 72.90625 
L 47.609375 25.390625 
L 58.015625 25.390625 
L 58.015625 17.1875 
L 47.609375 17.1875 
L 47.609375 0 
L 37.796875 0 
L 37.796875 17.1875 
L 4.890625 17.1875 
L 4.890625 26.703125 
z
" id="DejaVuSans-34"/>
      </defs>
      <g transform="translate(27.3125 232.478906)scale(0.14 -0.14)">
       <use xlink:href="#DejaVuSans-34"/>
      </g>
     </g>
    </g>
    <g id="ytick_4">
     <g id="line2d_11">
      <path clip-path="url(#p02e504f4bf)" d="M 43.22 171.72 
L 338.631765 171.72 
" style="fill:none;stroke:#b0b0b0;stroke-linecap:square;stroke-width:0.8;"/>
     </g>
     <g id="line2d_12">
      <g>
       <use style="stroke:#000000;stroke-width:0.8;" x="43.22" xlink:href="#mf96fc3ca96" y="171.72"/>
      </g>
     </g>
     <g id="text_6">
      <!-- 6 -->
      <defs>
       <path d="M 33.015625 40.375 
Q 26.375 40.375 22.484375 35.828125 
Q 18.609375 31.296875 18.609375 23.390625 
Q 18.609375 15.53125 22.484375 10.953125 
Q 26.375 6.390625 33.015625 6.390625 
Q 39.65625 6.390625 43.53125 10.953125 
Q 47.40625 15.53125 47.40625 23.390625 
Q 47.40625 31.296875 43.53125 35.828125 
Q 39.65625 40.375 33.015625 40.375 
z
M 52.59375 71.296875 
L 52.59375 62.3125 
Q 48.875 64.0625 45.09375 64.984375 
Q 41.3125 65.921875 37.59375 65.921875 
Q 27.828125 65.921875 22.671875 59.328125 
Q 17.53125 52.734375 16.796875 39.40625 
Q 19.671875 43.65625 24.015625 45.921875 
Q 28.375 48.1875 33.59375 48.1875 
Q 44.578125 48.1875 50.953125 41.515625 
Q 57.328125 34.859375 57.328125 23.390625 
Q 57.328125 12.15625 50.6875 5.359375 
Q 44.046875 -1.421875 33.015625 -1.421875 
Q 20.359375 -1.421875 13.671875 8.265625 
Q 6.984375 17.96875 6.984375 36.375 
Q 6.984375 53.65625 15.1875 63.9375 
Q 23.390625 74.21875 37.203125 74.21875 
Q 40.921875 74.21875 44.703125 73.484375 
Q 48.484375 72.75 52.59375 71.296875 
z
" id="DejaVuSans-36"/>
      </defs>
      <g transform="translate(27.3125 177.038906)scale(0.14 -0.14)">
       <use xlink:href="#DejaVuSans-36"/>
      </g>
     </g>
    </g>
    <g id="ytick_5">
     <g id="line2d_13">
      <path clip-path="url(#p02e504f4bf)" d="M 43.22 116.28 
L 338.631765 116.28 
" style="fill:none;stroke:#b0b0b0;stroke-linecap:square;stroke-width:0.8;"/>
     </g>
     <g id="line2d_14">
      <g>
       <use style="stroke:#000000;stroke-width:0.8;" x="43.22" xlink:href="#mf96fc3ca96" y="116.28"/>
      </g>
     </g>
     <g id="text_7">
      <!-- 8 -->
      <g transform="translate(27.3125 121.598906)scale(0.14 -0.14)">
       <use xlink:href="#DejaVuSans-38"/>
      </g>
     </g>
    </g>
    <g id="ytick_6">
     <g id="line2d_15">
      <path clip-path="url(#p02e504f4bf)" d="M 43.22 60.84 
L 338.631765 60.84 
" style="fill:none;stroke:#b0b0b0;stroke-linecap:square;stroke-width:0.8;"/>
     </g>
     <g id="line2d_16">
      <g>
       <use style="stroke:#000000;stroke-width:0.8;" x="43.22" xlink:href="#mf96fc3ca96" y="60.84"/>
      </g>
     </g>
     <g id="text_8">
      <!-- 10 -->
      <g transform="translate(18.405 66.158906)scale(0.14 -0.14)">
       <use xlink:href="#DejaVuSans-31"/>
       <use x="63.623047" xlink:href="#DejaVuSans-30"/>
      </g>
     </g>
    </g>
    <g id="ytick_7">
     <g id="line2d_17">
      <path clip-path="url(#p02e504f4bf)" d="M 43.22 5.4 
L 338.631765 5.4 
" style="fill:none;stroke:#b0b0b0;stroke-linecap:square;stroke-width:0.8;"/>
     </g>
     <g id="line2d_18">
      <g>
       <use style="stroke:#000000;stroke-width:0.8;" x="43.22" xlink:href="#mf96fc3ca96" y="5.4"/>
      </g>
     </g>
     <g id="text_9">
      <!-- 12 -->
      <g transform="translate(18.405 10.718906)scale(0.14 -0.14)">
       <use xlink:href="#DejaVuSans-31"/>
       <use x="63.623047" xlink:href="#DejaVuSans-32"/>
      </g>
     </g>
    </g>
    <g id="text_10">
     <!-- log2( RPKM_at_peak ) -->
     <defs>
      <path d="M 9.421875 75.984375 
L 18.40625 75.984375 
L 18.40625 0 
L 9.421875 0 
z
" id="DejaVuSans-6c"/>
      <path d="M 30.609375 48.390625 
Q 23.390625 48.390625 19.1875 42.75 
Q 14.984375 37.109375 14.984375 27.296875 
Q 14.984375 17.484375 19.15625 11.84375 
Q 23.34375 6.203125 30.609375 6.203125 
Q 37.796875 6.203125 41.984375 11.859375 
Q 46.1875 17.53125 46.1875 27.296875 
Q 46.1875 37.015625 41.984375 42.703125 
Q 37.796875 48.390625 30.609375 48.390625 
z
M 30.609375 56 
Q 42.328125 56 49.015625 48.375 
Q 55.71875 40.765625 55.71875 27.296875 
Q 55.71875 13.875 49.015625 6.21875 
Q 42.328125 -1.421875 30.609375 -1.421875 
Q 18.84375 -1.421875 12.171875 6.21875 
Q 5.515625 13.875 5.515625 27.296875 
Q 5.515625 40.765625 12.171875 48.375 
Q 18.84375 56 30.609375 56 
z
" id="DejaVuSans-6f"/>
      <path d="M 45.40625 27.984375 
Q 45.40625 37.75 41.375 43.109375 
Q 37.359375 48.484375 30.078125 48.484375 
Q 22.859375 48.484375 18.828125 43.109375 
Q 14.796875 37.75 14.796875 27.984375 
Q 14.796875 18.265625 18.828125 12.890625 
Q 22.859375 7.515625 30.078125 7.515625 
Q 37.359375 7.515625 41.375 12.890625 
Q 45.40625 18.265625 45.40625 27.984375 
z
M 54.390625 6.78125 
Q 54.390625 -7.171875 48.1875 -13.984375 
Q 42 -20.796875 29.203125 -20.796875 
Q 24.46875 -20.796875 20.265625 -20.09375 
Q 16.0625 -19.390625 12.109375 -17.921875 
L 12.109375 -9.1875 
Q 16.0625 -11.328125 19.921875 -12.34375 
Q 23.78125 -13.375 27.78125 -13.375 
Q 36.625 -13.375 41.015625 -8.765625 
Q 45.40625 -4.15625 45.40625 5.171875 
L 45.40625 9.625 
Q 42.625 4.78125 38.28125 2.390625 
Q 33.9375 0 27.875 0 
Q 17.828125 0 11.671875 7.65625 
Q 5.515625 15.328125 5.515625 27.984375 
Q 5.515625 40.671875 11.671875 48.328125 
Q 17.828125 56 27.875 56 
Q 33.9375 56 38.28125 53.609375 
Q 42.625 51.21875 45.40625 46.390625 
L 45.40625 54.6875 
L 54.390625 54.6875 
z
" id="DejaVuSans-67"/>
      <path d="M 31 75.875 
Q 24.46875 64.65625 21.28125 53.65625 
Q 18.109375 42.671875 18.109375 31.390625 
Q 18.109375 20.125 21.3125 9.0625 
Q 24.515625 -2 31 -13.1875 
L 23.1875 -13.1875 
Q 15.875 -1.703125 12.234375 9.375 
Q 8.59375 20.453125 8.59375 31.390625 
Q 8.59375 42.28125 12.203125 53.3125 
Q 15.828125 64.359375 23.1875 75.875 
z
" id="DejaVuSans-28"/>
      <path id="DejaVuSans-20"/>
      <path d="M 9.078125 75.984375 
L 18.109375 75.984375 
L 18.109375 31.109375 
L 44.921875 54.6875 
L 56.390625 54.6875 
L 27.390625 29.109375 
L 57.625 0 
L 45.90625 0 
L 18.109375 26.703125 
L 18.109375 0 
L 9.078125 0 
z
" id="DejaVuSans-6b"/>
      <path d="M 8.015625 75.875 
L 15.828125 75.875 
Q 23.140625 64.359375 26.78125 53.3125 
Q 30.421875 42.28125 30.421875 31.390625 
Q 30.421875 20.453125 26.78125 9.375 
Q 23.140625 -1.703125 15.828125 -13.1875 
L 8.015625 -13.1875 
Q 14.5 -2 17.703125 9.0625 
Q 20.90625 20.125 20.90625 31.390625 
Q 20.90625 42.671875 17.703125 53.65625 
Q 14.5 64.65625 8.015625 75.875 
z
" id="DejaVuSans-29"/>
     </defs>
     <g transform="translate(11.104062 247.6)rotate(-90)scale(0.14 -0.14)">
      <use xlink:href="#DejaVuSans-6c"/>
      <use x="27.783203" xlink:href="#DejaVuSans-6f"/>
      <use x="88.964844" xlink:href="#DejaVuSans-67"/>
      <use x="152.441406" xlink:href="#DejaVuSans-32"/>
      <use x="216.064453" xlink:href="#DejaVuSans-28"/>
      <use x="255.078125" xlink:href="#DejaVuSans-20"/>
      <use x="286.865234" xlink:href="#DejaVuSans-52"/>
      <use x="356.347656" xlink:href="#DejaVuSans-50"/>
      <use x="416.650391" xlink:href="#DejaVuSans-4b"/>
      <use x="482.226562" xlink:href="#DejaVuSans-4d"/>
      <use x="568.505859" xlink:href="#DejaVuSans-5f"/>
      <use x="618.505859" xlink:href="#DejaVuSans-61"/>
      <use x="679.785156" xlink:href="#DejaVuSans-74"/>
      <use x="718.994141" xlink:href="#DejaVuSans-5f"/>
      <use x="768.994141" xlink:href="#DejaVuSans-70"/>
      <use x="832.470703" xlink:href="#DejaVuSans-65"/>
      <use x="893.994141" xlink:href="#DejaVuSans-61"/>
      <use x="955.273438" xlink:href="#DejaVuSans-6b"/>
      <use x="1013.183594" xlink:href="#DejaVuSans-20"/>
      <use x="1044.970703" xlink:href="#DejaVuSans-29"/>
     </g>
    </g>
   </g>
   <g id="line2d_19">
    <path clip-path="url(#p02e504f4bf)" d="M 105.995 114.218098 
L 128.150882 114.218098 
L 128.150882 80.444882 
L 105.995 80.444882 
L 105.995 114.218098 
" style="fill:none;stroke:#1f77b4;stroke-linecap:square;"/>
   </g>
   <g id="line2d_20">
    <path clip-path="url(#p02e504f4bf)" d="M 117.072941 114.218098 
L 117.072941 143.233438 
" style="fill:none;stroke:#1f77b4;stroke-linecap:square;"/>
   </g>
   <g id="line2d_21">
    <path clip-path="url(#p02e504f4bf)" d="M 117.072941 80.444882 
L 117.072941 34.698556 
" style="fill:none;stroke:#1f77b4;stroke-linecap:square;"/>
   </g>
   <g id="line2d_22">
    <path clip-path="url(#p02e504f4bf)" d="M 111.533971 143.233438 
L 122.611912 143.233438 
" style="fill:none;stroke:#000000;stroke-linecap:square;"/>
   </g>
   <g id="line2d_23">
    <path clip-path="url(#p02e504f4bf)" d="M 111.533971 34.698556 
L 122.611912 34.698556 
" style="fill:none;stroke:#000000;stroke-linecap:square;"/>
   </g>
   <g id="line2d_24">
    <defs>
     <path d="M 0 3 
C 0.795609 3 1.55874 2.683901 2.12132 2.12132 
C 2.683901 1.55874 3 0.795609 3 0 
C 3 -0.795609 2.683901 -1.55874 2.12132 -2.12132 
C 1.55874 -2.683901 0.795609 -3 0 -3 
C -0.795609 -3 -1.55874 -2.683901 -2.12132 -2.12132 
C -2.683901 -1.55874 -3 -0.795609 -3 0 
C -3 0.795609 -2.683901 1.55874 -2.12132 2.12132 
C -1.55874 2.683901 -0.795609 3 0 3 
z
" id="mc182f7691f" style="stroke:#000000;"/>
    </defs>
    <g clip-path="url(#p02e504f4bf)">
     <use style="fill-opacity:0;stroke:#000000;" x="117.072941" xlink:href="#mc182f7691f" y="27.497381"/>
    </g>
   </g>
   <g id="line2d_25">
    <path clip-path="url(#p02e504f4bf)" d="M 253.700882 159.964524 
L 275.856765 159.964524 
L 275.856765 127.392569 
L 253.700882 127.392569 
L 253.700882 159.964524 
" style="fill:none;stroke:#1f77b4;stroke-linecap:square;"/>
   </g>
   <g id="line2d_26">
    <path clip-path="url(#p02e504f4bf)" d="M 264.778824 159.964524 
L 264.778824 201.957651 
" style="fill:none;stroke:#1f77b4;stroke-linecap:square;"/>
   </g>
   <g id="line2d_27">
    <path clip-path="url(#p02e504f4bf)" d="M 264.778824 127.392569 
L 264.778824 80.43525 
" style="fill:none;stroke:#1f77b4;stroke-linecap:square;"/>
   </g>
   <g id="line2d_28">
    <path clip-path="url(#p02e504f4bf)" d="M 259.239853 201.957651 
L 270.317794 201.957651 
" style="fill:none;stroke:#000000;stroke-linecap:square;"/>
   </g>
   <g id="line2d_29">
    <path clip-path="url(#p02e504f4bf)" d="M 259.239853 80.43525 
L 270.317794 80.43525 
" style="fill:none;stroke:#000000;stroke-linecap:square;"/>
   </g>
   <g id="line2d_30">
    <g clip-path="url(#p02e504f4bf)">
     <use style="fill-opacity:0;stroke:#000000;" x="264.778824" xlink:href="#mc182f7691f" y="228.368367"/>
     <use style="fill-opacity:0;stroke:#000000;" x="264.778824" xlink:href="#mc182f7691f" y="213.021275"/>
     <use style="fill-opacity:0;stroke:#000000;" x="264.778824" xlink:href="#mc182f7691f" y="55.442084"/>
     <use style="fill-opacity:0;stroke:#000000;" x="264.778824" xlink:href="#mc182f7691f" y="64.824568"/>
     <use style="fill-opacity:0;stroke:#000000;" x="264.778824" xlink:href="#mc182f7691f" y="71.362412"/>
     <use style="fill-opacity:0;stroke:#000000;" x="264.778824" xlink:href="#mc182f7691f" y="63.895492"/>
     <use style="fill-opacity:0;stroke:#000000;" x="264.778824" xlink:href="#mc182f7691f" y="70.812743"/>
    </g>
   </g>
   <g id="line2d_31">
    <path clip-path="url(#p02e504f4bf)" d="M 105.995 99.257757 
L 128.150882 99.257757 
" style="fill:none;stroke:#2ca02c;stroke-linecap:square;"/>
   </g>
   <g id="line2d_32">
    <path clip-path="url(#p02e504f4bf)" d="M 253.700882 144.259424 
L 275.856765 144.259424 
" style="fill:none;stroke:#2ca02c;stroke-linecap:square;"/>
   </g>
   <g id="patch_3">
    <path d="M 43.22 338.04 
L 43.22 5.4 
" style="fill:none;stroke:#000000;stroke-linecap:square;stroke-linejoin:miter;stroke-width:0.8;"/>
   </g>
   <g id="patch_4">
    <path d="M 338.631765 338.04 
L 338.631765 5.4 
" style="fill:none;stroke:#000000;stroke-linecap:square;stroke-linejoin:miter;stroke-width:0.8;"/>
   </g>
   <g id="patch_5">
    <path d="M 43.22 338.04 
L 338.631765 338.04 
" style="fill:none;stroke:#000000;stroke-linecap:square;stroke-linejoin:miter;stroke-width:0.8;"/>
   </g>
   <g id="patch_6">
    <path d="M 43.22 5.4 
L 338.631765 5.4 
" style="fill:none;stroke:#000000;stroke-linecap:square;stroke-linejoin:miter;stroke-width:0.8;"/>
   </g>
  </g>
  <g id="axes_2">
   <g id="patch_7">
    <path d="M 397.714118 338.04 
L 693.125882 338.04 
L 693.125882 5.4 
L 397.714118 5.4 
z
" style="fill:#ffffff;"/>
   </g>
   <g id="PolyCollection_1">
    <defs>
     <path d="M 411.141925 -605.919627 
L 411.141925 -599.002158 
L 413.854614 -600.929354 
L 416.567302 -601.982362 
L 419.27999 -602.512971 
L 421.992679 -604.109377 
L 424.705367 -605.053309 
L 427.418055 -606.124499 
L 430.130744 -606.486965 
L 432.843432 -606.456568 
L 435.556121 -607.331231 
L 438.268809 -608.859283 
L 440.981497 -609.725377 
L 443.694186 -611.147886 
L 446.406874 -612.649629 
L 449.119562 -614.321842 
L 451.832251 -616.445842 
L 454.544939 -619.519624 
L 457.257628 -620.916015 
L 459.970316 -622.799665 
L 462.683004 -625.485181 
L 465.395693 -627.520921 
L 468.108381 -629.968205 
L 470.82107 -633.916089 
L 473.533758 -637.369387 
L 476.246446 -640.879447 
L 478.959135 -643.695036 
L 481.671823 -649.44061 
L 484.384511 -652.867233 
L 487.0972 -654.467603 
L 489.809888 -656.850107 
L 492.522577 -660.747552 
L 495.235265 -667.526623 
L 497.947953 -674.077419 
L 500.660642 -680.879667 
L 503.37333 -688.665241 
L 506.086018 -695.003842 
L 508.798707 -703.475134 
L 511.511395 -711.937937 
L 514.224084 -719.270091 
L 516.936772 -723.122075 
L 519.64946 -725.561706 
L 522.362149 -727.966933 
L 525.074837 -730.211002 
L 527.787526 -738.689957 
L 530.500214 -745.220356 
L 533.212902 -748.896599 
L 535.925591 -754.04181 
L 538.638279 -758.931712 
L 541.350967 -762.096379 
L 544.063656 -766.779171 
L 546.776344 -770.591276 
L 549.489033 -766.11875 
L 552.201721 -760.490104 
L 554.914409 -757.28608 
L 557.627098 -753.651937 
L 560.339786 -746.552071 
L 563.052474 -743.079087 
L 565.765163 -738.771107 
L 568.477851 -731.163796 
L 571.19054 -726.639035 
L 573.903228 -726.007394 
L 576.615916 -723.573167 
L 579.328605 -722.149082 
L 582.041293 -714.55984 
L 584.753982 -706.343874 
L 587.46667 -697.940687 
L 590.179358 -692.448555 
L 592.892047 -688.213734 
L 595.604735 -681.556293 
L 598.317423 -672.314633 
L 601.030112 -663.134921 
L 603.7428 -658.606422 
L 606.455489 -655.894021 
L 609.168177 -652.930358 
L 611.880865 -649.35744 
L 614.593554 -645.588317 
L 617.306242 -641.801416 
L 620.01893 -639.522071 
L 622.731619 -636.677853 
L 625.444307 -632.773932 
L 628.156996 -630.340776 
L 630.869684 -627.499481 
L 633.582372 -625.127649 
L 636.295061 -621.316906 
L 639.007749 -619.161605 
L 641.720438 -615.85628 
L 644.433126 -614.211244 
L 647.145814 -613.023904 
L 649.858503 -610.382791 
L 652.571191 -610.066346 
L 655.283879 -607.468264 
L 657.996568 -607.164296 
L 660.709256 -606.528058 
L 663.421945 -605.393892 
L 666.134633 -605.404249 
L 668.847321 -603.327008 
L 671.56001 -602.22912 
L 674.272698 -601.256308 
L 676.985386 -600.098108 
L 679.698075 -599.757086 
L 679.698075 -606.363257 
L 679.698075 -606.363257 
L 676.985386 -606.561573 
L 674.272698 -607.50084 
L 671.56001 -608.32586 
L 668.847321 -609.385363 
L 666.134633 -611.622894 
L 663.421945 -611.932894 
L 660.709256 -613.25573 
L 657.996568 -614.237556 
L 655.283879 -614.832505 
L 652.571191 -617.867595 
L 649.858503 -618.150415 
L 647.145814 -621.142504 
L 644.433126 -622.532022 
L 641.720438 -624.602471 
L 639.007749 -628.068952 
L 636.295061 -630.528082 
L 633.582372 -634.328098 
L 630.869684 -637.289836 
L 628.156996 -640.441239 
L 625.444307 -643.101951 
L 622.731619 -647.22825 
L 620.01893 -650.017228 
L 617.306242 -652.711854 
L 614.593554 -656.835393 
L 611.880865 -661.096524 
L 609.168177 -665.194353 
L 606.455489 -668.52305 
L 603.7428 -671.743427 
L 601.030112 -676.86327 
L 598.317423 -686.86028 
L 595.604735 -696.975235 
L 592.892047 -704.280867 
L 590.179358 -709.095135 
L 587.46667 -715.109046 
L 584.753982 -724.204599 
L 582.041293 -733.008056 
L 579.328605 -740.880113 
L 576.615916 -742.931841 
L 573.903228 -745.891058 
L 571.19054 -747.296883 
L 568.477851 -752.360534 
L 565.765163 -760.514267 
L 563.052474 -765.315123 
L 560.339786 -769.273196 
L 557.627098 -776.915544 
L 554.914409 -780.892127 
L 552.201721 -784.459891 
L 549.489033 -790.337398 
L 546.776344 -794.973712 
L 544.063656 -791.175126 
L 541.350967 -786.449248 
L 538.638279 -783.261618 
L 535.925591 -777.96397 
L 533.212902 -772.50202 
L 530.500214 -768.507444 
L 527.787526 -761.254572 
L 525.074837 -752.11483 
L 522.362149 -749.205202 
L 519.64946 -746.157022 
L 516.936772 -742.903438 
L 514.224084 -738.245752 
L 511.511395 -730.296412 
L 508.798707 -720.900872 
L 506.086018 -711.873313 
L 503.37333 -704.788214 
L 500.660642 -696.513242 
L 497.947953 -689.112749 
L 495.235265 -682.120004 
L 492.522577 -674.875958 
L 489.809888 -670.803063 
L 487.0972 -667.851981 
L 484.384511 -665.916647 
L 481.671823 -662.092083 
L 478.959135 -655.852171 
L 476.246446 -652.555152 
L 473.533758 -648.634223 
L 470.82107 -644.716452 
L 468.108381 -640.274498 
L 465.395693 -637.627942 
L 462.683004 -635.468754 
L 459.970316 -632.281396 
L 457.257628 -630.149905 
L 454.544939 -628.489978 
L 451.832251 -625.151542 
L 449.119562 -622.721064 
L 446.406874 -620.857551 
L 443.694186 -619.063304 
L 440.981497 -617.129879 
L 438.268809 -615.958429 
L 435.556121 -614.250404 
L 432.843432 -613.087519 
L 430.130744 -612.757504 
L 427.418055 -612.221052 
L 424.705367 -611.015 
L 421.992679 -610.161122 
L 419.27999 -608.880988 
L 416.567302 -608.392819 
L 413.854614 -607.648023 
L 411.141925 -605.919627 
z
" id="ma446309edb" style="stroke:#e41a1c;stroke-opacity:0.5;"/>
    </defs>
    <g clip-path="url(#pfa6cd4d434)">
     <use style="fill:#e41a1c;fill-opacity:0.5;stroke:#e41a1c;stroke-opacity:0.5;" x="0" xlink:href="#ma446309edb" y="886.53625"/>
    </g>
   </g>
   <g id="PolyCollection_2">
    <defs>
     <path d="M 411.141925 -586.071866 
L 411.141925 -582.31814 
L 413.854614 -582.374095 
L 416.567302 -582.797606 
L 419.27999 -582.80021 
L 421.992679 -583.137865 
L 424.705367 -583.893808 
L 427.418055 -584.014182 
L 430.130744 -584.339608 
L 432.843432 -584.553931 
L 435.556121 -584.339737 
L 438.268809 -584.759127 
L 440.981497 -584.88185 
L 443.694186 -585.309304 
L 446.406874 -585.007583 
L 449.119562 -584.079929 
L 451.832251 -583.870263 
L 454.544939 -584.491317 
L 457.257628 -583.887739 
L 459.970316 -584.322128 
L 462.683004 -584.792538 
L 465.395693 -584.977099 
L 468.108381 -585.355626 
L 470.82107 -586.165118 
L 473.533758 -587.632014 
L 476.246446 -587.951325 
L 478.959135 -588.673961 
L 481.671823 -589.092177 
L 484.384511 -589.377393 
L 487.0972 -590.437679 
L 489.809888 -591.192909 
L 492.522577 -591.91532 
L 495.235265 -592.927169 
L 497.947953 -594.509268 
L 500.660642 -595.776052 
L 503.37333 -596.928255 
L 506.086018 -598.971154 
L 508.798707 -602.216521 
L 511.511395 -603.697919 
L 514.224084 -605.089389 
L 516.936772 -606.45218 
L 519.64946 -608.946499 
L 522.362149 -610.115575 
L 525.074837 -612.249669 
L 527.787526 -615.525068 
L 530.500214 -616.188472 
L 533.212902 -617.279689 
L 535.925591 -618.039659 
L 538.638279 -618.571016 
L 541.350967 -618.070433 
L 544.063656 -618.168818 
L 546.776344 -617.619278 
L 549.489033 -616.433119 
L 552.201721 -615.355707 
L 554.914409 -615.190671 
L 557.627098 -614.63989 
L 560.339786 -613.656192 
L 563.052474 -612.335071 
L 565.765163 -611.491068 
L 568.477851 -610.069775 
L 571.19054 -608.989388 
L 573.903228 -607.980185 
L 576.615916 -606.631856 
L 579.328605 -605.062557 
L 582.041293 -602.684208 
L 584.753982 -601.844758 
L 587.46667 -600.535957 
L 590.179358 -600.170615 
L 592.892047 -598.860065 
L 595.604735 -597.409486 
L 598.317423 -595.593631 
L 601.030112 -593.759415 
L 603.7428 -592.765789 
L 606.455489 -591.144563 
L 609.168177 -590.158755 
L 611.880865 -589.29548 
L 614.593554 -588.031021 
L 617.306242 -587.949342 
L 620.01893 -586.168368 
L 622.731619 -586.08439 
L 625.444307 -586.152012 
L 628.156996 -585.972386 
L 630.869684 -585.767758 
L 633.582372 -584.613912 
L 636.295061 -584.764383 
L 639.007749 -584.719428 
L 641.720438 -584.661134 
L 644.433126 -584.747787 
L 647.145814 -584.189195 
L 649.858503 -583.924148 
L 652.571191 -583.909834 
L 655.283879 -583.057302 
L 657.996568 -582.810017 
L 660.709256 -582.615177 
L 663.421945 -582.876002 
L 666.134633 -582.53226 
L 668.847321 -583.249986 
L 671.56001 -583.189973 
L 674.272698 -582.892219 
L 676.985386 -583.470654 
L 679.698075 -584.542544 
L 679.698075 -588.067322 
L 679.698075 -588.067322 
L 676.985386 -586.757051 
L 674.272698 -586.110343 
L 671.56001 -586.357078 
L 668.847321 -586.365148 
L 666.134633 -585.585509 
L 663.421945 -586.058514 
L 660.709256 -585.910958 
L 657.996568 -586.260627 
L 655.283879 -586.625906 
L 652.571191 -587.474941 
L 649.858503 -587.460604 
L 647.145814 -587.740056 
L 644.433126 -588.338533 
L 641.720438 -588.084868 
L 639.007749 -588.162699 
L 636.295061 -588.321921 
L 633.582372 -588.336276 
L 630.869684 -589.632676 
L 628.156996 -589.904497 
L 625.444307 -589.929043 
L 622.731619 -589.996662 
L 620.01893 -590.116867 
L 617.306242 -591.875131 
L 614.593554 -591.997655 
L 611.880865 -593.183463 
L 609.168177 -594.29398 
L 606.455489 -595.554242 
L 603.7428 -597.540328 
L 601.030112 -598.860818 
L 598.317423 -601.11034 
L 595.604735 -603.446305 
L 592.892047 -605.330787 
L 590.179358 -606.946936 
L 587.46667 -607.534458 
L 584.753982 -609.016219 
L 582.041293 -610.082521 
L 579.328605 -613.081122 
L 576.615916 -614.846856 
L 573.903228 -616.629407 
L 571.19054 -617.594017 
L 568.477851 -618.691592 
L 565.765163 -620.333141 
L 563.052474 -621.462922 
L 560.339786 -622.864311 
L 557.627098 -624.05861 
L 554.914409 -624.801039 
L 552.201721 -624.976297 
L 549.489033 -626.485241 
L 546.776344 -627.817406 
L 544.063656 -628.424948 
L 541.350967 -628.319124 
L 538.638279 -628.703359 
L 535.925591 -628.41795 
L 533.212902 -627.204116 
L 530.500214 -625.845093 
L 527.787526 -625.011129 
L 525.074837 -621.344148 
L 522.362149 -618.781935 
L 519.64946 -617.364666 
L 516.936772 -614.209786 
L 514.224084 -612.441697 
L 511.511395 -610.906473 
L 508.798707 -609.1209 
L 506.086018 -605.7642 
L 503.37333 -603.383038 
L 500.660642 -602.08499 
L 497.947953 -600.493144 
L 495.235265 -598.876332 
L 492.522577 -597.574046 
L 489.809888 -596.731016 
L 487.0972 -595.716614 
L 484.384511 -594.666987 
L 481.671823 -593.999312 
L 478.959135 -593.396583 
L 476.246446 -592.62186 
L 473.533758 -591.988322 
L 470.82107 -590.256239 
L 468.108381 -589.296116 
L 465.395693 -588.653719 
L 462.683004 -588.225704 
L 459.970316 -587.743235 
L 457.257628 -587.42895 
L 454.544939 -587.982419 
L 451.832251 -587.446411 
L 449.119562 -587.645115 
L 446.406874 -588.487114 
L 443.694186 -588.729887 
L 440.981497 -588.408651 
L 438.268809 -588.259136 
L 435.556121 -587.793689 
L 432.843432 -587.715621 
L 430.130744 -587.589641 
L 427.418055 -587.438623 
L 424.705367 -587.558994 
L 421.992679 -586.749522 
L 419.27999 -586.270418 
L 416.567302 -586.477226 
L 413.854614 -586.288163 
L 411.141925 -586.071866 
z
" id="m317d707435" style="stroke:#377eb8;stroke-opacity:0.5;"/>
    </defs>
    <g clip-path="url(#pfa6cd4d434)">
     <use style="fill:#377eb8;fill-opacity:0.5;stroke:#377eb8;stroke-opacity:0.5;" x="0" xlink:href="#m317d707435" y="886.53625"/>
    </g>
   </g>
   <g id="matplotlib.axis_3">
    <g id="xtick_3">
     <g id="line2d_33">
      <path clip-path="url(#pfa6cd4d434)" d="M 411.141925 338.04 
L 411.141925 5.4 
" style="fill:none;stroke:#b0b0b0;stroke-linecap:square;stroke-width:0.8;"/>
     </g>
     <g id="line2d_34">
      <g>
       <use style="stroke:#000000;stroke-width:0.8;" x="411.141925" xlink:href="#mad41711eff" y="338.04"/>
      </g>
     </g>
     <g id="text_11">
      <!-- -500 -->
      <defs>
       <path d="M 10.796875 72.90625 
L 49.515625 72.90625 
L 49.515625 64.59375 
L 19.828125 64.59375 
L 19.828125 46.734375 
Q 21.96875 47.46875 24.109375 47.828125 
Q 26.265625 48.1875 28.421875 48.1875 
Q 40.625 48.1875 47.75 41.5 
Q 54.890625 34.8125 54.890625 23.390625 
Q 54.890625 11.625 47.5625 5.09375 
Q 40.234375 -1.421875 26.90625 -1.421875 
Q 22.3125 -1.421875 17.546875 -0.640625 
Q 12.796875 0.140625 7.71875 1.703125 
L 7.71875 11.625 
Q 12.109375 9.234375 16.796875 8.0625 
Q 21.484375 6.890625 26.703125 6.890625 
Q 35.15625 6.890625 40.078125 11.328125 
Q 45.015625 15.765625 45.015625 23.390625 
Q 45.015625 31 40.078125 35.4375 
Q 35.15625 39.890625 26.703125 39.890625 
Q 22.75 39.890625 18.8125 39.015625 
Q 14.890625 38.140625 10.796875 36.28125 
z
" id="DejaVuSans-35"/>
      </defs>
      <g transform="translate(415.556925 381.3525)rotate(-90)scale(0.16 -0.16)">
       <use xlink:href="#DejaVuSans-2d"/>
       <use x="36.083984" xlink:href="#DejaVuSans-35"/>
       <use x="99.707031" xlink:href="#DejaVuSans-30"/>
       <use x="163.330078" xlink:href="#DejaVuSans-30"/>
      </g>
     </g>
    </g>
    <g id="xtick_4">
     <g id="line2d_35">
      <path clip-path="url(#pfa6cd4d434)" d="M 465.395693 338.04 
L 465.395693 5.4 
" style="fill:none;stroke:#b0b0b0;stroke-linecap:square;stroke-width:0.8;"/>
     </g>
     <g id="line2d_36">
      <g>
       <use style="stroke:#000000;stroke-width:0.8;" x="465.395693" xlink:href="#mad41711eff" y="338.04"/>
      </g>
     </g>
     <g id="text_12">
      <!-- -300 -->
      <g transform="translate(469.810693 381.3525)rotate(-90)scale(0.16 -0.16)">
       <use xlink:href="#DejaVuSans-2d"/>
       <use x="36.083984" xlink:href="#DejaVuSans-33"/>
       <use x="99.707031" xlink:href="#DejaVuSans-30"/>
       <use x="163.330078" xlink:href="#DejaVuSans-30"/>
      </g>
     </g>
    </g>
    <g id="xtick_5">
     <g id="line2d_37">
      <path clip-path="url(#pfa6cd4d434)" d="M 519.64946 338.04 
L 519.64946 5.4 
" style="fill:none;stroke:#b0b0b0;stroke-linecap:square;stroke-width:0.8;"/>
     </g>
     <g id="line2d_38">
      <g>
       <use style="stroke:#000000;stroke-width:0.8;" x="519.64946" xlink:href="#mad41711eff" y="338.04"/>
      </g>
     </g>
     <g id="text_13">
      <!-- -100 -->
      <g transform="translate(524.06446 381.3525)rotate(-90)scale(0.16 -0.16)">
       <use xlink:href="#DejaVuSans-2d"/>
       <use x="36.083984" xlink:href="#DejaVuSans-31"/>
       <use x="99.707031" xlink:href="#DejaVuSans-30"/>
       <use x="163.330078" xlink:href="#DejaVuSans-30"/>
      </g>
     </g>
    </g>
    <g id="xtick_6">
     <g id="line2d_39">
      <path clip-path="url(#pfa6cd4d434)" d="M 573.903228 338.04 
L 573.903228 5.4 
" style="fill:none;stroke:#b0b0b0;stroke-linecap:square;stroke-width:0.8;"/>
     </g>
     <g id="line2d_40">
      <g>
       <use style="stroke:#000000;stroke-width:0.8;" x="573.903228" xlink:href="#mad41711eff" y="338.04"/>
      </g>
     </g>
     <g id="text_14">
      <!-- 100 -->
      <g transform="translate(578.318228 375.58)rotate(-90)scale(0.16 -0.16)">
       <use xlink:href="#DejaVuSans-31"/>
       <use x="63.623047" xlink:href="#DejaVuSans-30"/>
       <use x="127.246094" xlink:href="#DejaVuSans-30"/>
      </g>
     </g>
    </g>
    <g id="xtick_7">
     <g id="line2d_41">
      <path clip-path="url(#pfa6cd4d434)" d="M 628.156996 338.04 
L 628.156996 5.4 
" style="fill:none;stroke:#b0b0b0;stroke-linecap:square;stroke-width:0.8;"/>
     </g>
     <g id="line2d_42">
      <g>
       <use style="stroke:#000000;stroke-width:0.8;" x="628.156996" xlink:href="#mad41711eff" y="338.04"/>
      </g>
     </g>
     <g id="text_15">
      <!-- 300 -->
      <g transform="translate(632.571996 375.58)rotate(-90)scale(0.16 -0.16)">
       <use xlink:href="#DejaVuSans-33"/>
       <use x="63.623047" xlink:href="#DejaVuSans-30"/>
       <use x="127.246094" xlink:href="#DejaVuSans-30"/>
      </g>
     </g>
    </g>
    <g id="text_16">
     <!-- distance to peak(bp) -->
     <defs>
      <path d="M 9.421875 54.6875 
L 18.40625 54.6875 
L 18.40625 0 
L 9.421875 0 
z
M 9.421875 75.984375 
L 18.40625 75.984375 
L 18.40625 64.59375 
L 9.421875 64.59375 
z
" id="DejaVuSans-69"/>
      <path d="M 44.28125 53.078125 
L 44.28125 44.578125 
Q 40.484375 46.53125 36.375 47.5 
Q 32.28125 48.484375 27.875 48.484375 
Q 21.1875 48.484375 17.84375 46.4375 
Q 14.5 44.390625 14.5 40.28125 
Q 14.5 37.15625 16.890625 35.375 
Q 19.28125 33.59375 26.515625 31.984375 
L 29.59375 31.296875 
Q 39.15625 29.25 43.1875 25.515625 
Q 47.21875 21.78125 47.21875 15.09375 
Q 47.21875 7.46875 41.1875 3.015625 
Q 35.15625 -1.421875 24.609375 -1.421875 
Q 20.21875 -1.421875 15.453125 -0.5625 
Q 10.6875 0.296875 5.421875 2 
L 5.421875 11.28125 
Q 10.40625 8.6875 15.234375 7.390625 
Q 20.0625 6.109375 24.8125 6.109375 
Q 31.15625 6.109375 34.5625 8.28125 
Q 37.984375 10.453125 37.984375 14.40625 
Q 37.984375 18.0625 35.515625 20.015625 
Q 33.0625 21.96875 24.703125 23.78125 
L 21.578125 24.515625 
Q 13.234375 26.265625 9.515625 29.90625 
Q 5.8125 33.546875 5.8125 39.890625 
Q 5.8125 47.609375 11.28125 51.796875 
Q 16.75 56 26.8125 56 
Q 31.78125 56 36.171875 55.265625 
Q 40.578125 54.546875 44.28125 53.078125 
z
" id="DejaVuSans-73"/>
      <path d="M 54.890625 33.015625 
L 54.890625 0 
L 45.90625 0 
L 45.90625 32.71875 
Q 45.90625 40.484375 42.875 44.328125 
Q 39.84375 48.1875 33.796875 48.1875 
Q 26.515625 48.1875 22.3125 43.546875 
Q 18.109375 38.921875 18.109375 30.90625 
L 18.109375 0 
L 9.078125 0 
L 9.078125 54.6875 
L 18.109375 54.6875 
L 18.109375 46.1875 
Q 21.34375 51.125 25.703125 53.5625 
Q 30.078125 56 35.796875 56 
Q 45.21875 56 50.046875 50.171875 
Q 54.890625 44.34375 54.890625 33.015625 
z
" id="DejaVuSans-6e"/>
      <path d="M 48.6875 27.296875 
Q 48.6875 37.203125 44.609375 42.84375 
Q 40.53125 48.484375 33.40625 48.484375 
Q 26.265625 48.484375 22.1875 42.84375 
Q 18.109375 37.203125 18.109375 27.296875 
Q 18.109375 17.390625 22.1875 11.75 
Q 26.265625 6.109375 33.40625 6.109375 
Q 40.53125 6.109375 44.609375 11.75 
Q 48.6875 17.390625 48.6875 27.296875 
z
M 18.109375 46.390625 
Q 20.953125 51.265625 25.265625 53.625 
Q 29.59375 56 35.59375 56 
Q 45.5625 56 51.78125 48.09375 
Q 58.015625 40.1875 58.015625 27.296875 
Q 58.015625 14.40625 51.78125 6.484375 
Q 45.5625 -1.421875 35.59375 -1.421875 
Q 29.59375 -1.421875 25.265625 0.953125 
Q 20.953125 3.328125 18.109375 8.203125 
L 18.109375 0 
L 9.078125 0 
L 9.078125 75.984375 
L 18.109375 75.984375 
z
" id="DejaVuSans-62"/>
     </defs>
     <g transform="translate(472.837656 395.990313)scale(0.14 -0.14)">
      <use xlink:href="#DejaVuSans-64"/>
      <use x="63.476562" xlink:href="#DejaVuSans-69"/>
      <use x="91.259766" xlink:href="#DejaVuSans-73"/>
      <use x="143.359375" xlink:href="#DejaVuSans-74"/>
      <use x="182.568359" xlink:href="#DejaVuSans-61"/>
      <use x="243.847656" xlink:href="#DejaVuSans-6e"/>
      <use x="307.226562" xlink:href="#DejaVuSans-63"/>
      <use x="362.207031" xlink:href="#DejaVuSans-65"/>
      <use x="423.730469" xlink:href="#DejaVuSans-20"/>
      <use x="455.517578" xlink:href="#DejaVuSans-74"/>
      <use x="494.726562" xlink:href="#DejaVuSans-6f"/>
      <use x="555.908203" xlink:href="#DejaVuSans-20"/>
      <use x="587.695312" xlink:href="#DejaVuSans-70"/>
      <use x="651.171875" xlink:href="#DejaVuSans-65"/>
      <use x="712.695312" xlink:href="#DejaVuSans-61"/>
      <use x="773.974609" xlink:href="#DejaVuSans-6b"/>
      <use x="831.884766" xlink:href="#DejaVuSans-28"/>
      <use x="870.898438" xlink:href="#DejaVuSans-62"/>
      <use x="934.375" xlink:href="#DejaVuSans-70"/>
      <use x="997.851562" xlink:href="#DejaVuSans-29"/>
     </g>
    </g>
   </g>
   <g id="matplotlib.axis_4">
    <g id="ytick_8">
     <g id="line2d_43">
      <path clip-path="url(#pfa6cd4d434)" d="M 397.714118 338.04 
L 693.125882 338.04 
" style="fill:none;stroke:#b0b0b0;stroke-linecap:square;stroke-width:0.8;"/>
     </g>
     <g id="line2d_44">
      <g>
       <use style="stroke:#000000;stroke-width:0.8;" x="397.714118" xlink:href="#mf96fc3ca96" y="338.04"/>
      </g>
     </g>
     <g id="text_17">
      <!-- 0 -->
      <g transform="translate(381.806618 343.358906)scale(0.14 -0.14)">
       <use xlink:href="#DejaVuSans-30"/>
      </g>
     </g>
    </g>
    <g id="ytick_9">
     <g id="line2d_45">
      <path clip-path="url(#pfa6cd4d434)" d="M 397.714118 296.46 
L 693.125882 296.46 
" style="fill:none;stroke:#b0b0b0;stroke-linecap:square;stroke-width:0.8;"/>
     </g>
     <g id="line2d_46">
      <g>
       <use style="stroke:#000000;stroke-width:0.8;" x="397.714118" xlink:href="#mf96fc3ca96" y="296.46"/>
      </g>
     </g>
     <g id="text_18">
      <!-- 100 -->
      <g transform="translate(363.991618 301.778906)scale(0.14 -0.14)">
       <use xlink:href="#DejaVuSans-31"/>
       <use x="63.623047" xlink:href="#DejaVuSans-30"/>
       <use x="127.246094" xlink:href="#DejaVuSans-30"/>
      </g>
     </g>
    </g>
    <g id="ytick_10">
     <g id="line2d_47">
      <path clip-path="url(#pfa6cd4d434)" d="M 397.714118 254.88 
L 693.125882 254.88 
" style="fill:none;stroke:#b0b0b0;stroke-linecap:square;stroke-width:0.8;"/>
     </g>
     <g id="line2d_48">
      <g>
       <use style="stroke:#000000;stroke-width:0.8;" x="397.714118" xlink:href="#mf96fc3ca96" y="254.88"/>
      </g>
     </g>
     <g id="text_19">
      <!-- 200 -->
      <g transform="translate(363.991618 260.198906)scale(0.14 -0.14)">
       <use xlink:href="#DejaVuSans-32"/>
       <use x="63.623047" xlink:href="#DejaVuSans-30"/>
       <use x="127.246094" xlink:href="#DejaVuSans-30"/>
      </g>
     </g>
    </g>
    <g id="ytick_11">
     <g id="line2d_49">
      <path clip-path="url(#pfa6cd4d434)" d="M 397.714118 213.3 
L 693.125882 213.3 
" style="fill:none;stroke:#b0b0b0;stroke-linecap:square;stroke-width:0.8;"/>
     </g>
     <g id="line2d_50">
      <g>
       <use style="stroke:#000000;stroke-width:0.8;" x="397.714118" xlink:href="#mf96fc3ca96" y="213.3"/>
      </g>
     </g>
     <g id="text_20">
      <!-- 300 -->
      <g transform="translate(363.991618 218.618906)scale(0.14 -0.14)">
       <use xlink:href="#DejaVuSans-33"/>
       <use x="63.623047" xlink:href="#DejaVuSans-30"/>
       <use x="127.246094" xlink:href="#DejaVuSans-30"/>
      </g>
     </g>
    </g>
    <g id="ytick_12">
     <g id="line2d_51">
      <path clip-path="url(#pfa6cd4d434)" d="M 397.714118 171.72 
L 693.125882 171.72 
" style="fill:none;stroke:#b0b0b0;stroke-linecap:square;stroke-width:0.8;"/>
     </g>
     <g id="line2d_52">
      <g>
       <use style="stroke:#000000;stroke-width:0.8;" x="397.714118" xlink:href="#mf96fc3ca96" y="171.72"/>
      </g>
     </g>
     <g id="text_21">
      <!-- 400 -->
      <g transform="translate(363.991618 177.038906)scale(0.14 -0.14)">
       <use xlink:href="#DejaVuSans-34"/>
       <use x="63.623047" xlink:href="#DejaVuSans-30"/>
       <use x="127.246094" xlink:href="#DejaVuSans-30"/>
      </g>
     </g>
    </g>
    <g id="ytick_13">
     <g id="line2d_53">
      <path clip-path="url(#pfa6cd4d434)" d="M 397.714118 130.14 
L 693.125882 130.14 
" style="fill:none;stroke:#b0b0b0;stroke-linecap:square;stroke-width:0.8;"/>
     </g>
     <g id="line2d_54">
      <g>
       <use style="stroke:#000000;stroke-width:0.8;" x="397.714118" xlink:href="#mf96fc3ca96" y="130.14"/>
      </g>
     </g>
     <g id="text_22">
      <!-- 500 -->
      <g transform="translate(363.991618 135.458906)scale(0.14 -0.14)">
       <use xlink:href="#DejaVuSans-35"/>
       <use x="63.623047" xlink:href="#DejaVuSans-30"/>
       <use x="127.246094" xlink:href="#DejaVuSans-30"/>
      </g>
     </g>
    </g>
    <g id="ytick_14">
     <g id="line2d_55">
      <path clip-path="url(#pfa6cd4d434)" d="M 397.714118 88.56 
L 693.125882 88.56 
" style="fill:none;stroke:#b0b0b0;stroke-linecap:square;stroke-width:0.8;"/>
     </g>
     <g id="line2d_56">
      <g>
       <use style="stroke:#000000;stroke-width:0.8;" x="397.714118" xlink:href="#mf96fc3ca96" y="88.56"/>
      </g>
     </g>
     <g id="text_23">
      <!-- 600 -->
      <g transform="translate(363.991618 93.878906)scale(0.14 -0.14)">
       <use xlink:href="#DejaVuSans-36"/>
       <use x="63.623047" xlink:href="#DejaVuSans-30"/>
       <use x="127.246094" xlink:href="#DejaVuSans-30"/>
      </g>
     </g>
    </g>
    <g id="ytick_15">
     <g id="line2d_57">
      <path clip-path="url(#pfa6cd4d434)" d="M 397.714118 46.98 
L 693.125882 46.98 
" style="fill:none;stroke:#b0b0b0;stroke-linecap:square;stroke-width:0.8;"/>
     </g>
     <g id="line2d_58">
      <g>
       <use style="stroke:#000000;stroke-width:0.8;" x="397.714118" xlink:href="#mf96fc3ca96" y="46.98"/>
      </g>
     </g>
     <g id="text_24">
      <!-- 700 -->
      <g transform="translate(363.991618 52.298906)scale(0.14 -0.14)">
       <use xlink:href="#DejaVuSans-37"/>
       <use x="63.623047" xlink:href="#DejaVuSans-30"/>
       <use x="127.246094" xlink:href="#DejaVuSans-30"/>
      </g>
     </g>
    </g>
    <g id="ytick_16">
     <g id="line2d_59">
      <path clip-path="url(#pfa6cd4d434)" d="M 397.714118 5.4 
L 693.125882 5.4 
" style="fill:none;stroke:#b0b0b0;stroke-linecap:square;stroke-width:0.8;"/>
     </g>
     <g id="line2d_60">
      <g>
       <use style="stroke:#000000;stroke-width:0.8;" x="397.714118" xlink:href="#mf96fc3ca96" y="5.4"/>
      </g>
     </g>
     <g id="text_25">
      <!-- 800 -->
      <g transform="translate(363.991618 10.718906)scale(0.14 -0.14)">
       <use xlink:href="#DejaVuSans-38"/>
       <use x="63.623047" xlink:href="#DejaVuSans-30"/>
       <use x="127.246094" xlink:href="#DejaVuSans-30"/>
      </g>
     </g>
    </g>
    <g id="text_26">
     <!-- RPKM -->
     <g transform="translate(357.080055 191.434844)rotate(-90)scale(0.14 -0.14)">
      <use xlink:href="#DejaVuSans-52"/>
      <use x="69.482422" xlink:href="#DejaVuSans-50"/>
      <use x="129.785156" xlink:href="#DejaVuSans-4b"/>
      <use x="195.361328" xlink:href="#DejaVuSans-4d"/>
     </g>
    </g>
   </g>
   <g id="line2d_61">
    <path clip-path="url(#pfa6cd4d434)" d="M 411.141925 284.075357 
L 413.854614 282.247562 
L 416.567302 281.34866 
L 419.27999 280.83927 
L 421.992679 279.401 
L 424.705367 278.502095 
L 427.418055 277.363475 
L 430.130744 276.914015 
L 432.843432 276.764207 
L 435.556121 275.745433 
L 438.268809 274.127394 
L 440.981497 273.108622 
L 443.694186 271.430655 
L 446.406874 269.78266 
L 449.119562 268.014797 
L 451.832251 265.737558 
L 454.544939 262.531449 
L 457.257628 261.00329 
L 459.970316 258.99572 
L 462.683004 256.059283 
L 465.395693 253.961818 
L 468.108381 251.414898 
L 470.82107 247.219979 
L 473.533758 243.534445 
L 476.246446 239.818951 
L 478.959135 236.762647 
L 481.671823 230.769904 
L 484.384511 227.14431 
L 487.0972 225.376458 
L 489.809888 222.709665 
L 492.522577 218.724495 
L 495.235265 211.712936 
L 497.947953 204.941166 
L 500.660642 197.839795 
L 503.37333 189.809523 
L 506.086018 183.097672 
L 508.798707 174.348247 
L 511.511395 165.419076 
L 514.224084 157.778328 
L 516.936772 153.523493 
L 519.64946 150.676886 
L 522.362149 147.950182 
L 525.074837 145.373334 
L 527.787526 136.563985 
L 530.500214 129.67235 
L 533.212902 125.836941 
L 535.925591 120.53336 
L 538.638279 115.439585 
L 541.350967 112.263437 
L 544.063656 107.559101 
L 546.776344 103.753756 
L 549.489033 108.308176 
L 552.201721 114.061253 
L 554.914409 117.447146 
L 557.627098 121.25251 
L 560.339786 128.623616 
L 563.052474 132.339145 
L 565.765163 136.893563 
L 568.477851 144.774085 
L 571.19054 149.568291 
L 573.903228 150.587024 
L 576.615916 153.283746 
L 579.328605 155.021653 
L 582.041293 162.752302 
L 584.753982 171.262013 
L 587.46667 180.011384 
L 590.179358 185.764405 
L 592.892047 190.288949 
L 595.604735 197.270486 
L 598.317423 206.948794 
L 601.030112 216.537155 
L 603.7428 221.361325 
L 606.455489 224.327715 
L 609.168177 227.473895 
L 611.880865 231.309268 
L 614.593554 235.324395 
L 617.306242 239.279615 
L 620.01893 241.7666 
L 622.731619 244.583199 
L 625.444307 248.598309 
L 628.156996 251.145242 
L 630.869684 254.141592 
L 633.582372 256.808376 
L 636.295061 260.613756 
L 639.007749 262.920971 
L 641.720438 266.306875 
L 644.433126 268.164617 
L 647.145814 269.453046 
L 649.858503 272.269647 
L 652.571191 272.569279 
L 655.283879 275.385865 
L 657.996568 275.835324 
L 660.709256 276.644356 
L 663.421945 277.872857 
L 666.134633 278.022678 
L 668.847321 280.180065 
L 671.56001 281.25876 
L 674.272698 282.157676 
L 676.985386 283.206409 
L 679.698075 283.476079 
" style="fill:none;stroke:#e41a1c;stroke-linecap:square;stroke-width:1.5;"/>
   </g>
   <g id="line2d_62">
    <path clip-path="url(#pfa6cd4d434)" d="M 411.141925 302.341247 
L 413.854614 302.205121 
L 416.567302 301.898834 
L 419.27999 302.000936 
L 421.992679 301.592556 
L 424.705367 300.809849 
L 427.418055 300.809848 
L 430.130744 300.571626 
L 432.843432 300.401474 
L 435.556121 300.469537 
L 438.268809 300.027118 
L 440.981497 299.891 
L 443.694186 299.516655 
L 446.406874 299.788901 
L 449.119562 300.673728 
L 451.832251 300.877913 
L 454.544939 300.299382 
L 457.257628 300.877905 
L 459.970316 300.503569 
L 462.683004 300.027129 
L 465.395693 299.720841 
L 468.108381 299.210379 
L 470.82107 298.325571 
L 473.533758 296.726082 
L 476.246446 296.249657 
L 478.959135 295.500978 
L 481.671823 294.990506 
L 484.384511 294.51406 
L 487.0972 293.459103 
L 489.809888 292.574288 
L 492.522577 291.791567 
L 495.235265 290.6345 
L 497.947953 289.035044 
L 500.660642 287.605729 
L 503.37333 286.380603 
L 506.086018 284.168573 
L 508.798707 280.867539 
L 511.511395 279.234054 
L 514.224084 277.770707 
L 516.936772 276.205267 
L 519.64946 273.380667 
L 522.362149 272.087495 
L 525.074837 269.739342 
L 527.787526 266.268152 
L 530.500214 265.519468 
L 533.212902 264.294347 
L 535.925591 263.307446 
L 538.638279 262.899063 
L 541.350967 263.341471 
L 544.063656 263.239367 
L 546.776344 263.817908 
L 549.489033 265.07707 
L 552.201721 266.370248 
L 554.914409 266.540395 
L 557.627098 267.187 
L 560.339786 268.275998 
L 563.052474 269.637253 
L 565.765163 270.624145 
L 568.477851 272.155567 
L 571.19054 273.244547 
L 573.903228 274.231454 
L 576.615916 275.796894 
L 579.328605 277.46441 
L 582.041293 280.152886 
L 584.753982 281.105762 
L 587.46667 282.501042 
L 590.179358 282.977475 
L 592.892047 284.440824 
L 595.604735 286.108354 
L 598.317423 288.184264 
L 601.030112 290.226133 
L 603.7428 291.383192 
L 606.455489 293.186848 
L 609.168177 294.309882 
L 611.880865 295.296778 
L 614.593554 296.521912 
L 617.306242 296.624013 
L 620.01893 298.393633 
L 622.731619 298.495724 
L 625.444307 298.495722 
L 628.156996 298.597809 
L 630.869684 298.836033 
L 633.582372 300.061156 
L 636.295061 299.993098 
L 639.007749 300.095186 
L 641.720438 300.163249 
L 644.433126 299.99309 
L 647.145814 300.571625 
L 649.858503 300.843874 
L 652.571191 300.843863 
L 655.283879 301.694646 
L 657.996568 302.000928 
L 660.709256 302.273183 
L 663.421945 302.068992 
L 666.134633 302.477366 
L 668.847321 301.728683 
L 671.56001 301.762724 
L 674.272698 302.034969 
L 676.985386 301.422397 
L 679.698075 300.231317 
" style="fill:none;stroke:#377eb8;stroke-linecap:square;stroke-width:1.5;"/>
   </g>
   <g id="patch_8">
    <path d="M 397.714118 338.04 
L 397.714118 5.4 
" style="fill:none;stroke:#000000;stroke-linecap:square;stroke-linejoin:miter;stroke-width:0.8;"/>
   </g>
   <g id="patch_9">
    <path d="M 693.125882 338.04 
L 693.125882 5.4 
" style="fill:none;stroke:#000000;stroke-linecap:square;stroke-linejoin:miter;stroke-width:0.8;"/>
   </g>
   <g id="patch_10">
    <path d="M 397.714118 338.04 
L 693.125882 338.04 
" style="fill:none;stroke:#000000;stroke-linecap:square;stroke-linejoin:miter;stroke-width:0.8;"/>
   </g>
   <g id="patch_11">
    <path d="M 397.714118 5.4 
L 693.125882 5.4 
" style="fill:none;stroke:#000000;stroke-linecap:square;stroke-linejoin:miter;stroke-width:0.8;"/>
   </g>
  </g>
  <g id="axes_3">
   <g id="patch_12">
    <path d="M 752.208235 338.04 
L 1047.62 338.04 
L 1047.62 5.4 
L 752.208235 5.4 
z
" style="fill:none;opacity:0;"/>
   </g>
   <g id="matplotlib.axis_5"/>
   <g id="matplotlib.axis_6"/>
   <g id="legend_1">
    <g id="patch_13">
     <path d="M 519.238125 58.4775 
L 1037.82 58.4775 
Q 1040.62 58.4775 1040.62 55.6775 
L 1040.62 15.2 
Q 1040.62 12.4 1037.82 12.4 
L 519.238125 12.4 
Q 516.438125 12.4 516.438125 15.2 
L 516.438125 55.6775 
Q 516.438125 58.4775 519.238125 58.4775 
z
" style="fill:#ffffff;opacity:0.8;stroke:#cccccc;stroke-linejoin:miter;"/>
    </g>
    <g id="line2d_63">
     <path d="M 522.038125 23.737813 
L 550.038125 23.737813 
" style="fill:none;stroke:#e41a1c;stroke-linecap:square;stroke-width:1.5;"/>
    </g>
    <g id="line2d_64"/>
    <g id="text_27">
     <!-- Mapped_data.192C.S17.ELF3myc-17C-ZT10_S17_Ath-TAIR10_RPKM -->
     <g transform="translate(561.238125 28.637813)scale(0.14 -0.14)">
      <use xlink:href="#DejaVuSans-4d"/>
      <use x="86.279297" xlink:href="#DejaVuSans-61"/>
      <use x="147.558594" xlink:href="#DejaVuSans-70"/>
      <use x="211.035156" xlink:href="#DejaVuSans-70"/>
      <use x="274.511719" xlink:href="#DejaVuSans-65"/>
      <use x="336.035156" xlink:href="#DejaVuSans-64"/>
      <use x="399.511719" xlink:href="#DejaVuSans-5f"/>
      <use x="449.511719" xlink:href="#DejaVuSans-64"/>
      <use x="512.988281" xlink:href="#DejaVuSans-61"/>
      <use x="574.267578" xlink:href="#DejaVuSans-74"/>
      <use x="613.476562" xlink:href="#DejaVuSans-61"/>
      <use x="674.755859" xlink:href="#DejaVuSans-2e"/>
      <use x="706.542969" xlink:href="#DejaVuSans-31"/>
      <use x="770.166016" xlink:href="#DejaVuSans-39"/>
      <use x="833.789062" xlink:href="#DejaVuSans-32"/>
      <use x="897.412109" xlink:href="#DejaVuSans-43"/>
      <use x="967.236328" xlink:href="#DejaVuSans-2e"/>
      <use x="999.023438" xlink:href="#DejaVuSans-53"/>
      <use x="1062.5" xlink:href="#DejaVuSans-31"/>
      <use x="1126.123047" xlink:href="#DejaVuSans-37"/>
      <use x="1189.746094" xlink:href="#DejaVuSans-2e"/>
      <use x="1221.533203" xlink:href="#DejaVuSans-45"/>
      <use x="1284.716797" xlink:href="#DejaVuSans-4c"/>
      <use x="1340.429688" xlink:href="#DejaVuSans-46"/>
      <use x="1397.949219" xlink:href="#DejaVuSans-33"/>
      <use x="1461.572266" xlink:href="#DejaVuSans-6d"/>
      <use x="1558.984375" xlink:href="#DejaVuSans-79"/>
      <use x="1618.164062" xlink:href="#DejaVuSans-63"/>
      <use x="1673.144531" xlink:href="#DejaVuSans-2d"/>
      <use x="1709.228516" xlink:href="#DejaVuSans-31"/>
      <use x="1772.851562" xlink:href="#DejaVuSans-37"/>
      <use x="1836.474609" xlink:href="#DejaVuSans-43"/>
      <use x="1906.298828" xlink:href="#DejaVuSans-2d"/>
      <use x="1942.382812" xlink:href="#DejaVuSans-5a"/>
      <use x="2010.888672" xlink:href="#DejaVuSans-54"/>
      <use x="2071.972656" xlink:href="#DejaVuSans-31"/>
      <use x="2135.595703" xlink:href="#DejaVuSans-30"/>
      <use x="2199.21875" xlink:href="#DejaVuSans-5f"/>
      <use x="2249.21875" xlink:href="#DejaVuSans-53"/>
      <use x="2312.695312" xlink:href="#DejaVuSans-31"/>
      <use x="2376.318359" xlink:href="#DejaVuSans-37"/>
      <use x="2439.941406" xlink:href="#DejaVuSans-5f"/>
      <use x="2489.941406" xlink:href="#DejaVuSans-41"/>
      <use x="2558.333984" xlink:href="#DejaVuSans-74"/>
      <use x="2597.542969" xlink:href="#DejaVuSans-68"/>
      <use x="2660.921875" xlink:href="#DejaVuSans-2d"/>
      <use x="2696.865234" xlink:href="#DejaVuSans-54"/>
      <use x="2757.839844" xlink:href="#DejaVuSans-41"/>
      <use x="2826.248047" xlink:href="#DejaVuSans-49"/>
      <use x="2855.740234" xlink:href="#DejaVuSans-52"/>
      <use x="2925.222656" xlink:href="#DejaVuSans-31"/>
      <use x="2988.845703" xlink:href="#DejaVuSans-30"/>
      <use x="3052.46875" xlink:href="#DejaVuSans-5f"/>
      <use x="3102.46875" xlink:href="#DejaVuSans-52"/>
      <use x="3171.951172" xlink:href="#DejaVuSans-50"/>
      <use x="3232.253906" xlink:href="#DejaVuSans-4b"/>
      <use x="3297.830078" xlink:href="#DejaVuSans-4d"/>
     </g>
    </g>
    <g id="line2d_65">
     <path d="M 522.038125 44.676563 
L 550.038125 44.676563 
" style="fill:none;stroke:#377eb8;stroke-linecap:square;stroke-width:1.5;"/>
    </g>
    <g id="line2d_66"/>
    <g id="text_28">
     <!-- Mapped_data.192C.S18.ELF3myc-27C-ZT10_S18_Ath-TAIR10_RPKM -->
     <g transform="translate(561.238125 49.576563)scale(0.14 -0.14)">
      <use xlink:href="#DejaVuSans-4d"/>
      <use x="86.279297" xlink:href="#DejaVuSans-61"/>
      <use x="147.558594" xlink:href="#DejaVuSans-70"/>
      <use x="211.035156" xlink:href="#DejaVuSans-70"/>
      <use x="274.511719" xlink:href="#DejaVuSans-65"/>
      <use x="336.035156" xlink:href="#DejaVuSans-64"/>
      <use x="399.511719" xlink:href="#DejaVuSans-5f"/>
      <use x="449.511719" xlink:href="#DejaVuSans-64"/>
      <use x="512.988281" xlink:href="#DejaVuSans-61"/>
      <use x="574.267578" xlink:href="#DejaVuSans-74"/>
      <use x="613.476562" xlink:href="#DejaVuSans-61"/>
      <use x="674.755859" xlink:href="#DejaVuSans-2e"/>
      <use x="706.542969" xlink:href="#DejaVuSans-31"/>
      <use x="770.166016" xlink:href="#DejaVuSans-39"/>
      <use x="833.789062" xlink:href="#DejaVuSans-32"/>
      <use x="897.412109" xlink:href="#DejaVuSans-43"/>
      <use x="967.236328" xlink:href="#DejaVuSans-2e"/>
      <use x="999.023438" xlink:href="#DejaVuSans-53"/>
      <use x="1062.5" xlink:href="#DejaVuSans-31"/>
      <use x="1126.123047" xlink:href="#DejaVuSans-38"/>
      <use x="1189.746094" xlink:href="#DejaVuSans-2e"/>
      <use x="1221.533203" xlink:href="#DejaVuSans-45"/>
      <use x="1284.716797" xlink:href="#DejaVuSans-4c"/>
      <use x="1340.429688" xlink:href="#DejaVuSans-46"/>
      <use x="1397.949219" xlink:href="#DejaVuSans-33"/>
      <use x="1461.572266" xlink:href="#DejaVuSans-6d"/>
      <use x="1558.984375" xlink:href="#DejaVuSans-79"/>
      <use x="1618.164062" xlink:href="#DejaVuSans-63"/>
      <use x="1673.144531" xlink:href="#DejaVuSans-2d"/>
      <use x="1709.228516" xlink:href="#DejaVuSans-32"/>
      <use x="1772.851562" xlink:href="#DejaVuSans-37"/>
      <use x="1836.474609" xlink:href="#DejaVuSans-43"/>
      <use x="1906.298828" xlink:href="#DejaVuSans-2d"/>
      <use x="1942.382812" xlink:href="#DejaVuSans-5a"/>
      <use x="2010.888672" xlink:href="#DejaVuSans-54"/>
      <use x="2071.972656" xlink:href="#DejaVuSans-31"/>
      <use x="2135.595703" xlink:href="#DejaVuSans-30"/>
      <use x="2199.21875" xlink:href="#DejaVuSans-5f"/>
      <use x="2249.21875" xlink:href="#DejaVuSans-53"/>
      <use x="2312.695312" xlink:href="#DejaVuSans-31"/>
      <use x="2376.318359" xlink:href="#DejaVuSans-38"/>
      <use x="2439.941406" xlink:href="#DejaVuSans-5f"/>
      <use x="2489.941406" xlink:href="#DejaVuSans-41"/>
      <use x="2558.333984" xlink:href="#DejaVuSans-74"/>
      <use x="2597.542969" xlink:href="#DejaVuSans-68"/>
      <use x="2660.921875" xlink:href="#DejaVuSans-2d"/>
      <use x="2696.865234" xlink:href="#DejaVuSans-54"/>
      <use x="2757.839844" xlink:href="#DejaVuSans-41"/>
      <use x="2826.248047" xlink:href="#DejaVuSans-49"/>
      <use x="2855.740234" xlink:href="#DejaVuSans-52"/>
      <use x="2925.222656" xlink:href="#DejaVuSans-31"/>
      <use x="2988.845703" xlink:href="#DejaVuSans-30"/>
      <use x="3052.46875" xlink:href="#DejaVuSans-5f"/>
      <use x="3102.46875" xlink:href="#DejaVuSans-52"/>
      <use x="3171.951172" xlink:href="#DejaVuSans-50"/>
      <use x="3232.253906" xlink:href="#DejaVuSans-4b"/>
      <use x="3297.830078" xlink:href="#DejaVuSans-4d"/>
     </g>
    </g>
   </g>
  </g>
 </g>
 <defs>
  <clipPath id="p02e504f4bf">
   <rect height="332.64" width="295.411765" x="43.22" y="5.4"/>
  </clipPath>
  <clipPath id="pfa6cd4d434">
   <rect height="332.64" width="295.411765" x="397.714118" y="5.4"/>
  </clipPath>
 </defs>
</svg>
