<?xml version="1.0" encoding="UTF-8" standalone="no"?>
<!DOCTYPE svg PUBLIC "-//W3C//DTD SVG 1.1//EN"
 "http://www.w3.org/Graphics/SVG/1.1/DTD/svg11.dtd">
<!-- Generated by graphviz version 2.40.1 (20161225.0304)
 -->
<!-- Title: structs Pages: 1 -->
<svg width="1010pt" height="800pt"
 viewBox="0.00 0.00 1010.00 800.00" xmlns="http://www.w3.org/2000/svg" xmlns:xlink="http://www.w3.org/1999/xlink">
<g id="graph0" class="graph" transform="scale(1 1) rotate(0) translate(4 796)">
<title>structs</title>
<polygon fill="#ffffff" stroke="transparent" points="-4,4 -4,-796 1006,-796 1006,4 -4,4"/>
<!-- OUTPUT/src_BOXPLOT_1_OX&#45;lines.tsv.svg -->
<g id="node1" class="node">
<title>OUTPUT/src_BOXPLOT_1_OX&#45;lines.tsv.svg</title>
<g id="a_node1"><a xlink:href="OUTPUT/src_BOXPLOT_1_OX-lines.tsv.svg" xlink:title="&lt;TABLE&gt;">
<polygon fill="none" stroke="#000000" points="78.5,-113 78.5,-138 197.5,-138 197.5,-113 78.5,-113"/>
<text text-anchor="start" x="83.5" y="-121.8" font-family="Times,serif" font-size="14.00" fill="#000000">OUTPUT_FILE</text>
<polygon fill="none" stroke="#000000" points="197.5,-113 197.5,-138 520.5,-138 520.5,-113 197.5,-113"/>
<text text-anchor="start" x="202.5" y="-121.8" font-family="Times,serif" font-size="14.00" fill="#000000">OUTPUT/src_BOXPLOT_1_OX&#45;lines.tsv.svg</text>
</a>
</g>
</g>
<!-- src/make_boxplot.py -->
<g id="node2" class="node">
<title>src/make_boxplot.py</title>
<g id="a_node2"><a xlink:href="src/make_boxplot.py" xlink:title="&lt;TABLE&gt;">
<polygon fill="none" stroke="#000000" points="674.5,-59 674.5,-84 804.5,-84 804.5,-59 674.5,-59"/>
<text text-anchor="start" x="679.5" y="-67.8" font-family="Times,serif" font-size="14.00" fill="#000000">RUNTIME_FILE</text>
<polygon fill="none" stroke="#000000" points="804.5,-59 804.5,-84 963.5,-84 963.5,-59 804.5,-59"/>
<text text-anchor="start" x="809.5" y="-67.8" font-family="Times,serif" font-size="14.00" fill="#000000">src/make_boxplot.py</text>
</a>
</g>
</g>
<!-- OUTPUT/src_BOXPLOT_1_OX&#45;lines.tsv.svg&#45;&gt;src/make_boxplot.py -->
<g id="edge1" class="edge">
<title>OUTPUT/src_BOXPLOT_1_OX&#45;lines.tsv.svg&#45;&gt;src/make_boxplot.py</title>
<path fill="none" stroke="#000000" d="M509.0438,-107.9826C539.2441,-105.132 569.9284,-102.0976 599,-99 621.1161,-96.6435 644.4623,-93.971 667.3495,-91.2462"/>
<polygon fill="#000000" stroke="#000000" points="667.9616,-94.698 677.4746,-90.0339 667.1294,-87.7476 667.9616,-94.698"/>
</g>
<!-- OUTPUT/src_BOXPLOT2_mutants.tsv.svg -->
<g id="node3" class="node">
<title>OUTPUT/src_BOXPLOT2_mutants.tsv.svg</title>
<g id="a_node3"><a xlink:href="OUTPUT/src_BOXPLOT2_mutants.tsv.svg" xlink:title="&lt;TABLE&gt;">
<polygon fill="none" stroke="#000000" points="83.5,-59 83.5,-84 202.5,-84 202.5,-59 83.5,-59"/>
<text text-anchor="start" x="88.5" y="-67.8" font-family="Times,serif" font-size="14.00" fill="#000000">OUTPUT_FILE</text>
<polygon fill="none" stroke="#000000" points="202.5,-59 202.5,-84 516.5,-84 516.5,-59 202.5,-59"/>
<text text-anchor="start" x="207.5" y="-67.8" font-family="Times,serif" font-size="14.00" fill="#000000">OUTPUT/src_BOXPLOT2_mutants.tsv.svg</text>
</a>
</g>
</g>
<!-- OUTPUT/src_BOXPLOT2_mutants.tsv.svg&#45;&gt;src/make_boxplot.py -->
<g id="edge2" class="edge">
<title>OUTPUT/src_BOXPLOT2_mutants.tsv.svg&#45;&gt;src/make_boxplot.py</title>
<path fill="none" stroke="#000000" d="M524.1224,-72C568.2864,-72 613.8231,-72 655.4897,-72"/>
<polygon fill="#000000" stroke="#000000" points="655.7144,-75.5001 665.7144,-72 655.7144,-68.5001 655.7144,-75.5001"/>
</g>
<!-- OUTPUT/src_BOXPLOT3_Qlines.tsv.svg -->
<g id="node4" class="node">
<title>OUTPUT/src_BOXPLOT3_Qlines.tsv.svg</title>
<g id="a_node4"><a xlink:href="OUTPUT/src_BOXPLOT3_Qlines.tsv.svg" xlink:title="&lt;TABLE&gt;">
<polygon fill="none" stroke="#000000" points="89.5,-5 89.5,-30 208.5,-30 208.5,-5 89.5,-5"/>
<text text-anchor="start" x="94.5" y="-13.8" font-family="Times,serif" font-size="14.00" fill="#000000">OUTPUT_FILE</text>
<polygon fill="none" stroke="#000000" points="208.5,-5 208.5,-30 509.5,-30 509.5,-5 208.5,-5"/>
<text text-anchor="start" x="213.5" y="-13.8" font-family="Times,serif" font-size="14.00" fill="#000000">OUTPUT/src_BOXPLOT3_Qlines.tsv.svg</text>
</a>
</g>
</g>
<!-- OUTPUT/src_BOXPLOT3_Qlines.tsv.svg&#45;&gt;src/make_boxplot.py -->
<g id="edge3" class="edge">
<title>OUTPUT/src_BOXPLOT3_Qlines.tsv.svg&#45;&gt;src/make_boxplot.py</title>
<path fill="none" stroke="#000000" d="M509.0438,-36.0174C539.2441,-38.868 569.9284,-41.9024 599,-45 621.1161,-47.3565 644.4623,-50.029 667.3495,-52.7538"/>
<polygon fill="#000000" stroke="#000000" points="667.1294,-56.2524 677.4746,-53.9661 667.9616,-49.302 667.1294,-56.2524"/>
</g>
<!-- OUTPUT/src_FIG&#45;S6_HEATMAP1_Q&#45;lines.tsv.png -->
<g id="node5" class="node">
<title>OUTPUT/src_FIG&#45;S6_HEATMAP1_Q&#45;lines.tsv.png</title>
<g id="a_node5"><a xlink:href="OUTPUT/src_FIG-S6_HEATMAP1_Q-lines.tsv.png" xlink:title="&lt;TABLE&gt;">
<polygon fill="none" stroke="#000000" points="55.5,-275 55.5,-300 174.5,-300 174.5,-275 55.5,-275"/>
<text text-anchor="start" x="60.5" y="-283.8" font-family="Times,serif" font-size="14.00" fill="#000000">OUTPUT_FILE</text>
<polygon fill="none" stroke="#000000" points="174.5,-275 174.5,-300 543.5,-300 543.5,-275 174.5,-275"/>
<text text-anchor="start" x="179.5" y="-283.8" font-family="Times,serif" font-size="14.00" fill="#000000">OUTPUT/src_FIG&#45;S6_HEATMAP1_Q&#45;lines.tsv.png</text>
</a>
</g>
</g>
<!-- src/make_heatmap.py -->
<g id="node6" class="node">
<title>src/make_heatmap.py</title>
<g id="a_node6"><a xlink:href="src/make_heatmap.py" xlink:title="&lt;TABLE&gt;">
<polygon fill="none" stroke="#000000" points="669.5,-221 669.5,-246 799.5,-246 799.5,-221 669.5,-221"/>
<text text-anchor="start" x="674.5" y="-229.8" font-family="Times,serif" font-size="14.00" fill="#000000">RUNTIME_FILE</text>
<polygon fill="none" stroke="#000000" points="799.5,-221 799.5,-246 967.5,-246 967.5,-221 799.5,-221"/>
<text text-anchor="start" x="804.5" y="-229.8" font-family="Times,serif" font-size="14.00" fill="#000000">src/make_heatmap.py</text>
</a>
</g>
</g>
<!-- OUTPUT/src_FIG&#45;S6_HEATMAP1_Q&#45;lines.tsv.png&#45;&gt;src/make_heatmap.py -->
<g id="edge4" class="edge">
<title>OUTPUT/src_FIG&#45;S6_HEATMAP1_Q&#45;lines.tsv.png&#45;&gt;src/make_heatmap.py</title>
<path fill="none" stroke="#000000" d="M509.0438,-269.9826C539.2441,-267.132 569.9284,-264.0976 599,-261 621.1161,-258.6435 644.4623,-255.971 667.3495,-253.2462"/>
<polygon fill="#000000" stroke="#000000" points="667.9616,-256.698 677.4746,-252.0339 667.1294,-249.7476 667.9616,-256.698"/>
</g>
<!-- OUTPUT/src_FIG&#45;S5_HEATMAP2_genotypes.tsv.png -->
<g id="node7" class="node">
<title>OUTPUT/src_FIG&#45;S5_HEATMAP2_genotypes.tsv.png</title>
<g id="a_node7"><a xlink:href="OUTPUT/src_FIG-S5_HEATMAP2_genotypes.tsv.png" xlink:title="&lt;TABLE&gt;">
<polygon fill="none" stroke="#000000" points="44.5,-221 44.5,-246 163.5,-246 163.5,-221 44.5,-221"/>
<text text-anchor="start" x="49.5" y="-229.8" font-family="Times,serif" font-size="14.00" fill="#000000">OUTPUT_FILE</text>
<polygon fill="none" stroke="#000000" points="163.5,-221 163.5,-246 555.5,-246 555.5,-221 163.5,-221"/>
<text text-anchor="start" x="168.5" y="-229.8" font-family="Times,serif" font-size="14.00" fill="#000000">OUTPUT/src_FIG&#45;S5_HEATMAP2_genotypes.tsv.png</text>
</a>
</g>
</g>
<!-- OUTPUT/src_FIG&#45;S5_HEATMAP2_genotypes.tsv.png&#45;&gt;src/make_heatmap.py -->
<g id="edge5" class="edge">
<title>OUTPUT/src_FIG&#45;S5_HEATMAP2_genotypes.tsv.png&#45;&gt;src/make_heatmap.py</title>
<path fill="none" stroke="#000000" d="M563.1812,-234C593.0967,-234 622.9382,-234 651.1146,-234"/>
<polygon fill="#000000" stroke="#000000" points="651.4172,-237.5001 661.4171,-234 651.4171,-230.5001 651.4172,-237.5001"/>
</g>
<!-- OUTPUT/src_FIG&#45;S7_HEATMAP3.tsv.png -->
<g id="node8" class="node">
<title>OUTPUT/src_FIG&#45;S7_HEATMAP3.tsv.png</title>
<g id="a_node8"><a xlink:href="OUTPUT/src_FIG-S7_HEATMAP3.tsv.png" xlink:title="&lt;TABLE&gt;">
<polygon fill="none" stroke="#000000" points="84.5,-167 84.5,-192 203.5,-192 203.5,-167 84.5,-167"/>
<text text-anchor="start" x="89.5" y="-175.8" font-family="Times,serif" font-size="14.00" fill="#000000">OUTPUT_FILE</text>
<polygon fill="none" stroke="#000000" points="203.5,-167 203.5,-192 514.5,-192 514.5,-167 203.5,-167"/>
<text text-anchor="start" x="208.5" y="-175.8" font-family="Times,serif" font-size="14.00" fill="#000000">OUTPUT/src_FIG&#45;S7_HEATMAP3.tsv.png</text>
</a>
</g>
</g>
<!-- OUTPUT/src_FIG&#45;S7_HEATMAP3.tsv.png&#45;&gt;src/make_heatmap.py -->
<g id="edge6" class="edge">
<title>OUTPUT/src_FIG&#45;S7_HEATMAP3.tsv.png&#45;&gt;src/make_heatmap.py</title>
<path fill="none" stroke="#000000" d="M509.0438,-198.0174C539.2441,-200.868 569.9284,-203.9024 599,-207 621.1161,-209.3565 644.4623,-212.029 667.3495,-214.7538"/>
<polygon fill="#000000" stroke="#000000" points="667.1294,-218.2524 677.4746,-215.9661 667.9616,-211.302 667.1294,-218.2524"/>
</g>
<!-- OUTPUT/chipseq_differential_binding.peak_list.bed -->
<g id="node9" class="node">
<title>OUTPUT/chipseq_differential_binding.peak_list.bed</title>
<g id="a_node9"><a xlink:href="OUTPUT/chipseq_differential_binding.peak_list.bed" xlink:title="&lt;TABLE&gt;">
<polygon fill="none" stroke="#000000" points="48.5,-437 48.5,-462 167.5,-462 167.5,-437 48.5,-437"/>
<text text-anchor="start" x="53.5" y="-445.8" font-family="Times,serif" font-size="14.00" fill="#000000">OUTPUT_FILE</text>
<polygon fill="none" stroke="#000000" points="167.5,-437 167.5,-462 551.5,-462 551.5,-437 167.5,-437"/>
<text text-anchor="start" x="172.5" y="-445.8" font-family="Times,serif" font-size="14.00" fill="#000000">OUTPUT/chipseq_differential_binding.peak_list.bed</text>
</a>
</g>
</g>
<!-- src/make_chipseq_targets.py -->
<g id="node10" class="node">
<title>src/make_chipseq_targets.py</title>
<g id="a_node10"><a xlink:href="src/make_chipseq_targets.py" xlink:title="&lt;TABLE&gt;">
<polygon fill="none" stroke="#000000" points="643.5,-383 643.5,-408 773.5,-408 773.5,-383 643.5,-383"/>
<text text-anchor="start" x="648.5" y="-391.8" font-family="Times,serif" font-size="14.00" fill="#000000">RUNTIME_FILE</text>
<polygon fill="none" stroke="#000000" points="773.5,-383 773.5,-408 994.5,-408 994.5,-383 773.5,-383"/>
<text text-anchor="start" x="778.5" y="-391.8" font-family="Times,serif" font-size="14.00" fill="#000000">src/make_chipseq_targets.py</text>
</a>
</g>
</g>
<!-- OUTPUT/chipseq_differential_binding.peak_list.bed&#45;&gt;src/make_chipseq_targets.py -->
<g id="edge7" class="edge">
<title>OUTPUT/chipseq_differential_binding.peak_list.bed&#45;&gt;src/make_chipseq_targets.py</title>
<path fill="none" stroke="#000000" d="M509.0438,-431.9826C539.2441,-429.132 569.9284,-426.0976 599,-423 621.1161,-420.6435 644.4623,-417.971 667.3495,-415.2462"/>
<polygon fill="#000000" stroke="#000000" points="667.9616,-418.698 677.4746,-414.0339 667.1294,-411.7476 667.9616,-418.698"/>
</g>
<!-- OUTPUT/chipseq_differential_binding.peak_list.csv -->
<g id="node11" class="node">
<title>OUTPUT/chipseq_differential_binding.peak_list.csv</title>
<g id="a_node11"><a xlink:href="OUTPUT/chipseq_differential_binding.peak_list.csv" xlink:title="&lt;TABLE&gt;">
<polygon fill="none" stroke="#000000" points="49.5,-383 49.5,-408 168.5,-408 168.5,-383 49.5,-383"/>
<text text-anchor="start" x="54.5" y="-391.8" font-family="Times,serif" font-size="14.00" fill="#000000">OUTPUT_FILE</text>
<polygon fill="none" stroke="#000000" points="168.5,-383 168.5,-408 550.5,-408 550.5,-383 168.5,-383"/>
<text text-anchor="start" x="173.5" y="-391.8" font-family="Times,serif" font-size="14.00" fill="#000000">OUTPUT/chipseq_differential_binding.peak_list.csv</text>
</a>
</g>
</g>
<!-- OUTPUT/chipseq_differential_binding.peak_list.csv&#45;&gt;src/make_chipseq_targets.py -->
<g id="edge8" class="edge">
<title>OUTPUT/chipseq_differential_binding.peak_list.csv&#45;&gt;src/make_chipseq_targets.py</title>
<path fill="none" stroke="#000000" d="M558.2397,-396C580.5979,-396 602.9635,-396 624.6728,-396"/>
<polygon fill="#000000" stroke="#000000" points="624.9352,-399.5001 634.9352,-396 624.9352,-392.5001 624.9352,-399.5001"/>
</g>
<!-- OUTPUT/chipseq_targets_genes_job.peak_list.csv -->
<g id="node12" class="node">
<title>OUTPUT/chipseq_targets_genes_job.peak_list.csv</title>
<g id="a_node12"><a xlink:href="OUTPUT/chipseq_targets_genes_job.peak_list.csv" xlink:title="&lt;TABLE&gt;">
<polygon fill="none" stroke="#000000" points="54.5,-329 54.5,-354 173.5,-354 173.5,-329 54.5,-329"/>
<text text-anchor="start" x="59.5" y="-337.8" font-family="Times,serif" font-size="14.00" fill="#000000">OUTPUT_FILE</text>
<polygon fill="none" stroke="#000000" points="173.5,-329 173.5,-354 544.5,-354 544.5,-329 173.5,-329"/>
<text text-anchor="start" x="178.5" y="-337.8" font-family="Times,serif" font-size="14.00" fill="#000000">OUTPUT/chipseq_targets_genes_job.peak_list.csv</text>
</a>
</g>
</g>
<!-- OUTPUT/chipseq_targets_genes_job.peak_list.csv&#45;&gt;src/make_chipseq_targets.py -->
<g id="edge9" class="edge">
<title>OUTPUT/chipseq_targets_genes_job.peak_list.csv&#45;&gt;src/make_chipseq_targets.py</title>
<path fill="none" stroke="#000000" d="M509.0438,-360.0174C539.2441,-362.868 569.9284,-365.9024 599,-369 621.1161,-371.3565 644.4623,-374.029 667.3495,-376.7538"/>
<polygon fill="#000000" stroke="#000000" points="667.1294,-380.2524 677.4746,-377.9661 667.9616,-373.302 667.1294,-380.2524"/>
</g>
<!-- OUTPUT/fig&#45;2d -->
<g id="node13" class="node">
<title>OUTPUT/fig&#45;2d</title>
<g id="a_node13"><a xlink:href="OUTPUT/fig-2d" xlink:title="&lt;TABLE&gt;">
<polygon fill="none" stroke="#000000" points="179.5,-653 179.5,-678 298.5,-678 298.5,-653 179.5,-653"/>
<text text-anchor="start" x="184.5" y="-661.8" font-family="Times,serif" font-size="14.00" fill="#000000">OUTPUT_FILE</text>
<polygon fill="none" stroke="#000000" points="298.5,-653 298.5,-678 420.5,-678 420.5,-653 298.5,-653"/>
<text text-anchor="start" x="303.5" y="-661.8" font-family="Times,serif" font-size="14.00" fill="#000000">OUTPUT/fig&#45;2d</text>
</a>
</g>
</g>
<!-- src/make_chipseq_pileups.py -->
<g id="node14" class="node">
<title>src/make_chipseq_pileups.py</title>
<g id="a_node14"><a xlink:href="src/make_chipseq_pileups.py" xlink:title="&lt;TABLE&gt;">
<polygon fill="none" stroke="#000000" points="643.5,-572 643.5,-597 773.5,-597 773.5,-572 643.5,-572"/>
<text text-anchor="start" x="648.5" y="-580.8" font-family="Times,serif" font-size="14.00" fill="#000000">RUNTIME_FILE</text>
<polygon fill="none" stroke="#000000" points="773.5,-572 773.5,-597 994.5,-597 994.5,-572 773.5,-572"/>
<text text-anchor="start" x="778.5" y="-580.8" font-family="Times,serif" font-size="14.00" fill="#000000">src/make_chipseq_pileups.py</text>
</a>
</g>
</g>
<!-- OUTPUT/fig&#45;2d&#45;&gt;src/make_chipseq_pileups.py -->
<g id="edge10" class="edge">
<title>OUTPUT/fig&#45;2d&#45;&gt;src/make_chipseq_pileups.py</title>
<path fill="none" stroke="#000000" d="M428.2997,-658.6793C481.393,-654.55 543.3871,-648.2926 599,-639 648.7354,-630.6895 703.8415,-617.1175 746.3976,-605.6594"/>
<polygon fill="#000000" stroke="#000000" points="747.3717,-609.0217 756.1053,-603.0238 745.5376,-602.2663 747.3717,-609.0217"/>
</g>
<!-- OUTPUT/fig&#45;2e -->
<g id="node15" class="node">
<title>OUTPUT/fig&#45;2e</title>
<g id="a_node15"><a xlink:href="OUTPUT/fig-2e" xlink:title="&lt;TABLE&gt;">
<polygon fill="none" stroke="#000000" points="179.5,-599 179.5,-624 298.5,-624 298.5,-599 179.5,-599"/>
<text text-anchor="start" x="184.5" y="-607.8" font-family="Times,serif" font-size="14.00" fill="#000000">OUTPUT_FILE</text>
<polygon fill="none" stroke="#000000" points="298.5,-599 298.5,-624 419.5,-624 419.5,-599 298.5,-599"/>
<text text-anchor="start" x="303.5" y="-607.8" font-family="Times,serif" font-size="14.00" fill="#000000">OUTPUT/fig&#45;2e</text>
</a>
</g>
</g>
<!-- OUTPUT/fig&#45;2e&#45;&gt;src/make_chipseq_pileups.py -->
<g id="edge11" class="edge">
<title>OUTPUT/fig&#45;2e&#45;&gt;src/make_chipseq_pileups.py</title>
<path fill="none" stroke="#000000" d="M427.7922,-605.3258C487.1804,-602.2363 559.0105,-598.4995 624.7995,-595.0769"/>
<polygon fill="#000000" stroke="#000000" points="625.0763,-598.5673 634.881,-594.5524 624.7126,-591.5768 625.0763,-598.5673"/>
</g>
<!-- OUTPUT/fig&#45;2e&#45;inlet -->
<g id="node16" class="node">
<title>OUTPUT/fig&#45;2e&#45;inlet</title>
<g id="a_node16"><a xlink:href="OUTPUT/fig-2e-inlet" xlink:title="&lt;TABLE&gt;">
<polygon fill="none" stroke="#000000" points="161.5,-545 161.5,-570 280.5,-570 280.5,-545 161.5,-545"/>
<text text-anchor="start" x="166.5" y="-553.8" font-family="Times,serif" font-size="14.00" fill="#000000">OUTPUT_FILE</text>
<polygon fill="none" stroke="#000000" points="280.5,-545 280.5,-570 438.5,-570 438.5,-545 280.5,-545"/>
<text text-anchor="start" x="285.5" y="-553.8" font-family="Times,serif" font-size="14.00" fill="#000000">OUTPUT/fig&#45;2e&#45;inlet</text>
</a>
</g>
</g>
<!-- OUTPUT/fig&#45;2e&#45;inlet&#45;&gt;src/make_chipseq_pileups.py -->
<g id="edge12" class="edge">
<title>OUTPUT/fig&#45;2e&#45;inlet&#45;&gt;src/make_chipseq_pileups.py</title>
<path fill="none" stroke="#000000" d="M446.1435,-565.6289C501.5407,-568.5108 565.4597,-571.8361 624.5311,-574.9091"/>
<polygon fill="#000000" stroke="#000000" points="624.5635,-578.4155 634.7318,-575.4398 624.9272,-571.4249 624.5635,-578.4155"/>
</g>
<!-- OUTPUT/fig&#45;2f -->
<g id="node17" class="node">
<title>OUTPUT/fig&#45;2f</title>
<g id="a_node17"><a xlink:href="OUTPUT/fig-2f" xlink:title="&lt;TABLE&gt;">
<polygon fill="none" stroke="#000000" points="181.5,-491 181.5,-516 300.5,-516 300.5,-491 181.5,-491"/>
<text text-anchor="start" x="186.5" y="-499.8" font-family="Times,serif" font-size="14.00" fill="#000000">OUTPUT_FILE</text>
<polygon fill="none" stroke="#000000" points="300.5,-491 300.5,-516 418.5,-516 418.5,-491 300.5,-491"/>
<text text-anchor="start" x="305.5" y="-499.8" font-family="Times,serif" font-size="14.00" fill="#000000">OUTPUT/fig&#45;2f</text>
</a>
</g>
</g>
<!-- OUTPUT/fig&#45;2f&#45;&gt;src/make_chipseq_pileups.py -->
<g id="edge13" class="edge">
<title>OUTPUT/fig&#45;2f&#45;&gt;src/make_chipseq_pileups.py</title>
<path fill="none" stroke="#000000" d="M426.0927,-511.1499C479.6697,-515.2767 542.6146,-521.5783 599,-531 648.7354,-539.3105 703.8415,-552.8825 746.3976,-564.3406"/>
<polygon fill="#000000" stroke="#000000" points="745.5376,-567.7337 756.1053,-566.9762 747.3717,-560.9783 745.5376,-567.7337"/>
</g>
<!-- OUTPUT/gene_lists_dataframe.csv -->
<g id="node18" class="node">
<title>OUTPUT/gene_lists_dataframe.csv</title>
<g id="a_node18"><a xlink:href="OUTPUT/gene_lists_dataframe.csv" xlink:title="&lt;TABLE&gt;">
<polygon fill="none" stroke="#000000" points="109.5,-707 109.5,-732 228.5,-732 228.5,-707 109.5,-707"/>
<text text-anchor="start" x="114.5" y="-715.8" font-family="Times,serif" font-size="14.00" fill="#000000">OUTPUT_FILE</text>
<polygon fill="none" stroke="#000000" points="228.5,-707 228.5,-732 490.5,-732 490.5,-707 228.5,-707"/>
<text text-anchor="start" x="233.5" y="-715.8" font-family="Times,serif" font-size="14.00" fill="#000000">OUTPUT/gene_lists_dataframe.csv</text>
</a>
</g>
</g>
<!-- src/make_gene_lists.py -->
<g id="node19" class="node">
<title>src/make_gene_lists.py</title>
<g id="a_node19"><a xlink:href="src/make_gene_lists.py" xlink:title="&lt;TABLE&gt;">
<polygon fill="none" stroke="#000000" points="664.5,-707 664.5,-732 794.5,-732 794.5,-707 664.5,-707"/>
<text text-anchor="start" x="669.5" y="-715.8" font-family="Times,serif" font-size="14.00" fill="#000000">RUNTIME_FILE</text>
<polygon fill="none" stroke="#000000" points="794.5,-707 794.5,-732 972.5,-732 972.5,-707 794.5,-707"/>
<text text-anchor="start" x="799.5" y="-715.8" font-family="Times,serif" font-size="14.00" fill="#000000">src/make_gene_lists.py</text>
</a>
</g>
</g>
<!-- OUTPUT/gene_lists_dataframe.csv&#45;&gt;src/make_gene_lists.py -->
<g id="edge14" class="edge">
<title>OUTPUT/gene_lists_dataframe.csv&#45;&gt;src/make_gene_lists.py</title>
<path fill="none" stroke="#000000" d="M498.3039,-720C547.0349,-720 598.7913,-720 646.1631,-720"/>
<polygon fill="#000000" stroke="#000000" points="646.2025,-723.5001 656.2025,-720 646.2024,-716.5001 646.2025,-723.5001"/>
</g>
<!-- /home/user/repos/polyq&#45;figures/OUTPUT/index.json.list.dot.svg -->
<g id="node20" class="node">
<title>/home/user/repos/polyq&#45;figures/OUTPUT/index.json.list.dot.svg</title>
<g id="a_node20"><a xlink:href="/home/user/repos/polyq-figures/OUTPUT/index.json.list.dot.svg" xlink:title="&lt;TABLE&gt;">
<polygon fill="none" stroke="#000000" points="8.5,-761 8.5,-786 127.5,-786 127.5,-761 8.5,-761"/>
<text text-anchor="start" x="13.5" y="-769.8" font-family="Times,serif" font-size="14.00" fill="#000000">OUTPUT_FILE</text>
<polygon fill="none" stroke="#000000" points="127.5,-761 127.5,-786 591.5,-786 591.5,-761 127.5,-761"/>
<text text-anchor="start" x="132.5" y="-769.8" font-family="Times,serif" font-size="14.00" fill="#000000">/home/user/repos/polyq&#45;figures/OUTPUT/index.json.list.dot.svg</text>
</a>
</g>
</g>
<!-- src/make_dep_graph.py -->
<g id="node21" class="node">
<title>src/make_dep_graph.py</title>
<g id="a_node21"><a xlink:href="src/make_dep_graph.py" xlink:title="&lt;TABLE&gt;">
<polygon fill="none" stroke="#000000" points="662.5,-761 662.5,-786 792.5,-786 792.5,-761 662.5,-761"/>
<text text-anchor="start" x="667.5" y="-769.8" font-family="Times,serif" font-size="14.00" fill="#000000">RUNTIME_FILE</text>
<polygon fill="none" stroke="#000000" points="792.5,-761 792.5,-786 974.5,-786 974.5,-761 792.5,-761"/>
<text text-anchor="start" x="797.5" y="-769.8" font-family="Times,serif" font-size="14.00" fill="#000000">src/make_dep_graph.py</text>
</a>
</g>
</g>
<!-- /home/user/repos/polyq&#45;figures/OUTPUT/index.json.list.dot.svg&#45;&gt;src/make_dep_graph.py -->
<g id="edge15" class="edge">
<title>/home/user/repos/polyq&#45;figures/OUTPUT/index.json.list.dot.svg&#45;&gt;src/make_dep_graph.py</title>
<path fill="none" stroke="#000000" d="M599.1495,-774C614.3975,-774 629.4559,-774 644.1073,-774"/>
<polygon fill="#000000" stroke="#000000" points="644.1829,-777.5001 654.1828,-774 644.1828,-770.5001 644.1829,-777.5001"/>
</g>
</g>
</svg>
