<?xml version="1.0" encoding="UTF-8" standalone="no"?>
<!DOCTYPE svg PUBLIC "-//W3C//DTD SVG 1.1//EN"
 "http://www.w3.org/Graphics/SVG/1.1/DTD/svg11.dtd">
<!-- Generated by graphviz version 2.38.0 (20140413.2041)
 -->
<!-- Title: structs Pages: 1 -->
<svg width="1083pt" height="746pt"
 viewBox="0.00 0.00 1083.00 746.00" xmlns="http://www.w3.org/2000/svg" xmlns:xlink="http://www.w3.org/1999/xlink">
<g id="graph0" class="graph" transform="scale(1 1) rotate(0) translate(4 742)">
<title>structs</title>
<polygon fill="white" stroke="none" points="-4,4 -4,-742 1079,-742 1079,4 -4,4"/>
<!-- OUTPUT/src_BOXPLOT_1_OX&#45;lines.tsv.svg -->
<g id="node1" class="node"><title>OUTPUT/src_BOXPLOT_1_OX&#45;lines.tsv.svg</title>
<g id="a_node1"><a xlink:href="OUTPUT/src_BOXPLOT_1_OX-lines.tsv.svg" xlink:title="&lt;TABLE&gt;">
<polygon fill="none" stroke="black" points="120.5,-113 120.5,-138 236.5,-138 236.5,-113 120.5,-113"/>
<text text-anchor="start" x="125.5" y="-121.8" font-family="Times,serif" font-size="14.00">OUTPUT_FILE</text>
<polygon fill="none" stroke="black" points="236.5,-113 236.5,-138 552.5,-138 552.5,-113 236.5,-113"/>
<text text-anchor="start" x="241.5" y="-121.8" font-family="Times,serif" font-size="14.00">OUTPUT/src_BOXPLOT_1_OX&#45;lines.tsv.svg</text>
</a>
</g>
</g>
<!-- src/make_boxplot.py -->
<g id="node2" class="node"><title>src/make_boxplot.py</title>
<g id="a_node2"><a xlink:href="src/make_boxplot.py" xlink:title="&lt;TABLE&gt;">
<polygon fill="none" stroke="black" points="748,-59 748,-84 877,-84 877,-59 748,-59"/>
<text text-anchor="start" x="753" y="-67.8" font-family="Times,serif" font-size="14.00">RUNTIME_FILE</text>
<polygon fill="none" stroke="black" points="877,-59 877,-84 1036,-84 1036,-59 877,-59"/>
<text text-anchor="start" x="882" y="-67.8" font-family="Times,serif" font-size="14.00">src/make_boxplot.py</text>
</a>
</g>
</g>
<!-- OUTPUT/src_BOXPLOT_1_OX&#45;lines.tsv.svg&#45;&gt;src/make_boxplot.py -->
<g id="edge1" class="edge"><title>OUTPUT/src_BOXPLOT_1_OX&#45;lines.tsv.svg&#45;&gt;src/make_boxplot.py</title>
<path fill="none" stroke="black" d="M560.95,-109.363C598.386,-106.19 636.813,-102.695 673,-99 695.574,-96.6948 719.431,-94.0027 742.755,-91.2279"/>
<polygon fill="black" stroke="black" points="743.2,-94.6996 752.713,-90.0346 742.367,-87.7494 743.2,-94.6996"/>
</g>
<!-- OUTPUT/src_BOXPLOT2_mutants.tsv.svg -->
<g id="node3" class="node"><title>OUTPUT/src_BOXPLOT2_mutants.tsv.svg</title>
<g id="a_node3"><a xlink:href="OUTPUT/src_BOXPLOT2_mutants.tsv.svg" xlink:title="&lt;TABLE&gt;">
<polygon fill="none" stroke="black" points="124.5,-59 124.5,-84 240.5,-84 240.5,-59 124.5,-59"/>
<text text-anchor="start" x="129.5" y="-67.8" font-family="Times,serif" font-size="14.00">OUTPUT_FILE</text>
<polygon fill="none" stroke="black" points="240.5,-59 240.5,-84 548.5,-84 548.5,-59 240.5,-59"/>
<text text-anchor="start" x="245.5" y="-67.8" font-family="Times,serif" font-size="14.00">OUTPUT/src_BOXPLOT2_mutants.tsv.svg</text>
</a>
</g>
</g>
<!-- OUTPUT/src_BOXPLOT2_mutants.tsv.svg&#45;&gt;src/make_boxplot.py -->
<g id="edge2" class="edge"><title>OUTPUT/src_BOXPLOT2_mutants.tsv.svg&#45;&gt;src/make_boxplot.py</title>
<path fill="none" stroke="black" d="M556.655,-72C614.369,-72 675.579,-72 729.635,-72"/>
<polygon fill="black" stroke="black" points="729.643,-75.5001 739.643,-72 729.643,-68.5001 729.643,-75.5001"/>
</g>
<!-- OUTPUT/src_BOXPLOT3_Qlines.tsv.svg -->
<g id="node4" class="node"><title>OUTPUT/src_BOXPLOT3_Qlines.tsv.svg</title>
<g id="a_node4"><a xlink:href="OUTPUT/src_BOXPLOT3_Qlines.tsv.svg" xlink:title="&lt;TABLE&gt;">
<polygon fill="none" stroke="black" points="131.5,-5 131.5,-30 247.5,-30 247.5,-5 131.5,-5"/>
<text text-anchor="start" x="136.5" y="-13.8" font-family="Times,serif" font-size="14.00">OUTPUT_FILE</text>
<polygon fill="none" stroke="black" points="247.5,-5 247.5,-30 541.5,-30 541.5,-5 247.5,-5"/>
<text text-anchor="start" x="252.5" y="-13.8" font-family="Times,serif" font-size="14.00">OUTPUT/src_BOXPLOT3_Qlines.tsv.svg</text>
</a>
</g>
</g>
<!-- OUTPUT/src_BOXPLOT3_Qlines.tsv.svg&#45;&gt;src/make_boxplot.py -->
<g id="edge3" class="edge"><title>OUTPUT/src_BOXPLOT3_Qlines.tsv.svg&#45;&gt;src/make_boxplot.py</title>
<path fill="none" stroke="black" d="M549.707,-33.6909C590.648,-37.1102 633.179,-40.9336 673,-45 695.574,-47.3052 719.431,-49.9973 742.755,-52.7721"/>
<polygon fill="black" stroke="black" points="742.367,-56.2506 752.713,-53.9654 743.2,-49.3004 742.367,-56.2506"/>
</g>
<!-- OUTPUT/src_FIG&#45;S6_HEATMAP1_Q&#45;lines.tsv.png -->
<g id="node5" class="node"><title>OUTPUT/src_FIG&#45;S6_HEATMAP1_Q&#45;lines.tsv.png</title>
<g id="a_node5"><a xlink:href="OUTPUT/src_FIG-S6_HEATMAP1_Q-lines.tsv.png" xlink:title="&lt;TABLE&gt;">
<polygon fill="none" stroke="black" points="96.5,-275 96.5,-300 212.5,-300 212.5,-275 96.5,-275"/>
<text text-anchor="start" x="101.5" y="-283.8" font-family="Times,serif" font-size="14.00">OUTPUT_FILE</text>
<polygon fill="none" stroke="black" points="212.5,-275 212.5,-300 576.5,-300 576.5,-275 212.5,-275"/>
<text text-anchor="start" x="217.5" y="-283.8" font-family="Times,serif" font-size="14.00">OUTPUT/src_FIG&#45;S6_HEATMAP1_Q&#45;lines.tsv.png</text>
</a>
</g>
</g>
<!-- src/make_heatmap.py -->
<g id="node6" class="node"><title>src/make_heatmap.py</title>
<g id="a_node6"><a xlink:href="src/make_heatmap.py" xlink:title="&lt;TABLE&gt;">
<polygon fill="none" stroke="black" points="744,-221 744,-246 873,-246 873,-221 744,-221"/>
<text text-anchor="start" x="749" y="-229.8" font-family="Times,serif" font-size="14.00">RUNTIME_FILE</text>
<polygon fill="none" stroke="black" points="873,-221 873,-246 1041,-246 1041,-221 873,-221"/>
<text text-anchor="start" x="878" y="-229.8" font-family="Times,serif" font-size="14.00">src/make_heatmap.py</text>
</a>
</g>
</g>
<!-- OUTPUT/src_FIG&#45;S6_HEATMAP1_Q&#45;lines.tsv.png&#45;&gt;src/make_heatmap.py -->
<g id="edge4" class="edge"><title>OUTPUT/src_FIG&#45;S6_HEATMAP1_Q&#45;lines.tsv.png&#45;&gt;src/make_heatmap.py</title>
<path fill="none" stroke="black" d="M577.24,-269.967C609.451,-267.175 642.044,-264.161 673,-261 695.574,-258.695 719.431,-256.003 742.755,-253.228"/>
<polygon fill="black" stroke="black" points="743.2,-256.7 752.713,-252.035 742.367,-249.749 743.2,-256.7"/>
</g>
<!-- OUTPUT/src_FIG&#45;S5_HEATMAP2_genotypes.tsv.png -->
<g id="node7" class="node"><title>OUTPUT/src_FIG&#45;S5_HEATMAP2_genotypes.tsv.png</title>
<g id="a_node7"><a xlink:href="OUTPUT/src_FIG-S5_HEATMAP2_genotypes.tsv.png" xlink:title="&lt;TABLE&gt;">
<polygon fill="none" stroke="black" points="85.5,-221 85.5,-246 201.5,-246 201.5,-221 85.5,-221"/>
<text text-anchor="start" x="90.5" y="-229.8" font-family="Times,serif" font-size="14.00">OUTPUT_FILE</text>
<polygon fill="none" stroke="black" points="201.5,-221 201.5,-246 588.5,-246 588.5,-221 201.5,-221"/>
<text text-anchor="start" x="206.5" y="-229.8" font-family="Times,serif" font-size="14.00">OUTPUT/src_FIG&#45;S5_HEATMAP2_genotypes.tsv.png</text>
</a>
</g>
</g>
<!-- OUTPUT/src_FIG&#45;S5_HEATMAP2_genotypes.tsv.png&#45;&gt;src/make_heatmap.py -->
<g id="edge5" class="edge"><title>OUTPUT/src_FIG&#45;S5_HEATMAP2_genotypes.tsv.png&#45;&gt;src/make_heatmap.py</title>
<path fill="none" stroke="black" d="M596.019,-234C639.891,-234 684.376,-234 725.039,-234"/>
<polygon fill="black" stroke="black" points="725.292,-237.5 735.292,-234 725.292,-230.5 725.292,-237.5"/>
</g>
<!-- OUTPUT/src_FIG&#45;S7_HEATMAP3.tsv.png -->
<g id="node8" class="node"><title>OUTPUT/src_FIG&#45;S7_HEATMAP3.tsv.png</title>
<g id="a_node8"><a xlink:href="OUTPUT/src_FIG-S7_HEATMAP3.tsv.png" xlink:title="&lt;TABLE&gt;">
<polygon fill="none" stroke="black" points="125.5,-167 125.5,-192 241.5,-192 241.5,-167 125.5,-167"/>
<text text-anchor="start" x="130.5" y="-175.8" font-family="Times,serif" font-size="14.00">OUTPUT_FILE</text>
<polygon fill="none" stroke="black" points="241.5,-167 241.5,-192 547.5,-192 547.5,-167 241.5,-167"/>
<text text-anchor="start" x="246.5" y="-175.8" font-family="Times,serif" font-size="14.00">OUTPUT/src_FIG&#45;S7_HEATMAP3.tsv.png</text>
</a>
</g>
</g>
<!-- OUTPUT/src_FIG&#45;S7_HEATMAP3.tsv.png&#45;&gt;src/make_heatmap.py -->
<g id="edge6" class="edge"><title>OUTPUT/src_FIG&#45;S7_HEATMAP3.tsv.png&#45;&gt;src/make_heatmap.py</title>
<path fill="none" stroke="black" d="M555.545,-196.18C594.677,-199.474 635.069,-203.127 673,-207 695.574,-209.305 719.431,-211.997 742.755,-214.772"/>
<polygon fill="black" stroke="black" points="742.367,-218.251 752.713,-215.965 743.2,-211.3 742.367,-218.251"/>
</g>
<!-- OUTPUT/chipseq_differential_binding.peak_list.bed -->
<g id="node9" class="node"><title>OUTPUT/chipseq_differential_binding.peak_list.bed</title>
<g id="a_node9"><a xlink:href="OUTPUT/chipseq_differential_binding.peak_list.bed" xlink:title="&lt;TABLE&gt;">
<polygon fill="none" stroke="black" points="88.5,-437 88.5,-462 204.5,-462 204.5,-437 88.5,-437"/>
<text text-anchor="start" x="93.5" y="-445.8" font-family="Times,serif" font-size="14.00">OUTPUT_FILE</text>
<polygon fill="none" stroke="black" points="204.5,-437 204.5,-462 584.5,-462 584.5,-437 204.5,-437"/>
<text text-anchor="start" x="209.5" y="-445.8" font-family="Times,serif" font-size="14.00">OUTPUT/chipseq_differential_binding.peak_list.bed</text>
</a>
</g>
</g>
<!-- src/make_chipseq_targets.py -->
<g id="node10" class="node"><title>src/make_chipseq_targets.py</title>
<g id="a_node10"><a xlink:href="src/make_chipseq_targets.py" xlink:title="&lt;TABLE&gt;">
<polygon fill="none" stroke="black" points="717,-383 717,-408 846,-408 846,-383 717,-383"/>
<text text-anchor="start" x="722" y="-391.8" font-family="Times,serif" font-size="14.00">RUNTIME_FILE</text>
<polygon fill="none" stroke="black" points="846,-383 846,-408 1067,-408 1067,-383 846,-383"/>
<text text-anchor="start" x="851" y="-391.8" font-family="Times,serif" font-size="14.00">src/make_chipseq_targets.py</text>
</a>
</g>
</g>
<!-- OUTPUT/chipseq_differential_binding.peak_list.bed&#45;&gt;src/make_chipseq_targets.py -->
<g id="edge7" class="edge"><title>OUTPUT/chipseq_differential_binding.peak_list.bed&#45;&gt;src/make_chipseq_targets.py</title>
<path fill="none" stroke="black" d="M577.24,-431.967C609.451,-429.175 642.044,-426.161 673,-423 695.574,-420.695 719.431,-418.003 742.755,-415.228"/>
<polygon fill="black" stroke="black" points="743.2,-418.7 752.713,-414.035 742.367,-411.749 743.2,-418.7"/>
</g>
<!-- OUTPUT/chipseq_differential_binding.peak_list.csv -->
<g id="node11" class="node"><title>OUTPUT/chipseq_differential_binding.peak_list.csv</title>
<g id="a_node11"><a xlink:href="OUTPUT/chipseq_differential_binding.peak_list.csv" xlink:title="&lt;TABLE&gt;">
<polygon fill="none" stroke="black" points="89.5,-383 89.5,-408 205.5,-408 205.5,-383 89.5,-383"/>
<text text-anchor="start" x="94.5" y="-391.8" font-family="Times,serif" font-size="14.00">OUTPUT_FILE</text>
<polygon fill="none" stroke="black" points="205.5,-383 205.5,-408 583.5,-408 583.5,-383 205.5,-383"/>
<text text-anchor="start" x="210.5" y="-391.8" font-family="Times,serif" font-size="14.00">OUTPUT/chipseq_differential_binding.peak_list.csv</text>
</a>
</g>
</g>
<!-- OUTPUT/chipseq_differential_binding.peak_list.csv&#45;&gt;src/make_chipseq_targets.py -->
<g id="edge8" class="edge"><title>OUTPUT/chipseq_differential_binding.peak_list.csv&#45;&gt;src/make_chipseq_targets.py</title>
<path fill="none" stroke="black" d="M591.57,-396C627.524,-396 663.991,-396 698.524,-396"/>
<polygon fill="black" stroke="black" points="698.691,-399.5 708.691,-396 698.691,-392.5 698.691,-399.5"/>
</g>
<!-- OUTPUT/chipseq_targets_genes_job.peak_list.csv -->
<g id="node12" class="node"><title>OUTPUT/chipseq_targets_genes_job.peak_list.csv</title>
<g id="a_node12"><a xlink:href="OUTPUT/chipseq_targets_genes_job.peak_list.csv" xlink:title="&lt;TABLE&gt;">
<polygon fill="none" stroke="black" points="94.5,-329 94.5,-354 210.5,-354 210.5,-329 94.5,-329"/>
<text text-anchor="start" x="99.5" y="-337.8" font-family="Times,serif" font-size="14.00">OUTPUT_FILE</text>
<polygon fill="none" stroke="black" points="210.5,-329 210.5,-354 578.5,-354 578.5,-329 210.5,-329"/>
<text text-anchor="start" x="215.5" y="-337.8" font-family="Times,serif" font-size="14.00">OUTPUT/chipseq_targets_genes_job.peak_list.csv</text>
</a>
</g>
</g>
<!-- OUTPUT/chipseq_targets_genes_job.peak_list.csv&#45;&gt;src/make_chipseq_targets.py -->
<g id="edge9" class="edge"><title>OUTPUT/chipseq_targets_genes_job.peak_list.csv&#45;&gt;src/make_chipseq_targets.py</title>
<path fill="none" stroke="black" d="M577.24,-360.033C609.451,-362.825 642.044,-365.839 673,-369 695.574,-371.305 719.431,-373.997 742.755,-376.772"/>
<polygon fill="black" stroke="black" points="742.367,-380.251 752.713,-377.965 743.2,-373.3 742.367,-380.251"/>
</g>
<!-- OUTPUT/fig&#45;2c -->
<g id="node13" class="node"><title>OUTPUT/fig&#45;2c</title>
<g id="a_node13"><a xlink:href="OUTPUT/fig-2c" xlink:title="&lt;TABLE&gt;">
<polygon fill="none" stroke="black" points="220.5,-599 220.5,-624 336.5,-624 336.5,-599 220.5,-599"/>
<text text-anchor="start" x="225.5" y="-607.8" font-family="Times,serif" font-size="14.00">OUTPUT_FILE</text>
<polygon fill="none" stroke="black" points="336.5,-599 336.5,-624 452.5,-624 452.5,-599 336.5,-599"/>
<text text-anchor="start" x="341.5" y="-607.8" font-family="Times,serif" font-size="14.00">OUTPUT/fig&#45;2c</text>
</a>
</g>
</g>
<!-- src/make_chipseq_pileups.py -->
<g id="node14" class="node"><title>src/make_chipseq_pileups.py</title>
<g id="a_node14"><a xlink:href="src/make_chipseq_pileups.py" xlink:title="&lt;TABLE&gt;">
<polygon fill="none" stroke="black" points="717,-545 717,-570 846,-570 846,-545 717,-545"/>
<text text-anchor="start" x="722" y="-553.8" font-family="Times,serif" font-size="14.00">RUNTIME_FILE</text>
<polygon fill="none" stroke="black" points="846,-545 846,-570 1067,-570 1067,-545 846,-545"/>
<text text-anchor="start" x="851" y="-553.8" font-family="Times,serif" font-size="14.00">src/make_chipseq_pileups.py</text>
</a>
</g>
</g>
<!-- OUTPUT/fig&#45;2c&#45;&gt;src/make_chipseq_pileups.py -->
<g id="edge10" class="edge"><title>OUTPUT/fig&#45;2c&#45;&gt;src/make_chipseq_pileups.py</title>
<path fill="none" stroke="black" d="M460.708,-603.357C524.186,-598.581 602.805,-592.168 673,-585 695.574,-582.695 719.431,-580.003 742.755,-577.228"/>
<polygon fill="black" stroke="black" points="743.2,-580.7 752.713,-576.035 742.367,-573.749 743.2,-580.7"/>
</g>
<!-- OUTPUT/fig&#45;2d -->
<g id="node15" class="node"><title>OUTPUT/fig&#45;2d</title>
<g id="a_node15"><a xlink:href="OUTPUT/fig-2d" xlink:title="&lt;TABLE&gt;">
<polygon fill="none" stroke="black" points="220.5,-545 220.5,-570 336.5,-570 336.5,-545 220.5,-545"/>
<text text-anchor="start" x="225.5" y="-553.8" font-family="Times,serif" font-size="14.00">OUTPUT_FILE</text>
<polygon fill="none" stroke="black" points="336.5,-545 336.5,-570 453.5,-570 453.5,-545 336.5,-545"/>
<text text-anchor="start" x="341.5" y="-553.8" font-family="Times,serif" font-size="14.00">OUTPUT/fig&#45;2d</text>
</a>
</g>
</g>
<!-- OUTPUT/fig&#45;2d&#45;&gt;src/make_chipseq_pileups.py -->
<g id="edge11" class="edge"><title>OUTPUT/fig&#45;2d&#45;&gt;src/make_chipseq_pileups.py</title>
<path fill="none" stroke="black" d="M461.027,-558C530.92,-558 619.852,-558 698.679,-558"/>
<polygon fill="black" stroke="black" points="698.735,-561.5 708.735,-558 698.735,-554.5 698.735,-561.5"/>
</g>
<!-- OUTPUT/fig&#45;2e -->
<g id="node16" class="node"><title>OUTPUT/fig&#45;2e</title>
<g id="a_node16"><a xlink:href="OUTPUT/fig-2e" xlink:title="&lt;TABLE&gt;">
<polygon fill="none" stroke="black" points="220.5,-491 220.5,-516 336.5,-516 336.5,-491 220.5,-491"/>
<text text-anchor="start" x="225.5" y="-499.8" font-family="Times,serif" font-size="14.00">OUTPUT_FILE</text>
<polygon fill="none" stroke="black" points="336.5,-491 336.5,-516 452.5,-516 452.5,-491 336.5,-491"/>
<text text-anchor="start" x="341.5" y="-499.8" font-family="Times,serif" font-size="14.00">OUTPUT/fig&#45;2e</text>
</a>
</g>
</g>
<!-- OUTPUT/fig&#45;2e&#45;&gt;src/make_chipseq_pileups.py -->
<g id="edge12" class="edge"><title>OUTPUT/fig&#45;2e&#45;&gt;src/make_chipseq_pileups.py</title>
<path fill="none" stroke="black" d="M460.708,-512.643C524.186,-517.419 602.805,-523.832 673,-531 695.574,-533.305 719.431,-535.997 742.755,-538.772"/>
<polygon fill="black" stroke="black" points="742.367,-542.251 752.713,-539.965 743.2,-535.3 742.367,-542.251"/>
</g>
<!-- OUTPUT/gene_lists_dataframe.csv -->
<g id="node17" class="node"><title>OUTPUT/gene_lists_dataframe.csv</title>
<g id="a_node17"><a xlink:href="OUTPUT/gene_lists_dataframe.csv" xlink:title="&lt;TABLE&gt;">
<polygon fill="none" stroke="black" points="149.5,-653 149.5,-678 265.5,-678 265.5,-653 149.5,-653"/>
<text text-anchor="start" x="154.5" y="-661.8" font-family="Times,serif" font-size="14.00">OUTPUT_FILE</text>
<polygon fill="none" stroke="black" points="265.5,-653 265.5,-678 523.5,-678 523.5,-653 265.5,-653"/>
<text text-anchor="start" x="270.5" y="-661.8" font-family="Times,serif" font-size="14.00">OUTPUT/gene_lists_dataframe.csv</text>
</a>
</g>
</g>
<!-- src/make_gene_lists.py -->
<g id="node18" class="node"><title>src/make_gene_lists.py</title>
<g id="a_node18"><a xlink:href="src/make_gene_lists.py" xlink:title="&lt;TABLE&gt;">
<polygon fill="none" stroke="black" points="739,-653 739,-678 868,-678 868,-653 739,-653"/>
<text text-anchor="start" x="744" y="-661.8" font-family="Times,serif" font-size="14.00">RUNTIME_FILE</text>
<polygon fill="none" stroke="black" points="868,-653 868,-678 1046,-678 1046,-653 868,-653"/>
<text text-anchor="start" x="873" y="-661.8" font-family="Times,serif" font-size="14.00">src/make_gene_lists.py</text>
</a>
</g>
</g>
<!-- OUTPUT/gene_lists_dataframe.csv&#45;&gt;src/make_gene_lists.py -->
<g id="edge13" class="edge"><title>OUTPUT/gene_lists_dataframe.csv&#45;&gt;src/make_gene_lists.py</title>
<path fill="none" stroke="black" d="M531.865,-666C593.26,-666 660.607,-666 720.225,-666"/>
<polygon fill="black" stroke="black" points="720.492,-669.5 730.492,-666 720.492,-662.5 720.492,-669.5"/>
</g>
<!-- /home/travis/build/shouldsee/polyq&#45;figures/OUTPUT/index.json.list.dot.svg -->
<g id="node19" class="node"><title>/home/travis/build/shouldsee/polyq&#45;figures/OUTPUT/index.json.list.dot.svg</title>
<g id="a_node19"><a xlink:href="/home/travis/build/shouldsee/polyq-figures/OUTPUT/index.json.list.dot.svg" xlink:title="&lt;TABLE&gt;">
<polygon fill="none" stroke="black" points="8.5,-707 8.5,-732 124.5,-732 124.5,-707 8.5,-707"/>
<text text-anchor="start" x="13.5" y="-715.8" font-family="Times,serif" font-size="14.00">OUTPUT_FILE</text>
<polygon fill="none" stroke="black" points="124.5,-707 124.5,-732 665.5,-732 665.5,-707 124.5,-707"/>
<text text-anchor="start" x="129.5" y="-715.8" font-family="Times,serif" font-size="14.00">/home/travis/build/shouldsee/polyq&#45;figures/OUTPUT/index.json.list.dot.svg</text>
</a>
</g>
</g>
<!-- src/make_dep_graph.py -->
<g id="node20" class="node"><title>src/make_dep_graph.py</title>
<g id="a_node20"><a xlink:href="src/make_dep_graph.py" xlink:title="&lt;TABLE&gt;">
<polygon fill="none" stroke="black" points="737,-707 737,-732 866,-732 866,-707 737,-707"/>
<text text-anchor="start" x="742" y="-715.8" font-family="Times,serif" font-size="14.00">RUNTIME_FILE</text>
<polygon fill="none" stroke="black" points="866,-707 866,-732 1048,-732 1048,-707 866,-707"/>
<text text-anchor="start" x="871" y="-715.8" font-family="Times,serif" font-size="14.00">src/make_dep_graph.py</text>
</a>
</g>
</g>
<!-- /home/travis/build/shouldsee/polyq&#45;figures/OUTPUT/index.json.list.dot.svg&#45;&gt;src/make_dep_graph.py -->
<g id="edge14" class="edge"><title>/home/travis/build/shouldsee/polyq&#45;figures/OUTPUT/index.json.list.dot.svg&#45;&gt;src/make_dep_graph.py</title>
<path fill="none" stroke="black" d="M673.037,-720C688.439,-720 703.586,-720 718.275,-720"/>
<polygon fill="black" stroke="black" points="718.369,-723.5 728.369,-720 718.369,-716.5 718.369,-723.5"/>
</g>
</g>
</svg>
