<?xml version="1.0" encoding="utf-8" standalone="no"?>
<!DOCTYPE svg PUBLIC "-//W3C//DTD SVG 1.1//EN"
  "http://www.w3.org/Graphics/SVG/1.1/DTD/svg11.dtd">
<!-- Created with matplotlib (http://matplotlib.org/) -->
<svg height="612.23875pt" version="1.1" viewBox="0 0 444.198438 612.23875" width="444.198438pt" xmlns="http://www.w3.org/2000/svg" xmlns:xlink="http://www.w3.org/1999/xlink">
 <defs>
  <style type="text/css">
*{stroke-linecap:butt;stroke-linejoin:round;}
  </style>
 </defs>
 <g id="figure_1">
  <g id="patch_1">
   <path d="M 0 612.23875 
L 444.198438 612.23875 
L 444.198438 0 
L 0 0 
z
" style="fill:#ffffff;"/>
  </g>
  <g id="axes_1">
   <g id="patch_2">
    <path d="M 42.898438 410.398125 
L 433.498438 410.398125 
L 433.498438 22.318125 
L 42.898438 22.318125 
z
" style="fill:#ffffff;"/>
   </g>
   <g id="matplotlib.axis_1">
    <g id="xtick_1">
     <g id="line2d_1">
      <path clip-path="url(#pa2ec8f51a8)" d="M 64.598438 410.398125 
L 64.598438 22.318125 
" style="fill:none;stroke:#b0b0b0;stroke-linecap:square;stroke-width:0.8;"/>
     </g>
     <g id="line2d_2">
      <defs>
       <path d="M 0 0 
L 0 3.5 
" id="me0e364472a" style="stroke:#000000;stroke-width:0.8;"/>
      </defs>
      <g>
       <use style="stroke:#000000;stroke-width:0.8;" x="64.598438" xlink:href="#me0e364472a" y="410.398125"/>
      </g>
     </g>
     <g id="text_1">
      <!-- 12C-ZT12-ELF3-OX AT-184RS6 -->
      <defs>
       <path d="M 12.40625 8.296875 
L 28.515625 8.296875 
L 28.515625 63.921875 
L 10.984375 60.40625 
L 10.984375 69.390625 
L 28.421875 72.90625 
L 38.28125 72.90625 
L 38.28125 8.296875 
L 54.390625 8.296875 
L 54.390625 0 
L 12.40625 0 
z
" id="DejaVuSans-31"/>
       <path d="M 19.1875 8.296875 
L 53.609375 8.296875 
L 53.609375 0 
L 7.328125 0 
L 7.328125 8.296875 
Q 12.9375 14.109375 22.625 23.890625 
Q 32.328125 33.6875 34.8125 36.53125 
Q 39.546875 41.84375 41.421875 45.53125 
Q 43.3125 49.21875 43.3125 52.78125 
Q 43.3125 58.59375 39.234375 62.25 
Q 35.15625 65.921875 28.609375 65.921875 
Q 23.96875 65.921875 18.8125 64.3125 
Q 13.671875 62.703125 7.8125 59.421875 
L 7.8125 69.390625 
Q 13.765625 71.78125 18.9375 73 
Q 24.125 74.21875 28.421875 74.21875 
Q 39.75 74.21875 46.484375 68.546875 
Q 53.21875 62.890625 53.21875 53.421875 
Q 53.21875 48.921875 51.53125 44.890625 
Q 49.859375 40.875 45.40625 35.40625 
Q 44.1875 33.984375 37.640625 27.21875 
Q 31.109375 20.453125 19.1875 8.296875 
z
" id="DejaVuSans-32"/>
       <path d="M 64.40625 67.28125 
L 64.40625 56.890625 
Q 59.421875 61.53125 53.78125 63.8125 
Q 48.140625 66.109375 41.796875 66.109375 
Q 29.296875 66.109375 22.65625 58.46875 
Q 16.015625 50.828125 16.015625 36.375 
Q 16.015625 21.96875 22.65625 14.328125 
Q 29.296875 6.6875 41.796875 6.6875 
Q 48.140625 6.6875 53.78125 8.984375 
Q 59.421875 11.28125 64.40625 15.921875 
L 64.40625 5.609375 
Q 59.234375 2.09375 53.4375 0.328125 
Q 47.65625 -1.421875 41.21875 -1.421875 
Q 24.65625 -1.421875 15.125 8.703125 
Q 5.609375 18.84375 5.609375 36.375 
Q 5.609375 53.953125 15.125 64.078125 
Q 24.65625 74.21875 41.21875 74.21875 
Q 47.75 74.21875 53.53125 72.484375 
Q 59.328125 70.75 64.40625 67.28125 
z
" id="DejaVuSans-43"/>
       <path d="M 4.890625 31.390625 
L 31.203125 31.390625 
L 31.203125 23.390625 
L 4.890625 23.390625 
z
" id="DejaVuSans-2d"/>
       <path d="M 5.609375 72.90625 
L 62.890625 72.90625 
L 62.890625 65.375 
L 16.796875 8.296875 
L 64.015625 8.296875 
L 64.015625 0 
L 4.5 0 
L 4.5 7.515625 
L 50.59375 64.59375 
L 5.609375 64.59375 
z
" id="DejaVuSans-5a"/>
       <path d="M -0.296875 72.90625 
L 61.375 72.90625 
L 61.375 64.59375 
L 35.5 64.59375 
L 35.5 0 
L 25.59375 0 
L 25.59375 64.59375 
L -0.296875 64.59375 
z
" id="DejaVuSans-54"/>
       <path d="M 9.8125 72.90625 
L 55.90625 72.90625 
L 55.90625 64.59375 
L 19.671875 64.59375 
L 19.671875 43.015625 
L 54.390625 43.015625 
L 54.390625 34.71875 
L 19.671875 34.71875 
L 19.671875 8.296875 
L 56.78125 8.296875 
L 56.78125 0 
L 9.8125 0 
z
" id="DejaVuSans-45"/>
       <path d="M 9.8125 72.90625 
L 19.671875 72.90625 
L 19.671875 8.296875 
L 55.171875 8.296875 
L 55.171875 0 
L 9.8125 0 
z
" id="DejaVuSans-4c"/>
       <path d="M 9.8125 72.90625 
L 51.703125 72.90625 
L 51.703125 64.59375 
L 19.671875 64.59375 
L 19.671875 43.109375 
L 48.578125 43.109375 
L 48.578125 34.8125 
L 19.671875 34.8125 
L 19.671875 0 
L 9.8125 0 
z
" id="DejaVuSans-46"/>
       <path d="M 40.578125 39.3125 
Q 47.65625 37.796875 51.625 33 
Q 55.609375 28.21875 55.609375 21.1875 
Q 55.609375 10.40625 48.1875 4.484375 
Q 40.765625 -1.421875 27.09375 -1.421875 
Q 22.515625 -1.421875 17.65625 -0.515625 
Q 12.796875 0.390625 7.625 2.203125 
L 7.625 11.71875 
Q 11.71875 9.328125 16.59375 8.109375 
Q 21.484375 6.890625 26.8125 6.890625 
Q 36.078125 6.890625 40.9375 10.546875 
Q 45.796875 14.203125 45.796875 21.1875 
Q 45.796875 27.640625 41.28125 31.265625 
Q 36.765625 34.90625 28.71875 34.90625 
L 20.21875 34.90625 
L 20.21875 43.015625 
L 29.109375 43.015625 
Q 36.375 43.015625 40.234375 45.921875 
Q 44.09375 48.828125 44.09375 54.296875 
Q 44.09375 59.90625 40.109375 62.90625 
Q 36.140625 65.921875 28.71875 65.921875 
Q 24.65625 65.921875 20.015625 65.03125 
Q 15.375 64.15625 9.8125 62.3125 
L 9.8125 71.09375 
Q 15.4375 72.65625 20.34375 73.4375 
Q 25.25 74.21875 29.59375 74.21875 
Q 40.828125 74.21875 47.359375 69.109375 
Q 53.90625 64.015625 53.90625 55.328125 
Q 53.90625 49.265625 50.4375 45.09375 
Q 46.96875 40.921875 40.578125 39.3125 
z
" id="DejaVuSans-33"/>
       <path d="M 39.40625 66.21875 
Q 28.65625 66.21875 22.328125 58.203125 
Q 16.015625 50.203125 16.015625 36.375 
Q 16.015625 22.609375 22.328125 14.59375 
Q 28.65625 6.59375 39.40625 6.59375 
Q 50.140625 6.59375 56.421875 14.59375 
Q 62.703125 22.609375 62.703125 36.375 
Q 62.703125 50.203125 56.421875 58.203125 
Q 50.140625 66.21875 39.40625 66.21875 
z
M 39.40625 74.21875 
Q 54.734375 74.21875 63.90625 63.9375 
Q 73.09375 53.65625 73.09375 36.375 
Q 73.09375 19.140625 63.90625 8.859375 
Q 54.734375 -1.421875 39.40625 -1.421875 
Q 24.03125 -1.421875 14.8125 8.828125 
Q 5.609375 19.09375 5.609375 36.375 
Q 5.609375 53.65625 14.8125 63.9375 
Q 24.03125 74.21875 39.40625 74.21875 
z
" id="DejaVuSans-4f"/>
       <path d="M 6.296875 72.90625 
L 16.890625 72.90625 
L 35.015625 45.796875 
L 53.21875 72.90625 
L 63.8125 72.90625 
L 40.375 37.890625 
L 65.375 0 
L 54.78125 0 
L 34.28125 31 
L 13.625 0 
L 2.984375 0 
L 29 38.921875 
z
" id="DejaVuSans-58"/>
       <path id="DejaVuSans-20"/>
       <path d="M 34.1875 63.1875 
L 20.796875 26.90625 
L 47.609375 26.90625 
z
M 28.609375 72.90625 
L 39.796875 72.90625 
L 67.578125 0 
L 57.328125 0 
L 50.6875 18.703125 
L 17.828125 18.703125 
L 11.1875 0 
L 0.78125 0 
z
" id="DejaVuSans-41"/>
       <path d="M 31.78125 34.625 
Q 24.75 34.625 20.71875 30.859375 
Q 16.703125 27.09375 16.703125 20.515625 
Q 16.703125 13.921875 20.71875 10.15625 
Q 24.75 6.390625 31.78125 6.390625 
Q 38.8125 6.390625 42.859375 10.171875 
Q 46.921875 13.96875 46.921875 20.515625 
Q 46.921875 27.09375 42.890625 30.859375 
Q 38.875 34.625 31.78125 34.625 
z
M 21.921875 38.8125 
Q 15.578125 40.375 12.03125 44.71875 
Q 8.5 49.078125 8.5 55.328125 
Q 8.5 64.0625 14.71875 69.140625 
Q 20.953125 74.21875 31.78125 74.21875 
Q 42.671875 74.21875 48.875 69.140625 
Q 55.078125 64.0625 55.078125 55.328125 
Q 55.078125 49.078125 51.53125 44.71875 
Q 48 40.375 41.703125 38.8125 
Q 48.828125 37.15625 52.796875 32.3125 
Q 56.78125 27.484375 56.78125 20.515625 
Q 56.78125 9.90625 50.3125 4.234375 
Q 43.84375 -1.421875 31.78125 -1.421875 
Q 19.734375 -1.421875 13.25 4.234375 
Q 6.78125 9.90625 6.78125 20.515625 
Q 6.78125 27.484375 10.78125 32.3125 
Q 14.796875 37.15625 21.921875 38.8125 
z
M 18.3125 54.390625 
Q 18.3125 48.734375 21.84375 45.5625 
Q 25.390625 42.390625 31.78125 42.390625 
Q 38.140625 42.390625 41.71875 45.5625 
Q 45.3125 48.734375 45.3125 54.390625 
Q 45.3125 60.0625 41.71875 63.234375 
Q 38.140625 66.40625 31.78125 66.40625 
Q 25.390625 66.40625 21.84375 63.234375 
Q 18.3125 60.0625 18.3125 54.390625 
z
" id="DejaVuSans-38"/>
       <path d="M 37.796875 64.3125 
L 12.890625 25.390625 
L 37.796875 25.390625 
z
M 35.203125 72.90625 
L 47.609375 72.90625 
L 47.609375 25.390625 
L 58.015625 25.390625 
L 58.015625 17.1875 
L 47.609375 17.1875 
L 47.609375 0 
L 37.796875 0 
L 37.796875 17.1875 
L 4.890625 17.1875 
L 4.890625 26.703125 
z
" id="DejaVuSans-34"/>
       <path d="M 44.390625 34.1875 
Q 47.5625 33.109375 50.5625 29.59375 
Q 53.5625 26.078125 56.59375 19.921875 
L 66.609375 0 
L 56 0 
L 46.6875 18.703125 
Q 43.0625 26.03125 39.671875 28.421875 
Q 36.28125 30.8125 30.421875 30.8125 
L 19.671875 30.8125 
L 19.671875 0 
L 9.8125 0 
L 9.8125 72.90625 
L 32.078125 72.90625 
Q 44.578125 72.90625 50.734375 67.671875 
Q 56.890625 62.453125 56.890625 51.90625 
Q 56.890625 45.015625 53.6875 40.46875 
Q 50.484375 35.9375 44.390625 34.1875 
z
M 19.671875 64.796875 
L 19.671875 38.921875 
L 32.078125 38.921875 
Q 39.203125 38.921875 42.84375 42.21875 
Q 46.484375 45.515625 46.484375 51.90625 
Q 46.484375 58.296875 42.84375 61.546875 
Q 39.203125 64.796875 32.078125 64.796875 
z
" id="DejaVuSans-52"/>
       <path d="M 53.515625 70.515625 
L 53.515625 60.890625 
Q 47.90625 63.578125 42.921875 64.890625 
Q 37.9375 66.21875 33.296875 66.21875 
Q 25.25 66.21875 20.875 63.09375 
Q 16.5 59.96875 16.5 54.203125 
Q 16.5 49.359375 19.40625 46.890625 
Q 22.3125 44.4375 30.421875 42.921875 
L 36.375 41.703125 
Q 47.40625 39.59375 52.65625 34.296875 
Q 57.90625 29 57.90625 20.125 
Q 57.90625 9.515625 50.796875 4.046875 
Q 43.703125 -1.421875 29.984375 -1.421875 
Q 24.8125 -1.421875 18.96875 -0.25 
Q 13.140625 0.921875 6.890625 3.21875 
L 6.890625 13.375 
Q 12.890625 10.015625 18.65625 8.296875 
Q 24.421875 6.59375 29.984375 6.59375 
Q 38.421875 6.59375 43.015625 9.90625 
Q 47.609375 13.234375 47.609375 19.390625 
Q 47.609375 24.75 44.3125 27.78125 
Q 41.015625 30.8125 33.5 32.328125 
L 27.484375 33.5 
Q 16.453125 35.6875 11.515625 40.375 
Q 6.59375 45.0625 6.59375 53.421875 
Q 6.59375 63.09375 13.40625 68.65625 
Q 20.21875 74.21875 32.171875 74.21875 
Q 37.3125 74.21875 42.625 73.28125 
Q 47.953125 72.359375 53.515625 70.515625 
z
" id="DejaVuSans-53"/>
       <path d="M 33.015625 40.375 
Q 26.375 40.375 22.484375 35.828125 
Q 18.609375 31.296875 18.609375 23.390625 
Q 18.609375 15.53125 22.484375 10.953125 
Q 26.375 6.390625 33.015625 6.390625 
Q 39.65625 6.390625 43.53125 10.953125 
Q 47.40625 15.53125 47.40625 23.390625 
Q 47.40625 31.296875 43.53125 35.828125 
Q 39.65625 40.375 33.015625 40.375 
z
M 52.59375 71.296875 
L 52.59375 62.3125 
Q 48.875 64.0625 45.09375 64.984375 
Q 41.3125 65.921875 37.59375 65.921875 
Q 27.828125 65.921875 22.671875 59.328125 
Q 17.53125 52.734375 16.796875 39.40625 
Q 19.671875 43.65625 24.015625 45.921875 
Q 28.375 48.1875 33.59375 48.1875 
Q 44.578125 48.1875 50.953125 41.515625 
Q 57.328125 34.859375 57.328125 23.390625 
Q 57.328125 12.15625 50.6875 5.359375 
Q 44.046875 -1.421875 33.015625 -1.421875 
Q 20.359375 -1.421875 13.671875 8.265625 
Q 6.984375 17.96875 6.984375 36.375 
Q 6.984375 53.65625 15.1875 63.9375 
Q 23.390625 74.21875 37.203125 74.21875 
Q 40.921875 74.21875 44.703125 73.484375 
Q 48.484375 72.75 52.59375 71.296875 
z
" id="DejaVuSans-36"/>
      </defs>
      <g transform="translate(67.357812 570.78875)rotate(-90)scale(0.1 -0.1)">
       <use xlink:href="#DejaVuSans-31"/>
       <use x="63.623047" xlink:href="#DejaVuSans-32"/>
       <use x="127.246094" xlink:href="#DejaVuSans-43"/>
       <use x="197.070312" xlink:href="#DejaVuSans-2d"/>
       <use x="233.154297" xlink:href="#DejaVuSans-5a"/>
       <use x="301.660156" xlink:href="#DejaVuSans-54"/>
       <use x="362.744141" xlink:href="#DejaVuSans-31"/>
       <use x="426.367188" xlink:href="#DejaVuSans-32"/>
       <use x="489.990234" xlink:href="#DejaVuSans-2d"/>
       <use x="526.074219" xlink:href="#DejaVuSans-45"/>
       <use x="589.257812" xlink:href="#DejaVuSans-4c"/>
       <use x="644.970703" xlink:href="#DejaVuSans-46"/>
       <use x="702.490234" xlink:href="#DejaVuSans-33"/>
       <use x="766.113281" xlink:href="#DejaVuSans-2d"/>
       <use x="802.228516" xlink:href="#DejaVuSans-4f"/>
       <use x="880.845703" xlink:href="#DejaVuSans-58"/>
       <use x="949.351562" xlink:href="#DejaVuSans-20"/>
       <use x="981.138672" xlink:href="#DejaVuSans-41"/>
       <use x="1049.4375" xlink:href="#DejaVuSans-54"/>
       <use x="1110.380859" xlink:href="#DejaVuSans-2d"/>
       <use x="1146.464844" xlink:href="#DejaVuSans-31"/>
       <use x="1210.087891" xlink:href="#DejaVuSans-38"/>
       <use x="1273.710938" xlink:href="#DejaVuSans-34"/>
       <use x="1337.333984" xlink:href="#DejaVuSans-52"/>
       <use x="1406.816406" xlink:href="#DejaVuSans-53"/>
       <use x="1470.292969" xlink:href="#DejaVuSans-36"/>
      </g>
     </g>
    </g>
    <g id="xtick_2">
     <g id="line2d_3">
      <path clip-path="url(#pa2ec8f51a8)" d="M 107.998438 410.398125 
L 107.998438 22.318125 
" style="fill:none;stroke:#b0b0b0;stroke-linecap:square;stroke-width:0.8;"/>
     </g>
     <g id="line2d_4">
      <g>
       <use style="stroke:#000000;stroke-width:0.8;" x="107.998438" xlink:href="#me0e364472a" y="410.398125"/>
      </g>
     </g>
     <g id="text_2">
      <!-- 12C-ZT12-ELF3-OX BD-184RS8 -->
      <defs>
       <path d="M 19.671875 34.8125 
L 19.671875 8.109375 
L 35.5 8.109375 
Q 43.453125 8.109375 47.28125 11.40625 
Q 51.125 14.703125 51.125 21.484375 
Q 51.125 28.328125 47.28125 31.5625 
Q 43.453125 34.8125 35.5 34.8125 
z
M 19.671875 64.796875 
L 19.671875 42.828125 
L 34.28125 42.828125 
Q 41.5 42.828125 45.03125 45.53125 
Q 48.578125 48.25 48.578125 53.8125 
Q 48.578125 59.328125 45.03125 62.0625 
Q 41.5 64.796875 34.28125 64.796875 
z
M 9.8125 72.90625 
L 35.015625 72.90625 
Q 46.296875 72.90625 52.390625 68.21875 
Q 58.5 63.53125 58.5 54.890625 
Q 58.5 48.1875 55.375 44.234375 
Q 52.25 40.28125 46.1875 39.3125 
Q 53.46875 37.75 57.5 32.78125 
Q 61.53125 27.828125 61.53125 20.40625 
Q 61.53125 10.640625 54.890625 5.3125 
Q 48.25 0 35.984375 0 
L 9.8125 0 
z
" id="DejaVuSans-42"/>
       <path d="M 19.671875 64.796875 
L 19.671875 8.109375 
L 31.59375 8.109375 
Q 46.6875 8.109375 53.6875 14.9375 
Q 60.6875 21.78125 60.6875 36.53125 
Q 60.6875 51.171875 53.6875 57.984375 
Q 46.6875 64.796875 31.59375 64.796875 
z
M 9.8125 72.90625 
L 30.078125 72.90625 
Q 51.265625 72.90625 61.171875 64.09375 
Q 71.09375 55.28125 71.09375 36.53125 
Q 71.09375 17.671875 61.125 8.828125 
Q 51.171875 0 30.078125 0 
L 9.8125 0 
z
" id="DejaVuSans-44"/>
      </defs>
      <g transform="translate(110.757812 572.42625)rotate(-90)scale(0.1 -0.1)">
       <use xlink:href="#DejaVuSans-31"/>
       <use x="63.623047" xlink:href="#DejaVuSans-32"/>
       <use x="127.246094" xlink:href="#DejaVuSans-43"/>
       <use x="197.070312" xlink:href="#DejaVuSans-2d"/>
       <use x="233.154297" xlink:href="#DejaVuSans-5a"/>
       <use x="301.660156" xlink:href="#DejaVuSans-54"/>
       <use x="362.744141" xlink:href="#DejaVuSans-31"/>
       <use x="426.367188" xlink:href="#DejaVuSans-32"/>
       <use x="489.990234" xlink:href="#DejaVuSans-2d"/>
       <use x="526.074219" xlink:href="#DejaVuSans-45"/>
       <use x="589.257812" xlink:href="#DejaVuSans-4c"/>
       <use x="644.970703" xlink:href="#DejaVuSans-46"/>
       <use x="702.490234" xlink:href="#DejaVuSans-33"/>
       <use x="766.113281" xlink:href="#DejaVuSans-2d"/>
       <use x="802.228516" xlink:href="#DejaVuSans-4f"/>
       <use x="880.845703" xlink:href="#DejaVuSans-58"/>
       <use x="949.351562" xlink:href="#DejaVuSans-20"/>
       <use x="981.138672" xlink:href="#DejaVuSans-42"/>
       <use x="1049.742188" xlink:href="#DejaVuSans-44"/>
       <use x="1126.744141" xlink:href="#DejaVuSans-2d"/>
       <use x="1162.828125" xlink:href="#DejaVuSans-31"/>
       <use x="1226.451172" xlink:href="#DejaVuSans-38"/>
       <use x="1290.074219" xlink:href="#DejaVuSans-34"/>
       <use x="1353.697266" xlink:href="#DejaVuSans-52"/>
       <use x="1423.179688" xlink:href="#DejaVuSans-53"/>
       <use x="1486.65625" xlink:href="#DejaVuSans-38"/>
      </g>
     </g>
    </g>
    <g id="xtick_3">
     <g id="line2d_5">
      <path clip-path="url(#pa2ec8f51a8)" d="M 151.398438 410.398125 
L 151.398438 22.318125 
" style="fill:none;stroke:#b0b0b0;stroke-linecap:square;stroke-width:0.8;"/>
     </g>
     <g id="line2d_6">
      <g>
       <use style="stroke:#000000;stroke-width:0.8;" x="151.398438" xlink:href="#me0e364472a" y="410.398125"/>
      </g>
     </g>
     <g id="text_3">
      <!-- 12C-ZT12-ELF3-OX POTATO-184RS7 -->
      <defs>
       <path d="M 19.671875 64.796875 
L 19.671875 37.40625 
L 32.078125 37.40625 
Q 38.96875 37.40625 42.71875 40.96875 
Q 46.484375 44.53125 46.484375 51.125 
Q 46.484375 57.671875 42.71875 61.234375 
Q 38.96875 64.796875 32.078125 64.796875 
z
M 9.8125 72.90625 
L 32.078125 72.90625 
Q 44.34375 72.90625 50.609375 67.359375 
Q 56.890625 61.8125 56.890625 51.125 
Q 56.890625 40.328125 50.609375 34.8125 
Q 44.34375 29.296875 32.078125 29.296875 
L 19.671875 29.296875 
L 19.671875 0 
L 9.8125 0 
z
" id="DejaVuSans-50"/>
       <path d="M 8.203125 72.90625 
L 55.078125 72.90625 
L 55.078125 68.703125 
L 28.609375 0 
L 18.3125 0 
L 43.21875 64.59375 
L 8.203125 64.59375 
z
" id="DejaVuSans-37"/>
      </defs>
      <g transform="translate(154.157813 598.67625)rotate(-90)scale(0.1 -0.1)">
       <use xlink:href="#DejaVuSans-31"/>
       <use x="63.623047" xlink:href="#DejaVuSans-32"/>
       <use x="127.246094" xlink:href="#DejaVuSans-43"/>
       <use x="197.070312" xlink:href="#DejaVuSans-2d"/>
       <use x="233.154297" xlink:href="#DejaVuSans-5a"/>
       <use x="301.660156" xlink:href="#DejaVuSans-54"/>
       <use x="362.744141" xlink:href="#DejaVuSans-31"/>
       <use x="426.367188" xlink:href="#DejaVuSans-32"/>
       <use x="489.990234" xlink:href="#DejaVuSans-2d"/>
       <use x="526.074219" xlink:href="#DejaVuSans-45"/>
       <use x="589.257812" xlink:href="#DejaVuSans-4c"/>
       <use x="644.970703" xlink:href="#DejaVuSans-46"/>
       <use x="702.490234" xlink:href="#DejaVuSans-33"/>
       <use x="766.113281" xlink:href="#DejaVuSans-2d"/>
       <use x="802.228516" xlink:href="#DejaVuSans-4f"/>
       <use x="880.845703" xlink:href="#DejaVuSans-58"/>
       <use x="949.351562" xlink:href="#DejaVuSans-20"/>
       <use x="981.138672" xlink:href="#DejaVuSans-50"/>
       <use x="1041.441406" xlink:href="#DejaVuSans-4f"/>
       <use x="1120.152344" xlink:href="#DejaVuSans-54"/>
       <use x="1181.126953" xlink:href="#DejaVuSans-41"/>
       <use x="1249.425781" xlink:href="#DejaVuSans-54"/>
       <use x="1310.509766" xlink:href="#DejaVuSans-4f"/>
       <use x="1389.251953" xlink:href="#DejaVuSans-2d"/>
       <use x="1425.335938" xlink:href="#DejaVuSans-31"/>
       <use x="1488.958984" xlink:href="#DejaVuSans-38"/>
       <use x="1552.582031" xlink:href="#DejaVuSans-34"/>
       <use x="1616.205078" xlink:href="#DejaVuSans-52"/>
       <use x="1685.6875" xlink:href="#DejaVuSans-53"/>
       <use x="1749.164062" xlink:href="#DejaVuSans-37"/>
      </g>
     </g>
    </g>
    <g id="xtick_4">
     <g id="line2d_7">
      <path clip-path="url(#pa2ec8f51a8)" d="M 194.798438 410.398125 
L 194.798438 22.318125 
" style="fill:none;stroke:#b0b0b0;stroke-linecap:square;stroke-width:0.8;"/>
     </g>
     <g id="line2d_8">
      <g>
       <use style="stroke:#000000;stroke-width:0.8;" x="194.798438" xlink:href="#me0e364472a" y="410.398125"/>
      </g>
     </g>
     <g id="text_4">
      <!-- 22C-ZT12-ELF3-OX AT-177RS1 -->
      <g transform="translate(197.557813 570.78875)rotate(-90)scale(0.1 -0.1)">
       <use xlink:href="#DejaVuSans-32"/>
       <use x="63.623047" xlink:href="#DejaVuSans-32"/>
       <use x="127.246094" xlink:href="#DejaVuSans-43"/>
       <use x="197.070312" xlink:href="#DejaVuSans-2d"/>
       <use x="233.154297" xlink:href="#DejaVuSans-5a"/>
       <use x="301.660156" xlink:href="#DejaVuSans-54"/>
       <use x="362.744141" xlink:href="#DejaVuSans-31"/>
       <use x="426.367188" xlink:href="#DejaVuSans-32"/>
       <use x="489.990234" xlink:href="#DejaVuSans-2d"/>
       <use x="526.074219" xlink:href="#DejaVuSans-45"/>
       <use x="589.257812" xlink:href="#DejaVuSans-4c"/>
       <use x="644.970703" xlink:href="#DejaVuSans-46"/>
       <use x="702.490234" xlink:href="#DejaVuSans-33"/>
       <use x="766.113281" xlink:href="#DejaVuSans-2d"/>
       <use x="802.228516" xlink:href="#DejaVuSans-4f"/>
       <use x="880.845703" xlink:href="#DejaVuSans-58"/>
       <use x="949.351562" xlink:href="#DejaVuSans-20"/>
       <use x="981.138672" xlink:href="#DejaVuSans-41"/>
       <use x="1049.4375" xlink:href="#DejaVuSans-54"/>
       <use x="1110.380859" xlink:href="#DejaVuSans-2d"/>
       <use x="1146.464844" xlink:href="#DejaVuSans-31"/>
       <use x="1210.087891" xlink:href="#DejaVuSans-37"/>
       <use x="1273.710938" xlink:href="#DejaVuSans-37"/>
       <use x="1337.333984" xlink:href="#DejaVuSans-52"/>
       <use x="1406.816406" xlink:href="#DejaVuSans-53"/>
       <use x="1470.292969" xlink:href="#DejaVuSans-31"/>
      </g>
     </g>
    </g>
    <g id="xtick_5">
     <g id="line2d_9">
      <path clip-path="url(#pa2ec8f51a8)" d="M 238.198438 410.398125 
L 238.198438 22.318125 
" style="fill:none;stroke:#b0b0b0;stroke-linecap:square;stroke-width:0.8;"/>
     </g>
     <g id="line2d_10">
      <g>
       <use style="stroke:#000000;stroke-width:0.8;" x="238.198438" xlink:href="#me0e364472a" y="410.398125"/>
      </g>
     </g>
     <g id="text_5">
      <!-- 22C-ZT12-ELF3-OX BD-181RS12 -->
      <g transform="translate(240.957813 578.78875)rotate(-90)scale(0.1 -0.1)">
       <use xlink:href="#DejaVuSans-32"/>
       <use x="63.623047" xlink:href="#DejaVuSans-32"/>
       <use x="127.246094" xlink:href="#DejaVuSans-43"/>
       <use x="197.070312" xlink:href="#DejaVuSans-2d"/>
       <use x="233.154297" xlink:href="#DejaVuSans-5a"/>
       <use x="301.660156" xlink:href="#DejaVuSans-54"/>
       <use x="362.744141" xlink:href="#DejaVuSans-31"/>
       <use x="426.367188" xlink:href="#DejaVuSans-32"/>
       <use x="489.990234" xlink:href="#DejaVuSans-2d"/>
       <use x="526.074219" xlink:href="#DejaVuSans-45"/>
       <use x="589.257812" xlink:href="#DejaVuSans-4c"/>
       <use x="644.970703" xlink:href="#DejaVuSans-46"/>
       <use x="702.490234" xlink:href="#DejaVuSans-33"/>
       <use x="766.113281" xlink:href="#DejaVuSans-2d"/>
       <use x="802.228516" xlink:href="#DejaVuSans-4f"/>
       <use x="880.845703" xlink:href="#DejaVuSans-58"/>
       <use x="949.351562" xlink:href="#DejaVuSans-20"/>
       <use x="981.138672" xlink:href="#DejaVuSans-42"/>
       <use x="1049.742188" xlink:href="#DejaVuSans-44"/>
       <use x="1126.744141" xlink:href="#DejaVuSans-2d"/>
       <use x="1162.828125" xlink:href="#DejaVuSans-31"/>
       <use x="1226.451172" xlink:href="#DejaVuSans-38"/>
       <use x="1290.074219" xlink:href="#DejaVuSans-31"/>
       <use x="1353.697266" xlink:href="#DejaVuSans-52"/>
       <use x="1423.179688" xlink:href="#DejaVuSans-53"/>
       <use x="1486.65625" xlink:href="#DejaVuSans-31"/>
       <use x="1550.279297" xlink:href="#DejaVuSans-32"/>
      </g>
     </g>
    </g>
    <g id="xtick_6">
     <g id="line2d_11">
      <path clip-path="url(#pa2ec8f51a8)" d="M 281.598437 410.398125 
L 281.598437 22.318125 
" style="fill:none;stroke:#b0b0b0;stroke-linecap:square;stroke-width:0.8;"/>
     </g>
     <g id="line2d_12">
      <g>
       <use style="stroke:#000000;stroke-width:0.8;" x="281.598437" xlink:href="#me0e364472a" y="410.398125"/>
      </g>
     </g>
     <g id="text_6">
      <!-- 22C-ZT12-ELF3-OX POTATO-181RS11 -->
      <g transform="translate(284.357812 605.03875)rotate(-90)scale(0.1 -0.1)">
       <use xlink:href="#DejaVuSans-32"/>
       <use x="63.623047" xlink:href="#DejaVuSans-32"/>
       <use x="127.246094" xlink:href="#DejaVuSans-43"/>
       <use x="197.070312" xlink:href="#DejaVuSans-2d"/>
       <use x="233.154297" xlink:href="#DejaVuSans-5a"/>
       <use x="301.660156" xlink:href="#DejaVuSans-54"/>
       <use x="362.744141" xlink:href="#DejaVuSans-31"/>
       <use x="426.367188" xlink:href="#DejaVuSans-32"/>
       <use x="489.990234" xlink:href="#DejaVuSans-2d"/>
       <use x="526.074219" xlink:href="#DejaVuSans-45"/>
       <use x="589.257812" xlink:href="#DejaVuSans-4c"/>
       <use x="644.970703" xlink:href="#DejaVuSans-46"/>
       <use x="702.490234" xlink:href="#DejaVuSans-33"/>
       <use x="766.113281" xlink:href="#DejaVuSans-2d"/>
       <use x="802.228516" xlink:href="#DejaVuSans-4f"/>
       <use x="880.845703" xlink:href="#DejaVuSans-58"/>
       <use x="949.351562" xlink:href="#DejaVuSans-20"/>
       <use x="981.138672" xlink:href="#DejaVuSans-50"/>
       <use x="1041.441406" xlink:href="#DejaVuSans-4f"/>
       <use x="1120.152344" xlink:href="#DejaVuSans-54"/>
       <use x="1181.126953" xlink:href="#DejaVuSans-41"/>
       <use x="1249.425781" xlink:href="#DejaVuSans-54"/>
       <use x="1310.509766" xlink:href="#DejaVuSans-4f"/>
       <use x="1389.251953" xlink:href="#DejaVuSans-2d"/>
       <use x="1425.335938" xlink:href="#DejaVuSans-31"/>
       <use x="1488.958984" xlink:href="#DejaVuSans-38"/>
       <use x="1552.582031" xlink:href="#DejaVuSans-31"/>
       <use x="1616.205078" xlink:href="#DejaVuSans-52"/>
       <use x="1685.6875" xlink:href="#DejaVuSans-53"/>
       <use x="1749.164062" xlink:href="#DejaVuSans-31"/>
       <use x="1812.787109" xlink:href="#DejaVuSans-31"/>
      </g>
     </g>
    </g>
    <g id="xtick_7">
     <g id="line2d_13">
      <path clip-path="url(#pa2ec8f51a8)" d="M 324.998438 410.398125 
L 324.998438 22.318125 
" style="fill:none;stroke:#b0b0b0;stroke-linecap:square;stroke-width:0.8;"/>
     </g>
     <g id="line2d_14">
      <g>
       <use style="stroke:#000000;stroke-width:0.8;" x="324.998438" xlink:href="#me0e364472a" y="410.398125"/>
      </g>
     </g>
     <g id="text_7">
      <!-- 27C-ZT12-ELF3-OX AT-177RS7 -->
      <g transform="translate(327.757812 570.78875)rotate(-90)scale(0.1 -0.1)">
       <use xlink:href="#DejaVuSans-32"/>
       <use x="63.623047" xlink:href="#DejaVuSans-37"/>
       <use x="127.246094" xlink:href="#DejaVuSans-43"/>
       <use x="197.070312" xlink:href="#DejaVuSans-2d"/>
       <use x="233.154297" xlink:href="#DejaVuSans-5a"/>
       <use x="301.660156" xlink:href="#DejaVuSans-54"/>
       <use x="362.744141" xlink:href="#DejaVuSans-31"/>
       <use x="426.367188" xlink:href="#DejaVuSans-32"/>
       <use x="489.990234" xlink:href="#DejaVuSans-2d"/>
       <use x="526.074219" xlink:href="#DejaVuSans-45"/>
       <use x="589.257812" xlink:href="#DejaVuSans-4c"/>
       <use x="644.970703" xlink:href="#DejaVuSans-46"/>
       <use x="702.490234" xlink:href="#DejaVuSans-33"/>
       <use x="766.113281" xlink:href="#DejaVuSans-2d"/>
       <use x="802.228516" xlink:href="#DejaVuSans-4f"/>
       <use x="880.845703" xlink:href="#DejaVuSans-58"/>
       <use x="949.351562" xlink:href="#DejaVuSans-20"/>
       <use x="981.138672" xlink:href="#DejaVuSans-41"/>
       <use x="1049.4375" xlink:href="#DejaVuSans-54"/>
       <use x="1110.380859" xlink:href="#DejaVuSans-2d"/>
       <use x="1146.464844" xlink:href="#DejaVuSans-31"/>
       <use x="1210.087891" xlink:href="#DejaVuSans-37"/>
       <use x="1273.710938" xlink:href="#DejaVuSans-37"/>
       <use x="1337.333984" xlink:href="#DejaVuSans-52"/>
       <use x="1406.816406" xlink:href="#DejaVuSans-53"/>
       <use x="1470.292969" xlink:href="#DejaVuSans-37"/>
      </g>
     </g>
    </g>
    <g id="xtick_8">
     <g id="line2d_15">
      <path clip-path="url(#pa2ec8f51a8)" d="M 368.398438 410.398125 
L 368.398438 22.318125 
" style="fill:none;stroke:#b0b0b0;stroke-linecap:square;stroke-width:0.8;"/>
     </g>
     <g id="line2d_16">
      <g>
       <use style="stroke:#000000;stroke-width:0.8;" x="368.398438" xlink:href="#me0e364472a" y="410.398125"/>
      </g>
     </g>
     <g id="text_8">
      <!-- 27C-ZT12-ELF3-OX BD-181RS22 -->
      <g transform="translate(371.157812 578.78875)rotate(-90)scale(0.1 -0.1)">
       <use xlink:href="#DejaVuSans-32"/>
       <use x="63.623047" xlink:href="#DejaVuSans-37"/>
       <use x="127.246094" xlink:href="#DejaVuSans-43"/>
       <use x="197.070312" xlink:href="#DejaVuSans-2d"/>
       <use x="233.154297" xlink:href="#DejaVuSans-5a"/>
       <use x="301.660156" xlink:href="#DejaVuSans-54"/>
       <use x="362.744141" xlink:href="#DejaVuSans-31"/>
       <use x="426.367188" xlink:href="#DejaVuSans-32"/>
       <use x="489.990234" xlink:href="#DejaVuSans-2d"/>
       <use x="526.074219" xlink:href="#DejaVuSans-45"/>
       <use x="589.257812" xlink:href="#DejaVuSans-4c"/>
       <use x="644.970703" xlink:href="#DejaVuSans-46"/>
       <use x="702.490234" xlink:href="#DejaVuSans-33"/>
       <use x="766.113281" xlink:href="#DejaVuSans-2d"/>
       <use x="802.228516" xlink:href="#DejaVuSans-4f"/>
       <use x="880.845703" xlink:href="#DejaVuSans-58"/>
       <use x="949.351562" xlink:href="#DejaVuSans-20"/>
       <use x="981.138672" xlink:href="#DejaVuSans-42"/>
       <use x="1049.742188" xlink:href="#DejaVuSans-44"/>
       <use x="1126.744141" xlink:href="#DejaVuSans-2d"/>
       <use x="1162.828125" xlink:href="#DejaVuSans-31"/>
       <use x="1226.451172" xlink:href="#DejaVuSans-38"/>
       <use x="1290.074219" xlink:href="#DejaVuSans-31"/>
       <use x="1353.697266" xlink:href="#DejaVuSans-52"/>
       <use x="1423.179688" xlink:href="#DejaVuSans-53"/>
       <use x="1486.65625" xlink:href="#DejaVuSans-32"/>
       <use x="1550.279297" xlink:href="#DejaVuSans-32"/>
      </g>
     </g>
    </g>
    <g id="xtick_9">
     <g id="line2d_17">
      <path clip-path="url(#pa2ec8f51a8)" d="M 411.798437 410.398125 
L 411.798437 22.318125 
" style="fill:none;stroke:#b0b0b0;stroke-linecap:square;stroke-width:0.8;"/>
     </g>
     <g id="line2d_18">
      <g>
       <use style="stroke:#000000;stroke-width:0.8;" x="411.798437" xlink:href="#me0e364472a" y="410.398125"/>
      </g>
     </g>
     <g id="text_9">
      <!-- 27C-ZT12-ELF3-OX POTATO-181RS16 -->
      <g transform="translate(414.557812 605.03875)rotate(-90)scale(0.1 -0.1)">
       <use xlink:href="#DejaVuSans-32"/>
       <use x="63.623047" xlink:href="#DejaVuSans-37"/>
       <use x="127.246094" xlink:href="#DejaVuSans-43"/>
       <use x="197.070312" xlink:href="#DejaVuSans-2d"/>
       <use x="233.154297" xlink:href="#DejaVuSans-5a"/>
       <use x="301.660156" xlink:href="#DejaVuSans-54"/>
       <use x="362.744141" xlink:href="#DejaVuSans-31"/>
       <use x="426.367188" xlink:href="#DejaVuSans-32"/>
       <use x="489.990234" xlink:href="#DejaVuSans-2d"/>
       <use x="526.074219" xlink:href="#DejaVuSans-45"/>
       <use x="589.257812" xlink:href="#DejaVuSans-4c"/>
       <use x="644.970703" xlink:href="#DejaVuSans-46"/>
       <use x="702.490234" xlink:href="#DejaVuSans-33"/>
       <use x="766.113281" xlink:href="#DejaVuSans-2d"/>
       <use x="802.228516" xlink:href="#DejaVuSans-4f"/>
       <use x="880.845703" xlink:href="#DejaVuSans-58"/>
       <use x="949.351562" xlink:href="#DejaVuSans-20"/>
       <use x="981.138672" xlink:href="#DejaVuSans-50"/>
       <use x="1041.441406" xlink:href="#DejaVuSans-4f"/>
       <use x="1120.152344" xlink:href="#DejaVuSans-54"/>
       <use x="1181.126953" xlink:href="#DejaVuSans-41"/>
       <use x="1249.425781" xlink:href="#DejaVuSans-54"/>
       <use x="1310.509766" xlink:href="#DejaVuSans-4f"/>
       <use x="1389.251953" xlink:href="#DejaVuSans-2d"/>
       <use x="1425.335938" xlink:href="#DejaVuSans-31"/>
       <use x="1488.958984" xlink:href="#DejaVuSans-38"/>
       <use x="1552.582031" xlink:href="#DejaVuSans-31"/>
       <use x="1616.205078" xlink:href="#DejaVuSans-52"/>
       <use x="1685.6875" xlink:href="#DejaVuSans-53"/>
       <use x="1749.164062" xlink:href="#DejaVuSans-31"/>
       <use x="1812.787109" xlink:href="#DejaVuSans-36"/>
      </g>
     </g>
    </g>
   </g>
   <g id="matplotlib.axis_2">
    <g id="ytick_1">
     <g id="line2d_19">
      <path clip-path="url(#pa2ec8f51a8)" d="M 42.898438 389.905649 
L 433.498438 389.905649 
" style="fill:none;stroke:#b0b0b0;stroke-linecap:square;stroke-width:0.8;"/>
     </g>
     <g id="line2d_20">
      <defs>
       <path d="M 0 0 
L -3.5 0 
" id="m158f437478" style="stroke:#000000;stroke-width:0.8;"/>
      </defs>
      <g>
       <use style="stroke:#000000;stroke-width:0.8;" x="42.898438" xlink:href="#m158f437478" y="389.905649"/>
      </g>
     </g>
     <g id="text_10">
      <!-- −4 -->
      <defs>
       <path d="M 10.59375 35.5 
L 73.1875 35.5 
L 73.1875 27.203125 
L 10.59375 27.203125 
z
" id="DejaVuSans-2212"/>
      </defs>
      <g transform="translate(21.15625 393.704868)scale(0.1 -0.1)">
       <use xlink:href="#DejaVuSans-2212"/>
       <use x="83.789062" xlink:href="#DejaVuSans-34"/>
      </g>
     </g>
    </g>
    <g id="ytick_2">
     <g id="line2d_21">
      <path clip-path="url(#pa2ec8f51a8)" d="M 42.898438 345.248129 
L 433.498438 345.248129 
" style="fill:none;stroke:#b0b0b0;stroke-linecap:square;stroke-width:0.8;"/>
     </g>
     <g id="line2d_22">
      <g>
       <use style="stroke:#000000;stroke-width:0.8;" x="42.898438" xlink:href="#m158f437478" y="345.248129"/>
      </g>
     </g>
     <g id="text_11">
      <!-- −3 -->
      <g transform="translate(21.15625 349.047348)scale(0.1 -0.1)">
       <use xlink:href="#DejaVuSans-2212"/>
       <use x="83.789062" xlink:href="#DejaVuSans-33"/>
      </g>
     </g>
    </g>
    <g id="ytick_3">
     <g id="line2d_23">
      <path clip-path="url(#pa2ec8f51a8)" d="M 42.898438 300.590608 
L 433.498438 300.590608 
" style="fill:none;stroke:#b0b0b0;stroke-linecap:square;stroke-width:0.8;"/>
     </g>
     <g id="line2d_24">
      <g>
       <use style="stroke:#000000;stroke-width:0.8;" x="42.898438" xlink:href="#m158f437478" y="300.590608"/>
      </g>
     </g>
     <g id="text_12">
      <!-- −2 -->
      <g transform="translate(21.15625 304.389827)scale(0.1 -0.1)">
       <use xlink:href="#DejaVuSans-2212"/>
       <use x="83.789062" xlink:href="#DejaVuSans-32"/>
      </g>
     </g>
    </g>
    <g id="ytick_4">
     <g id="line2d_25">
      <path clip-path="url(#pa2ec8f51a8)" d="M 42.898438 255.933088 
L 433.498438 255.933088 
" style="fill:none;stroke:#b0b0b0;stroke-linecap:square;stroke-width:0.8;"/>
     </g>
     <g id="line2d_26">
      <g>
       <use style="stroke:#000000;stroke-width:0.8;" x="42.898438" xlink:href="#m158f437478" y="255.933088"/>
      </g>
     </g>
     <g id="text_13">
      <!-- −1 -->
      <g transform="translate(21.15625 259.732307)scale(0.1 -0.1)">
       <use xlink:href="#DejaVuSans-2212"/>
       <use x="83.789062" xlink:href="#DejaVuSans-31"/>
      </g>
     </g>
    </g>
    <g id="ytick_5">
     <g id="line2d_27">
      <path clip-path="url(#pa2ec8f51a8)" d="M 42.898438 211.275568 
L 433.498438 211.275568 
" style="fill:none;stroke:#b0b0b0;stroke-linecap:square;stroke-width:0.8;"/>
     </g>
     <g id="line2d_28">
      <g>
       <use style="stroke:#000000;stroke-width:0.8;" x="42.898438" xlink:href="#m158f437478" y="211.275568"/>
      </g>
     </g>
     <g id="text_14">
      <!-- 0 -->
      <defs>
       <path d="M 31.78125 66.40625 
Q 24.171875 66.40625 20.328125 58.90625 
Q 16.5 51.421875 16.5 36.375 
Q 16.5 21.390625 20.328125 13.890625 
Q 24.171875 6.390625 31.78125 6.390625 
Q 39.453125 6.390625 43.28125 13.890625 
Q 47.125 21.390625 47.125 36.375 
Q 47.125 51.421875 43.28125 58.90625 
Q 39.453125 66.40625 31.78125 66.40625 
z
M 31.78125 74.21875 
Q 44.046875 74.21875 50.515625 64.515625 
Q 56.984375 54.828125 56.984375 36.375 
Q 56.984375 17.96875 50.515625 8.265625 
Q 44.046875 -1.421875 31.78125 -1.421875 
Q 19.53125 -1.421875 13.0625 8.265625 
Q 6.59375 17.96875 6.59375 36.375 
Q 6.59375 54.828125 13.0625 64.515625 
Q 19.53125 74.21875 31.78125 74.21875 
z
" id="DejaVuSans-30"/>
      </defs>
      <g transform="translate(29.535938 215.074786)scale(0.1 -0.1)">
       <use xlink:href="#DejaVuSans-30"/>
      </g>
     </g>
    </g>
    <g id="ytick_6">
     <g id="line2d_29">
      <path clip-path="url(#pa2ec8f51a8)" d="M 42.898438 166.618047 
L 433.498438 166.618047 
" style="fill:none;stroke:#b0b0b0;stroke-linecap:square;stroke-width:0.8;"/>
     </g>
     <g id="line2d_30">
      <g>
       <use style="stroke:#000000;stroke-width:0.8;" x="42.898438" xlink:href="#m158f437478" y="166.618047"/>
      </g>
     </g>
     <g id="text_15">
      <!-- 1 -->
      <g transform="translate(29.535938 170.417266)scale(0.1 -0.1)">
       <use xlink:href="#DejaVuSans-31"/>
      </g>
     </g>
    </g>
    <g id="ytick_7">
     <g id="line2d_31">
      <path clip-path="url(#pa2ec8f51a8)" d="M 42.898438 121.960527 
L 433.498438 121.960527 
" style="fill:none;stroke:#b0b0b0;stroke-linecap:square;stroke-width:0.8;"/>
     </g>
     <g id="line2d_32">
      <g>
       <use style="stroke:#000000;stroke-width:0.8;" x="42.898438" xlink:href="#m158f437478" y="121.960527"/>
      </g>
     </g>
     <g id="text_16">
      <!-- 2 -->
      <g transform="translate(29.535938 125.759745)scale(0.1 -0.1)">
       <use xlink:href="#DejaVuSans-32"/>
      </g>
     </g>
    </g>
    <g id="ytick_8">
     <g id="line2d_33">
      <path clip-path="url(#pa2ec8f51a8)" d="M 42.898438 77.303006 
L 433.498438 77.303006 
" style="fill:none;stroke:#b0b0b0;stroke-linecap:square;stroke-width:0.8;"/>
     </g>
     <g id="line2d_34">
      <g>
       <use style="stroke:#000000;stroke-width:0.8;" x="42.898438" xlink:href="#m158f437478" y="77.303006"/>
      </g>
     </g>
     <g id="text_17">
      <!-- 3 -->
      <g transform="translate(29.535938 81.102225)scale(0.1 -0.1)">
       <use xlink:href="#DejaVuSans-33"/>
      </g>
     </g>
    </g>
    <g id="ytick_9">
     <g id="line2d_35">
      <path clip-path="url(#pa2ec8f51a8)" d="M 42.898438 32.645486 
L 433.498438 32.645486 
" style="fill:none;stroke:#b0b0b0;stroke-linecap:square;stroke-width:0.8;"/>
     </g>
     <g id="line2d_36">
      <g>
       <use style="stroke:#000000;stroke-width:0.8;" x="42.898438" xlink:href="#m158f437478" y="32.645486"/>
      </g>
     </g>
     <g id="text_18">
      <!-- 4 -->
      <g transform="translate(29.535938 36.444704)scale(0.1 -0.1)">
       <use xlink:href="#DejaVuSans-34"/>
      </g>
     </g>
    </g>
    <g id="text_19">
     <!-- meanNorm(log2( 1+ CPM_or_TPM)) -->
     <defs>
      <path d="M 52 44.1875 
Q 55.375 50.25 60.0625 53.125 
Q 64.75 56 71.09375 56 
Q 79.640625 56 84.28125 50.015625 
Q 88.921875 44.046875 88.921875 33.015625 
L 88.921875 0 
L 79.890625 0 
L 79.890625 32.71875 
Q 79.890625 40.578125 77.09375 44.375 
Q 74.3125 48.1875 68.609375 48.1875 
Q 61.625 48.1875 57.5625 43.546875 
Q 53.515625 38.921875 53.515625 30.90625 
L 53.515625 0 
L 44.484375 0 
L 44.484375 32.71875 
Q 44.484375 40.625 41.703125 44.40625 
Q 38.921875 48.1875 33.109375 48.1875 
Q 26.21875 48.1875 22.15625 43.53125 
Q 18.109375 38.875 18.109375 30.90625 
L 18.109375 0 
L 9.078125 0 
L 9.078125 54.6875 
L 18.109375 54.6875 
L 18.109375 46.1875 
Q 21.1875 51.21875 25.484375 53.609375 
Q 29.78125 56 35.6875 56 
Q 41.65625 56 45.828125 52.96875 
Q 50 49.953125 52 44.1875 
z
" id="DejaVuSans-6d"/>
      <path d="M 56.203125 29.59375 
L 56.203125 25.203125 
L 14.890625 25.203125 
Q 15.484375 15.921875 20.484375 11.0625 
Q 25.484375 6.203125 34.421875 6.203125 
Q 39.59375 6.203125 44.453125 7.46875 
Q 49.3125 8.734375 54.109375 11.28125 
L 54.109375 2.78125 
Q 49.265625 0.734375 44.1875 -0.34375 
Q 39.109375 -1.421875 33.890625 -1.421875 
Q 20.796875 -1.421875 13.15625 6.1875 
Q 5.515625 13.8125 5.515625 26.8125 
Q 5.515625 40.234375 12.765625 48.109375 
Q 20.015625 56 32.328125 56 
Q 43.359375 56 49.78125 48.890625 
Q 56.203125 41.796875 56.203125 29.59375 
z
M 47.21875 32.234375 
Q 47.125 39.59375 43.09375 43.984375 
Q 39.0625 48.390625 32.421875 48.390625 
Q 24.90625 48.390625 20.390625 44.140625 
Q 15.875 39.890625 15.1875 32.171875 
z
" id="DejaVuSans-65"/>
      <path d="M 34.28125 27.484375 
Q 23.390625 27.484375 19.1875 25 
Q 14.984375 22.515625 14.984375 16.5 
Q 14.984375 11.71875 18.140625 8.90625 
Q 21.296875 6.109375 26.703125 6.109375 
Q 34.1875 6.109375 38.703125 11.40625 
Q 43.21875 16.703125 43.21875 25.484375 
L 43.21875 27.484375 
z
M 52.203125 31.203125 
L 52.203125 0 
L 43.21875 0 
L 43.21875 8.296875 
Q 40.140625 3.328125 35.546875 0.953125 
Q 30.953125 -1.421875 24.3125 -1.421875 
Q 15.921875 -1.421875 10.953125 3.296875 
Q 6 8.015625 6 15.921875 
Q 6 25.140625 12.171875 29.828125 
Q 18.359375 34.515625 30.609375 34.515625 
L 43.21875 34.515625 
L 43.21875 35.40625 
Q 43.21875 41.609375 39.140625 45 
Q 35.0625 48.390625 27.6875 48.390625 
Q 23 48.390625 18.546875 47.265625 
Q 14.109375 46.140625 10.015625 43.890625 
L 10.015625 52.203125 
Q 14.9375 54.109375 19.578125 55.046875 
Q 24.21875 56 28.609375 56 
Q 40.484375 56 46.34375 49.84375 
Q 52.203125 43.703125 52.203125 31.203125 
z
" id="DejaVuSans-61"/>
      <path d="M 54.890625 33.015625 
L 54.890625 0 
L 45.90625 0 
L 45.90625 32.71875 
Q 45.90625 40.484375 42.875 44.328125 
Q 39.84375 48.1875 33.796875 48.1875 
Q 26.515625 48.1875 22.3125 43.546875 
Q 18.109375 38.921875 18.109375 30.90625 
L 18.109375 0 
L 9.078125 0 
L 9.078125 54.6875 
L 18.109375 54.6875 
L 18.109375 46.1875 
Q 21.34375 51.125 25.703125 53.5625 
Q 30.078125 56 35.796875 56 
Q 45.21875 56 50.046875 50.171875 
Q 54.890625 44.34375 54.890625 33.015625 
z
" id="DejaVuSans-6e"/>
      <path d="M 9.8125 72.90625 
L 23.09375 72.90625 
L 55.421875 11.921875 
L 55.421875 72.90625 
L 64.984375 72.90625 
L 64.984375 0 
L 51.703125 0 
L 19.390625 60.984375 
L 19.390625 0 
L 9.8125 0 
z
" id="DejaVuSans-4e"/>
      <path d="M 30.609375 48.390625 
Q 23.390625 48.390625 19.1875 42.75 
Q 14.984375 37.109375 14.984375 27.296875 
Q 14.984375 17.484375 19.15625 11.84375 
Q 23.34375 6.203125 30.609375 6.203125 
Q 37.796875 6.203125 41.984375 11.859375 
Q 46.1875 17.53125 46.1875 27.296875 
Q 46.1875 37.015625 41.984375 42.703125 
Q 37.796875 48.390625 30.609375 48.390625 
z
M 30.609375 56 
Q 42.328125 56 49.015625 48.375 
Q 55.71875 40.765625 55.71875 27.296875 
Q 55.71875 13.875 49.015625 6.21875 
Q 42.328125 -1.421875 30.609375 -1.421875 
Q 18.84375 -1.421875 12.171875 6.21875 
Q 5.515625 13.875 5.515625 27.296875 
Q 5.515625 40.765625 12.171875 48.375 
Q 18.84375 56 30.609375 56 
z
" id="DejaVuSans-6f"/>
      <path d="M 41.109375 46.296875 
Q 39.59375 47.171875 37.8125 47.578125 
Q 36.03125 48 33.890625 48 
Q 26.265625 48 22.1875 43.046875 
Q 18.109375 38.09375 18.109375 28.8125 
L 18.109375 0 
L 9.078125 0 
L 9.078125 54.6875 
L 18.109375 54.6875 
L 18.109375 46.1875 
Q 20.953125 51.171875 25.484375 53.578125 
Q 30.03125 56 36.53125 56 
Q 37.453125 56 38.578125 55.875 
Q 39.703125 55.765625 41.0625 55.515625 
z
" id="DejaVuSans-72"/>
      <path d="M 31 75.875 
Q 24.46875 64.65625 21.28125 53.65625 
Q 18.109375 42.671875 18.109375 31.390625 
Q 18.109375 20.125 21.3125 9.0625 
Q 24.515625 -2 31 -13.1875 
L 23.1875 -13.1875 
Q 15.875 -1.703125 12.234375 9.375 
Q 8.59375 20.453125 8.59375 31.390625 
Q 8.59375 42.28125 12.203125 53.3125 
Q 15.828125 64.359375 23.1875 75.875 
z
" id="DejaVuSans-28"/>
      <path d="M 9.421875 75.984375 
L 18.40625 75.984375 
L 18.40625 0 
L 9.421875 0 
z
" id="DejaVuSans-6c"/>
      <path d="M 45.40625 27.984375 
Q 45.40625 37.75 41.375 43.109375 
Q 37.359375 48.484375 30.078125 48.484375 
Q 22.859375 48.484375 18.828125 43.109375 
Q 14.796875 37.75 14.796875 27.984375 
Q 14.796875 18.265625 18.828125 12.890625 
Q 22.859375 7.515625 30.078125 7.515625 
Q 37.359375 7.515625 41.375 12.890625 
Q 45.40625 18.265625 45.40625 27.984375 
z
M 54.390625 6.78125 
Q 54.390625 -7.171875 48.1875 -13.984375 
Q 42 -20.796875 29.203125 -20.796875 
Q 24.46875 -20.796875 20.265625 -20.09375 
Q 16.0625 -19.390625 12.109375 -17.921875 
L 12.109375 -9.1875 
Q 16.0625 -11.328125 19.921875 -12.34375 
Q 23.78125 -13.375 27.78125 -13.375 
Q 36.625 -13.375 41.015625 -8.765625 
Q 45.40625 -4.15625 45.40625 5.171875 
L 45.40625 9.625 
Q 42.625 4.78125 38.28125 2.390625 
Q 33.9375 0 27.875 0 
Q 17.828125 0 11.671875 7.65625 
Q 5.515625 15.328125 5.515625 27.984375 
Q 5.515625 40.671875 11.671875 48.328125 
Q 17.828125 56 27.875 56 
Q 33.9375 56 38.28125 53.609375 
Q 42.625 51.21875 45.40625 46.390625 
L 45.40625 54.6875 
L 54.390625 54.6875 
z
" id="DejaVuSans-67"/>
      <path d="M 46 62.703125 
L 46 35.5 
L 73.1875 35.5 
L 73.1875 27.203125 
L 46 27.203125 
L 46 0 
L 37.796875 0 
L 37.796875 27.203125 
L 10.59375 27.203125 
L 10.59375 35.5 
L 37.796875 35.5 
L 37.796875 62.703125 
z
" id="DejaVuSans-2b"/>
      <path d="M 9.8125 72.90625 
L 24.515625 72.90625 
L 43.109375 23.296875 
L 61.8125 72.90625 
L 76.515625 72.90625 
L 76.515625 0 
L 66.890625 0 
L 66.890625 64.015625 
L 48.09375 14.015625 
L 38.1875 14.015625 
L 19.390625 64.015625 
L 19.390625 0 
L 9.8125 0 
z
" id="DejaVuSans-4d"/>
      <path d="M 50.984375 -16.609375 
L 50.984375 -23.578125 
L -0.984375 -23.578125 
L -0.984375 -16.609375 
z
" id="DejaVuSans-5f"/>
      <path d="M 8.015625 75.875 
L 15.828125 75.875 
Q 23.140625 64.359375 26.78125 53.3125 
Q 30.421875 42.28125 30.421875 31.390625 
Q 30.421875 20.453125 26.78125 9.375 
Q 23.140625 -1.703125 15.828125 -13.1875 
L 8.015625 -13.1875 
Q 14.5 -2 17.703125 9.0625 
Q 20.90625 20.125 20.90625 31.390625 
Q 20.90625 42.671875 17.703125 53.65625 
Q 14.5 64.65625 8.015625 75.875 
z
" id="DejaVuSans-29"/>
     </defs>
     <g transform="translate(14.798438 304.737031)rotate(-90)scale(0.1 -0.1)">
      <use xlink:href="#DejaVuSans-6d"/>
      <use x="97.412109" xlink:href="#DejaVuSans-65"/>
      <use x="158.935547" xlink:href="#DejaVuSans-61"/>
      <use x="220.214844" xlink:href="#DejaVuSans-6e"/>
      <use x="283.59375" xlink:href="#DejaVuSans-4e"/>
      <use x="358.398438" xlink:href="#DejaVuSans-6f"/>
      <use x="419.580078" xlink:href="#DejaVuSans-72"/>
      <use x="460.677734" xlink:href="#DejaVuSans-6d"/>
      <use x="558.089844" xlink:href="#DejaVuSans-28"/>
      <use x="597.103516" xlink:href="#DejaVuSans-6c"/>
      <use x="624.886719" xlink:href="#DejaVuSans-6f"/>
      <use x="686.068359" xlink:href="#DejaVuSans-67"/>
      <use x="749.544922" xlink:href="#DejaVuSans-32"/>
      <use x="813.167969" xlink:href="#DejaVuSans-28"/>
      <use x="852.181641" xlink:href="#DejaVuSans-20"/>
      <use x="883.96875" xlink:href="#DejaVuSans-31"/>
      <use x="947.591797" xlink:href="#DejaVuSans-2b"/>
      <use x="1031.380859" xlink:href="#DejaVuSans-20"/>
      <use x="1063.167969" xlink:href="#DejaVuSans-43"/>
      <use x="1132.992188" xlink:href="#DejaVuSans-50"/>
      <use x="1193.294922" xlink:href="#DejaVuSans-4d"/>
      <use x="1279.574219" xlink:href="#DejaVuSans-5f"/>
      <use x="1329.574219" xlink:href="#DejaVuSans-6f"/>
      <use x="1390.755859" xlink:href="#DejaVuSans-72"/>
      <use x="1431.869141" xlink:href="#DejaVuSans-5f"/>
      <use x="1481.869141" xlink:href="#DejaVuSans-54"/>
      <use x="1542.953125" xlink:href="#DejaVuSans-50"/>
      <use x="1603.255859" xlink:href="#DejaVuSans-4d"/>
      <use x="1689.535156" xlink:href="#DejaVuSans-29"/>
      <use x="1728.548828" xlink:href="#DejaVuSans-29"/>
     </g>
    </g>
   </g>
   <g id="line2d_37">
    <path clip-path="url(#pa2ec8f51a8)" d="M 53.748438 239.044618 
L 75.448438 239.044618 
L 75.448438 207.433985 
L 53.748438 207.433985 
L 53.748438 239.044618 
" style="fill:none;stroke:#1f77b4;stroke-linecap:square;"/>
   </g>
   <g id="line2d_38">
    <path clip-path="url(#pa2ec8f51a8)" d="M 64.598438 239.044618 
L 64.598438 285.943787 
" style="fill:none;stroke:#1f77b4;stroke-linecap:square;"/>
   </g>
   <g id="line2d_39">
    <path clip-path="url(#pa2ec8f51a8)" d="M 64.598438 207.433985 
L 64.598438 160.795126 
" style="fill:none;stroke:#1f77b4;stroke-linecap:square;"/>
   </g>
   <g id="line2d_40">
    <path clip-path="url(#pa2ec8f51a8)" d="M 59.173438 285.943787 
L 70.023438 285.943787 
" style="fill:none;stroke:#000000;stroke-linecap:square;"/>
   </g>
   <g id="line2d_41">
    <path clip-path="url(#pa2ec8f51a8)" d="M 59.173438 160.795126 
L 70.023438 160.795126 
" style="fill:none;stroke:#000000;stroke-linecap:square;"/>
   </g>
   <g id="line2d_42">
    <defs>
     <path d="M 0 3 
C 0.795609 3 1.55874 2.683901 2.12132 2.12132 
C 2.683901 1.55874 3 0.795609 3 0 
C 3 -0.795609 2.683901 -1.55874 2.12132 -2.12132 
C 1.55874 -2.683901 0.795609 -3 0 -3 
C -0.795609 -3 -1.55874 -2.683901 -2.12132 -2.12132 
C -2.683901 -1.55874 -3 -0.795609 -3 0 
C -3 0.795609 -2.683901 1.55874 -2.12132 2.12132 
C -1.55874 2.683901 -0.795609 3 0 3 
z
" id="ma6b9ddb510" style="stroke:#000000;"/>
    </defs>
    <g clip-path="url(#pa2ec8f51a8)">
     <use style="fill-opacity:0;stroke:#000000;" x="64.598438" xlink:href="#ma6b9ddb510" y="293.039084"/>
     <use style="fill-opacity:0;stroke:#000000;" x="64.598438" xlink:href="#ma6b9ddb510" y="294.533266"/>
     <use style="fill-opacity:0;stroke:#000000;" x="64.598438" xlink:href="#ma6b9ddb510" y="306.685486"/>
     <use style="fill-opacity:0;stroke:#000000;" x="64.598438" xlink:href="#ma6b9ddb510" y="287.353269"/>
     <use style="fill-opacity:0;stroke:#000000;" x="64.598438" xlink:href="#ma6b9ddb510" y="297.039707"/>
     <use style="fill-opacity:0;stroke:#000000;" x="64.598438" xlink:href="#ma6b9ddb510" y="149.949877"/>
     <use style="fill-opacity:0;stroke:#000000;" x="64.598438" xlink:href="#ma6b9ddb510" y="138.924174"/>
     <use style="fill-opacity:0;stroke:#000000;" x="64.598438" xlink:href="#ma6b9ddb510" y="117.309092"/>
     <use style="fill-opacity:0;stroke:#000000;" x="64.598438" xlink:href="#ma6b9ddb510" y="107.785085"/>
     <use style="fill-opacity:0;stroke:#000000;" x="64.598438" xlink:href="#ma6b9ddb510" y="147.55414"/>
     <use style="fill-opacity:0;stroke:#000000;" x="64.598438" xlink:href="#ma6b9ddb510" y="139.769307"/>
     <use style="fill-opacity:0;stroke:#000000;" x="64.598438" xlink:href="#ma6b9ddb510" y="67.683229"/>
     <use style="fill-opacity:0;stroke:#000000;" x="64.598438" xlink:href="#ma6b9ddb510" y="124.353438"/>
     <use style="fill-opacity:0;stroke:#000000;" x="64.598438" xlink:href="#ma6b9ddb510" y="149.214855"/>
     <use style="fill-opacity:0;stroke:#000000;" x="64.598438" xlink:href="#ma6b9ddb510" y="141.125124"/>
     <use style="fill-opacity:0;stroke:#000000;" x="64.598438" xlink:href="#ma6b9ddb510" y="138.738151"/>
     <use style="fill-opacity:0;stroke:#000000;" x="64.598438" xlink:href="#ma6b9ddb510" y="150.19401"/>
    </g>
   </g>
   <g id="line2d_43">
    <path clip-path="url(#pa2ec8f51a8)" d="M 97.148438 226.212965 
L 118.848438 226.212965 
L 118.848438 195.420146 
L 97.148438 195.420146 
L 97.148438 226.212965 
" style="fill:none;stroke:#1f77b4;stroke-linecap:square;"/>
   </g>
   <g id="line2d_44">
    <path clip-path="url(#pa2ec8f51a8)" d="M 107.998438 226.212965 
L 107.998438 271.787337 
" style="fill:none;stroke:#1f77b4;stroke-linecap:square;"/>
   </g>
   <g id="line2d_45">
    <path clip-path="url(#pa2ec8f51a8)" d="M 107.998438 195.420146 
L 107.998438 151.110825 
" style="fill:none;stroke:#1f77b4;stroke-linecap:square;"/>
   </g>
   <g id="line2d_46">
    <path clip-path="url(#pa2ec8f51a8)" d="M 102.573438 271.787337 
L 113.423438 271.787337 
" style="fill:none;stroke:#000000;stroke-linecap:square;"/>
   </g>
   <g id="line2d_47">
    <path clip-path="url(#pa2ec8f51a8)" d="M 102.573438 151.110825 
L 113.423438 151.110825 
" style="fill:none;stroke:#000000;stroke-linecap:square;"/>
   </g>
   <g id="line2d_48">
    <g clip-path="url(#pa2ec8f51a8)">
     <use style="fill-opacity:0;stroke:#000000;" x="107.998438" xlink:href="#ma6b9ddb510" y="307.133262"/>
     <use style="fill-opacity:0;stroke:#000000;" x="107.998438" xlink:href="#ma6b9ddb510" y="142.254231"/>
     <use style="fill-opacity:0;stroke:#000000;" x="107.998438" xlink:href="#ma6b9ddb510" y="126.032075"/>
     <use style="fill-opacity:0;stroke:#000000;" x="107.998438" xlink:href="#ma6b9ddb510" y="139.281804"/>
     <use style="fill-opacity:0;stroke:#000000;" x="107.998438" xlink:href="#ma6b9ddb510" y="105.209967"/>
     <use style="fill-opacity:0;stroke:#000000;" x="107.998438" xlink:href="#ma6b9ddb510" y="102.097555"/>
     <use style="fill-opacity:0;stroke:#000000;" x="107.998438" xlink:href="#ma6b9ddb510" y="131.945853"/>
     <use style="fill-opacity:0;stroke:#000000;" x="107.998438" xlink:href="#ma6b9ddb510" y="74.317005"/>
     <use style="fill-opacity:0;stroke:#000000;" x="107.998438" xlink:href="#ma6b9ddb510" y="147.333281"/>
    </g>
   </g>
   <g id="line2d_49">
    <path clip-path="url(#pa2ec8f51a8)" d="M 140.548438 233.611792 
L 162.248437 233.611792 
L 162.248437 197.727838 
L 140.548438 197.727838 
L 140.548438 233.611792 
" style="fill:none;stroke:#1f77b4;stroke-linecap:square;"/>
   </g>
   <g id="line2d_50">
    <path clip-path="url(#pa2ec8f51a8)" d="M 151.398438 233.611792 
L 151.398438 286.390836 
" style="fill:none;stroke:#1f77b4;stroke-linecap:square;"/>
   </g>
   <g id="line2d_51">
    <path clip-path="url(#pa2ec8f51a8)" d="M 151.398438 197.727838 
L 151.398438 144.665824 
" style="fill:none;stroke:#1f77b4;stroke-linecap:square;"/>
   </g>
   <g id="line2d_52">
    <path clip-path="url(#pa2ec8f51a8)" d="M 145.973437 286.390836 
L 156.823438 286.390836 
" style="fill:none;stroke:#000000;stroke-linecap:square;"/>
   </g>
   <g id="line2d_53">
    <path clip-path="url(#pa2ec8f51a8)" d="M 145.973437 144.665824 
L 156.823438 144.665824 
" style="fill:none;stroke:#000000;stroke-linecap:square;"/>
   </g>
   <g id="line2d_54">
    <g clip-path="url(#pa2ec8f51a8)">
     <use style="fill-opacity:0;stroke:#000000;" x="151.398438" xlink:href="#ma6b9ddb510" y="300.547178"/>
     <use style="fill-opacity:0;stroke:#000000;" x="151.398438" xlink:href="#ma6b9ddb510" y="136.123844"/>
     <use style="fill-opacity:0;stroke:#000000;" x="151.398438" xlink:href="#ma6b9ddb510" y="137.317438"/>
     <use style="fill-opacity:0;stroke:#000000;" x="151.398438" xlink:href="#ma6b9ddb510" y="137.627361"/>
     <use style="fill-opacity:0;stroke:#000000;" x="151.398438" xlink:href="#ma6b9ddb510" y="114.322617"/>
     <use style="fill-opacity:0;stroke:#000000;" x="151.398438" xlink:href="#ma6b9ddb510" y="120.83159"/>
     <use style="fill-opacity:0;stroke:#000000;" x="151.398438" xlink:href="#ma6b9ddb510" y="139.75694"/>
    </g>
   </g>
   <g id="line2d_55">
    <path clip-path="url(#pa2ec8f51a8)" d="M 183.948438 230.288735 
L 205.648438 230.288735 
L 205.648438 202.171287 
L 183.948438 202.171287 
L 183.948438 230.288735 
" style="fill:none;stroke:#1f77b4;stroke-linecap:square;"/>
   </g>
   <g id="line2d_56">
    <path clip-path="url(#pa2ec8f51a8)" d="M 194.798438 230.288735 
L 194.798438 270.851585 
" style="fill:none;stroke:#1f77b4;stroke-linecap:square;"/>
   </g>
   <g id="line2d_57">
    <path clip-path="url(#pa2ec8f51a8)" d="M 194.798438 202.171287 
L 194.798438 166.443996 
" style="fill:none;stroke:#1f77b4;stroke-linecap:square;"/>
   </g>
   <g id="line2d_58">
    <path clip-path="url(#pa2ec8f51a8)" d="M 189.373437 270.851585 
L 200.223438 270.851585 
" style="fill:none;stroke:#000000;stroke-linecap:square;"/>
   </g>
   <g id="line2d_59">
    <path clip-path="url(#pa2ec8f51a8)" d="M 189.373437 166.443996 
L 200.223438 166.443996 
" style="fill:none;stroke:#000000;stroke-linecap:square;"/>
   </g>
   <g id="line2d_60">
    <g clip-path="url(#pa2ec8f51a8)">
     <use style="fill-opacity:0;stroke:#000000;" x="194.798438" xlink:href="#ma6b9ddb510" y="275.591762"/>
     <use style="fill-opacity:0;stroke:#000000;" x="194.798438" xlink:href="#ma6b9ddb510" y="293.405248"/>
     <use style="fill-opacity:0;stroke:#000000;" x="194.798438" xlink:href="#ma6b9ddb510" y="277.635911"/>
     <use style="fill-opacity:0;stroke:#000000;" x="194.798438" xlink:href="#ma6b9ddb510" y="281.651681"/>
     <use style="fill-opacity:0;stroke:#000000;" x="194.798438" xlink:href="#ma6b9ddb510" y="281.18996"/>
     <use style="fill-opacity:0;stroke:#000000;" x="194.798438" xlink:href="#ma6b9ddb510" y="273.699124"/>
     <use style="fill-opacity:0;stroke:#000000;" x="194.798438" xlink:href="#ma6b9ddb510" y="150.641418"/>
     <use style="fill-opacity:0;stroke:#000000;" x="194.798438" xlink:href="#ma6b9ddb510" y="148.667055"/>
     <use style="fill-opacity:0;stroke:#000000;" x="194.798438" xlink:href="#ma6b9ddb510" y="130.065744"/>
     <use style="fill-opacity:0;stroke:#000000;" x="194.798438" xlink:href="#ma6b9ddb510" y="135.659296"/>
     <use style="fill-opacity:0;stroke:#000000;" x="194.798438" xlink:href="#ma6b9ddb510" y="147.179827"/>
     <use style="fill-opacity:0;stroke:#000000;" x="194.798438" xlink:href="#ma6b9ddb510" y="107.651675"/>
    </g>
   </g>
   <g id="line2d_61">
    <path clip-path="url(#pa2ec8f51a8)" d="M 227.348438 233.168838 
L 249.048438 233.168838 
L 249.048438 207.001207 
L 227.348438 207.001207 
L 227.348438 233.168838 
" style="fill:none;stroke:#1f77b4;stroke-linecap:square;"/>
   </g>
   <g id="line2d_62">
    <path clip-path="url(#pa2ec8f51a8)" d="M 238.198438 233.168838 
L 238.198438 270.064691 
" style="fill:none;stroke:#1f77b4;stroke-linecap:square;"/>
   </g>
   <g id="line2d_63">
    <path clip-path="url(#pa2ec8f51a8)" d="M 238.198438 207.001207 
L 238.198438 167.764153 
" style="fill:none;stroke:#1f77b4;stroke-linecap:square;"/>
   </g>
   <g id="line2d_64">
    <path clip-path="url(#pa2ec8f51a8)" d="M 232.773438 270.064691 
L 243.623437 270.064691 
" style="fill:none;stroke:#000000;stroke-linecap:square;"/>
   </g>
   <g id="line2d_65">
    <path clip-path="url(#pa2ec8f51a8)" d="M 232.773438 167.764153 
L 243.623437 167.764153 
" style="fill:none;stroke:#000000;stroke-linecap:square;"/>
   </g>
   <g id="line2d_66">
    <g clip-path="url(#pa2ec8f51a8)">
     <use style="fill-opacity:0;stroke:#000000;" x="238.198438" xlink:href="#ma6b9ddb510" y="283.321418"/>
     <use style="fill-opacity:0;stroke:#000000;" x="238.198438" xlink:href="#ma6b9ddb510" y="277.317506"/>
     <use style="fill-opacity:0;stroke:#000000;" x="238.198438" xlink:href="#ma6b9ddb510" y="272.960957"/>
     <use style="fill-opacity:0;stroke:#000000;" x="238.198438" xlink:href="#ma6b9ddb510" y="276.164425"/>
     <use style="fill-opacity:0;stroke:#000000;" x="238.198438" xlink:href="#ma6b9ddb510" y="297.720685"/>
     <use style="fill-opacity:0;stroke:#000000;" x="238.198438" xlink:href="#ma6b9ddb510" y="292.565176"/>
     <use style="fill-opacity:0;stroke:#000000;" x="238.198438" xlink:href="#ma6b9ddb510" y="291.291592"/>
     <use style="fill-opacity:0;stroke:#000000;" x="238.198438" xlink:href="#ma6b9ddb510" y="148.655246"/>
    </g>
   </g>
   <g id="line2d_67">
    <path clip-path="url(#pa2ec8f51a8)" d="M 270.748437 229.543711 
L 292.448438 229.543711 
L 292.448438 205.127041 
L 270.748437 205.127041 
L 270.748437 229.543711 
" style="fill:none;stroke:#1f77b4;stroke-linecap:square;"/>
   </g>
   <g id="line2d_68">
    <path clip-path="url(#pa2ec8f51a8)" d="M 281.598437 229.543711 
L 281.598437 263.937602 
" style="fill:none;stroke:#1f77b4;stroke-linecap:square;"/>
   </g>
   <g id="line2d_69">
    <path clip-path="url(#pa2ec8f51a8)" d="M 281.598437 205.127041 
L 281.598437 171.339259 
" style="fill:none;stroke:#1f77b4;stroke-linecap:square;"/>
   </g>
   <g id="line2d_70">
    <path clip-path="url(#pa2ec8f51a8)" d="M 276.173437 263.937602 
L 287.023438 263.937602 
" style="fill:none;stroke:#000000;stroke-linecap:square;"/>
   </g>
   <g id="line2d_71">
    <path clip-path="url(#pa2ec8f51a8)" d="M 276.173437 171.339259 
L 287.023438 171.339259 
" style="fill:none;stroke:#000000;stroke-linecap:square;"/>
   </g>
   <g id="line2d_72">
    <g clip-path="url(#pa2ec8f51a8)">
     <use style="fill-opacity:0;stroke:#000000;" x="281.598437" xlink:href="#ma6b9ddb510" y="299.848183"/>
     <use style="fill-opacity:0;stroke:#000000;" x="281.598437" xlink:href="#ma6b9ddb510" y="313.541094"/>
     <use style="fill-opacity:0;stroke:#000000;" x="281.598437" xlink:href="#ma6b9ddb510" y="277.920004"/>
     <use style="fill-opacity:0;stroke:#000000;" x="281.598437" xlink:href="#ma6b9ddb510" y="307.094114"/>
     <use style="fill-opacity:0;stroke:#000000;" x="281.598437" xlink:href="#ma6b9ddb510" y="276.399315"/>
     <use style="fill-opacity:0;stroke:#000000;" x="281.598437" xlink:href="#ma6b9ddb510" y="289.963059"/>
     <use style="fill-opacity:0;stroke:#000000;" x="281.598437" xlink:href="#ma6b9ddb510" y="160.886992"/>
     <use style="fill-opacity:0;stroke:#000000;" x="281.598437" xlink:href="#ma6b9ddb510" y="156.207573"/>
     <use style="fill-opacity:0;stroke:#000000;" x="281.598437" xlink:href="#ma6b9ddb510" y="138.519898"/>
    </g>
   </g>
   <g id="line2d_73">
    <path clip-path="url(#pa2ec8f51a8)" d="M 314.148438 218.535694 
L 335.848437 218.535694 
L 335.848437 177.464152 
L 314.148438 177.464152 
L 314.148438 218.535694 
" style="fill:none;stroke:#1f77b4;stroke-linecap:square;"/>
   </g>
   <g id="line2d_74">
    <path clip-path="url(#pa2ec8f51a8)" d="M 324.998438 218.535694 
L 324.998438 270.064648 
" style="fill:none;stroke:#1f77b4;stroke-linecap:square;"/>
   </g>
   <g id="line2d_75">
    <path clip-path="url(#pa2ec8f51a8)" d="M 324.998438 177.464152 
L 324.998438 117.014632 
" style="fill:none;stroke:#1f77b4;stroke-linecap:square;"/>
   </g>
   <g id="line2d_76">
    <path clip-path="url(#pa2ec8f51a8)" d="M 319.573438 270.064648 
L 330.423437 270.064648 
" style="fill:none;stroke:#000000;stroke-linecap:square;"/>
   </g>
   <g id="line2d_77">
    <path clip-path="url(#pa2ec8f51a8)" d="M 319.573438 117.014632 
L 330.423437 117.014632 
" style="fill:none;stroke:#000000;stroke-linecap:square;"/>
   </g>
   <g id="line2d_78">
    <g clip-path="url(#pa2ec8f51a8)">
     <use style="fill-opacity:0;stroke:#000000;" x="324.998438" xlink:href="#ma6b9ddb510" y="284.686855"/>
     <use style="fill-opacity:0;stroke:#000000;" x="324.998438" xlink:href="#ma6b9ddb510" y="303.027097"/>
     <use style="fill-opacity:0;stroke:#000000;" x="324.998438" xlink:href="#ma6b9ddb510" y="297.111405"/>
     <use style="fill-opacity:0;stroke:#000000;" x="324.998438" xlink:href="#ma6b9ddb510" y="333.809399"/>
     <use style="fill-opacity:0;stroke:#000000;" x="324.998438" xlink:href="#ma6b9ddb510" y="284.767859"/>
     <use style="fill-opacity:0;stroke:#000000;" x="324.998438" xlink:href="#ma6b9ddb510" y="101.62122"/>
     <use style="fill-opacity:0;stroke:#000000;" x="324.998438" xlink:href="#ma6b9ddb510" y="113.110223"/>
     <use style="fill-opacity:0;stroke:#000000;" x="324.998438" xlink:href="#ma6b9ddb510" y="39.958125"/>
     <use style="fill-opacity:0;stroke:#000000;" x="324.998438" xlink:href="#ma6b9ddb510" y="99.551708"/>
     <use style="fill-opacity:0;stroke:#000000;" x="324.998438" xlink:href="#ma6b9ddb510" y="98.043095"/>
     <use style="fill-opacity:0;stroke:#000000;" x="324.998438" xlink:href="#ma6b9ddb510" y="49.415805"/>
    </g>
   </g>
   <g id="line2d_79">
    <path clip-path="url(#pa2ec8f51a8)" d="M 357.548437 243.594223 
L 379.248438 243.594223 
L 379.248438 170.309078 
L 357.548437 170.309078 
L 357.548437 243.594223 
" style="fill:none;stroke:#1f77b4;stroke-linecap:square;"/>
   </g>
   <g id="line2d_80">
    <path clip-path="url(#pa2ec8f51a8)" d="M 368.398438 243.594223 
L 368.398438 351.776672 
" style="fill:none;stroke:#1f77b4;stroke-linecap:square;"/>
   </g>
   <g id="line2d_81">
    <path clip-path="url(#pa2ec8f51a8)" d="M 368.398438 170.309078 
L 368.398438 70.87667 
" style="fill:none;stroke:#1f77b4;stroke-linecap:square;"/>
   </g>
   <g id="line2d_82">
    <path clip-path="url(#pa2ec8f51a8)" d="M 362.973437 351.776672 
L 373.823438 351.776672 
" style="fill:none;stroke:#000000;stroke-linecap:square;"/>
   </g>
   <g id="line2d_83">
    <path clip-path="url(#pa2ec8f51a8)" d="M 362.973437 70.87667 
L 373.823438 70.87667 
" style="fill:none;stroke:#000000;stroke-linecap:square;"/>
   </g>
   <g id="line2d_84">
    <g clip-path="url(#pa2ec8f51a8)">
     <use style="fill-opacity:0;stroke:#000000;" x="368.398438" xlink:href="#ma6b9ddb510" y="361.901292"/>
     <use style="fill-opacity:0;stroke:#000000;" x="368.398438" xlink:href="#ma6b9ddb510" y="368.224584"/>
     <use style="fill-opacity:0;stroke:#000000;" x="368.398438" xlink:href="#ma6b9ddb510" y="376.935147"/>
     <use style="fill-opacity:0;stroke:#000000;" x="368.398438" xlink:href="#ma6b9ddb510" y="363.744403"/>
     <use style="fill-opacity:0;stroke:#000000;" x="368.398438" xlink:href="#ma6b9ddb510" y="374.567489"/>
     <use style="fill-opacity:0;stroke:#000000;" x="368.398438" xlink:href="#ma6b9ddb510" y="392.758125"/>
    </g>
   </g>
   <g id="line2d_85">
    <path clip-path="url(#pa2ec8f51a8)" d="M 400.948438 207.196828 
L 422.648438 207.196828 
L 422.648438 172.317002 
L 400.948438 172.317002 
L 400.948438 207.196828 
" style="fill:none;stroke:#1f77b4;stroke-linecap:square;"/>
   </g>
   <g id="line2d_86">
    <path clip-path="url(#pa2ec8f51a8)" d="M 411.798437 207.196828 
L 411.798437 255.312663 
" style="fill:none;stroke:#1f77b4;stroke-linecap:square;"/>
   </g>
   <g id="line2d_87">
    <path clip-path="url(#pa2ec8f51a8)" d="M 411.798437 172.317002 
L 411.798437 122.488514 
" style="fill:none;stroke:#1f77b4;stroke-linecap:square;"/>
   </g>
   <g id="line2d_88">
    <path clip-path="url(#pa2ec8f51a8)" d="M 406.373438 255.312663 
L 417.223437 255.312663 
" style="fill:none;stroke:#000000;stroke-linecap:square;"/>
   </g>
   <g id="line2d_89">
    <path clip-path="url(#pa2ec8f51a8)" d="M 406.373438 122.488514 
L 417.223437 122.488514 
" style="fill:none;stroke:#000000;stroke-linecap:square;"/>
   </g>
   <g id="line2d_90">
    <g clip-path="url(#pa2ec8f51a8)">
     <use style="fill-opacity:0;stroke:#000000;" x="411.798437" xlink:href="#ma6b9ddb510" y="262.158896"/>
     <use style="fill-opacity:0;stroke:#000000;" x="411.798437" xlink:href="#ma6b9ddb510" y="268.081169"/>
     <use style="fill-opacity:0;stroke:#000000;" x="411.798437" xlink:href="#ma6b9ddb510" y="267.308654"/>
     <use style="fill-opacity:0;stroke:#000000;" x="411.798437" xlink:href="#ma6b9ddb510" y="261.560136"/>
     <use style="fill-opacity:0;stroke:#000000;" x="411.798437" xlink:href="#ma6b9ddb510" y="273.765749"/>
     <use style="fill-opacity:0;stroke:#000000;" x="411.798437" xlink:href="#ma6b9ddb510" y="104.965281"/>
     <use style="fill-opacity:0;stroke:#000000;" x="411.798437" xlink:href="#ma6b9ddb510" y="108.02941"/>
     <use style="fill-opacity:0;stroke:#000000;" x="411.798437" xlink:href="#ma6b9ddb510" y="115.548571"/>
     <use style="fill-opacity:0;stroke:#000000;" x="411.798437" xlink:href="#ma6b9ddb510" y="110.859993"/>
     <use style="fill-opacity:0;stroke:#000000;" x="411.798437" xlink:href="#ma6b9ddb510" y="85.24839"/>
    </g>
   </g>
   <g id="line2d_91">
    <path clip-path="url(#pa2ec8f51a8)" d="M 53.748438 225.319192 
L 75.448438 225.319192 
" style="fill:none;stroke:#2ca02c;stroke-linecap:square;"/>
   </g>
   <g id="line2d_92">
    <path clip-path="url(#pa2ec8f51a8)" d="M 97.148438 213.007836 
L 118.848438 213.007836 
" style="fill:none;stroke:#2ca02c;stroke-linecap:square;"/>
   </g>
   <g id="line2d_93">
    <path clip-path="url(#pa2ec8f51a8)" d="M 140.548438 215.104306 
L 162.248437 215.104306 
" style="fill:none;stroke:#2ca02c;stroke-linecap:square;"/>
   </g>
   <g id="line2d_94">
    <path clip-path="url(#pa2ec8f51a8)" d="M 183.948438 216.449101 
L 205.648438 216.449101 
" style="fill:none;stroke:#2ca02c;stroke-linecap:square;"/>
   </g>
   <g id="line2d_95">
    <path clip-path="url(#pa2ec8f51a8)" d="M 227.348438 220.108344 
L 249.048438 220.108344 
" style="fill:none;stroke:#2ca02c;stroke-linecap:square;"/>
   </g>
   <g id="line2d_96">
    <path clip-path="url(#pa2ec8f51a8)" d="M 270.748437 215.037786 
L 292.448438 215.037786 
" style="fill:none;stroke:#2ca02c;stroke-linecap:square;"/>
   </g>
   <g id="line2d_97">
    <path clip-path="url(#pa2ec8f51a8)" d="M 314.148438 200.066974 
L 335.848437 200.066974 
" style="fill:none;stroke:#2ca02c;stroke-linecap:square;"/>
   </g>
   <g id="line2d_98">
    <path clip-path="url(#pa2ec8f51a8)" d="M 357.548437 208.880397 
L 379.248438 208.880397 
" style="fill:none;stroke:#2ca02c;stroke-linecap:square;"/>
   </g>
   <g id="line2d_99">
    <path clip-path="url(#pa2ec8f51a8)" d="M 400.948438 190.285128 
L 422.648438 190.285128 
" style="fill:none;stroke:#2ca02c;stroke-linecap:square;"/>
   </g>
   <g id="patch_3">
    <path d="M 42.898438 410.398125 
L 42.898438 22.318125 
" style="fill:none;stroke:#000000;stroke-linecap:square;stroke-linejoin:miter;stroke-width:0.8;"/>
   </g>
   <g id="patch_4">
    <path d="M 433.498438 410.398125 
L 433.498438 22.318125 
" style="fill:none;stroke:#000000;stroke-linecap:square;stroke-linejoin:miter;stroke-width:0.8;"/>
   </g>
   <g id="patch_5">
    <path d="M 42.898438 410.398125 
L 433.498438 410.398125 
" style="fill:none;stroke:#000000;stroke-linecap:square;stroke-linejoin:miter;stroke-width:0.8;"/>
   </g>
   <g id="patch_6">
    <path d="M 42.898438 22.318125 
L 433.498438 22.318125 
" style="fill:none;stroke:#000000;stroke-linecap:square;stroke-linejoin:miter;stroke-width:0.8;"/>
   </g>
   <g id="text_20">
    <!-- src/BOXPLOT_1_OX-lines.tsv -->
    <defs>
     <path d="M 44.28125 53.078125 
L 44.28125 44.578125 
Q 40.484375 46.53125 36.375 47.5 
Q 32.28125 48.484375 27.875 48.484375 
Q 21.1875 48.484375 17.84375 46.4375 
Q 14.5 44.390625 14.5 40.28125 
Q 14.5 37.15625 16.890625 35.375 
Q 19.28125 33.59375 26.515625 31.984375 
L 29.59375 31.296875 
Q 39.15625 29.25 43.1875 25.515625 
Q 47.21875 21.78125 47.21875 15.09375 
Q 47.21875 7.46875 41.1875 3.015625 
Q 35.15625 -1.421875 24.609375 -1.421875 
Q 20.21875 -1.421875 15.453125 -0.5625 
Q 10.6875 0.296875 5.421875 2 
L 5.421875 11.28125 
Q 10.40625 8.6875 15.234375 7.390625 
Q 20.0625 6.109375 24.8125 6.109375 
Q 31.15625 6.109375 34.5625 8.28125 
Q 37.984375 10.453125 37.984375 14.40625 
Q 37.984375 18.0625 35.515625 20.015625 
Q 33.0625 21.96875 24.703125 23.78125 
L 21.578125 24.515625 
Q 13.234375 26.265625 9.515625 29.90625 
Q 5.8125 33.546875 5.8125 39.890625 
Q 5.8125 47.609375 11.28125 51.796875 
Q 16.75 56 26.8125 56 
Q 31.78125 56 36.171875 55.265625 
Q 40.578125 54.546875 44.28125 53.078125 
z
" id="DejaVuSans-73"/>
     <path d="M 48.78125 52.59375 
L 48.78125 44.1875 
Q 44.96875 46.296875 41.140625 47.34375 
Q 37.3125 48.390625 33.40625 48.390625 
Q 24.65625 48.390625 19.8125 42.84375 
Q 14.984375 37.3125 14.984375 27.296875 
Q 14.984375 17.28125 19.8125 11.734375 
Q 24.65625 6.203125 33.40625 6.203125 
Q 37.3125 6.203125 41.140625 7.25 
Q 44.96875 8.296875 48.78125 10.40625 
L 48.78125 2.09375 
Q 45.015625 0.34375 40.984375 -0.53125 
Q 36.96875 -1.421875 32.421875 -1.421875 
Q 20.0625 -1.421875 12.78125 6.34375 
Q 5.515625 14.109375 5.515625 27.296875 
Q 5.515625 40.671875 12.859375 48.328125 
Q 20.21875 56 33.015625 56 
Q 37.15625 56 41.109375 55.140625 
Q 45.0625 54.296875 48.78125 52.59375 
z
" id="DejaVuSans-63"/>
     <path d="M 25.390625 72.90625 
L 33.6875 72.90625 
L 8.296875 -9.28125 
L 0 -9.28125 
z
" id="DejaVuSans-2f"/>
     <path d="M 9.421875 54.6875 
L 18.40625 54.6875 
L 18.40625 0 
L 9.421875 0 
z
M 9.421875 75.984375 
L 18.40625 75.984375 
L 18.40625 64.59375 
L 9.421875 64.59375 
z
" id="DejaVuSans-69"/>
     <path d="M 10.6875 12.40625 
L 21 12.40625 
L 21 0 
L 10.6875 0 
z
" id="DejaVuSans-2e"/>
     <path d="M 18.3125 70.21875 
L 18.3125 54.6875 
L 36.8125 54.6875 
L 36.8125 47.703125 
L 18.3125 47.703125 
L 18.3125 18.015625 
Q 18.3125 11.328125 20.140625 9.421875 
Q 21.96875 7.515625 27.59375 7.515625 
L 36.8125 7.515625 
L 36.8125 0 
L 27.59375 0 
Q 17.1875 0 13.234375 3.875 
Q 9.28125 7.765625 9.28125 18.015625 
L 9.28125 47.703125 
L 2.6875 47.703125 
L 2.6875 54.6875 
L 9.28125 54.6875 
L 9.28125 70.21875 
z
" id="DejaVuSans-74"/>
     <path d="M 2.984375 54.6875 
L 12.5 54.6875 
L 29.59375 8.796875 
L 46.6875 54.6875 
L 56.203125 54.6875 
L 35.6875 0 
L 23.484375 0 
z
" id="DejaVuSans-76"/>
    </defs>
    <g transform="translate(153.304063 16.318125)scale(0.12 -0.12)">
     <use xlink:href="#DejaVuSans-73"/>
     <use x="52.099609" xlink:href="#DejaVuSans-72"/>
     <use x="93.181641" xlink:href="#DejaVuSans-63"/>
     <use x="148.162109" xlink:href="#DejaVuSans-2f"/>
     <use x="181.853516" xlink:href="#DejaVuSans-42"/>
     <use x="250.441406" xlink:href="#DejaVuSans-4f"/>
     <use x="329.058594" xlink:href="#DejaVuSans-58"/>
     <use x="397.564453" xlink:href="#DejaVuSans-50"/>
     <use x="457.867188" xlink:href="#DejaVuSans-4c"/>
     <use x="513.533203" xlink:href="#DejaVuSans-4f"/>
     <use x="592.244141" xlink:href="#DejaVuSans-54"/>
     <use x="653.328125" xlink:href="#DejaVuSans-5f"/>
     <use x="703.328125" xlink:href="#DejaVuSans-31"/>
     <use x="766.951172" xlink:href="#DejaVuSans-5f"/>
     <use x="816.951172" xlink:href="#DejaVuSans-4f"/>
     <use x="895.568359" xlink:href="#DejaVuSans-58"/>
     <use x="963.996094" xlink:href="#DejaVuSans-2d"/>
     <use x="1000.080078" xlink:href="#DejaVuSans-6c"/>
     <use x="1027.863281" xlink:href="#DejaVuSans-69"/>
     <use x="1055.646484" xlink:href="#DejaVuSans-6e"/>
     <use x="1119.025391" xlink:href="#DejaVuSans-65"/>
     <use x="1180.548828" xlink:href="#DejaVuSans-73"/>
     <use x="1232.648438" xlink:href="#DejaVuSans-2e"/>
     <use x="1264.435547" xlink:href="#DejaVuSans-74"/>
     <use x="1303.644531" xlink:href="#DejaVuSans-73"/>
     <use x="1355.744141" xlink:href="#DejaVuSans-76"/>
    </g>
   </g>
  </g>
 </g>
 <defs>
  <clipPath id="pa2ec8f51a8">
   <rect height="388.08" width="390.6" x="42.898438" y="22.318125"/>
  </clipPath>
 </defs>
</svg>
