<?xml version="1.0" encoding="utf-8" standalone="no"?>
<!DOCTYPE svg PUBLIC "-//W3C//DTD SVG 1.1//EN"
  "http://www.w3.org/Graphics/SVG/1.1/DTD/svg11.dtd">
<!-- Created with matplotlib (http://matplotlib.org/) -->
<svg height="562.855937pt" version="1.1" viewBox="0 0 444.198438 562.855937" width="444.198438pt" xmlns="http://www.w3.org/2000/svg" xmlns:xlink="http://www.w3.org/1999/xlink">
 <defs>
  <style type="text/css">
*{stroke-linecap:butt;stroke-linejoin:round;}
  </style>
 </defs>
 <g id="figure_1">
  <g id="patch_1">
   <path d="M 0 562.855937 
L 444.198438 562.855937 
L 444.198438 0 
L 0 0 
z
" style="fill:#ffffff;"/>
  </g>
  <g id="axes_1">
   <g id="patch_2">
    <path d="M 42.898438 410.398125 
L 433.498438 410.398125 
L 433.498438 22.318125 
L 42.898438 22.318125 
z
" style="fill:#ffffff;"/>
   </g>
   <g id="matplotlib.axis_1">
    <g id="xtick_1">
     <g id="line2d_1">
      <path clip-path="url(#p2a59bdf9c1)" d="M 60.652983 410.398125 
L 60.652983 22.318125 
" style="fill:none;stroke:#b0b0b0;stroke-linecap:square;stroke-width:0.8;"/>
     </g>
     <g id="line2d_2">
      <defs>
       <path d="M 0 0 
L 0 3.5 
" id="mfefd98175f" style="stroke:#000000;stroke-width:0.8;"/>
      </defs>
      <g>
       <use style="stroke:#000000;stroke-width:0.8;" x="60.652983" xlink:href="#mfefd98175f" y="410.398125"/>
      </g>
     </g>
     <g id="text_1">
      <!-- 22C-ZT12-Q0-2-177RS20 -->
      <defs>
       <path d="M 19.1875 8.296875 
L 53.609375 8.296875 
L 53.609375 0 
L 7.328125 0 
L 7.328125 8.296875 
Q 12.9375 14.109375 22.625 23.890625 
Q 32.328125 33.6875 34.8125 36.53125 
Q 39.546875 41.84375 41.421875 45.53125 
Q 43.3125 49.21875 43.3125 52.78125 
Q 43.3125 58.59375 39.234375 62.25 
Q 35.15625 65.921875 28.609375 65.921875 
Q 23.96875 65.921875 18.8125 64.3125 
Q 13.671875 62.703125 7.8125 59.421875 
L 7.8125 69.390625 
Q 13.765625 71.78125 18.9375 73 
Q 24.125 74.21875 28.421875 74.21875 
Q 39.75 74.21875 46.484375 68.546875 
Q 53.21875 62.890625 53.21875 53.421875 
Q 53.21875 48.921875 51.53125 44.890625 
Q 49.859375 40.875 45.40625 35.40625 
Q 44.1875 33.984375 37.640625 27.21875 
Q 31.109375 20.453125 19.1875 8.296875 
z
" id="DejaVuSans-32"/>
       <path d="M 64.40625 67.28125 
L 64.40625 56.890625 
Q 59.421875 61.53125 53.78125 63.8125 
Q 48.140625 66.109375 41.796875 66.109375 
Q 29.296875 66.109375 22.65625 58.46875 
Q 16.015625 50.828125 16.015625 36.375 
Q 16.015625 21.96875 22.65625 14.328125 
Q 29.296875 6.6875 41.796875 6.6875 
Q 48.140625 6.6875 53.78125 8.984375 
Q 59.421875 11.28125 64.40625 15.921875 
L 64.40625 5.609375 
Q 59.234375 2.09375 53.4375 0.328125 
Q 47.65625 -1.421875 41.21875 -1.421875 
Q 24.65625 -1.421875 15.125 8.703125 
Q 5.609375 18.84375 5.609375 36.375 
Q 5.609375 53.953125 15.125 64.078125 
Q 24.65625 74.21875 41.21875 74.21875 
Q 47.75 74.21875 53.53125 72.484375 
Q 59.328125 70.75 64.40625 67.28125 
z
" id="DejaVuSans-43"/>
       <path d="M 4.890625 31.390625 
L 31.203125 31.390625 
L 31.203125 23.390625 
L 4.890625 23.390625 
z
" id="DejaVuSans-2d"/>
       <path d="M 5.609375 72.90625 
L 62.890625 72.90625 
L 62.890625 65.375 
L 16.796875 8.296875 
L 64.015625 8.296875 
L 64.015625 0 
L 4.5 0 
L 4.5 7.515625 
L 50.59375 64.59375 
L 5.609375 64.59375 
z
" id="DejaVuSans-5a"/>
       <path d="M -0.296875 72.90625 
L 61.375 72.90625 
L 61.375 64.59375 
L 35.5 64.59375 
L 35.5 0 
L 25.59375 0 
L 25.59375 64.59375 
L -0.296875 64.59375 
z
" id="DejaVuSans-54"/>
       <path d="M 12.40625 8.296875 
L 28.515625 8.296875 
L 28.515625 63.921875 
L 10.984375 60.40625 
L 10.984375 69.390625 
L 28.421875 72.90625 
L 38.28125 72.90625 
L 38.28125 8.296875 
L 54.390625 8.296875 
L 54.390625 0 
L 12.40625 0 
z
" id="DejaVuSans-31"/>
       <path d="M 39.40625 66.21875 
Q 28.65625 66.21875 22.328125 58.203125 
Q 16.015625 50.203125 16.015625 36.375 
Q 16.015625 22.609375 22.328125 14.59375 
Q 28.65625 6.59375 39.40625 6.59375 
Q 50.140625 6.59375 56.421875 14.59375 
Q 62.703125 22.609375 62.703125 36.375 
Q 62.703125 50.203125 56.421875 58.203125 
Q 50.140625 66.21875 39.40625 66.21875 
z
M 53.21875 1.3125 
L 66.21875 -12.890625 
L 54.296875 -12.890625 
L 43.5 -1.21875 
Q 41.890625 -1.3125 41.03125 -1.359375 
Q 40.1875 -1.421875 39.40625 -1.421875 
Q 24.03125 -1.421875 14.8125 8.859375 
Q 5.609375 19.140625 5.609375 36.375 
Q 5.609375 53.65625 14.8125 63.9375 
Q 24.03125 74.21875 39.40625 74.21875 
Q 54.734375 74.21875 63.90625 63.9375 
Q 73.09375 53.65625 73.09375 36.375 
Q 73.09375 23.6875 67.984375 14.640625 
Q 62.890625 5.609375 53.21875 1.3125 
z
" id="DejaVuSans-51"/>
       <path d="M 31.78125 66.40625 
Q 24.171875 66.40625 20.328125 58.90625 
Q 16.5 51.421875 16.5 36.375 
Q 16.5 21.390625 20.328125 13.890625 
Q 24.171875 6.390625 31.78125 6.390625 
Q 39.453125 6.390625 43.28125 13.890625 
Q 47.125 21.390625 47.125 36.375 
Q 47.125 51.421875 43.28125 58.90625 
Q 39.453125 66.40625 31.78125 66.40625 
z
M 31.78125 74.21875 
Q 44.046875 74.21875 50.515625 64.515625 
Q 56.984375 54.828125 56.984375 36.375 
Q 56.984375 17.96875 50.515625 8.265625 
Q 44.046875 -1.421875 31.78125 -1.421875 
Q 19.53125 -1.421875 13.0625 8.265625 
Q 6.59375 17.96875 6.59375 36.375 
Q 6.59375 54.828125 13.0625 64.515625 
Q 19.53125 74.21875 31.78125 74.21875 
z
" id="DejaVuSans-30"/>
       <path d="M 8.203125 72.90625 
L 55.078125 72.90625 
L 55.078125 68.703125 
L 28.609375 0 
L 18.3125 0 
L 43.21875 64.59375 
L 8.203125 64.59375 
z
" id="DejaVuSans-37"/>
       <path d="M 44.390625 34.1875 
Q 47.5625 33.109375 50.5625 29.59375 
Q 53.5625 26.078125 56.59375 19.921875 
L 66.609375 0 
L 56 0 
L 46.6875 18.703125 
Q 43.0625 26.03125 39.671875 28.421875 
Q 36.28125 30.8125 30.421875 30.8125 
L 19.671875 30.8125 
L 19.671875 0 
L 9.8125 0 
L 9.8125 72.90625 
L 32.078125 72.90625 
Q 44.578125 72.90625 50.734375 67.671875 
Q 56.890625 62.453125 56.890625 51.90625 
Q 56.890625 45.015625 53.6875 40.46875 
Q 50.484375 35.9375 44.390625 34.1875 
z
M 19.671875 64.796875 
L 19.671875 38.921875 
L 32.078125 38.921875 
Q 39.203125 38.921875 42.84375 42.21875 
Q 46.484375 45.515625 46.484375 51.90625 
Q 46.484375 58.296875 42.84375 61.546875 
Q 39.203125 64.796875 32.078125 64.796875 
z
" id="DejaVuSans-52"/>
       <path d="M 53.515625 70.515625 
L 53.515625 60.890625 
Q 47.90625 63.578125 42.921875 64.890625 
Q 37.9375 66.21875 33.296875 66.21875 
Q 25.25 66.21875 20.875 63.09375 
Q 16.5 59.96875 16.5 54.203125 
Q 16.5 49.359375 19.40625 46.890625 
Q 22.3125 44.4375 30.421875 42.921875 
L 36.375 41.703125 
Q 47.40625 39.59375 52.65625 34.296875 
Q 57.90625 29 57.90625 20.125 
Q 57.90625 9.515625 50.796875 4.046875 
Q 43.703125 -1.421875 29.984375 -1.421875 
Q 24.8125 -1.421875 18.96875 -0.25 
Q 13.140625 0.921875 6.890625 3.21875 
L 6.890625 13.375 
Q 12.890625 10.015625 18.65625 8.296875 
Q 24.421875 6.59375 29.984375 6.59375 
Q 38.421875 6.59375 43.015625 9.90625 
Q 47.609375 13.234375 47.609375 19.390625 
Q 47.609375 24.75 44.3125 27.78125 
Q 41.015625 30.8125 33.5 32.328125 
L 27.484375 33.5 
Q 16.453125 35.6875 11.515625 40.375 
Q 6.59375 45.0625 6.59375 53.421875 
Q 6.59375 63.09375 13.40625 68.65625 
Q 20.21875 74.21875 32.171875 74.21875 
Q 37.3125 74.21875 42.625 73.28125 
Q 47.953125 72.359375 53.515625 70.515625 
z
" id="DejaVuSans-53"/>
      </defs>
      <g transform="translate(63.412358 542.930937)rotate(-90)scale(0.1 -0.1)">
       <use xlink:href="#DejaVuSans-32"/>
       <use x="63.623047" xlink:href="#DejaVuSans-32"/>
       <use x="127.246094" xlink:href="#DejaVuSans-43"/>
       <use x="197.070312" xlink:href="#DejaVuSans-2d"/>
       <use x="233.154297" xlink:href="#DejaVuSans-5a"/>
       <use x="301.660156" xlink:href="#DejaVuSans-54"/>
       <use x="362.744141" xlink:href="#DejaVuSans-31"/>
       <use x="426.367188" xlink:href="#DejaVuSans-32"/>
       <use x="489.990234" xlink:href="#DejaVuSans-2d"/>
       <use x="526.121094" xlink:href="#DejaVuSans-51"/>
       <use x="604.832031" xlink:href="#DejaVuSans-30"/>
       <use x="668.455078" xlink:href="#DejaVuSans-2d"/>
       <use x="704.539062" xlink:href="#DejaVuSans-32"/>
       <use x="768.162109" xlink:href="#DejaVuSans-2d"/>
       <use x="804.246094" xlink:href="#DejaVuSans-31"/>
       <use x="867.869141" xlink:href="#DejaVuSans-37"/>
       <use x="931.492188" xlink:href="#DejaVuSans-37"/>
       <use x="995.115234" xlink:href="#DejaVuSans-52"/>
       <use x="1064.597656" xlink:href="#DejaVuSans-53"/>
       <use x="1128.074219" xlink:href="#DejaVuSans-32"/>
       <use x="1191.697266" xlink:href="#DejaVuSans-30"/>
      </g>
     </g>
    </g>
    <g id="xtick_2">
     <g id="line2d_3">
      <path clip-path="url(#p2a59bdf9c1)" d="M 96.162074 410.398125 
L 96.162074 22.318125 
" style="fill:none;stroke:#b0b0b0;stroke-linecap:square;stroke-width:0.8;"/>
     </g>
     <g id="line2d_4">
      <g>
       <use style="stroke:#000000;stroke-width:0.8;" x="96.162074" xlink:href="#mfefd98175f" y="410.398125"/>
      </g>
     </g>
     <g id="text_2">
      <!-- 22C-ZT12-Q0-15-177RS21 -->
      <defs>
       <path d="M 10.796875 72.90625 
L 49.515625 72.90625 
L 49.515625 64.59375 
L 19.828125 64.59375 
L 19.828125 46.734375 
Q 21.96875 47.46875 24.109375 47.828125 
Q 26.265625 48.1875 28.421875 48.1875 
Q 40.625 48.1875 47.75 41.5 
Q 54.890625 34.8125 54.890625 23.390625 
Q 54.890625 11.625 47.5625 5.09375 
Q 40.234375 -1.421875 26.90625 -1.421875 
Q 22.3125 -1.421875 17.546875 -0.640625 
Q 12.796875 0.140625 7.71875 1.703125 
L 7.71875 11.625 
Q 12.109375 9.234375 16.796875 8.0625 
Q 21.484375 6.890625 26.703125 6.890625 
Q 35.15625 6.890625 40.078125 11.328125 
Q 45.015625 15.765625 45.015625 23.390625 
Q 45.015625 31 40.078125 35.4375 
Q 35.15625 39.890625 26.703125 39.890625 
Q 22.75 39.890625 18.8125 39.015625 
Q 14.890625 38.140625 10.796875 36.28125 
z
" id="DejaVuSans-35"/>
      </defs>
      <g transform="translate(98.921449 549.293437)rotate(-90)scale(0.1 -0.1)">
       <use xlink:href="#DejaVuSans-32"/>
       <use x="63.623047" xlink:href="#DejaVuSans-32"/>
       <use x="127.246094" xlink:href="#DejaVuSans-43"/>
       <use x="197.070312" xlink:href="#DejaVuSans-2d"/>
       <use x="233.154297" xlink:href="#DejaVuSans-5a"/>
       <use x="301.660156" xlink:href="#DejaVuSans-54"/>
       <use x="362.744141" xlink:href="#DejaVuSans-31"/>
       <use x="426.367188" xlink:href="#DejaVuSans-32"/>
       <use x="489.990234" xlink:href="#DejaVuSans-2d"/>
       <use x="526.121094" xlink:href="#DejaVuSans-51"/>
       <use x="604.832031" xlink:href="#DejaVuSans-30"/>
       <use x="668.455078" xlink:href="#DejaVuSans-2d"/>
       <use x="704.539062" xlink:href="#DejaVuSans-31"/>
       <use x="768.162109" xlink:href="#DejaVuSans-35"/>
       <use x="831.785156" xlink:href="#DejaVuSans-2d"/>
       <use x="867.869141" xlink:href="#DejaVuSans-31"/>
       <use x="931.492188" xlink:href="#DejaVuSans-37"/>
       <use x="995.115234" xlink:href="#DejaVuSans-37"/>
       <use x="1058.738281" xlink:href="#DejaVuSans-52"/>
       <use x="1128.220703" xlink:href="#DejaVuSans-53"/>
       <use x="1191.697266" xlink:href="#DejaVuSans-32"/>
       <use x="1255.320312" xlink:href="#DejaVuSans-31"/>
      </g>
     </g>
    </g>
    <g id="xtick_3">
     <g id="line2d_5">
      <path clip-path="url(#p2a59bdf9c1)" d="M 131.671165 410.398125 
L 131.671165 22.318125 
" style="fill:none;stroke:#b0b0b0;stroke-linecap:square;stroke-width:0.8;"/>
     </g>
     <g id="line2d_6">
      <g>
       <use style="stroke:#000000;stroke-width:0.8;" x="131.671165" xlink:href="#mfefd98175f" y="410.398125"/>
      </g>
     </g>
     <g id="text_3">
      <!-- 22C-ZT12-Q7-6-177RS22 -->
      <defs>
       <path d="M 33.015625 40.375 
Q 26.375 40.375 22.484375 35.828125 
Q 18.609375 31.296875 18.609375 23.390625 
Q 18.609375 15.53125 22.484375 10.953125 
Q 26.375 6.390625 33.015625 6.390625 
Q 39.65625 6.390625 43.53125 10.953125 
Q 47.40625 15.53125 47.40625 23.390625 
Q 47.40625 31.296875 43.53125 35.828125 
Q 39.65625 40.375 33.015625 40.375 
z
M 52.59375 71.296875 
L 52.59375 62.3125 
Q 48.875 64.0625 45.09375 64.984375 
Q 41.3125 65.921875 37.59375 65.921875 
Q 27.828125 65.921875 22.671875 59.328125 
Q 17.53125 52.734375 16.796875 39.40625 
Q 19.671875 43.65625 24.015625 45.921875 
Q 28.375 48.1875 33.59375 48.1875 
Q 44.578125 48.1875 50.953125 41.515625 
Q 57.328125 34.859375 57.328125 23.390625 
Q 57.328125 12.15625 50.6875 5.359375 
Q 44.046875 -1.421875 33.015625 -1.421875 
Q 20.359375 -1.421875 13.671875 8.265625 
Q 6.984375 17.96875 6.984375 36.375 
Q 6.984375 53.65625 15.1875 63.9375 
Q 23.390625 74.21875 37.203125 74.21875 
Q 40.921875 74.21875 44.703125 73.484375 
Q 48.484375 72.75 52.59375 71.296875 
z
" id="DejaVuSans-36"/>
      </defs>
      <g transform="translate(134.43054 542.930937)rotate(-90)scale(0.1 -0.1)">
       <use xlink:href="#DejaVuSans-32"/>
       <use x="63.623047" xlink:href="#DejaVuSans-32"/>
       <use x="127.246094" xlink:href="#DejaVuSans-43"/>
       <use x="197.070312" xlink:href="#DejaVuSans-2d"/>
       <use x="233.154297" xlink:href="#DejaVuSans-5a"/>
       <use x="301.660156" xlink:href="#DejaVuSans-54"/>
       <use x="362.744141" xlink:href="#DejaVuSans-31"/>
       <use x="426.367188" xlink:href="#DejaVuSans-32"/>
       <use x="489.990234" xlink:href="#DejaVuSans-2d"/>
       <use x="526.121094" xlink:href="#DejaVuSans-51"/>
       <use x="604.832031" xlink:href="#DejaVuSans-37"/>
       <use x="668.455078" xlink:href="#DejaVuSans-2d"/>
       <use x="704.539062" xlink:href="#DejaVuSans-36"/>
       <use x="768.162109" xlink:href="#DejaVuSans-2d"/>
       <use x="804.246094" xlink:href="#DejaVuSans-31"/>
       <use x="867.869141" xlink:href="#DejaVuSans-37"/>
       <use x="931.492188" xlink:href="#DejaVuSans-37"/>
       <use x="995.115234" xlink:href="#DejaVuSans-52"/>
       <use x="1064.597656" xlink:href="#DejaVuSans-53"/>
       <use x="1128.074219" xlink:href="#DejaVuSans-32"/>
       <use x="1191.697266" xlink:href="#DejaVuSans-32"/>
      </g>
     </g>
    </g>
    <g id="xtick_4">
     <g id="line2d_7">
      <path clip-path="url(#p2a59bdf9c1)" d="M 167.180256 410.398125 
L 167.180256 22.318125 
" style="fill:none;stroke:#b0b0b0;stroke-linecap:square;stroke-width:0.8;"/>
     </g>
     <g id="line2d_8">
      <g>
       <use style="stroke:#000000;stroke-width:0.8;" x="167.180256" xlink:href="#mfefd98175f" y="410.398125"/>
      </g>
     </g>
     <g id="text_4">
      <!-- 22C-ZT12-Q7-17-177RS23 -->
      <defs>
       <path d="M 40.578125 39.3125 
Q 47.65625 37.796875 51.625 33 
Q 55.609375 28.21875 55.609375 21.1875 
Q 55.609375 10.40625 48.1875 4.484375 
Q 40.765625 -1.421875 27.09375 -1.421875 
Q 22.515625 -1.421875 17.65625 -0.515625 
Q 12.796875 0.390625 7.625 2.203125 
L 7.625 11.71875 
Q 11.71875 9.328125 16.59375 8.109375 
Q 21.484375 6.890625 26.8125 6.890625 
Q 36.078125 6.890625 40.9375 10.546875 
Q 45.796875 14.203125 45.796875 21.1875 
Q 45.796875 27.640625 41.28125 31.265625 
Q 36.765625 34.90625 28.71875 34.90625 
L 20.21875 34.90625 
L 20.21875 43.015625 
L 29.109375 43.015625 
Q 36.375 43.015625 40.234375 45.921875 
Q 44.09375 48.828125 44.09375 54.296875 
Q 44.09375 59.90625 40.109375 62.90625 
Q 36.140625 65.921875 28.71875 65.921875 
Q 24.65625 65.921875 20.015625 65.03125 
Q 15.375 64.15625 9.8125 62.3125 
L 9.8125 71.09375 
Q 15.4375 72.65625 20.34375 73.4375 
Q 25.25 74.21875 29.59375 74.21875 
Q 40.828125 74.21875 47.359375 69.109375 
Q 53.90625 64.015625 53.90625 55.328125 
Q 53.90625 49.265625 50.4375 45.09375 
Q 46.96875 40.921875 40.578125 39.3125 
z
" id="DejaVuSans-33"/>
      </defs>
      <g transform="translate(169.939631 549.293437)rotate(-90)scale(0.1 -0.1)">
       <use xlink:href="#DejaVuSans-32"/>
       <use x="63.623047" xlink:href="#DejaVuSans-32"/>
       <use x="127.246094" xlink:href="#DejaVuSans-43"/>
       <use x="197.070312" xlink:href="#DejaVuSans-2d"/>
       <use x="233.154297" xlink:href="#DejaVuSans-5a"/>
       <use x="301.660156" xlink:href="#DejaVuSans-54"/>
       <use x="362.744141" xlink:href="#DejaVuSans-31"/>
       <use x="426.367188" xlink:href="#DejaVuSans-32"/>
       <use x="489.990234" xlink:href="#DejaVuSans-2d"/>
       <use x="526.121094" xlink:href="#DejaVuSans-51"/>
       <use x="604.832031" xlink:href="#DejaVuSans-37"/>
       <use x="668.455078" xlink:href="#DejaVuSans-2d"/>
       <use x="704.539062" xlink:href="#DejaVuSans-31"/>
       <use x="768.162109" xlink:href="#DejaVuSans-37"/>
       <use x="831.785156" xlink:href="#DejaVuSans-2d"/>
       <use x="867.869141" xlink:href="#DejaVuSans-31"/>
       <use x="931.492188" xlink:href="#DejaVuSans-37"/>
       <use x="995.115234" xlink:href="#DejaVuSans-37"/>
       <use x="1058.738281" xlink:href="#DejaVuSans-52"/>
       <use x="1128.220703" xlink:href="#DejaVuSans-53"/>
       <use x="1191.697266" xlink:href="#DejaVuSans-32"/>
       <use x="1255.320312" xlink:href="#DejaVuSans-33"/>
      </g>
     </g>
    </g>
    <g id="xtick_5">
     <g id="line2d_9">
      <path clip-path="url(#p2a59bdf9c1)" d="M 202.689347 410.398125 
L 202.689347 22.318125 
" style="fill:none;stroke:#b0b0b0;stroke-linecap:square;stroke-width:0.8;"/>
     </g>
     <g id="line2d_10">
      <g>
       <use style="stroke:#000000;stroke-width:0.8;" x="202.689347" xlink:href="#mfefd98175f" y="410.398125"/>
      </g>
     </g>
     <g id="text_5">
      <!-- 22C-ZT12-Q21-7-177RS24 -->
      <defs>
       <path d="M 37.796875 64.3125 
L 12.890625 25.390625 
L 37.796875 25.390625 
z
M 35.203125 72.90625 
L 47.609375 72.90625 
L 47.609375 25.390625 
L 58.015625 25.390625 
L 58.015625 17.1875 
L 47.609375 17.1875 
L 47.609375 0 
L 37.796875 0 
L 37.796875 17.1875 
L 4.890625 17.1875 
L 4.890625 26.703125 
z
" id="DejaVuSans-34"/>
      </defs>
      <g transform="translate(205.448722 549.293437)rotate(-90)scale(0.1 -0.1)">
       <use xlink:href="#DejaVuSans-32"/>
       <use x="63.623047" xlink:href="#DejaVuSans-32"/>
       <use x="127.246094" xlink:href="#DejaVuSans-43"/>
       <use x="197.070312" xlink:href="#DejaVuSans-2d"/>
       <use x="233.154297" xlink:href="#DejaVuSans-5a"/>
       <use x="301.660156" xlink:href="#DejaVuSans-54"/>
       <use x="362.744141" xlink:href="#DejaVuSans-31"/>
       <use x="426.367188" xlink:href="#DejaVuSans-32"/>
       <use x="489.990234" xlink:href="#DejaVuSans-2d"/>
       <use x="526.121094" xlink:href="#DejaVuSans-51"/>
       <use x="604.832031" xlink:href="#DejaVuSans-32"/>
       <use x="668.455078" xlink:href="#DejaVuSans-31"/>
       <use x="732.078125" xlink:href="#DejaVuSans-2d"/>
       <use x="768.162109" xlink:href="#DejaVuSans-37"/>
       <use x="831.785156" xlink:href="#DejaVuSans-2d"/>
       <use x="867.869141" xlink:href="#DejaVuSans-31"/>
       <use x="931.492188" xlink:href="#DejaVuSans-37"/>
       <use x="995.115234" xlink:href="#DejaVuSans-37"/>
       <use x="1058.738281" xlink:href="#DejaVuSans-52"/>
       <use x="1128.220703" xlink:href="#DejaVuSans-53"/>
       <use x="1191.697266" xlink:href="#DejaVuSans-32"/>
       <use x="1255.320312" xlink:href="#DejaVuSans-34"/>
      </g>
     </g>
    </g>
    <g id="xtick_6">
     <g id="line2d_11">
      <path clip-path="url(#p2a59bdf9c1)" d="M 238.198438 410.398125 
L 238.198438 22.318125 
" style="fill:none;stroke:#b0b0b0;stroke-linecap:square;stroke-width:0.8;"/>
     </g>
     <g id="line2d_12">
      <g>
       <use style="stroke:#000000;stroke-width:0.8;" x="238.198438" xlink:href="#mfefd98175f" y="410.398125"/>
      </g>
     </g>
     <g id="text_6">
      <!-- 22C-ZT12-Q21-23-178RS17 -->
      <defs>
       <path d="M 31.78125 34.625 
Q 24.75 34.625 20.71875 30.859375 
Q 16.703125 27.09375 16.703125 20.515625 
Q 16.703125 13.921875 20.71875 10.15625 
Q 24.75 6.390625 31.78125 6.390625 
Q 38.8125 6.390625 42.859375 10.171875 
Q 46.921875 13.96875 46.921875 20.515625 
Q 46.921875 27.09375 42.890625 30.859375 
Q 38.875 34.625 31.78125 34.625 
z
M 21.921875 38.8125 
Q 15.578125 40.375 12.03125 44.71875 
Q 8.5 49.078125 8.5 55.328125 
Q 8.5 64.0625 14.71875 69.140625 
Q 20.953125 74.21875 31.78125 74.21875 
Q 42.671875 74.21875 48.875 69.140625 
Q 55.078125 64.0625 55.078125 55.328125 
Q 55.078125 49.078125 51.53125 44.71875 
Q 48 40.375 41.703125 38.8125 
Q 48.828125 37.15625 52.796875 32.3125 
Q 56.78125 27.484375 56.78125 20.515625 
Q 56.78125 9.90625 50.3125 4.234375 
Q 43.84375 -1.421875 31.78125 -1.421875 
Q 19.734375 -1.421875 13.25 4.234375 
Q 6.78125 9.90625 6.78125 20.515625 
Q 6.78125 27.484375 10.78125 32.3125 
Q 14.796875 37.15625 21.921875 38.8125 
z
M 18.3125 54.390625 
Q 18.3125 48.734375 21.84375 45.5625 
Q 25.390625 42.390625 31.78125 42.390625 
Q 38.140625 42.390625 41.71875 45.5625 
Q 45.3125 48.734375 45.3125 54.390625 
Q 45.3125 60.0625 41.71875 63.234375 
Q 38.140625 66.40625 31.78125 66.40625 
Q 25.390625 66.40625 21.84375 63.234375 
Q 18.3125 60.0625 18.3125 54.390625 
z
" id="DejaVuSans-38"/>
      </defs>
      <g transform="translate(240.957813 555.655937)rotate(-90)scale(0.1 -0.1)">
       <use xlink:href="#DejaVuSans-32"/>
       <use x="63.623047" xlink:href="#DejaVuSans-32"/>
       <use x="127.246094" xlink:href="#DejaVuSans-43"/>
       <use x="197.070312" xlink:href="#DejaVuSans-2d"/>
       <use x="233.154297" xlink:href="#DejaVuSans-5a"/>
       <use x="301.660156" xlink:href="#DejaVuSans-54"/>
       <use x="362.744141" xlink:href="#DejaVuSans-31"/>
       <use x="426.367188" xlink:href="#DejaVuSans-32"/>
       <use x="489.990234" xlink:href="#DejaVuSans-2d"/>
       <use x="526.121094" xlink:href="#DejaVuSans-51"/>
       <use x="604.832031" xlink:href="#DejaVuSans-32"/>
       <use x="668.455078" xlink:href="#DejaVuSans-31"/>
       <use x="732.078125" xlink:href="#DejaVuSans-2d"/>
       <use x="768.162109" xlink:href="#DejaVuSans-32"/>
       <use x="831.785156" xlink:href="#DejaVuSans-33"/>
       <use x="895.408203" xlink:href="#DejaVuSans-2d"/>
       <use x="931.492188" xlink:href="#DejaVuSans-31"/>
       <use x="995.115234" xlink:href="#DejaVuSans-37"/>
       <use x="1058.738281" xlink:href="#DejaVuSans-38"/>
       <use x="1122.361328" xlink:href="#DejaVuSans-52"/>
       <use x="1191.84375" xlink:href="#DejaVuSans-53"/>
       <use x="1255.320312" xlink:href="#DejaVuSans-31"/>
       <use x="1318.943359" xlink:href="#DejaVuSans-37"/>
      </g>
     </g>
    </g>
    <g id="xtick_7">
     <g id="line2d_13">
      <path clip-path="url(#p2a59bdf9c1)" d="M 273.707528 410.398125 
L 273.707528 22.318125 
" style="fill:none;stroke:#b0b0b0;stroke-linecap:square;stroke-width:0.8;"/>
     </g>
     <g id="line2d_14">
      <g>
       <use style="stroke:#000000;stroke-width:0.8;" x="273.707528" xlink:href="#mfefd98175f" y="410.398125"/>
      </g>
     </g>
     <g id="text_7">
      <!-- 27C-ZT12-Q0-2-178RS18 -->
      <g transform="translate(276.466903 542.930937)rotate(-90)scale(0.1 -0.1)">
       <use xlink:href="#DejaVuSans-32"/>
       <use x="63.623047" xlink:href="#DejaVuSans-37"/>
       <use x="127.246094" xlink:href="#DejaVuSans-43"/>
       <use x="197.070312" xlink:href="#DejaVuSans-2d"/>
       <use x="233.154297" xlink:href="#DejaVuSans-5a"/>
       <use x="301.660156" xlink:href="#DejaVuSans-54"/>
       <use x="362.744141" xlink:href="#DejaVuSans-31"/>
       <use x="426.367188" xlink:href="#DejaVuSans-32"/>
       <use x="489.990234" xlink:href="#DejaVuSans-2d"/>
       <use x="526.121094" xlink:href="#DejaVuSans-51"/>
       <use x="604.832031" xlink:href="#DejaVuSans-30"/>
       <use x="668.455078" xlink:href="#DejaVuSans-2d"/>
       <use x="704.539062" xlink:href="#DejaVuSans-32"/>
       <use x="768.162109" xlink:href="#DejaVuSans-2d"/>
       <use x="804.246094" xlink:href="#DejaVuSans-31"/>
       <use x="867.869141" xlink:href="#DejaVuSans-37"/>
       <use x="931.492188" xlink:href="#DejaVuSans-38"/>
       <use x="995.115234" xlink:href="#DejaVuSans-52"/>
       <use x="1064.597656" xlink:href="#DejaVuSans-53"/>
       <use x="1128.074219" xlink:href="#DejaVuSans-31"/>
       <use x="1191.697266" xlink:href="#DejaVuSans-38"/>
      </g>
     </g>
    </g>
    <g id="xtick_8">
     <g id="line2d_15">
      <path clip-path="url(#p2a59bdf9c1)" d="M 309.216619 410.398125 
L 309.216619 22.318125 
" style="fill:none;stroke:#b0b0b0;stroke-linecap:square;stroke-width:0.8;"/>
     </g>
     <g id="line2d_16">
      <g>
       <use style="stroke:#000000;stroke-width:0.8;" x="309.216619" xlink:href="#mfefd98175f" y="410.398125"/>
      </g>
     </g>
     <g id="text_8">
      <!-- 27C-ZT12-Q0-15-177RS10 -->
      <g transform="translate(311.975994 549.293437)rotate(-90)scale(0.1 -0.1)">
       <use xlink:href="#DejaVuSans-32"/>
       <use x="63.623047" xlink:href="#DejaVuSans-37"/>
       <use x="127.246094" xlink:href="#DejaVuSans-43"/>
       <use x="197.070312" xlink:href="#DejaVuSans-2d"/>
       <use x="233.154297" xlink:href="#DejaVuSans-5a"/>
       <use x="301.660156" xlink:href="#DejaVuSans-54"/>
       <use x="362.744141" xlink:href="#DejaVuSans-31"/>
       <use x="426.367188" xlink:href="#DejaVuSans-32"/>
       <use x="489.990234" xlink:href="#DejaVuSans-2d"/>
       <use x="526.121094" xlink:href="#DejaVuSans-51"/>
       <use x="604.832031" xlink:href="#DejaVuSans-30"/>
       <use x="668.455078" xlink:href="#DejaVuSans-2d"/>
       <use x="704.539062" xlink:href="#DejaVuSans-31"/>
       <use x="768.162109" xlink:href="#DejaVuSans-35"/>
       <use x="831.785156" xlink:href="#DejaVuSans-2d"/>
       <use x="867.869141" xlink:href="#DejaVuSans-31"/>
       <use x="931.492188" xlink:href="#DejaVuSans-37"/>
       <use x="995.115234" xlink:href="#DejaVuSans-37"/>
       <use x="1058.738281" xlink:href="#DejaVuSans-52"/>
       <use x="1128.220703" xlink:href="#DejaVuSans-53"/>
       <use x="1191.697266" xlink:href="#DejaVuSans-31"/>
       <use x="1255.320312" xlink:href="#DejaVuSans-30"/>
      </g>
     </g>
    </g>
    <g id="xtick_9">
     <g id="line2d_17">
      <path clip-path="url(#p2a59bdf9c1)" d="M 344.72571 410.398125 
L 344.72571 22.318125 
" style="fill:none;stroke:#b0b0b0;stroke-linecap:square;stroke-width:0.8;"/>
     </g>
     <g id="line2d_18">
      <g>
       <use style="stroke:#000000;stroke-width:0.8;" x="344.72571" xlink:href="#mfefd98175f" y="410.398125"/>
      </g>
     </g>
     <g id="text_9">
      <!-- 27C-ZT12-Q7-6-178RS20 -->
      <g transform="translate(347.485085 542.930937)rotate(-90)scale(0.1 -0.1)">
       <use xlink:href="#DejaVuSans-32"/>
       <use x="63.623047" xlink:href="#DejaVuSans-37"/>
       <use x="127.246094" xlink:href="#DejaVuSans-43"/>
       <use x="197.070312" xlink:href="#DejaVuSans-2d"/>
       <use x="233.154297" xlink:href="#DejaVuSans-5a"/>
       <use x="301.660156" xlink:href="#DejaVuSans-54"/>
       <use x="362.744141" xlink:href="#DejaVuSans-31"/>
       <use x="426.367188" xlink:href="#DejaVuSans-32"/>
       <use x="489.990234" xlink:href="#DejaVuSans-2d"/>
       <use x="526.121094" xlink:href="#DejaVuSans-51"/>
       <use x="604.832031" xlink:href="#DejaVuSans-37"/>
       <use x="668.455078" xlink:href="#DejaVuSans-2d"/>
       <use x="704.539062" xlink:href="#DejaVuSans-36"/>
       <use x="768.162109" xlink:href="#DejaVuSans-2d"/>
       <use x="804.246094" xlink:href="#DejaVuSans-31"/>
       <use x="867.869141" xlink:href="#DejaVuSans-37"/>
       <use x="931.492188" xlink:href="#DejaVuSans-38"/>
       <use x="995.115234" xlink:href="#DejaVuSans-52"/>
       <use x="1064.597656" xlink:href="#DejaVuSans-53"/>
       <use x="1128.074219" xlink:href="#DejaVuSans-32"/>
       <use x="1191.697266" xlink:href="#DejaVuSans-30"/>
      </g>
     </g>
    </g>
    <g id="xtick_10">
     <g id="line2d_19">
      <path clip-path="url(#p2a59bdf9c1)" d="M 380.234801 410.398125 
L 380.234801 22.318125 
" style="fill:none;stroke:#b0b0b0;stroke-linecap:square;stroke-width:0.8;"/>
     </g>
     <g id="line2d_20">
      <g>
       <use style="stroke:#000000;stroke-width:0.8;" x="380.234801" xlink:href="#mfefd98175f" y="410.398125"/>
      </g>
     </g>
     <g id="text_10">
      <!-- 27C-ZT12-Q21-7-178RS22 -->
      <g transform="translate(382.994176 549.293437)rotate(-90)scale(0.1 -0.1)">
       <use xlink:href="#DejaVuSans-32"/>
       <use x="63.623047" xlink:href="#DejaVuSans-37"/>
       <use x="127.246094" xlink:href="#DejaVuSans-43"/>
       <use x="197.070312" xlink:href="#DejaVuSans-2d"/>
       <use x="233.154297" xlink:href="#DejaVuSans-5a"/>
       <use x="301.660156" xlink:href="#DejaVuSans-54"/>
       <use x="362.744141" xlink:href="#DejaVuSans-31"/>
       <use x="426.367188" xlink:href="#DejaVuSans-32"/>
       <use x="489.990234" xlink:href="#DejaVuSans-2d"/>
       <use x="526.121094" xlink:href="#DejaVuSans-51"/>
       <use x="604.832031" xlink:href="#DejaVuSans-32"/>
       <use x="668.455078" xlink:href="#DejaVuSans-31"/>
       <use x="732.078125" xlink:href="#DejaVuSans-2d"/>
       <use x="768.162109" xlink:href="#DejaVuSans-37"/>
       <use x="831.785156" xlink:href="#DejaVuSans-2d"/>
       <use x="867.869141" xlink:href="#DejaVuSans-31"/>
       <use x="931.492188" xlink:href="#DejaVuSans-37"/>
       <use x="995.115234" xlink:href="#DejaVuSans-38"/>
       <use x="1058.738281" xlink:href="#DejaVuSans-52"/>
       <use x="1128.220703" xlink:href="#DejaVuSans-53"/>
       <use x="1191.697266" xlink:href="#DejaVuSans-32"/>
       <use x="1255.320312" xlink:href="#DejaVuSans-32"/>
      </g>
     </g>
    </g>
    <g id="xtick_11">
     <g id="line2d_21">
      <path clip-path="url(#p2a59bdf9c1)" d="M 415.743892 410.398125 
L 415.743892 22.318125 
" style="fill:none;stroke:#b0b0b0;stroke-linecap:square;stroke-width:0.8;"/>
     </g>
     <g id="line2d_22">
      <g>
       <use style="stroke:#000000;stroke-width:0.8;" x="415.743892" xlink:href="#mfefd98175f" y="410.398125"/>
      </g>
     </g>
     <g id="text_11">
      <!-- 27C-ZT12-Q21-23-178RS23 -->
      <g transform="translate(418.503267 555.655937)rotate(-90)scale(0.1 -0.1)">
       <use xlink:href="#DejaVuSans-32"/>
       <use x="63.623047" xlink:href="#DejaVuSans-37"/>
       <use x="127.246094" xlink:href="#DejaVuSans-43"/>
       <use x="197.070312" xlink:href="#DejaVuSans-2d"/>
       <use x="233.154297" xlink:href="#DejaVuSans-5a"/>
       <use x="301.660156" xlink:href="#DejaVuSans-54"/>
       <use x="362.744141" xlink:href="#DejaVuSans-31"/>
       <use x="426.367188" xlink:href="#DejaVuSans-32"/>
       <use x="489.990234" xlink:href="#DejaVuSans-2d"/>
       <use x="526.121094" xlink:href="#DejaVuSans-51"/>
       <use x="604.832031" xlink:href="#DejaVuSans-32"/>
       <use x="668.455078" xlink:href="#DejaVuSans-31"/>
       <use x="732.078125" xlink:href="#DejaVuSans-2d"/>
       <use x="768.162109" xlink:href="#DejaVuSans-32"/>
       <use x="831.785156" xlink:href="#DejaVuSans-33"/>
       <use x="895.408203" xlink:href="#DejaVuSans-2d"/>
       <use x="931.492188" xlink:href="#DejaVuSans-31"/>
       <use x="995.115234" xlink:href="#DejaVuSans-37"/>
       <use x="1058.738281" xlink:href="#DejaVuSans-38"/>
       <use x="1122.361328" xlink:href="#DejaVuSans-52"/>
       <use x="1191.84375" xlink:href="#DejaVuSans-53"/>
       <use x="1255.320312" xlink:href="#DejaVuSans-32"/>
       <use x="1318.943359" xlink:href="#DejaVuSans-33"/>
      </g>
     </g>
    </g>
   </g>
   <g id="matplotlib.axis_2">
    <g id="ytick_1">
     <g id="line2d_23">
      <path clip-path="url(#p2a59bdf9c1)" d="M 42.898438 399.358307 
L 433.498438 399.358307 
" style="fill:none;stroke:#b0b0b0;stroke-linecap:square;stroke-width:0.8;"/>
     </g>
     <g id="line2d_24">
      <defs>
       <path d="M 0 0 
L -3.5 0 
" id="me692b69189" style="stroke:#000000;stroke-width:0.8;"/>
      </defs>
      <g>
       <use style="stroke:#000000;stroke-width:0.8;" x="42.898438" xlink:href="#me692b69189" y="399.358307"/>
      </g>
     </g>
     <g id="text_12">
      <!-- −3 -->
      <defs>
       <path d="M 10.59375 35.5 
L 73.1875 35.5 
L 73.1875 27.203125 
L 10.59375 27.203125 
z
" id="DejaVuSans-2212"/>
      </defs>
      <g transform="translate(21.15625 403.157526)scale(0.1 -0.1)">
       <use xlink:href="#DejaVuSans-2212"/>
       <use x="83.789062" xlink:href="#DejaVuSans-33"/>
      </g>
     </g>
    </g>
    <g id="ytick_2">
     <g id="line2d_25">
      <path clip-path="url(#p2a59bdf9c1)" d="M 42.898438 345.766709 
L 433.498438 345.766709 
" style="fill:none;stroke:#b0b0b0;stroke-linecap:square;stroke-width:0.8;"/>
     </g>
     <g id="line2d_26">
      <g>
       <use style="stroke:#000000;stroke-width:0.8;" x="42.898438" xlink:href="#me692b69189" y="345.766709"/>
      </g>
     </g>
     <g id="text_13">
      <!-- −2 -->
      <g transform="translate(21.15625 349.565927)scale(0.1 -0.1)">
       <use xlink:href="#DejaVuSans-2212"/>
       <use x="83.789062" xlink:href="#DejaVuSans-32"/>
      </g>
     </g>
    </g>
    <g id="ytick_3">
     <g id="line2d_27">
      <path clip-path="url(#p2a59bdf9c1)" d="M 42.898438 292.17511 
L 433.498438 292.17511 
" style="fill:none;stroke:#b0b0b0;stroke-linecap:square;stroke-width:0.8;"/>
     </g>
     <g id="line2d_28">
      <g>
       <use style="stroke:#000000;stroke-width:0.8;" x="42.898438" xlink:href="#me692b69189" y="292.17511"/>
      </g>
     </g>
     <g id="text_14">
      <!-- −1 -->
      <g transform="translate(21.15625 295.974329)scale(0.1 -0.1)">
       <use xlink:href="#DejaVuSans-2212"/>
       <use x="83.789062" xlink:href="#DejaVuSans-31"/>
      </g>
     </g>
    </g>
    <g id="ytick_4">
     <g id="line2d_29">
      <path clip-path="url(#p2a59bdf9c1)" d="M 42.898438 238.583511 
L 433.498438 238.583511 
" style="fill:none;stroke:#b0b0b0;stroke-linecap:square;stroke-width:0.8;"/>
     </g>
     <g id="line2d_30">
      <g>
       <use style="stroke:#000000;stroke-width:0.8;" x="42.898438" xlink:href="#me692b69189" y="238.583511"/>
      </g>
     </g>
     <g id="text_15">
      <!-- 0 -->
      <g transform="translate(29.535938 242.38273)scale(0.1 -0.1)">
       <use xlink:href="#DejaVuSans-30"/>
      </g>
     </g>
    </g>
    <g id="ytick_5">
     <g id="line2d_31">
      <path clip-path="url(#p2a59bdf9c1)" d="M 42.898438 184.991913 
L 433.498438 184.991913 
" style="fill:none;stroke:#b0b0b0;stroke-linecap:square;stroke-width:0.8;"/>
     </g>
     <g id="line2d_32">
      <g>
       <use style="stroke:#000000;stroke-width:0.8;" x="42.898438" xlink:href="#me692b69189" y="184.991913"/>
      </g>
     </g>
     <g id="text_16">
      <!-- 1 -->
      <g transform="translate(29.535938 188.791131)scale(0.1 -0.1)">
       <use xlink:href="#DejaVuSans-31"/>
      </g>
     </g>
    </g>
    <g id="ytick_6">
     <g id="line2d_33">
      <path clip-path="url(#p2a59bdf9c1)" d="M 42.898438 131.400314 
L 433.498438 131.400314 
" style="fill:none;stroke:#b0b0b0;stroke-linecap:square;stroke-width:0.8;"/>
     </g>
     <g id="line2d_34">
      <g>
       <use style="stroke:#000000;stroke-width:0.8;" x="42.898438" xlink:href="#me692b69189" y="131.400314"/>
      </g>
     </g>
     <g id="text_17">
      <!-- 2 -->
      <g transform="translate(29.535938 135.199533)scale(0.1 -0.1)">
       <use xlink:href="#DejaVuSans-32"/>
      </g>
     </g>
    </g>
    <g id="ytick_7">
     <g id="line2d_35">
      <path clip-path="url(#p2a59bdf9c1)" d="M 42.898438 77.808715 
L 433.498438 77.808715 
" style="fill:none;stroke:#b0b0b0;stroke-linecap:square;stroke-width:0.8;"/>
     </g>
     <g id="line2d_36">
      <g>
       <use style="stroke:#000000;stroke-width:0.8;" x="42.898438" xlink:href="#me692b69189" y="77.808715"/>
      </g>
     </g>
     <g id="text_18">
      <!-- 3 -->
      <g transform="translate(29.535938 81.607934)scale(0.1 -0.1)">
       <use xlink:href="#DejaVuSans-33"/>
      </g>
     </g>
    </g>
    <g id="ytick_8">
     <g id="line2d_37">
      <path clip-path="url(#p2a59bdf9c1)" d="M 42.898438 24.217117 
L 433.498438 24.217117 
" style="fill:none;stroke:#b0b0b0;stroke-linecap:square;stroke-width:0.8;"/>
     </g>
     <g id="line2d_38">
      <g>
       <use style="stroke:#000000;stroke-width:0.8;" x="42.898438" xlink:href="#me692b69189" y="24.217117"/>
      </g>
     </g>
     <g id="text_19">
      <!-- 4 -->
      <g transform="translate(29.535938 28.016335)scale(0.1 -0.1)">
       <use xlink:href="#DejaVuSans-34"/>
      </g>
     </g>
    </g>
    <g id="text_20">
     <!-- meanNorm(log2( 1+ CPM_or_TPM)) -->
     <defs>
      <path d="M 52 44.1875 
Q 55.375 50.25 60.0625 53.125 
Q 64.75 56 71.09375 56 
Q 79.640625 56 84.28125 50.015625 
Q 88.921875 44.046875 88.921875 33.015625 
L 88.921875 0 
L 79.890625 0 
L 79.890625 32.71875 
Q 79.890625 40.578125 77.09375 44.375 
Q 74.3125 48.1875 68.609375 48.1875 
Q 61.625 48.1875 57.5625 43.546875 
Q 53.515625 38.921875 53.515625 30.90625 
L 53.515625 0 
L 44.484375 0 
L 44.484375 32.71875 
Q 44.484375 40.625 41.703125 44.40625 
Q 38.921875 48.1875 33.109375 48.1875 
Q 26.21875 48.1875 22.15625 43.53125 
Q 18.109375 38.875 18.109375 30.90625 
L 18.109375 0 
L 9.078125 0 
L 9.078125 54.6875 
L 18.109375 54.6875 
L 18.109375 46.1875 
Q 21.1875 51.21875 25.484375 53.609375 
Q 29.78125 56 35.6875 56 
Q 41.65625 56 45.828125 52.96875 
Q 50 49.953125 52 44.1875 
z
" id="DejaVuSans-6d"/>
      <path d="M 56.203125 29.59375 
L 56.203125 25.203125 
L 14.890625 25.203125 
Q 15.484375 15.921875 20.484375 11.0625 
Q 25.484375 6.203125 34.421875 6.203125 
Q 39.59375 6.203125 44.453125 7.46875 
Q 49.3125 8.734375 54.109375 11.28125 
L 54.109375 2.78125 
Q 49.265625 0.734375 44.1875 -0.34375 
Q 39.109375 -1.421875 33.890625 -1.421875 
Q 20.796875 -1.421875 13.15625 6.1875 
Q 5.515625 13.8125 5.515625 26.8125 
Q 5.515625 40.234375 12.765625 48.109375 
Q 20.015625 56 32.328125 56 
Q 43.359375 56 49.78125 48.890625 
Q 56.203125 41.796875 56.203125 29.59375 
z
M 47.21875 32.234375 
Q 47.125 39.59375 43.09375 43.984375 
Q 39.0625 48.390625 32.421875 48.390625 
Q 24.90625 48.390625 20.390625 44.140625 
Q 15.875 39.890625 15.1875 32.171875 
z
" id="DejaVuSans-65"/>
      <path d="M 34.28125 27.484375 
Q 23.390625 27.484375 19.1875 25 
Q 14.984375 22.515625 14.984375 16.5 
Q 14.984375 11.71875 18.140625 8.90625 
Q 21.296875 6.109375 26.703125 6.109375 
Q 34.1875 6.109375 38.703125 11.40625 
Q 43.21875 16.703125 43.21875 25.484375 
L 43.21875 27.484375 
z
M 52.203125 31.203125 
L 52.203125 0 
L 43.21875 0 
L 43.21875 8.296875 
Q 40.140625 3.328125 35.546875 0.953125 
Q 30.953125 -1.421875 24.3125 -1.421875 
Q 15.921875 -1.421875 10.953125 3.296875 
Q 6 8.015625 6 15.921875 
Q 6 25.140625 12.171875 29.828125 
Q 18.359375 34.515625 30.609375 34.515625 
L 43.21875 34.515625 
L 43.21875 35.40625 
Q 43.21875 41.609375 39.140625 45 
Q 35.0625 48.390625 27.6875 48.390625 
Q 23 48.390625 18.546875 47.265625 
Q 14.109375 46.140625 10.015625 43.890625 
L 10.015625 52.203125 
Q 14.9375 54.109375 19.578125 55.046875 
Q 24.21875 56 28.609375 56 
Q 40.484375 56 46.34375 49.84375 
Q 52.203125 43.703125 52.203125 31.203125 
z
" id="DejaVuSans-61"/>
      <path d="M 54.890625 33.015625 
L 54.890625 0 
L 45.90625 0 
L 45.90625 32.71875 
Q 45.90625 40.484375 42.875 44.328125 
Q 39.84375 48.1875 33.796875 48.1875 
Q 26.515625 48.1875 22.3125 43.546875 
Q 18.109375 38.921875 18.109375 30.90625 
L 18.109375 0 
L 9.078125 0 
L 9.078125 54.6875 
L 18.109375 54.6875 
L 18.109375 46.1875 
Q 21.34375 51.125 25.703125 53.5625 
Q 30.078125 56 35.796875 56 
Q 45.21875 56 50.046875 50.171875 
Q 54.890625 44.34375 54.890625 33.015625 
z
" id="DejaVuSans-6e"/>
      <path d="M 9.8125 72.90625 
L 23.09375 72.90625 
L 55.421875 11.921875 
L 55.421875 72.90625 
L 64.984375 72.90625 
L 64.984375 0 
L 51.703125 0 
L 19.390625 60.984375 
L 19.390625 0 
L 9.8125 0 
z
" id="DejaVuSans-4e"/>
      <path d="M 30.609375 48.390625 
Q 23.390625 48.390625 19.1875 42.75 
Q 14.984375 37.109375 14.984375 27.296875 
Q 14.984375 17.484375 19.15625 11.84375 
Q 23.34375 6.203125 30.609375 6.203125 
Q 37.796875 6.203125 41.984375 11.859375 
Q 46.1875 17.53125 46.1875 27.296875 
Q 46.1875 37.015625 41.984375 42.703125 
Q 37.796875 48.390625 30.609375 48.390625 
z
M 30.609375 56 
Q 42.328125 56 49.015625 48.375 
Q 55.71875 40.765625 55.71875 27.296875 
Q 55.71875 13.875 49.015625 6.21875 
Q 42.328125 -1.421875 30.609375 -1.421875 
Q 18.84375 -1.421875 12.171875 6.21875 
Q 5.515625 13.875 5.515625 27.296875 
Q 5.515625 40.765625 12.171875 48.375 
Q 18.84375 56 30.609375 56 
z
" id="DejaVuSans-6f"/>
      <path d="M 41.109375 46.296875 
Q 39.59375 47.171875 37.8125 47.578125 
Q 36.03125 48 33.890625 48 
Q 26.265625 48 22.1875 43.046875 
Q 18.109375 38.09375 18.109375 28.8125 
L 18.109375 0 
L 9.078125 0 
L 9.078125 54.6875 
L 18.109375 54.6875 
L 18.109375 46.1875 
Q 20.953125 51.171875 25.484375 53.578125 
Q 30.03125 56 36.53125 56 
Q 37.453125 56 38.578125 55.875 
Q 39.703125 55.765625 41.0625 55.515625 
z
" id="DejaVuSans-72"/>
      <path d="M 31 75.875 
Q 24.46875 64.65625 21.28125 53.65625 
Q 18.109375 42.671875 18.109375 31.390625 
Q 18.109375 20.125 21.3125 9.0625 
Q 24.515625 -2 31 -13.1875 
L 23.1875 -13.1875 
Q 15.875 -1.703125 12.234375 9.375 
Q 8.59375 20.453125 8.59375 31.390625 
Q 8.59375 42.28125 12.203125 53.3125 
Q 15.828125 64.359375 23.1875 75.875 
z
" id="DejaVuSans-28"/>
      <path d="M 9.421875 75.984375 
L 18.40625 75.984375 
L 18.40625 0 
L 9.421875 0 
z
" id="DejaVuSans-6c"/>
      <path d="M 45.40625 27.984375 
Q 45.40625 37.75 41.375 43.109375 
Q 37.359375 48.484375 30.078125 48.484375 
Q 22.859375 48.484375 18.828125 43.109375 
Q 14.796875 37.75 14.796875 27.984375 
Q 14.796875 18.265625 18.828125 12.890625 
Q 22.859375 7.515625 30.078125 7.515625 
Q 37.359375 7.515625 41.375 12.890625 
Q 45.40625 18.265625 45.40625 27.984375 
z
M 54.390625 6.78125 
Q 54.390625 -7.171875 48.1875 -13.984375 
Q 42 -20.796875 29.203125 -20.796875 
Q 24.46875 -20.796875 20.265625 -20.09375 
Q 16.0625 -19.390625 12.109375 -17.921875 
L 12.109375 -9.1875 
Q 16.0625 -11.328125 19.921875 -12.34375 
Q 23.78125 -13.375 27.78125 -13.375 
Q 36.625 -13.375 41.015625 -8.765625 
Q 45.40625 -4.15625 45.40625 5.171875 
L 45.40625 9.625 
Q 42.625 4.78125 38.28125 2.390625 
Q 33.9375 0 27.875 0 
Q 17.828125 0 11.671875 7.65625 
Q 5.515625 15.328125 5.515625 27.984375 
Q 5.515625 40.671875 11.671875 48.328125 
Q 17.828125 56 27.875 56 
Q 33.9375 56 38.28125 53.609375 
Q 42.625 51.21875 45.40625 46.390625 
L 45.40625 54.6875 
L 54.390625 54.6875 
z
" id="DejaVuSans-67"/>
      <path id="DejaVuSans-20"/>
      <path d="M 46 62.703125 
L 46 35.5 
L 73.1875 35.5 
L 73.1875 27.203125 
L 46 27.203125 
L 46 0 
L 37.796875 0 
L 37.796875 27.203125 
L 10.59375 27.203125 
L 10.59375 35.5 
L 37.796875 35.5 
L 37.796875 62.703125 
z
" id="DejaVuSans-2b"/>
      <path d="M 19.671875 64.796875 
L 19.671875 37.40625 
L 32.078125 37.40625 
Q 38.96875 37.40625 42.71875 40.96875 
Q 46.484375 44.53125 46.484375 51.125 
Q 46.484375 57.671875 42.71875 61.234375 
Q 38.96875 64.796875 32.078125 64.796875 
z
M 9.8125 72.90625 
L 32.078125 72.90625 
Q 44.34375 72.90625 50.609375 67.359375 
Q 56.890625 61.8125 56.890625 51.125 
Q 56.890625 40.328125 50.609375 34.8125 
Q 44.34375 29.296875 32.078125 29.296875 
L 19.671875 29.296875 
L 19.671875 0 
L 9.8125 0 
z
" id="DejaVuSans-50"/>
      <path d="M 9.8125 72.90625 
L 24.515625 72.90625 
L 43.109375 23.296875 
L 61.8125 72.90625 
L 76.515625 72.90625 
L 76.515625 0 
L 66.890625 0 
L 66.890625 64.015625 
L 48.09375 14.015625 
L 38.1875 14.015625 
L 19.390625 64.015625 
L 19.390625 0 
L 9.8125 0 
z
" id="DejaVuSans-4d"/>
      <path d="M 50.984375 -16.609375 
L 50.984375 -23.578125 
L -0.984375 -23.578125 
L -0.984375 -16.609375 
z
" id="DejaVuSans-5f"/>
      <path d="M 8.015625 75.875 
L 15.828125 75.875 
Q 23.140625 64.359375 26.78125 53.3125 
Q 30.421875 42.28125 30.421875 31.390625 
Q 30.421875 20.453125 26.78125 9.375 
Q 23.140625 -1.703125 15.828125 -13.1875 
L 8.015625 -13.1875 
Q 14.5 -2 17.703125 9.0625 
Q 20.90625 20.125 20.90625 31.390625 
Q 20.90625 42.671875 17.703125 53.65625 
Q 14.5 64.65625 8.015625 75.875 
z
" id="DejaVuSans-29"/>
     </defs>
     <g transform="translate(14.798438 304.737031)rotate(-90)scale(0.1 -0.1)">
      <use xlink:href="#DejaVuSans-6d"/>
      <use x="97.412109" xlink:href="#DejaVuSans-65"/>
      <use x="158.935547" xlink:href="#DejaVuSans-61"/>
      <use x="220.214844" xlink:href="#DejaVuSans-6e"/>
      <use x="283.59375" xlink:href="#DejaVuSans-4e"/>
      <use x="358.398438" xlink:href="#DejaVuSans-6f"/>
      <use x="419.580078" xlink:href="#DejaVuSans-72"/>
      <use x="460.677734" xlink:href="#DejaVuSans-6d"/>
      <use x="558.089844" xlink:href="#DejaVuSans-28"/>
      <use x="597.103516" xlink:href="#DejaVuSans-6c"/>
      <use x="624.886719" xlink:href="#DejaVuSans-6f"/>
      <use x="686.068359" xlink:href="#DejaVuSans-67"/>
      <use x="749.544922" xlink:href="#DejaVuSans-32"/>
      <use x="813.167969" xlink:href="#DejaVuSans-28"/>
      <use x="852.181641" xlink:href="#DejaVuSans-20"/>
      <use x="883.96875" xlink:href="#DejaVuSans-31"/>
      <use x="947.591797" xlink:href="#DejaVuSans-2b"/>
      <use x="1031.380859" xlink:href="#DejaVuSans-20"/>
      <use x="1063.167969" xlink:href="#DejaVuSans-43"/>
      <use x="1132.992188" xlink:href="#DejaVuSans-50"/>
      <use x="1193.294922" xlink:href="#DejaVuSans-4d"/>
      <use x="1279.574219" xlink:href="#DejaVuSans-5f"/>
      <use x="1329.574219" xlink:href="#DejaVuSans-6f"/>
      <use x="1390.755859" xlink:href="#DejaVuSans-72"/>
      <use x="1431.869141" xlink:href="#DejaVuSans-5f"/>
      <use x="1481.869141" xlink:href="#DejaVuSans-54"/>
      <use x="1542.953125" xlink:href="#DejaVuSans-50"/>
      <use x="1603.255859" xlink:href="#DejaVuSans-4d"/>
      <use x="1689.535156" xlink:href="#DejaVuSans-29"/>
      <use x="1728.548828" xlink:href="#DejaVuSans-29"/>
     </g>
    </g>
   </g>
   <g id="line2d_39">
    <path clip-path="url(#p2a59bdf9c1)" d="M 51.77571 272.327682 
L 69.530256 272.327682 
L 69.530256 241.921482 
L 51.77571 241.921482 
L 51.77571 272.327682 
" style="fill:none;stroke:#1f77b4;stroke-linecap:square;"/>
   </g>
   <g id="line2d_40">
    <path clip-path="url(#p2a59bdf9c1)" d="M 60.652983 272.327682 
L 60.652983 316.218507 
" style="fill:none;stroke:#1f77b4;stroke-linecap:square;"/>
   </g>
   <g id="line2d_41">
    <path clip-path="url(#p2a59bdf9c1)" d="M 60.652983 241.921482 
L 60.652983 198.786811 
" style="fill:none;stroke:#1f77b4;stroke-linecap:square;"/>
   </g>
   <g id="line2d_42">
    <path clip-path="url(#p2a59bdf9c1)" d="M 56.214347 316.218507 
L 65.091619 316.218507 
" style="fill:none;stroke:#000000;stroke-linecap:square;"/>
   </g>
   <g id="line2d_43">
    <path clip-path="url(#p2a59bdf9c1)" d="M 56.214347 198.786811 
L 65.091619 198.786811 
" style="fill:none;stroke:#000000;stroke-linecap:square;"/>
   </g>
   <g id="line2d_44">
    <defs>
     <path d="M 0 3 
C 0.795609 3 1.55874 2.683901 2.12132 2.12132 
C 2.683901 1.55874 3 0.795609 3 0 
C 3 -0.795609 2.683901 -1.55874 2.12132 -2.12132 
C 1.55874 -2.683901 0.795609 -3 0 -3 
C -0.795609 -3 -1.55874 -2.683901 -2.12132 -2.12132 
C -2.683901 -1.55874 -3 -0.795609 -3 0 
C -3 0.795609 -2.683901 1.55874 -2.12132 2.12132 
C -1.55874 2.683901 -0.795609 3 0 3 
z
" id="m4cfa250bc1" style="stroke:#000000;"/>
    </defs>
    <g clip-path="url(#p2a59bdf9c1)">
     <use style="fill-opacity:0;stroke:#000000;" x="60.652983" xlink:href="#m4cfa250bc1" y="323.936065"/>
     <use style="fill-opacity:0;stroke:#000000;" x="60.652983" xlink:href="#m4cfa250bc1" y="330.520367"/>
     <use style="fill-opacity:0;stroke:#000000;" x="60.652983" xlink:href="#m4cfa250bc1" y="324.115164"/>
     <use style="fill-opacity:0;stroke:#000000;" x="60.652983" xlink:href="#m4cfa250bc1" y="320.233633"/>
     <use style="fill-opacity:0;stroke:#000000;" x="60.652983" xlink:href="#m4cfa250bc1" y="196.058828"/>
     <use style="fill-opacity:0;stroke:#000000;" x="60.652983" xlink:href="#m4cfa250bc1" y="196.250332"/>
     <use style="fill-opacity:0;stroke:#000000;" x="60.652983" xlink:href="#m4cfa250bc1" y="193.752295"/>
    </g>
   </g>
   <g id="line2d_45">
    <path clip-path="url(#p2a59bdf9c1)" d="M 87.284801 267.569986 
L 105.039347 267.569986 
L 105.039347 228.910014 
L 87.284801 228.910014 
L 87.284801 267.569986 
" style="fill:none;stroke:#1f77b4;stroke-linecap:square;"/>
   </g>
   <g id="line2d_46">
    <path clip-path="url(#p2a59bdf9c1)" d="M 96.162074 267.569986 
L 96.162074 318.50289 
" style="fill:none;stroke:#1f77b4;stroke-linecap:square;"/>
   </g>
   <g id="line2d_47">
    <path clip-path="url(#p2a59bdf9c1)" d="M 96.162074 228.910014 
L 96.162074 174.014031 
" style="fill:none;stroke:#1f77b4;stroke-linecap:square;"/>
   </g>
   <g id="line2d_48">
    <path clip-path="url(#p2a59bdf9c1)" d="M 91.723438 318.50289 
L 100.60071 318.50289 
" style="fill:none;stroke:#000000;stroke-linecap:square;"/>
   </g>
   <g id="line2d_49">
    <path clip-path="url(#p2a59bdf9c1)" d="M 91.723438 174.014031 
L 100.60071 174.014031 
" style="fill:none;stroke:#000000;stroke-linecap:square;"/>
   </g>
   <g id="line2d_50">
    <g clip-path="url(#p2a59bdf9c1)">
     <use style="fill-opacity:0;stroke:#000000;" x="96.162074" xlink:href="#m4cfa250bc1" y="336.451229"/>
     <use style="fill-opacity:0;stroke:#000000;" x="96.162074" xlink:href="#m4cfa250bc1" y="348.263301"/>
     <use style="fill-opacity:0;stroke:#000000;" x="96.162074" xlink:href="#m4cfa250bc1" y="338.385736"/>
     <use style="fill-opacity:0;stroke:#000000;" x="96.162074" xlink:href="#m4cfa250bc1" y="326.401251"/>
     <use style="fill-opacity:0;stroke:#000000;" x="96.162074" xlink:href="#m4cfa250bc1" y="357.468133"/>
     <use style="fill-opacity:0;stroke:#000000;" x="96.162074" xlink:href="#m4cfa250bc1" y="94.544748"/>
     <use style="fill-opacity:0;stroke:#000000;" x="96.162074" xlink:href="#m4cfa250bc1" y="154.478471"/>
     <use style="fill-opacity:0;stroke:#000000;" x="96.162074" xlink:href="#m4cfa250bc1" y="154.27884"/>
     <use style="fill-opacity:0;stroke:#000000;" x="96.162074" xlink:href="#m4cfa250bc1" y="162.500873"/>
     <use style="fill-opacity:0;stroke:#000000;" x="96.162074" xlink:href="#m4cfa250bc1" y="167.697772"/>
     <use style="fill-opacity:0;stroke:#000000;" x="96.162074" xlink:href="#m4cfa250bc1" y="164.62229"/>
     <use style="fill-opacity:0;stroke:#000000;" x="96.162074" xlink:href="#m4cfa250bc1" y="148.126296"/>
     <use style="fill-opacity:0;stroke:#000000;" x="96.162074" xlink:href="#m4cfa250bc1" y="123.492901"/>
     <use style="fill-opacity:0;stroke:#000000;" x="96.162074" xlink:href="#m4cfa250bc1" y="163.031077"/>
     <use style="fill-opacity:0;stroke:#000000;" x="96.162074" xlink:href="#m4cfa250bc1" y="170.420662"/>
     <use style="fill-opacity:0;stroke:#000000;" x="96.162074" xlink:href="#m4cfa250bc1" y="167.331742"/>
     <use style="fill-opacity:0;stroke:#000000;" x="96.162074" xlink:href="#m4cfa250bc1" y="163.64521"/>
     <use style="fill-opacity:0;stroke:#000000;" x="96.162074" xlink:href="#m4cfa250bc1" y="156.150383"/>
     <use style="fill-opacity:0;stroke:#000000;" x="96.162074" xlink:href="#m4cfa250bc1" y="159.142817"/>
     <use style="fill-opacity:0;stroke:#000000;" x="96.162074" xlink:href="#m4cfa250bc1" y="136.734446"/>
    </g>
   </g>
   <g id="line2d_51">
    <path clip-path="url(#p2a59bdf9c1)" d="M 122.793892 263.298505 
L 140.548438 263.298505 
L 140.548438 239.044895 
L 122.793892 239.044895 
L 122.793892 263.298505 
" style="fill:none;stroke:#1f77b4;stroke-linecap:square;"/>
   </g>
   <g id="line2d_52">
    <path clip-path="url(#p2a59bdf9c1)" d="M 131.671165 263.298505 
L 131.671165 297.055214 
" style="fill:none;stroke:#1f77b4;stroke-linecap:square;"/>
   </g>
   <g id="line2d_53">
    <path clip-path="url(#p2a59bdf9c1)" d="M 131.671165 239.044895 
L 131.671165 206.006179 
" style="fill:none;stroke:#1f77b4;stroke-linecap:square;"/>
   </g>
   <g id="line2d_54">
    <path clip-path="url(#p2a59bdf9c1)" d="M 127.232528 297.055214 
L 136.109801 297.055214 
" style="fill:none;stroke:#000000;stroke-linecap:square;"/>
   </g>
   <g id="line2d_55">
    <path clip-path="url(#p2a59bdf9c1)" d="M 127.232528 206.006179 
L 136.109801 206.006179 
" style="fill:none;stroke:#000000;stroke-linecap:square;"/>
   </g>
   <g id="line2d_56">
    <g clip-path="url(#p2a59bdf9c1)">
     <use style="fill-opacity:0;stroke:#000000;" x="131.671165" xlink:href="#m4cfa250bc1" y="308.004774"/>
     <use style="fill-opacity:0;stroke:#000000;" x="131.671165" xlink:href="#m4cfa250bc1" y="302.963432"/>
     <use style="fill-opacity:0;stroke:#000000;" x="131.671165" xlink:href="#m4cfa250bc1" y="306.789092"/>
     <use style="fill-opacity:0;stroke:#000000;" x="131.671165" xlink:href="#m4cfa250bc1" y="301.023714"/>
     <use style="fill-opacity:0;stroke:#000000;" x="131.671165" xlink:href="#m4cfa250bc1" y="159.96832"/>
     <use style="fill-opacity:0;stroke:#000000;" x="131.671165" xlink:href="#m4cfa250bc1" y="192.709041"/>
    </g>
   </g>
   <g id="line2d_57">
    <path clip-path="url(#p2a59bdf9c1)" d="M 158.302983 271.432818 
L 176.057528 271.432818 
L 176.057528 244.116765 
L 158.302983 244.116765 
L 158.302983 271.432818 
" style="fill:none;stroke:#1f77b4;stroke-linecap:square;"/>
   </g>
   <g id="line2d_58">
    <path clip-path="url(#p2a59bdf9c1)" d="M 167.180256 271.432818 
L 167.180256 312.374128 
" style="fill:none;stroke:#1f77b4;stroke-linecap:square;"/>
   </g>
   <g id="line2d_59">
    <path clip-path="url(#p2a59bdf9c1)" d="M 167.180256 244.116765 
L 167.180256 206.000003 
" style="fill:none;stroke:#1f77b4;stroke-linecap:square;"/>
   </g>
   <g id="line2d_60">
    <path clip-path="url(#p2a59bdf9c1)" d="M 162.741619 312.374128 
L 171.618892 312.374128 
" style="fill:none;stroke:#000000;stroke-linecap:square;"/>
   </g>
   <g id="line2d_61">
    <path clip-path="url(#p2a59bdf9c1)" d="M 162.741619 206.000003 
L 171.618892 206.000003 
" style="fill:none;stroke:#000000;stroke-linecap:square;"/>
   </g>
   <g id="line2d_62">
    <g clip-path="url(#p2a59bdf9c1)">
     <use style="fill-opacity:0;stroke:#000000;" x="167.180256" xlink:href="#m4cfa250bc1" y="313.806153"/>
     <use style="fill-opacity:0;stroke:#000000;" x="167.180256" xlink:href="#m4cfa250bc1" y="317.379976"/>
     <use style="fill-opacity:0;stroke:#000000;" x="167.180256" xlink:href="#m4cfa250bc1" y="323.52395"/>
     <use style="fill-opacity:0;stroke:#000000;" x="167.180256" xlink:href="#m4cfa250bc1" y="333.010026"/>
     <use style="fill-opacity:0;stroke:#000000;" x="167.180256" xlink:href="#m4cfa250bc1" y="315.574777"/>
     <use style="fill-opacity:0;stroke:#000000;" x="167.180256" xlink:href="#m4cfa250bc1" y="347.829681"/>
     <use style="fill-opacity:0;stroke:#000000;" x="167.180256" xlink:href="#m4cfa250bc1" y="186.441209"/>
     <use style="fill-opacity:0;stroke:#000000;" x="167.180256" xlink:href="#m4cfa250bc1" y="202.248781"/>
     <use style="fill-opacity:0;stroke:#000000;" x="167.180256" xlink:href="#m4cfa250bc1" y="189.567113"/>
    </g>
   </g>
   <g id="line2d_63">
    <path clip-path="url(#p2a59bdf9c1)" d="M 193.812074 273.003892 
L 211.566619 273.003892 
L 211.566619 231.363946 
L 193.812074 231.363946 
L 193.812074 273.003892 
" style="fill:none;stroke:#1f77b4;stroke-linecap:square;"/>
   </g>
   <g id="line2d_64">
    <path clip-path="url(#p2a59bdf9c1)" d="M 202.689347 273.003892 
L 202.689347 332.399499 
" style="fill:none;stroke:#1f77b4;stroke-linecap:square;"/>
   </g>
   <g id="line2d_65">
    <path clip-path="url(#p2a59bdf9c1)" d="M 202.689347 231.363946 
L 202.689347 169.877765 
" style="fill:none;stroke:#1f77b4;stroke-linecap:square;"/>
   </g>
   <g id="line2d_66">
    <path clip-path="url(#p2a59bdf9c1)" d="M 198.25071 332.399499 
L 207.127983 332.399499 
" style="fill:none;stroke:#000000;stroke-linecap:square;"/>
   </g>
   <g id="line2d_67">
    <path clip-path="url(#p2a59bdf9c1)" d="M 198.25071 169.877765 
L 207.127983 169.877765 
" style="fill:none;stroke:#000000;stroke-linecap:square;"/>
   </g>
   <g id="line2d_68">
    <g clip-path="url(#p2a59bdf9c1)">
     <use style="fill-opacity:0;stroke:#000000;" x="202.689347" xlink:href="#m4cfa250bc1" y="392.274192"/>
     <use style="fill-opacity:0;stroke:#000000;" x="202.689347" xlink:href="#m4cfa250bc1" y="337.550601"/>
     <use style="fill-opacity:0;stroke:#000000;" x="202.689347" xlink:href="#m4cfa250bc1" y="348.465305"/>
     <use style="fill-opacity:0;stroke:#000000;" x="202.689347" xlink:href="#m4cfa250bc1" y="336.44862"/>
     <use style="fill-opacity:0;stroke:#000000;" x="202.689347" xlink:href="#m4cfa250bc1" y="139.6297"/>
     <use style="fill-opacity:0;stroke:#000000;" x="202.689347" xlink:href="#m4cfa250bc1" y="142.510614"/>
    </g>
   </g>
   <g id="line2d_69">
    <path clip-path="url(#p2a59bdf9c1)" d="M 229.321165 269.039493 
L 247.07571 269.039493 
L 247.07571 235.945463 
L 229.321165 235.945463 
L 229.321165 269.039493 
" style="fill:none;stroke:#1f77b4;stroke-linecap:square;"/>
   </g>
   <g id="line2d_70">
    <path clip-path="url(#p2a59bdf9c1)" d="M 238.198438 269.039493 
L 238.198438 317.908561 
" style="fill:none;stroke:#1f77b4;stroke-linecap:square;"/>
   </g>
   <g id="line2d_71">
    <path clip-path="url(#p2a59bdf9c1)" d="M 238.198438 235.945463 
L 238.198438 187.034334 
" style="fill:none;stroke:#1f77b4;stroke-linecap:square;"/>
   </g>
   <g id="line2d_72">
    <path clip-path="url(#p2a59bdf9c1)" d="M 233.759801 317.908561 
L 242.637074 317.908561 
" style="fill:none;stroke:#000000;stroke-linecap:square;"/>
   </g>
   <g id="line2d_73">
    <path clip-path="url(#p2a59bdf9c1)" d="M 233.759801 187.034334 
L 242.637074 187.034334 
" style="fill:none;stroke:#000000;stroke-linecap:square;"/>
   </g>
   <g id="line2d_74">
    <g clip-path="url(#p2a59bdf9c1)">
     <use style="fill-opacity:0;stroke:#000000;" x="238.198438" xlink:href="#m4cfa250bc1" y="322.754548"/>
     <use style="fill-opacity:0;stroke:#000000;" x="238.198438" xlink:href="#m4cfa250bc1" y="320.347687"/>
     <use style="fill-opacity:0;stroke:#000000;" x="238.198438" xlink:href="#m4cfa250bc1" y="319.367709"/>
     <use style="fill-opacity:0;stroke:#000000;" x="238.198438" xlink:href="#m4cfa250bc1" y="139.187061"/>
     <use style="fill-opacity:0;stroke:#000000;" x="238.198438" xlink:href="#m4cfa250bc1" y="168.388508"/>
     <use style="fill-opacity:0;stroke:#000000;" x="238.198438" xlink:href="#m4cfa250bc1" y="166.241784"/>
    </g>
   </g>
   <g id="line2d_75">
    <path clip-path="url(#p2a59bdf9c1)" d="M 264.830256 238.641619 
L 282.584801 238.641619 
L 282.584801 211.340677 
L 264.830256 211.340677 
L 264.830256 238.641619 
" style="fill:none;stroke:#1f77b4;stroke-linecap:square;"/>
   </g>
   <g id="line2d_76">
    <path clip-path="url(#p2a59bdf9c1)" d="M 273.707528 238.641619 
L 273.707528 279.37723 
" style="fill:none;stroke:#1f77b4;stroke-linecap:square;"/>
   </g>
   <g id="line2d_77">
    <path clip-path="url(#p2a59bdf9c1)" d="M 273.707528 211.340677 
L 273.707528 172.068898 
" style="fill:none;stroke:#1f77b4;stroke-linecap:square;"/>
   </g>
   <g id="line2d_78">
    <path clip-path="url(#p2a59bdf9c1)" d="M 269.268892 279.37723 
L 278.146165 279.37723 
" style="fill:none;stroke:#000000;stroke-linecap:square;"/>
   </g>
   <g id="line2d_79">
    <path clip-path="url(#p2a59bdf9c1)" d="M 269.268892 172.068898 
L 278.146165 172.068898 
" style="fill:none;stroke:#000000;stroke-linecap:square;"/>
   </g>
   <g id="line2d_80">
    <g clip-path="url(#p2a59bdf9c1)">
     <use style="fill-opacity:0;stroke:#000000;" x="273.707528" xlink:href="#m4cfa250bc1" y="332.942225"/>
     <use style="fill-opacity:0;stroke:#000000;" x="273.707528" xlink:href="#m4cfa250bc1" y="282.244427"/>
     <use style="fill-opacity:0;stroke:#000000;" x="273.707528" xlink:href="#m4cfa250bc1" y="291.030493"/>
     <use style="fill-opacity:0;stroke:#000000;" x="273.707528" xlink:href="#m4cfa250bc1" y="159.685279"/>
     <use style="fill-opacity:0;stroke:#000000;" x="273.707528" xlink:href="#m4cfa250bc1" y="160.045563"/>
     <use style="fill-opacity:0;stroke:#000000;" x="273.707528" xlink:href="#m4cfa250bc1" y="161.048824"/>
     <use style="fill-opacity:0;stroke:#000000;" x="273.707528" xlink:href="#m4cfa250bc1" y="153.49043"/>
     <use style="fill-opacity:0;stroke:#000000;" x="273.707528" xlink:href="#m4cfa250bc1" y="165.040774"/>
     <use style="fill-opacity:0;stroke:#000000;" x="273.707528" xlink:href="#m4cfa250bc1" y="168.222852"/>
     <use style="fill-opacity:0;stroke:#000000;" x="273.707528" xlink:href="#m4cfa250bc1" y="100.924004"/>
    </g>
   </g>
   <g id="line2d_81">
    <path clip-path="url(#p2a59bdf9c1)" d="M 300.339347 266.217348 
L 318.093892 266.217348 
L 318.093892 222.519224 
L 300.339347 222.519224 
L 300.339347 266.217348 
" style="fill:none;stroke:#1f77b4;stroke-linecap:square;"/>
   </g>
   <g id="line2d_82">
    <path clip-path="url(#p2a59bdf9c1)" d="M 309.216619 266.217348 
L 309.216619 326.403522 
" style="fill:none;stroke:#1f77b4;stroke-linecap:square;"/>
   </g>
   <g id="line2d_83">
    <path clip-path="url(#p2a59bdf9c1)" d="M 309.216619 222.519224 
L 309.216619 160.232368 
" style="fill:none;stroke:#1f77b4;stroke-linecap:square;"/>
   </g>
   <g id="line2d_84">
    <path clip-path="url(#p2a59bdf9c1)" d="M 304.777983 326.403522 
L 313.655256 326.403522 
" style="fill:none;stroke:#000000;stroke-linecap:square;"/>
   </g>
   <g id="line2d_85">
    <path clip-path="url(#p2a59bdf9c1)" d="M 304.777983 160.232368 
L 313.655256 160.232368 
" style="fill:none;stroke:#000000;stroke-linecap:square;"/>
   </g>
   <g id="line2d_86">
    <g clip-path="url(#p2a59bdf9c1)">
     <use style="fill-opacity:0;stroke:#000000;" x="309.216619" xlink:href="#m4cfa250bc1" y="363.795542"/>
     <use style="fill-opacity:0;stroke:#000000;" x="309.216619" xlink:href="#m4cfa250bc1" y="379.97854"/>
     <use style="fill-opacity:0;stroke:#000000;" x="309.216619" xlink:href="#m4cfa250bc1" y="348.711498"/>
     <use style="fill-opacity:0;stroke:#000000;" x="309.216619" xlink:href="#m4cfa250bc1" y="333.112757"/>
     <use style="fill-opacity:0;stroke:#000000;" x="309.216619" xlink:href="#m4cfa250bc1" y="377.191519"/>
     <use style="fill-opacity:0;stroke:#000000;" x="309.216619" xlink:href="#m4cfa250bc1" y="377.043756"/>
     <use style="fill-opacity:0;stroke:#000000;" x="309.216619" xlink:href="#m4cfa250bc1" y="392.758125"/>
     <use style="fill-opacity:0;stroke:#000000;" x="309.216619" xlink:href="#m4cfa250bc1" y="338.064231"/>
     <use style="fill-opacity:0;stroke:#000000;" x="309.216619" xlink:href="#m4cfa250bc1" y="363.929173"/>
     <use style="fill-opacity:0;stroke:#000000;" x="309.216619" xlink:href="#m4cfa250bc1" y="136.948011"/>
     <use style="fill-opacity:0;stroke:#000000;" x="309.216619" xlink:href="#m4cfa250bc1" y="140.868102"/>
     <use style="fill-opacity:0;stroke:#000000;" x="309.216619" xlink:href="#m4cfa250bc1" y="118.510557"/>
    </g>
   </g>
   <g id="line2d_87">
    <path clip-path="url(#p2a59bdf9c1)" d="M 335.848438 221.8085 
L 353.602983 221.8085 
L 353.602983 179.920672 
L 335.848438 179.920672 
L 335.848438 221.8085 
" style="fill:none;stroke:#1f77b4;stroke-linecap:square;"/>
   </g>
   <g id="line2d_88">
    <path clip-path="url(#p2a59bdf9c1)" d="M 344.72571 221.8085 
L 344.72571 274.045096 
" style="fill:none;stroke:#1f77b4;stroke-linecap:square;"/>
   </g>
   <g id="line2d_89">
    <path clip-path="url(#p2a59bdf9c1)" d="M 344.72571 179.920672 
L 344.72571 118.49629 
" style="fill:none;stroke:#1f77b4;stroke-linecap:square;"/>
   </g>
   <g id="line2d_90">
    <path clip-path="url(#p2a59bdf9c1)" d="M 340.287074 274.045096 
L 349.164347 274.045096 
" style="fill:none;stroke:#000000;stroke-linecap:square;"/>
   </g>
   <g id="line2d_91">
    <path clip-path="url(#p2a59bdf9c1)" d="M 340.287074 118.49629 
L 349.164347 118.49629 
" style="fill:none;stroke:#000000;stroke-linecap:square;"/>
   </g>
   <g id="line2d_92">
    <g clip-path="url(#p2a59bdf9c1)">
     <use style="fill-opacity:0;stroke:#000000;" x="344.72571" xlink:href="#m4cfa250bc1" y="353.978207"/>
     <use style="fill-opacity:0;stroke:#000000;" x="344.72571" xlink:href="#m4cfa250bc1" y="290.005082"/>
     <use style="fill-opacity:0;stroke:#000000;" x="344.72571" xlink:href="#m4cfa250bc1" y="113.04579"/>
     <use style="fill-opacity:0;stroke:#000000;" x="344.72571" xlink:href="#m4cfa250bc1" y="51.771175"/>
     <use style="fill-opacity:0;stroke:#000000;" x="344.72571" xlink:href="#m4cfa250bc1" y="103.898646"/>
     <use style="fill-opacity:0;stroke:#000000;" x="344.72571" xlink:href="#m4cfa250bc1" y="78.422035"/>
     <use style="fill-opacity:0;stroke:#000000;" x="344.72571" xlink:href="#m4cfa250bc1" y="116.996088"/>
     <use style="fill-opacity:0;stroke:#000000;" x="344.72571" xlink:href="#m4cfa250bc1" y="107.078684"/>
     <use style="fill-opacity:0;stroke:#000000;" x="344.72571" xlink:href="#m4cfa250bc1" y="52.328307"/>
     <use style="fill-opacity:0;stroke:#000000;" x="344.72571" xlink:href="#m4cfa250bc1" y="94.735834"/>
     <use style="fill-opacity:0;stroke:#000000;" x="344.72571" xlink:href="#m4cfa250bc1" y="111.533939"/>
     <use style="fill-opacity:0;stroke:#000000;" x="344.72571" xlink:href="#m4cfa250bc1" y="115.34906"/>
     <use style="fill-opacity:0;stroke:#000000;" x="344.72571" xlink:href="#m4cfa250bc1" y="109.893932"/>
     <use style="fill-opacity:0;stroke:#000000;" x="344.72571" xlink:href="#m4cfa250bc1" y="99.33094"/>
     <use style="fill-opacity:0;stroke:#000000;" x="344.72571" xlink:href="#m4cfa250bc1" y="86.118839"/>
     <use style="fill-opacity:0;stroke:#000000;" x="344.72571" xlink:href="#m4cfa250bc1" y="39.958125"/>
     <use style="fill-opacity:0;stroke:#000000;" x="344.72571" xlink:href="#m4cfa250bc1" y="94.912955"/>
     <use style="fill-opacity:0;stroke:#000000;" x="344.72571" xlink:href="#m4cfa250bc1" y="48.779699"/>
     <use style="fill-opacity:0;stroke:#000000;" x="344.72571" xlink:href="#m4cfa250bc1" y="99.637365"/>
     <use style="fill-opacity:0;stroke:#000000;" x="344.72571" xlink:href="#m4cfa250bc1" y="111.96973"/>
     <use style="fill-opacity:0;stroke:#000000;" x="344.72571" xlink:href="#m4cfa250bc1" y="81.056354"/>
     <use style="fill-opacity:0;stroke:#000000;" x="344.72571" xlink:href="#m4cfa250bc1" y="79.230122"/>
     <use style="fill-opacity:0;stroke:#000000;" x="344.72571" xlink:href="#m4cfa250bc1" y="97.326174"/>
     <use style="fill-opacity:0;stroke:#000000;" x="344.72571" xlink:href="#m4cfa250bc1" y="97.790782"/>
     <use style="fill-opacity:0;stroke:#000000;" x="344.72571" xlink:href="#m4cfa250bc1" y="100.698688"/>
     <use style="fill-opacity:0;stroke:#000000;" x="344.72571" xlink:href="#m4cfa250bc1" y="91.47269"/>
     <use style="fill-opacity:0;stroke:#000000;" x="344.72571" xlink:href="#m4cfa250bc1" y="111.682458"/>
     <use style="fill-opacity:0;stroke:#000000;" x="344.72571" xlink:href="#m4cfa250bc1" y="112.142568"/>
    </g>
   </g>
   <g id="line2d_93">
    <path clip-path="url(#p2a59bdf9c1)" d="M 371.357528 233.075418 
L 389.112074 233.075418 
L 389.112074 195.824896 
L 371.357528 195.824896 
L 371.357528 233.075418 
" style="fill:none;stroke:#1f77b4;stroke-linecap:square;"/>
   </g>
   <g id="line2d_94">
    <path clip-path="url(#p2a59bdf9c1)" d="M 380.234801 233.075418 
L 380.234801 283.144592 
" style="fill:none;stroke:#1f77b4;stroke-linecap:square;"/>
   </g>
   <g id="line2d_95">
    <path clip-path="url(#p2a59bdf9c1)" d="M 380.234801 195.824896 
L 380.234801 141.407925 
" style="fill:none;stroke:#1f77b4;stroke-linecap:square;"/>
   </g>
   <g id="line2d_96">
    <path clip-path="url(#p2a59bdf9c1)" d="M 375.796165 283.144592 
L 384.673438 283.144592 
" style="fill:none;stroke:#000000;stroke-linecap:square;"/>
   </g>
   <g id="line2d_97">
    <path clip-path="url(#p2a59bdf9c1)" d="M 375.796165 141.407925 
L 384.673438 141.407925 
" style="fill:none;stroke:#000000;stroke-linecap:square;"/>
   </g>
   <g id="line2d_98">
    <g clip-path="url(#p2a59bdf9c1)">
     <use style="fill-opacity:0;stroke:#000000;" x="380.234801" xlink:href="#m4cfa250bc1" y="318.561443"/>
     <use style="fill-opacity:0;stroke:#000000;" x="380.234801" xlink:href="#m4cfa250bc1" y="319.789679"/>
     <use style="fill-opacity:0;stroke:#000000;" x="380.234801" xlink:href="#m4cfa250bc1" y="290.998144"/>
     <use style="fill-opacity:0;stroke:#000000;" x="380.234801" xlink:href="#m4cfa250bc1" y="302.19003"/>
     <use style="fill-opacity:0;stroke:#000000;" x="380.234801" xlink:href="#m4cfa250bc1" y="127.580959"/>
     <use style="fill-opacity:0;stroke:#000000;" x="380.234801" xlink:href="#m4cfa250bc1" y="133.581929"/>
     <use style="fill-opacity:0;stroke:#000000;" x="380.234801" xlink:href="#m4cfa250bc1" y="138.62583"/>
    </g>
   </g>
   <g id="line2d_99">
    <path clip-path="url(#p2a59bdf9c1)" d="M 406.866619 243.283785 
L 424.621165 243.283785 
L 424.621165 202.335098 
L 406.866619 202.335098 
L 406.866619 243.283785 
" style="fill:none;stroke:#1f77b4;stroke-linecap:square;"/>
   </g>
   <g id="line2d_100">
    <path clip-path="url(#p2a59bdf9c1)" d="M 415.743892 243.283785 
L 415.743892 286.66919 
" style="fill:none;stroke:#1f77b4;stroke-linecap:square;"/>
   </g>
   <g id="line2d_101">
    <path clip-path="url(#p2a59bdf9c1)" d="M 415.743892 202.335098 
L 415.743892 141.029694 
" style="fill:none;stroke:#1f77b4;stroke-linecap:square;"/>
   </g>
   <g id="line2d_102">
    <path clip-path="url(#p2a59bdf9c1)" d="M 411.305256 286.66919 
L 420.182528 286.66919 
" style="fill:none;stroke:#000000;stroke-linecap:square;"/>
   </g>
   <g id="line2d_103">
    <path clip-path="url(#p2a59bdf9c1)" d="M 411.305256 141.029694 
L 420.182528 141.029694 
" style="fill:none;stroke:#000000;stroke-linecap:square;"/>
   </g>
   <g id="line2d_104">
    <g clip-path="url(#p2a59bdf9c1)">
     <use style="fill-opacity:0;stroke:#000000;" x="415.743892" xlink:href="#m4cfa250bc1" y="383.435943"/>
     <use style="fill-opacity:0;stroke:#000000;" x="415.743892" xlink:href="#m4cfa250bc1" y="313.183603"/>
     <use style="fill-opacity:0;stroke:#000000;" x="415.743892" xlink:href="#m4cfa250bc1" y="306.184065"/>
     <use style="fill-opacity:0;stroke:#000000;" x="415.743892" xlink:href="#m4cfa250bc1" y="318.667091"/>
     <use style="fill-opacity:0;stroke:#000000;" x="415.743892" xlink:href="#m4cfa250bc1" y="111.546691"/>
     <use style="fill-opacity:0;stroke:#000000;" x="415.743892" xlink:href="#m4cfa250bc1" y="101.872469"/>
     <use style="fill-opacity:0;stroke:#000000;" x="415.743892" xlink:href="#m4cfa250bc1" y="131.814839"/>
     <use style="fill-opacity:0;stroke:#000000;" x="415.743892" xlink:href="#m4cfa250bc1" y="121.763468"/>
     <use style="fill-opacity:0;stroke:#000000;" x="415.743892" xlink:href="#m4cfa250bc1" y="125.063522"/>
     <use style="fill-opacity:0;stroke:#000000;" x="415.743892" xlink:href="#m4cfa250bc1" y="93.932072"/>
     <use style="fill-opacity:0;stroke:#000000;" x="415.743892" xlink:href="#m4cfa250bc1" y="139.416249"/>
    </g>
   </g>
   <g id="line2d_105">
    <path clip-path="url(#p2a59bdf9c1)" d="M 51.77571 255.937974 
L 69.530256 255.937974 
" style="fill:none;stroke:#2ca02c;stroke-linecap:square;"/>
   </g>
   <g id="line2d_106">
    <path clip-path="url(#p2a59bdf9c1)" d="M 87.284801 249.584037 
L 105.039347 249.584037 
" style="fill:none;stroke:#2ca02c;stroke-linecap:square;"/>
   </g>
   <g id="line2d_107">
    <path clip-path="url(#p2a59bdf9c1)" d="M 122.793892 250.707752 
L 140.548438 250.707752 
" style="fill:none;stroke:#2ca02c;stroke-linecap:square;"/>
   </g>
   <g id="line2d_108">
    <path clip-path="url(#p2a59bdf9c1)" d="M 158.302983 256.637024 
L 176.057528 256.637024 
" style="fill:none;stroke:#2ca02c;stroke-linecap:square;"/>
   </g>
   <g id="line2d_109">
    <path clip-path="url(#p2a59bdf9c1)" d="M 193.812074 247.707031 
L 211.566619 247.707031 
" style="fill:none;stroke:#2ca02c;stroke-linecap:square;"/>
   </g>
   <g id="line2d_110">
    <path clip-path="url(#p2a59bdf9c1)" d="M 229.321165 252.198296 
L 247.07571 252.198296 
" style="fill:none;stroke:#2ca02c;stroke-linecap:square;"/>
   </g>
   <g id="line2d_111">
    <path clip-path="url(#p2a59bdf9c1)" d="M 264.830256 223.405442 
L 282.584801 223.405442 
" style="fill:none;stroke:#2ca02c;stroke-linecap:square;"/>
   </g>
   <g id="line2d_112">
    <path clip-path="url(#p2a59bdf9c1)" d="M 300.339347 247.277767 
L 318.093892 247.277767 
" style="fill:none;stroke:#2ca02c;stroke-linecap:square;"/>
   </g>
   <g id="line2d_113">
    <path clip-path="url(#p2a59bdf9c1)" d="M 335.848438 205.858848 
L 353.602983 205.858848 
" style="fill:none;stroke:#2ca02c;stroke-linecap:square;"/>
   </g>
   <g id="line2d_114">
    <path clip-path="url(#p2a59bdf9c1)" d="M 371.357528 215.468066 
L 389.112074 215.468066 
" style="fill:none;stroke:#2ca02c;stroke-linecap:square;"/>
   </g>
   <g id="line2d_115">
    <path clip-path="url(#p2a59bdf9c1)" d="M 406.866619 224.913214 
L 424.621165 224.913214 
" style="fill:none;stroke:#2ca02c;stroke-linecap:square;"/>
   </g>
   <g id="patch_3">
    <path d="M 42.898438 410.398125 
L 42.898438 22.318125 
" style="fill:none;stroke:#000000;stroke-linecap:square;stroke-linejoin:miter;stroke-width:0.8;"/>
   </g>
   <g id="patch_4">
    <path d="M 433.498438 410.398125 
L 433.498438 22.318125 
" style="fill:none;stroke:#000000;stroke-linecap:square;stroke-linejoin:miter;stroke-width:0.8;"/>
   </g>
   <g id="patch_5">
    <path d="M 42.898438 410.398125 
L 433.498438 410.398125 
" style="fill:none;stroke:#000000;stroke-linecap:square;stroke-linejoin:miter;stroke-width:0.8;"/>
   </g>
   <g id="patch_6">
    <path d="M 42.898438 22.318125 
L 433.498438 22.318125 
" style="fill:none;stroke:#000000;stroke-linecap:square;stroke-linejoin:miter;stroke-width:0.8;"/>
   </g>
   <g id="text_21">
    <!-- src/BOXPLOT3_Qlines.tsv -->
    <defs>
     <path d="M 44.28125 53.078125 
L 44.28125 44.578125 
Q 40.484375 46.53125 36.375 47.5 
Q 32.28125 48.484375 27.875 48.484375 
Q 21.1875 48.484375 17.84375 46.4375 
Q 14.5 44.390625 14.5 40.28125 
Q 14.5 37.15625 16.890625 35.375 
Q 19.28125 33.59375 26.515625 31.984375 
L 29.59375 31.296875 
Q 39.15625 29.25 43.1875 25.515625 
Q 47.21875 21.78125 47.21875 15.09375 
Q 47.21875 7.46875 41.1875 3.015625 
Q 35.15625 -1.421875 24.609375 -1.421875 
Q 20.21875 -1.421875 15.453125 -0.5625 
Q 10.6875 0.296875 5.421875 2 
L 5.421875 11.28125 
Q 10.40625 8.6875 15.234375 7.390625 
Q 20.0625 6.109375 24.8125 6.109375 
Q 31.15625 6.109375 34.5625 8.28125 
Q 37.984375 10.453125 37.984375 14.40625 
Q 37.984375 18.0625 35.515625 20.015625 
Q 33.0625 21.96875 24.703125 23.78125 
L 21.578125 24.515625 
Q 13.234375 26.265625 9.515625 29.90625 
Q 5.8125 33.546875 5.8125 39.890625 
Q 5.8125 47.609375 11.28125 51.796875 
Q 16.75 56 26.8125 56 
Q 31.78125 56 36.171875 55.265625 
Q 40.578125 54.546875 44.28125 53.078125 
z
" id="DejaVuSans-73"/>
     <path d="M 48.78125 52.59375 
L 48.78125 44.1875 
Q 44.96875 46.296875 41.140625 47.34375 
Q 37.3125 48.390625 33.40625 48.390625 
Q 24.65625 48.390625 19.8125 42.84375 
Q 14.984375 37.3125 14.984375 27.296875 
Q 14.984375 17.28125 19.8125 11.734375 
Q 24.65625 6.203125 33.40625 6.203125 
Q 37.3125 6.203125 41.140625 7.25 
Q 44.96875 8.296875 48.78125 10.40625 
L 48.78125 2.09375 
Q 45.015625 0.34375 40.984375 -0.53125 
Q 36.96875 -1.421875 32.421875 -1.421875 
Q 20.0625 -1.421875 12.78125 6.34375 
Q 5.515625 14.109375 5.515625 27.296875 
Q 5.515625 40.671875 12.859375 48.328125 
Q 20.21875 56 33.015625 56 
Q 37.15625 56 41.109375 55.140625 
Q 45.0625 54.296875 48.78125 52.59375 
z
" id="DejaVuSans-63"/>
     <path d="M 25.390625 72.90625 
L 33.6875 72.90625 
L 8.296875 -9.28125 
L 0 -9.28125 
z
" id="DejaVuSans-2f"/>
     <path d="M 19.671875 34.8125 
L 19.671875 8.109375 
L 35.5 8.109375 
Q 43.453125 8.109375 47.28125 11.40625 
Q 51.125 14.703125 51.125 21.484375 
Q 51.125 28.328125 47.28125 31.5625 
Q 43.453125 34.8125 35.5 34.8125 
z
M 19.671875 64.796875 
L 19.671875 42.828125 
L 34.28125 42.828125 
Q 41.5 42.828125 45.03125 45.53125 
Q 48.578125 48.25 48.578125 53.8125 
Q 48.578125 59.328125 45.03125 62.0625 
Q 41.5 64.796875 34.28125 64.796875 
z
M 9.8125 72.90625 
L 35.015625 72.90625 
Q 46.296875 72.90625 52.390625 68.21875 
Q 58.5 63.53125 58.5 54.890625 
Q 58.5 48.1875 55.375 44.234375 
Q 52.25 40.28125 46.1875 39.3125 
Q 53.46875 37.75 57.5 32.78125 
Q 61.53125 27.828125 61.53125 20.40625 
Q 61.53125 10.640625 54.890625 5.3125 
Q 48.25 0 35.984375 0 
L 9.8125 0 
z
" id="DejaVuSans-42"/>
     <path d="M 39.40625 66.21875 
Q 28.65625 66.21875 22.328125 58.203125 
Q 16.015625 50.203125 16.015625 36.375 
Q 16.015625 22.609375 22.328125 14.59375 
Q 28.65625 6.59375 39.40625 6.59375 
Q 50.140625 6.59375 56.421875 14.59375 
Q 62.703125 22.609375 62.703125 36.375 
Q 62.703125 50.203125 56.421875 58.203125 
Q 50.140625 66.21875 39.40625 66.21875 
z
M 39.40625 74.21875 
Q 54.734375 74.21875 63.90625 63.9375 
Q 73.09375 53.65625 73.09375 36.375 
Q 73.09375 19.140625 63.90625 8.859375 
Q 54.734375 -1.421875 39.40625 -1.421875 
Q 24.03125 -1.421875 14.8125 8.828125 
Q 5.609375 19.09375 5.609375 36.375 
Q 5.609375 53.65625 14.8125 63.9375 
Q 24.03125 74.21875 39.40625 74.21875 
z
" id="DejaVuSans-4f"/>
     <path d="M 6.296875 72.90625 
L 16.890625 72.90625 
L 35.015625 45.796875 
L 53.21875 72.90625 
L 63.8125 72.90625 
L 40.375 37.890625 
L 65.375 0 
L 54.78125 0 
L 34.28125 31 
L 13.625 0 
L 2.984375 0 
L 29 38.921875 
z
" id="DejaVuSans-58"/>
     <path d="M 9.8125 72.90625 
L 19.671875 72.90625 
L 19.671875 8.296875 
L 55.171875 8.296875 
L 55.171875 0 
L 9.8125 0 
z
" id="DejaVuSans-4c"/>
     <path d="M 9.421875 54.6875 
L 18.40625 54.6875 
L 18.40625 0 
L 9.421875 0 
z
M 9.421875 75.984375 
L 18.40625 75.984375 
L 18.40625 64.59375 
L 9.421875 64.59375 
z
" id="DejaVuSans-69"/>
     <path d="M 10.6875 12.40625 
L 21 12.40625 
L 21 0 
L 10.6875 0 
z
" id="DejaVuSans-2e"/>
     <path d="M 18.3125 70.21875 
L 18.3125 54.6875 
L 36.8125 54.6875 
L 36.8125 47.703125 
L 18.3125 47.703125 
L 18.3125 18.015625 
Q 18.3125 11.328125 20.140625 9.421875 
Q 21.96875 7.515625 27.59375 7.515625 
L 36.8125 7.515625 
L 36.8125 0 
L 27.59375 0 
Q 17.1875 0 13.234375 3.875 
Q 9.28125 7.765625 9.28125 18.015625 
L 9.28125 47.703125 
L 2.6875 47.703125 
L 2.6875 54.6875 
L 9.28125 54.6875 
L 9.28125 70.21875 
z
" id="DejaVuSans-74"/>
     <path d="M 2.984375 54.6875 
L 12.5 54.6875 
L 29.59375 8.796875 
L 46.6875 54.6875 
L 56.203125 54.6875 
L 35.6875 0 
L 23.484375 0 
z
" id="DejaVuSans-76"/>
    </defs>
    <g transform="translate(162.568438 16.318125)scale(0.12 -0.12)">
     <use xlink:href="#DejaVuSans-73"/>
     <use x="52.099609" xlink:href="#DejaVuSans-72"/>
     <use x="93.181641" xlink:href="#DejaVuSans-63"/>
     <use x="148.162109" xlink:href="#DejaVuSans-2f"/>
     <use x="181.853516" xlink:href="#DejaVuSans-42"/>
     <use x="250.441406" xlink:href="#DejaVuSans-4f"/>
     <use x="329.058594" xlink:href="#DejaVuSans-58"/>
     <use x="397.564453" xlink:href="#DejaVuSans-50"/>
     <use x="457.867188" xlink:href="#DejaVuSans-4c"/>
     <use x="513.533203" xlink:href="#DejaVuSans-4f"/>
     <use x="592.244141" xlink:href="#DejaVuSans-54"/>
     <use x="653.328125" xlink:href="#DejaVuSans-33"/>
     <use x="716.951172" xlink:href="#DejaVuSans-5f"/>
     <use x="766.951172" xlink:href="#DejaVuSans-51"/>
     <use x="845.662109" xlink:href="#DejaVuSans-6c"/>
     <use x="873.445312" xlink:href="#DejaVuSans-69"/>
     <use x="901.228516" xlink:href="#DejaVuSans-6e"/>
     <use x="964.607422" xlink:href="#DejaVuSans-65"/>
     <use x="1026.130859" xlink:href="#DejaVuSans-73"/>
     <use x="1078.230469" xlink:href="#DejaVuSans-2e"/>
     <use x="1110.017578" xlink:href="#DejaVuSans-74"/>
     <use x="1149.226562" xlink:href="#DejaVuSans-73"/>
     <use x="1201.326172" xlink:href="#DejaVuSans-76"/>
    </g>
   </g>
  </g>
 </g>
 <defs>
  <clipPath id="p2a59bdf9c1">
   <rect height="388.08" width="390.6" x="42.898438" y="22.318125"/>
  </clipPath>
 </defs>
</svg>
