<?xml version="1.0" encoding="utf-8" standalone="no"?>
<!DOCTYPE svg PUBLIC "-//W3C//DTD SVG 1.1//EN"
  "http://www.w3.org/Graphics/SVG/1.1/DTD/svg11.dtd">
<!-- Created with matplotlib (http://matplotlib.org/) -->
<svg height="605.240937pt" version="1.1" viewBox="0 0 444.198438 605.240937" width="444.198438pt" xmlns="http://www.w3.org/2000/svg" xmlns:xlink="http://www.w3.org/1999/xlink">
 <defs>
  <style type="text/css">
*{stroke-linecap:butt;stroke-linejoin:round;}
  </style>
 </defs>
 <g id="figure_1">
  <g id="patch_1">
   <path d="M 0 605.240937 
L 444.198438 605.240937 
L 444.198438 0 
L 0 0 
z
" style="fill:#ffffff;"/>
  </g>
  <g id="axes_1">
   <g id="patch_2">
    <path d="M 42.898438 410.18625 
L 433.498438 410.18625 
L 433.498438 22.10625 
L 42.898438 22.10625 
z
" style="fill:#ffffff;"/>
   </g>
   <g id="matplotlib.axis_1">
    <g id="xtick_1">
     <g id="line2d_1">
      <path clip-path="url(#p021f9ee13d)" d="M 62.428438 410.18625 
L 62.428438 22.10625 
" style="fill:none;stroke:#b0b0b0;stroke-linecap:square;stroke-width:0.8;"/>
     </g>
     <g id="line2d_2">
      <defs>
       <path d="M 0 0 
L 0 3.5 
" id="m4aad951d42" style="stroke:#000000;stroke-width:0.8;"/>
      </defs>
      <g>
       <use style="stroke:#000000;stroke-width:0.8;" x="62.428438" xlink:href="#m4aad951d42" y="410.18625"/>
      </g>
     </g>
     <g id="text_1">
      <!-- 22C-ZT12-COL-181RS14 -->
      <defs>
       <path d="M 19.1875 8.296875 
L 53.609375 8.296875 
L 53.609375 0 
L 7.328125 0 
L 7.328125 8.296875 
Q 12.9375 14.109375 22.625 23.890625 
Q 32.328125 33.6875 34.8125 36.53125 
Q 39.546875 41.84375 41.421875 45.53125 
Q 43.3125 49.21875 43.3125 52.78125 
Q 43.3125 58.59375 39.234375 62.25 
Q 35.15625 65.921875 28.609375 65.921875 
Q 23.96875 65.921875 18.8125 64.3125 
Q 13.671875 62.703125 7.8125 59.421875 
L 7.8125 69.390625 
Q 13.765625 71.78125 18.9375 73 
Q 24.125 74.21875 28.421875 74.21875 
Q 39.75 74.21875 46.484375 68.546875 
Q 53.21875 62.890625 53.21875 53.421875 
Q 53.21875 48.921875 51.53125 44.890625 
Q 49.859375 40.875 45.40625 35.40625 
Q 44.1875 33.984375 37.640625 27.21875 
Q 31.109375 20.453125 19.1875 8.296875 
z
" id="DejaVuSans-32"/>
       <path d="M 64.40625 67.28125 
L 64.40625 56.890625 
Q 59.421875 61.53125 53.78125 63.8125 
Q 48.140625 66.109375 41.796875 66.109375 
Q 29.296875 66.109375 22.65625 58.46875 
Q 16.015625 50.828125 16.015625 36.375 
Q 16.015625 21.96875 22.65625 14.328125 
Q 29.296875 6.6875 41.796875 6.6875 
Q 48.140625 6.6875 53.78125 8.984375 
Q 59.421875 11.28125 64.40625 15.921875 
L 64.40625 5.609375 
Q 59.234375 2.09375 53.4375 0.328125 
Q 47.65625 -1.421875 41.21875 -1.421875 
Q 24.65625 -1.421875 15.125 8.703125 
Q 5.609375 18.84375 5.609375 36.375 
Q 5.609375 53.953125 15.125 64.078125 
Q 24.65625 74.21875 41.21875 74.21875 
Q 47.75 74.21875 53.53125 72.484375 
Q 59.328125 70.75 64.40625 67.28125 
z
" id="DejaVuSans-43"/>
       <path d="M 4.890625 31.390625 
L 31.203125 31.390625 
L 31.203125 23.390625 
L 4.890625 23.390625 
z
" id="DejaVuSans-2d"/>
       <path d="M 5.609375 72.90625 
L 62.890625 72.90625 
L 62.890625 65.375 
L 16.796875 8.296875 
L 64.015625 8.296875 
L 64.015625 0 
L 4.5 0 
L 4.5 7.515625 
L 50.59375 64.59375 
L 5.609375 64.59375 
z
" id="DejaVuSans-5a"/>
       <path d="M -0.296875 72.90625 
L 61.375 72.90625 
L 61.375 64.59375 
L 35.5 64.59375 
L 35.5 0 
L 25.59375 0 
L 25.59375 64.59375 
L -0.296875 64.59375 
z
" id="DejaVuSans-54"/>
       <path d="M 12.40625 8.296875 
L 28.515625 8.296875 
L 28.515625 63.921875 
L 10.984375 60.40625 
L 10.984375 69.390625 
L 28.421875 72.90625 
L 38.28125 72.90625 
L 38.28125 8.296875 
L 54.390625 8.296875 
L 54.390625 0 
L 12.40625 0 
z
" id="DejaVuSans-31"/>
       <path d="M 39.40625 66.21875 
Q 28.65625 66.21875 22.328125 58.203125 
Q 16.015625 50.203125 16.015625 36.375 
Q 16.015625 22.609375 22.328125 14.59375 
Q 28.65625 6.59375 39.40625 6.59375 
Q 50.140625 6.59375 56.421875 14.59375 
Q 62.703125 22.609375 62.703125 36.375 
Q 62.703125 50.203125 56.421875 58.203125 
Q 50.140625 66.21875 39.40625 66.21875 
z
M 39.40625 74.21875 
Q 54.734375 74.21875 63.90625 63.9375 
Q 73.09375 53.65625 73.09375 36.375 
Q 73.09375 19.140625 63.90625 8.859375 
Q 54.734375 -1.421875 39.40625 -1.421875 
Q 24.03125 -1.421875 14.8125 8.828125 
Q 5.609375 19.09375 5.609375 36.375 
Q 5.609375 53.65625 14.8125 63.9375 
Q 24.03125 74.21875 39.40625 74.21875 
z
" id="DejaVuSans-4f"/>
       <path d="M 9.8125 72.90625 
L 19.671875 72.90625 
L 19.671875 8.296875 
L 55.171875 8.296875 
L 55.171875 0 
L 9.8125 0 
z
" id="DejaVuSans-4c"/>
       <path d="M 31.78125 34.625 
Q 24.75 34.625 20.71875 30.859375 
Q 16.703125 27.09375 16.703125 20.515625 
Q 16.703125 13.921875 20.71875 10.15625 
Q 24.75 6.390625 31.78125 6.390625 
Q 38.8125 6.390625 42.859375 10.171875 
Q 46.921875 13.96875 46.921875 20.515625 
Q 46.921875 27.09375 42.890625 30.859375 
Q 38.875 34.625 31.78125 34.625 
z
M 21.921875 38.8125 
Q 15.578125 40.375 12.03125 44.71875 
Q 8.5 49.078125 8.5 55.328125 
Q 8.5 64.0625 14.71875 69.140625 
Q 20.953125 74.21875 31.78125 74.21875 
Q 42.671875 74.21875 48.875 69.140625 
Q 55.078125 64.0625 55.078125 55.328125 
Q 55.078125 49.078125 51.53125 44.71875 
Q 48 40.375 41.703125 38.8125 
Q 48.828125 37.15625 52.796875 32.3125 
Q 56.78125 27.484375 56.78125 20.515625 
Q 56.78125 9.90625 50.3125 4.234375 
Q 43.84375 -1.421875 31.78125 -1.421875 
Q 19.734375 -1.421875 13.25 4.234375 
Q 6.78125 9.90625 6.78125 20.515625 
Q 6.78125 27.484375 10.78125 32.3125 
Q 14.796875 37.15625 21.921875 38.8125 
z
M 18.3125 54.390625 
Q 18.3125 48.734375 21.84375 45.5625 
Q 25.390625 42.390625 31.78125 42.390625 
Q 38.140625 42.390625 41.71875 45.5625 
Q 45.3125 48.734375 45.3125 54.390625 
Q 45.3125 60.0625 41.71875 63.234375 
Q 38.140625 66.40625 31.78125 66.40625 
Q 25.390625 66.40625 21.84375 63.234375 
Q 18.3125 60.0625 18.3125 54.390625 
z
" id="DejaVuSans-38"/>
       <path d="M 44.390625 34.1875 
Q 47.5625 33.109375 50.5625 29.59375 
Q 53.5625 26.078125 56.59375 19.921875 
L 66.609375 0 
L 56 0 
L 46.6875 18.703125 
Q 43.0625 26.03125 39.671875 28.421875 
Q 36.28125 30.8125 30.421875 30.8125 
L 19.671875 30.8125 
L 19.671875 0 
L 9.8125 0 
L 9.8125 72.90625 
L 32.078125 72.90625 
Q 44.578125 72.90625 50.734375 67.671875 
Q 56.890625 62.453125 56.890625 51.90625 
Q 56.890625 45.015625 53.6875 40.46875 
Q 50.484375 35.9375 44.390625 34.1875 
z
M 19.671875 64.796875 
L 19.671875 38.921875 
L 32.078125 38.921875 
Q 39.203125 38.921875 42.84375 42.21875 
Q 46.484375 45.515625 46.484375 51.90625 
Q 46.484375 58.296875 42.84375 61.546875 
Q 39.203125 64.796875 32.078125 64.796875 
z
" id="DejaVuSans-52"/>
       <path d="M 53.515625 70.515625 
L 53.515625 60.890625 
Q 47.90625 63.578125 42.921875 64.890625 
Q 37.9375 66.21875 33.296875 66.21875 
Q 25.25 66.21875 20.875 63.09375 
Q 16.5 59.96875 16.5 54.203125 
Q 16.5 49.359375 19.40625 46.890625 
Q 22.3125 44.4375 30.421875 42.921875 
L 36.375 41.703125 
Q 47.40625 39.59375 52.65625 34.296875 
Q 57.90625 29 57.90625 20.125 
Q 57.90625 9.515625 50.796875 4.046875 
Q 43.703125 -1.421875 29.984375 -1.421875 
Q 24.8125 -1.421875 18.96875 -0.25 
Q 13.140625 0.921875 6.890625 3.21875 
L 6.890625 13.375 
Q 12.890625 10.015625 18.65625 8.296875 
Q 24.421875 6.59375 29.984375 6.59375 
Q 38.421875 6.59375 43.015625 9.90625 
Q 47.609375 13.234375 47.609375 19.390625 
Q 47.609375 24.75 44.3125 27.78125 
Q 41.015625 30.8125 33.5 32.328125 
L 27.484375 33.5 
Q 16.453125 35.6875 11.515625 40.375 
Q 6.59375 45.0625 6.59375 53.421875 
Q 6.59375 63.09375 13.40625 68.65625 
Q 20.21875 74.21875 32.171875 74.21875 
Q 37.3125 74.21875 42.625 73.28125 
Q 47.953125 72.359375 53.515625 70.515625 
z
" id="DejaVuSans-53"/>
       <path d="M 37.796875 64.3125 
L 12.890625 25.390625 
L 37.796875 25.390625 
z
M 35.203125 72.90625 
L 47.609375 72.90625 
L 47.609375 25.390625 
L 58.015625 25.390625 
L 58.015625 17.1875 
L 47.609375 17.1875 
L 47.609375 0 
L 37.796875 0 
L 37.796875 17.1875 
L 4.890625 17.1875 
L 4.890625 26.703125 
z
" id="DejaVuSans-34"/>
      </defs>
      <g transform="translate(65.187813 538.934687)rotate(-90)scale(0.1 -0.1)">
       <use xlink:href="#DejaVuSans-32"/>
       <use x="63.623047" xlink:href="#DejaVuSans-32"/>
       <use x="127.246094" xlink:href="#DejaVuSans-43"/>
       <use x="197.070312" xlink:href="#DejaVuSans-2d"/>
       <use x="233.154297" xlink:href="#DejaVuSans-5a"/>
       <use x="301.660156" xlink:href="#DejaVuSans-54"/>
       <use x="362.744141" xlink:href="#DejaVuSans-31"/>
       <use x="426.367188" xlink:href="#DejaVuSans-32"/>
       <use x="489.990234" xlink:href="#DejaVuSans-2d"/>
       <use x="526.074219" xlink:href="#DejaVuSans-43"/>
       <use x="595.898438" xlink:href="#DejaVuSans-4f"/>
       <use x="674.609375" xlink:href="#DejaVuSans-4c"/>
       <use x="730.306641" xlink:href="#DejaVuSans-2d"/>
       <use x="766.390625" xlink:href="#DejaVuSans-31"/>
       <use x="830.013672" xlink:href="#DejaVuSans-38"/>
       <use x="893.636719" xlink:href="#DejaVuSans-31"/>
       <use x="957.259766" xlink:href="#DejaVuSans-52"/>
       <use x="1026.742188" xlink:href="#DejaVuSans-53"/>
       <use x="1090.21875" xlink:href="#DejaVuSans-31"/>
       <use x="1153.841797" xlink:href="#DejaVuSans-34"/>
      </g>
     </g>
    </g>
    <g id="xtick_2">
     <g id="line2d_3">
      <path clip-path="url(#p021f9ee13d)" d="M 101.488438 410.18625 
L 101.488438 22.10625 
" style="fill:none;stroke:#b0b0b0;stroke-linecap:square;stroke-width:0.8;"/>
     </g>
     <g id="line2d_4">
      <g>
       <use style="stroke:#000000;stroke-width:0.8;" x="101.488438" xlink:href="#m4aad951d42" y="410.18625"/>
      </g>
     </g>
     <g id="text_2">
      <!-- 22C-ZT12-ELF3-181RS13 -->
      <defs>
       <path d="M 9.8125 72.90625 
L 55.90625 72.90625 
L 55.90625 64.59375 
L 19.671875 64.59375 
L 19.671875 43.015625 
L 54.390625 43.015625 
L 54.390625 34.71875 
L 19.671875 34.71875 
L 19.671875 8.296875 
L 56.78125 8.296875 
L 56.78125 0 
L 9.8125 0 
z
" id="DejaVuSans-45"/>
       <path d="M 9.8125 72.90625 
L 51.703125 72.90625 
L 51.703125 64.59375 
L 19.671875 64.59375 
L 19.671875 43.109375 
L 48.578125 43.109375 
L 48.578125 34.8125 
L 19.671875 34.8125 
L 19.671875 0 
L 9.8125 0 
z
" id="DejaVuSans-46"/>
       <path d="M 40.578125 39.3125 
Q 47.65625 37.796875 51.625 33 
Q 55.609375 28.21875 55.609375 21.1875 
Q 55.609375 10.40625 48.1875 4.484375 
Q 40.765625 -1.421875 27.09375 -1.421875 
Q 22.515625 -1.421875 17.65625 -0.515625 
Q 12.796875 0.390625 7.625 2.203125 
L 7.625 11.71875 
Q 11.71875 9.328125 16.59375 8.109375 
Q 21.484375 6.890625 26.8125 6.890625 
Q 36.078125 6.890625 40.9375 10.546875 
Q 45.796875 14.203125 45.796875 21.1875 
Q 45.796875 27.640625 41.28125 31.265625 
Q 36.765625 34.90625 28.71875 34.90625 
L 20.21875 34.90625 
L 20.21875 43.015625 
L 29.109375 43.015625 
Q 36.375 43.015625 40.234375 45.921875 
Q 44.09375 48.828125 44.09375 54.296875 
Q 44.09375 59.90625 40.109375 62.90625 
Q 36.140625 65.921875 28.71875 65.921875 
Q 24.65625 65.921875 20.015625 65.03125 
Q 15.375 64.15625 9.8125 62.3125 
L 9.8125 71.09375 
Q 15.4375 72.65625 20.34375 73.4375 
Q 25.25 74.21875 29.59375 74.21875 
Q 40.828125 74.21875 47.359375 69.109375 
Q 53.90625 64.015625 53.90625 55.328125 
Q 53.90625 49.265625 50.4375 45.09375 
Q 46.96875 40.921875 40.578125 39.3125 
z
" id="DejaVuSans-33"/>
      </defs>
      <g transform="translate(104.247812 542.514375)rotate(-90)scale(0.1 -0.1)">
       <use xlink:href="#DejaVuSans-32"/>
       <use x="63.623047" xlink:href="#DejaVuSans-32"/>
       <use x="127.246094" xlink:href="#DejaVuSans-43"/>
       <use x="197.070312" xlink:href="#DejaVuSans-2d"/>
       <use x="233.154297" xlink:href="#DejaVuSans-5a"/>
       <use x="301.660156" xlink:href="#DejaVuSans-54"/>
       <use x="362.744141" xlink:href="#DejaVuSans-31"/>
       <use x="426.367188" xlink:href="#DejaVuSans-32"/>
       <use x="489.990234" xlink:href="#DejaVuSans-2d"/>
       <use x="526.074219" xlink:href="#DejaVuSans-45"/>
       <use x="589.257812" xlink:href="#DejaVuSans-4c"/>
       <use x="644.970703" xlink:href="#DejaVuSans-46"/>
       <use x="702.490234" xlink:href="#DejaVuSans-33"/>
       <use x="766.113281" xlink:href="#DejaVuSans-2d"/>
       <use x="802.197266" xlink:href="#DejaVuSans-31"/>
       <use x="865.820312" xlink:href="#DejaVuSans-38"/>
       <use x="929.443359" xlink:href="#DejaVuSans-31"/>
       <use x="993.066406" xlink:href="#DejaVuSans-52"/>
       <use x="1062.548828" xlink:href="#DejaVuSans-53"/>
       <use x="1126.025391" xlink:href="#DejaVuSans-31"/>
       <use x="1189.648438" xlink:href="#DejaVuSans-33"/>
      </g>
     </g>
    </g>
    <g id="xtick_3">
     <g id="line2d_5">
      <path clip-path="url(#p021f9ee13d)" d="M 140.548438 410.18625 
L 140.548438 22.10625 
" style="fill:none;stroke:#b0b0b0;stroke-linecap:square;stroke-width:0.8;"/>
     </g>
     <g id="line2d_6">
      <g>
       <use style="stroke:#000000;stroke-width:0.8;" x="140.548438" xlink:href="#m4aad951d42" y="410.18625"/>
      </g>
     </g>
     <g id="text_3">
      <!-- 22C-ZT12-ELF4-178RS14 -->
      <defs>
       <path d="M 8.203125 72.90625 
L 55.078125 72.90625 
L 55.078125 68.703125 
L 28.609375 0 
L 18.3125 0 
L 43.21875 64.59375 
L 8.203125 64.59375 
z
" id="DejaVuSans-37"/>
      </defs>
      <g transform="translate(143.307813 542.514375)rotate(-90)scale(0.1 -0.1)">
       <use xlink:href="#DejaVuSans-32"/>
       <use x="63.623047" xlink:href="#DejaVuSans-32"/>
       <use x="127.246094" xlink:href="#DejaVuSans-43"/>
       <use x="197.070312" xlink:href="#DejaVuSans-2d"/>
       <use x="233.154297" xlink:href="#DejaVuSans-5a"/>
       <use x="301.660156" xlink:href="#DejaVuSans-54"/>
       <use x="362.744141" xlink:href="#DejaVuSans-31"/>
       <use x="426.367188" xlink:href="#DejaVuSans-32"/>
       <use x="489.990234" xlink:href="#DejaVuSans-2d"/>
       <use x="526.074219" xlink:href="#DejaVuSans-45"/>
       <use x="589.257812" xlink:href="#DejaVuSans-4c"/>
       <use x="644.970703" xlink:href="#DejaVuSans-46"/>
       <use x="702.490234" xlink:href="#DejaVuSans-34"/>
       <use x="766.113281" xlink:href="#DejaVuSans-2d"/>
       <use x="802.197266" xlink:href="#DejaVuSans-31"/>
       <use x="865.820312" xlink:href="#DejaVuSans-37"/>
       <use x="929.443359" xlink:href="#DejaVuSans-38"/>
       <use x="993.066406" xlink:href="#DejaVuSans-52"/>
       <use x="1062.548828" xlink:href="#DejaVuSans-53"/>
       <use x="1126.025391" xlink:href="#DejaVuSans-31"/>
       <use x="1189.648438" xlink:href="#DejaVuSans-34"/>
      </g>
     </g>
    </g>
    <g id="xtick_4">
     <g id="line2d_7">
      <path clip-path="url(#p021f9ee13d)" d="M 179.608438 410.18625 
L 179.608438 22.10625 
" style="fill:none;stroke:#b0b0b0;stroke-linecap:square;stroke-width:0.8;"/>
     </g>
     <g id="line2d_8">
      <g>
       <use style="stroke:#000000;stroke-width:0.8;" x="179.608438" xlink:href="#m4aad951d42" y="410.18625"/>
      </g>
     </g>
     <g id="text_4">
      <!-- 22C-ZT12-ELF4-OX-178RS15 -->
      <defs>
       <path d="M 6.296875 72.90625 
L 16.890625 72.90625 
L 35.015625 45.796875 
L 53.21875 72.90625 
L 63.8125 72.90625 
L 40.375 37.890625 
L 65.375 0 
L 54.78125 0 
L 34.28125 31 
L 13.625 0 
L 2.984375 0 
L 29 38.921875 
z
" id="DejaVuSans-58"/>
       <path d="M 10.796875 72.90625 
L 49.515625 72.90625 
L 49.515625 64.59375 
L 19.828125 64.59375 
L 19.828125 46.734375 
Q 21.96875 47.46875 24.109375 47.828125 
Q 26.265625 48.1875 28.421875 48.1875 
Q 40.625 48.1875 47.75 41.5 
Q 54.890625 34.8125 54.890625 23.390625 
Q 54.890625 11.625 47.5625 5.09375 
Q 40.234375 -1.421875 26.90625 -1.421875 
Q 22.3125 -1.421875 17.546875 -0.640625 
Q 12.796875 0.140625 7.71875 1.703125 
L 7.71875 11.625 
Q 12.109375 9.234375 16.796875 8.0625 
Q 21.484375 6.890625 26.703125 6.890625 
Q 35.15625 6.890625 40.078125 11.328125 
Q 45.015625 15.765625 45.015625 23.390625 
Q 45.015625 31 40.078125 35.4375 
Q 35.15625 39.890625 26.703125 39.890625 
Q 22.75 39.890625 18.8125 39.015625 
Q 14.890625 38.140625 10.796875 36.28125 
z
" id="DejaVuSans-35"/>
      </defs>
      <g transform="translate(182.367813 560.83)rotate(-90)scale(0.1 -0.1)">
       <use xlink:href="#DejaVuSans-32"/>
       <use x="63.623047" xlink:href="#DejaVuSans-32"/>
       <use x="127.246094" xlink:href="#DejaVuSans-43"/>
       <use x="197.070312" xlink:href="#DejaVuSans-2d"/>
       <use x="233.154297" xlink:href="#DejaVuSans-5a"/>
       <use x="301.660156" xlink:href="#DejaVuSans-54"/>
       <use x="362.744141" xlink:href="#DejaVuSans-31"/>
       <use x="426.367188" xlink:href="#DejaVuSans-32"/>
       <use x="489.990234" xlink:href="#DejaVuSans-2d"/>
       <use x="526.074219" xlink:href="#DejaVuSans-45"/>
       <use x="589.257812" xlink:href="#DejaVuSans-4c"/>
       <use x="644.970703" xlink:href="#DejaVuSans-46"/>
       <use x="702.490234" xlink:href="#DejaVuSans-34"/>
       <use x="766.113281" xlink:href="#DejaVuSans-2d"/>
       <use x="802.228516" xlink:href="#DejaVuSans-4f"/>
       <use x="880.845703" xlink:href="#DejaVuSans-58"/>
       <use x="949.273438" xlink:href="#DejaVuSans-2d"/>
       <use x="985.357422" xlink:href="#DejaVuSans-31"/>
       <use x="1048.980469" xlink:href="#DejaVuSans-37"/>
       <use x="1112.603516" xlink:href="#DejaVuSans-38"/>
       <use x="1176.226562" xlink:href="#DejaVuSans-52"/>
       <use x="1245.708984" xlink:href="#DejaVuSans-53"/>
       <use x="1309.185547" xlink:href="#DejaVuSans-31"/>
       <use x="1372.808594" xlink:href="#DejaVuSans-35"/>
      </g>
     </g>
    </g>
    <g id="xtick_5">
     <g id="line2d_9">
      <path clip-path="url(#p021f9ee13d)" d="M 218.668438 410.18625 
L 218.668438 22.10625 
" style="fill:none;stroke:#b0b0b0;stroke-linecap:square;stroke-width:0.8;"/>
     </g>
     <g id="line2d_10">
      <g>
       <use style="stroke:#000000;stroke-width:0.8;" x="218.668438" xlink:href="#m4aad951d42" y="410.18625"/>
      </g>
     </g>
     <g id="text_5">
      <!-- 22C-ZT12-ELF3 X ELF4-OX-178RS16 -->
      <defs>
       <path id="DejaVuSans-20"/>
       <path d="M 33.015625 40.375 
Q 26.375 40.375 22.484375 35.828125 
Q 18.609375 31.296875 18.609375 23.390625 
Q 18.609375 15.53125 22.484375 10.953125 
Q 26.375 6.390625 33.015625 6.390625 
Q 39.65625 6.390625 43.53125 10.953125 
Q 47.40625 15.53125 47.40625 23.390625 
Q 47.40625 31.296875 43.53125 35.828125 
Q 39.65625 40.375 33.015625 40.375 
z
M 52.59375 71.296875 
L 52.59375 62.3125 
Q 48.875 64.0625 45.09375 64.984375 
Q 41.3125 65.921875 37.59375 65.921875 
Q 27.828125 65.921875 22.671875 59.328125 
Q 17.53125 52.734375 16.796875 39.40625 
Q 19.671875 43.65625 24.015625 45.921875 
Q 28.375 48.1875 33.59375 48.1875 
Q 44.578125 48.1875 50.953125 41.515625 
Q 57.328125 34.859375 57.328125 23.390625 
Q 57.328125 12.15625 50.6875 5.359375 
Q 44.046875 -1.421875 33.015625 -1.421875 
Q 20.359375 -1.421875 13.671875 8.265625 
Q 6.984375 17.96875 6.984375 36.375 
Q 6.984375 53.65625 15.1875 63.9375 
Q 23.390625 74.21875 37.203125 74.21875 
Q 40.921875 74.21875 44.703125 73.484375 
Q 48.484375 72.75 52.59375 71.296875 
z
" id="DejaVuSans-36"/>
      </defs>
      <g transform="translate(221.427813 598.040937)rotate(-90)scale(0.1 -0.1)">
       <use xlink:href="#DejaVuSans-32"/>
       <use x="63.623047" xlink:href="#DejaVuSans-32"/>
       <use x="127.246094" xlink:href="#DejaVuSans-43"/>
       <use x="197.070312" xlink:href="#DejaVuSans-2d"/>
       <use x="233.154297" xlink:href="#DejaVuSans-5a"/>
       <use x="301.660156" xlink:href="#DejaVuSans-54"/>
       <use x="362.744141" xlink:href="#DejaVuSans-31"/>
       <use x="426.367188" xlink:href="#DejaVuSans-32"/>
       <use x="489.990234" xlink:href="#DejaVuSans-2d"/>
       <use x="526.074219" xlink:href="#DejaVuSans-45"/>
       <use x="589.257812" xlink:href="#DejaVuSans-4c"/>
       <use x="644.970703" xlink:href="#DejaVuSans-46"/>
       <use x="702.490234" xlink:href="#DejaVuSans-33"/>
       <use x="766.113281" xlink:href="#DejaVuSans-20"/>
       <use x="797.900391" xlink:href="#DejaVuSans-58"/>
       <use x="866.40625" xlink:href="#DejaVuSans-20"/>
       <use x="898.193359" xlink:href="#DejaVuSans-45"/>
       <use x="961.376953" xlink:href="#DejaVuSans-4c"/>
       <use x="1017.089844" xlink:href="#DejaVuSans-46"/>
       <use x="1074.609375" xlink:href="#DejaVuSans-34"/>
       <use x="1138.232422" xlink:href="#DejaVuSans-2d"/>
       <use x="1174.347656" xlink:href="#DejaVuSans-4f"/>
       <use x="1252.964844" xlink:href="#DejaVuSans-58"/>
       <use x="1321.392578" xlink:href="#DejaVuSans-2d"/>
       <use x="1357.476562" xlink:href="#DejaVuSans-31"/>
       <use x="1421.099609" xlink:href="#DejaVuSans-37"/>
       <use x="1484.722656" xlink:href="#DejaVuSans-38"/>
       <use x="1548.345703" xlink:href="#DejaVuSans-52"/>
       <use x="1617.828125" xlink:href="#DejaVuSans-53"/>
       <use x="1681.304688" xlink:href="#DejaVuSans-31"/>
       <use x="1744.927734" xlink:href="#DejaVuSans-36"/>
      </g>
     </g>
    </g>
    <g id="xtick_6">
     <g id="line2d_11">
      <path clip-path="url(#p021f9ee13d)" d="M 257.728438 410.18625 
L 257.728438 22.10625 
" style="fill:none;stroke:#b0b0b0;stroke-linecap:square;stroke-width:0.8;"/>
     </g>
     <g id="line2d_12">
      <g>
       <use style="stroke:#000000;stroke-width:0.8;" x="257.728438" xlink:href="#m4aad951d42" y="410.18625"/>
      </g>
     </g>
     <g id="text_6">
      <!-- 22C-ZT12-ELF4 X ELF3-OX-177RS2 -->
      <g transform="translate(260.487813 591.678437)rotate(-90)scale(0.1 -0.1)">
       <use xlink:href="#DejaVuSans-32"/>
       <use x="63.623047" xlink:href="#DejaVuSans-32"/>
       <use x="127.246094" xlink:href="#DejaVuSans-43"/>
       <use x="197.070312" xlink:href="#DejaVuSans-2d"/>
       <use x="233.154297" xlink:href="#DejaVuSans-5a"/>
       <use x="301.660156" xlink:href="#DejaVuSans-54"/>
       <use x="362.744141" xlink:href="#DejaVuSans-31"/>
       <use x="426.367188" xlink:href="#DejaVuSans-32"/>
       <use x="489.990234" xlink:href="#DejaVuSans-2d"/>
       <use x="526.074219" xlink:href="#DejaVuSans-45"/>
       <use x="589.257812" xlink:href="#DejaVuSans-4c"/>
       <use x="644.970703" xlink:href="#DejaVuSans-46"/>
       <use x="702.490234" xlink:href="#DejaVuSans-34"/>
       <use x="766.113281" xlink:href="#DejaVuSans-20"/>
       <use x="797.900391" xlink:href="#DejaVuSans-58"/>
       <use x="866.40625" xlink:href="#DejaVuSans-20"/>
       <use x="898.193359" xlink:href="#DejaVuSans-45"/>
       <use x="961.376953" xlink:href="#DejaVuSans-4c"/>
       <use x="1017.089844" xlink:href="#DejaVuSans-46"/>
       <use x="1074.609375" xlink:href="#DejaVuSans-33"/>
       <use x="1138.232422" xlink:href="#DejaVuSans-2d"/>
       <use x="1174.347656" xlink:href="#DejaVuSans-4f"/>
       <use x="1252.964844" xlink:href="#DejaVuSans-58"/>
       <use x="1321.392578" xlink:href="#DejaVuSans-2d"/>
       <use x="1357.476562" xlink:href="#DejaVuSans-31"/>
       <use x="1421.099609" xlink:href="#DejaVuSans-37"/>
       <use x="1484.722656" xlink:href="#DejaVuSans-37"/>
       <use x="1548.345703" xlink:href="#DejaVuSans-52"/>
       <use x="1617.828125" xlink:href="#DejaVuSans-53"/>
       <use x="1681.304688" xlink:href="#DejaVuSans-32"/>
      </g>
     </g>
    </g>
    <g id="xtick_7">
     <g id="line2d_13">
      <path clip-path="url(#p021f9ee13d)" d="M 296.788438 410.18625 
L 296.788438 22.10625 
" style="fill:none;stroke:#b0b0b0;stroke-linecap:square;stroke-width:0.8;"/>
     </g>
     <g id="line2d_14">
      <g>
       <use style="stroke:#000000;stroke-width:0.8;" x="296.788438" xlink:href="#m4aad951d42" y="410.18625"/>
      </g>
     </g>
     <g id="text_7">
      <!-- 27C-ZT12-COL-184RS10 -->
      <defs>
       <path d="M 31.78125 66.40625 
Q 24.171875 66.40625 20.328125 58.90625 
Q 16.5 51.421875 16.5 36.375 
Q 16.5 21.390625 20.328125 13.890625 
Q 24.171875 6.390625 31.78125 6.390625 
Q 39.453125 6.390625 43.28125 13.890625 
Q 47.125 21.390625 47.125 36.375 
Q 47.125 51.421875 43.28125 58.90625 
Q 39.453125 66.40625 31.78125 66.40625 
z
M 31.78125 74.21875 
Q 44.046875 74.21875 50.515625 64.515625 
Q 56.984375 54.828125 56.984375 36.375 
Q 56.984375 17.96875 50.515625 8.265625 
Q 44.046875 -1.421875 31.78125 -1.421875 
Q 19.53125 -1.421875 13.0625 8.265625 
Q 6.59375 17.96875 6.59375 36.375 
Q 6.59375 54.828125 13.0625 64.515625 
Q 19.53125 74.21875 31.78125 74.21875 
z
" id="DejaVuSans-30"/>
      </defs>
      <g transform="translate(299.547813 538.934687)rotate(-90)scale(0.1 -0.1)">
       <use xlink:href="#DejaVuSans-32"/>
       <use x="63.623047" xlink:href="#DejaVuSans-37"/>
       <use x="127.246094" xlink:href="#DejaVuSans-43"/>
       <use x="197.070312" xlink:href="#DejaVuSans-2d"/>
       <use x="233.154297" xlink:href="#DejaVuSans-5a"/>
       <use x="301.660156" xlink:href="#DejaVuSans-54"/>
       <use x="362.744141" xlink:href="#DejaVuSans-31"/>
       <use x="426.367188" xlink:href="#DejaVuSans-32"/>
       <use x="489.990234" xlink:href="#DejaVuSans-2d"/>
       <use x="526.074219" xlink:href="#DejaVuSans-43"/>
       <use x="595.898438" xlink:href="#DejaVuSans-4f"/>
       <use x="674.609375" xlink:href="#DejaVuSans-4c"/>
       <use x="730.306641" xlink:href="#DejaVuSans-2d"/>
       <use x="766.390625" xlink:href="#DejaVuSans-31"/>
       <use x="830.013672" xlink:href="#DejaVuSans-38"/>
       <use x="893.636719" xlink:href="#DejaVuSans-34"/>
       <use x="957.259766" xlink:href="#DejaVuSans-52"/>
       <use x="1026.742188" xlink:href="#DejaVuSans-53"/>
       <use x="1090.21875" xlink:href="#DejaVuSans-31"/>
       <use x="1153.841797" xlink:href="#DejaVuSans-30"/>
      </g>
     </g>
    </g>
    <g id="xtick_8">
     <g id="line2d_15">
      <path clip-path="url(#p021f9ee13d)" d="M 335.848438 410.18625 
L 335.848438 22.10625 
" style="fill:none;stroke:#b0b0b0;stroke-linecap:square;stroke-width:0.8;"/>
     </g>
     <g id="line2d_16">
      <g>
       <use style="stroke:#000000;stroke-width:0.8;" x="335.848438" xlink:href="#m4aad951d42" y="410.18625"/>
      </g>
     </g>
     <g id="text_8">
      <!-- 27C-ZT12-1487-181RS27 -->
      <g transform="translate(338.607813 543.959687)rotate(-90)scale(0.1 -0.1)">
       <use xlink:href="#DejaVuSans-32"/>
       <use x="63.623047" xlink:href="#DejaVuSans-37"/>
       <use x="127.246094" xlink:href="#DejaVuSans-43"/>
       <use x="197.070312" xlink:href="#DejaVuSans-2d"/>
       <use x="233.154297" xlink:href="#DejaVuSans-5a"/>
       <use x="301.660156" xlink:href="#DejaVuSans-54"/>
       <use x="362.744141" xlink:href="#DejaVuSans-31"/>
       <use x="426.367188" xlink:href="#DejaVuSans-32"/>
       <use x="489.990234" xlink:href="#DejaVuSans-2d"/>
       <use x="526.074219" xlink:href="#DejaVuSans-31"/>
       <use x="589.697266" xlink:href="#DejaVuSans-34"/>
       <use x="653.320312" xlink:href="#DejaVuSans-38"/>
       <use x="716.943359" xlink:href="#DejaVuSans-37"/>
       <use x="780.566406" xlink:href="#DejaVuSans-2d"/>
       <use x="816.650391" xlink:href="#DejaVuSans-31"/>
       <use x="880.273438" xlink:href="#DejaVuSans-38"/>
       <use x="943.896484" xlink:href="#DejaVuSans-31"/>
       <use x="1007.519531" xlink:href="#DejaVuSans-52"/>
       <use x="1077.001953" xlink:href="#DejaVuSans-53"/>
       <use x="1140.478516" xlink:href="#DejaVuSans-32"/>
       <use x="1204.101562" xlink:href="#DejaVuSans-37"/>
      </g>
     </g>
    </g>
    <g id="xtick_9">
     <g id="line2d_17">
      <path clip-path="url(#p021f9ee13d)" d="M 374.908438 410.18625 
L 374.908438 22.10625 
" style="fill:none;stroke:#b0b0b0;stroke-linecap:square;stroke-width:0.8;"/>
     </g>
     <g id="line2d_18">
      <g>
       <use style="stroke:#000000;stroke-width:0.8;" x="374.908438" xlink:href="#m4aad951d42" y="410.18625"/>
      </g>
     </g>
     <g id="text_9">
      <!-- 27C-ZT12-ELF3-177RS3 -->
      <g transform="translate(377.667813 536.151875)rotate(-90)scale(0.1 -0.1)">
       <use xlink:href="#DejaVuSans-32"/>
       <use x="63.623047" xlink:href="#DejaVuSans-37"/>
       <use x="127.246094" xlink:href="#DejaVuSans-43"/>
       <use x="197.070312" xlink:href="#DejaVuSans-2d"/>
       <use x="233.154297" xlink:href="#DejaVuSans-5a"/>
       <use x="301.660156" xlink:href="#DejaVuSans-54"/>
       <use x="362.744141" xlink:href="#DejaVuSans-31"/>
       <use x="426.367188" xlink:href="#DejaVuSans-32"/>
       <use x="489.990234" xlink:href="#DejaVuSans-2d"/>
       <use x="526.074219" xlink:href="#DejaVuSans-45"/>
       <use x="589.257812" xlink:href="#DejaVuSans-4c"/>
       <use x="644.970703" xlink:href="#DejaVuSans-46"/>
       <use x="702.490234" xlink:href="#DejaVuSans-33"/>
       <use x="766.113281" xlink:href="#DejaVuSans-2d"/>
       <use x="802.197266" xlink:href="#DejaVuSans-31"/>
       <use x="865.820312" xlink:href="#DejaVuSans-37"/>
       <use x="929.443359" xlink:href="#DejaVuSans-37"/>
       <use x="993.066406" xlink:href="#DejaVuSans-52"/>
       <use x="1062.548828" xlink:href="#DejaVuSans-53"/>
       <use x="1126.025391" xlink:href="#DejaVuSans-33"/>
      </g>
     </g>
    </g>
    <g id="xtick_10">
     <g id="line2d_19">
      <path clip-path="url(#p021f9ee13d)" d="M 413.968438 410.18625 
L 413.968438 22.10625 
" style="fill:none;stroke:#b0b0b0;stroke-linecap:square;stroke-width:0.8;"/>
     </g>
     <g id="line2d_20">
      <g>
       <use style="stroke:#000000;stroke-width:0.8;" x="413.968438" xlink:href="#m4aad951d42" y="410.18625"/>
      </g>
     </g>
     <g id="text_10">
      <!-- 27C-ZT12-ELF3 X ELF4-OX-177RS6 -->
      <g transform="translate(416.727813 591.678437)rotate(-90)scale(0.1 -0.1)">
       <use xlink:href="#DejaVuSans-32"/>
       <use x="63.623047" xlink:href="#DejaVuSans-37"/>
       <use x="127.246094" xlink:href="#DejaVuSans-43"/>
       <use x="197.070312" xlink:href="#DejaVuSans-2d"/>
       <use x="233.154297" xlink:href="#DejaVuSans-5a"/>
       <use x="301.660156" xlink:href="#DejaVuSans-54"/>
       <use x="362.744141" xlink:href="#DejaVuSans-31"/>
       <use x="426.367188" xlink:href="#DejaVuSans-32"/>
       <use x="489.990234" xlink:href="#DejaVuSans-2d"/>
       <use x="526.074219" xlink:href="#DejaVuSans-45"/>
       <use x="589.257812" xlink:href="#DejaVuSans-4c"/>
       <use x="644.970703" xlink:href="#DejaVuSans-46"/>
       <use x="702.490234" xlink:href="#DejaVuSans-33"/>
       <use x="766.113281" xlink:href="#DejaVuSans-20"/>
       <use x="797.900391" xlink:href="#DejaVuSans-58"/>
       <use x="866.40625" xlink:href="#DejaVuSans-20"/>
       <use x="898.193359" xlink:href="#DejaVuSans-45"/>
       <use x="961.376953" xlink:href="#DejaVuSans-4c"/>
       <use x="1017.089844" xlink:href="#DejaVuSans-46"/>
       <use x="1074.609375" xlink:href="#DejaVuSans-34"/>
       <use x="1138.232422" xlink:href="#DejaVuSans-2d"/>
       <use x="1174.347656" xlink:href="#DejaVuSans-4f"/>
       <use x="1252.964844" xlink:href="#DejaVuSans-58"/>
       <use x="1321.392578" xlink:href="#DejaVuSans-2d"/>
       <use x="1357.476562" xlink:href="#DejaVuSans-31"/>
       <use x="1421.099609" xlink:href="#DejaVuSans-37"/>
       <use x="1484.722656" xlink:href="#DejaVuSans-37"/>
       <use x="1548.345703" xlink:href="#DejaVuSans-52"/>
       <use x="1617.828125" xlink:href="#DejaVuSans-53"/>
       <use x="1681.304688" xlink:href="#DejaVuSans-36"/>
      </g>
     </g>
    </g>
   </g>
   <g id="matplotlib.axis_2">
    <g id="ytick_1">
     <g id="line2d_21">
      <path clip-path="url(#p021f9ee13d)" d="M 42.898438 398.131079 
L 433.498438 398.131079 
" style="fill:none;stroke:#b0b0b0;stroke-linecap:square;stroke-width:0.8;"/>
     </g>
     <g id="line2d_22">
      <defs>
       <path d="M 0 0 
L -3.5 0 
" id="mb9467d0e56" style="stroke:#000000;stroke-width:0.8;"/>
      </defs>
      <g>
       <use style="stroke:#000000;stroke-width:0.8;" x="42.898438" xlink:href="#mb9467d0e56" y="398.131079"/>
      </g>
     </g>
     <g id="text_11">
      <!-- −6 -->
      <defs>
       <path d="M 10.59375 35.5 
L 73.1875 35.5 
L 73.1875 27.203125 
L 10.59375 27.203125 
z
" id="DejaVuSans-2212"/>
      </defs>
      <g transform="translate(21.15625 401.930297)scale(0.1 -0.1)">
       <use xlink:href="#DejaVuSans-2212"/>
       <use x="83.789062" xlink:href="#DejaVuSans-36"/>
      </g>
     </g>
    </g>
    <g id="ytick_2">
     <g id="line2d_23">
      <path clip-path="url(#p021f9ee13d)" d="M 42.898438 326.781737 
L 433.498438 326.781737 
" style="fill:none;stroke:#b0b0b0;stroke-linecap:square;stroke-width:0.8;"/>
     </g>
     <g id="line2d_24">
      <g>
       <use style="stroke:#000000;stroke-width:0.8;" x="42.898438" xlink:href="#mb9467d0e56" y="326.781737"/>
      </g>
     </g>
     <g id="text_12">
      <!-- −4 -->
      <g transform="translate(21.15625 330.580956)scale(0.1 -0.1)">
       <use xlink:href="#DejaVuSans-2212"/>
       <use x="83.789062" xlink:href="#DejaVuSans-34"/>
      </g>
     </g>
    </g>
    <g id="ytick_3">
     <g id="line2d_25">
      <path clip-path="url(#p021f9ee13d)" d="M 42.898438 255.432396 
L 433.498438 255.432396 
" style="fill:none;stroke:#b0b0b0;stroke-linecap:square;stroke-width:0.8;"/>
     </g>
     <g id="line2d_26">
      <g>
       <use style="stroke:#000000;stroke-width:0.8;" x="42.898438" xlink:href="#mb9467d0e56" y="255.432396"/>
      </g>
     </g>
     <g id="text_13">
      <!-- −2 -->
      <g transform="translate(21.15625 259.231614)scale(0.1 -0.1)">
       <use xlink:href="#DejaVuSans-2212"/>
       <use x="83.789062" xlink:href="#DejaVuSans-32"/>
      </g>
     </g>
    </g>
    <g id="ytick_4">
     <g id="line2d_27">
      <path clip-path="url(#p021f9ee13d)" d="M 42.898438 184.083054 
L 433.498438 184.083054 
" style="fill:none;stroke:#b0b0b0;stroke-linecap:square;stroke-width:0.8;"/>
     </g>
     <g id="line2d_28">
      <g>
       <use style="stroke:#000000;stroke-width:0.8;" x="42.898438" xlink:href="#mb9467d0e56" y="184.083054"/>
      </g>
     </g>
     <g id="text_14">
      <!-- 0 -->
      <g transform="translate(29.535938 187.882273)scale(0.1 -0.1)">
       <use xlink:href="#DejaVuSans-30"/>
      </g>
     </g>
    </g>
    <g id="ytick_5">
     <g id="line2d_29">
      <path clip-path="url(#p021f9ee13d)" d="M 42.898438 112.733713 
L 433.498438 112.733713 
" style="fill:none;stroke:#b0b0b0;stroke-linecap:square;stroke-width:0.8;"/>
     </g>
     <g id="line2d_30">
      <g>
       <use style="stroke:#000000;stroke-width:0.8;" x="42.898438" xlink:href="#mb9467d0e56" y="112.733713"/>
      </g>
     </g>
     <g id="text_15">
      <!-- 2 -->
      <g transform="translate(29.535938 116.532932)scale(0.1 -0.1)">
       <use xlink:href="#DejaVuSans-32"/>
      </g>
     </g>
    </g>
    <g id="ytick_6">
     <g id="line2d_31">
      <path clip-path="url(#p021f9ee13d)" d="M 42.898438 41.384371 
L 433.498438 41.384371 
" style="fill:none;stroke:#b0b0b0;stroke-linecap:square;stroke-width:0.8;"/>
     </g>
     <g id="line2d_32">
      <g>
       <use style="stroke:#000000;stroke-width:0.8;" x="42.898438" xlink:href="#mb9467d0e56" y="41.384371"/>
      </g>
     </g>
     <g id="text_16">
      <!-- 4 -->
      <g transform="translate(29.535938 45.18359)scale(0.1 -0.1)">
       <use xlink:href="#DejaVuSans-34"/>
      </g>
     </g>
    </g>
    <g id="text_17">
     <!-- meanNorm(log2( 1+ CPM_or_TPM)) -->
     <defs>
      <path d="M 52 44.1875 
Q 55.375 50.25 60.0625 53.125 
Q 64.75 56 71.09375 56 
Q 79.640625 56 84.28125 50.015625 
Q 88.921875 44.046875 88.921875 33.015625 
L 88.921875 0 
L 79.890625 0 
L 79.890625 32.71875 
Q 79.890625 40.578125 77.09375 44.375 
Q 74.3125 48.1875 68.609375 48.1875 
Q 61.625 48.1875 57.5625 43.546875 
Q 53.515625 38.921875 53.515625 30.90625 
L 53.515625 0 
L 44.484375 0 
L 44.484375 32.71875 
Q 44.484375 40.625 41.703125 44.40625 
Q 38.921875 48.1875 33.109375 48.1875 
Q 26.21875 48.1875 22.15625 43.53125 
Q 18.109375 38.875 18.109375 30.90625 
L 18.109375 0 
L 9.078125 0 
L 9.078125 54.6875 
L 18.109375 54.6875 
L 18.109375 46.1875 
Q 21.1875 51.21875 25.484375 53.609375 
Q 29.78125 56 35.6875 56 
Q 41.65625 56 45.828125 52.96875 
Q 50 49.953125 52 44.1875 
z
" id="DejaVuSans-6d"/>
      <path d="M 56.203125 29.59375 
L 56.203125 25.203125 
L 14.890625 25.203125 
Q 15.484375 15.921875 20.484375 11.0625 
Q 25.484375 6.203125 34.421875 6.203125 
Q 39.59375 6.203125 44.453125 7.46875 
Q 49.3125 8.734375 54.109375 11.28125 
L 54.109375 2.78125 
Q 49.265625 0.734375 44.1875 -0.34375 
Q 39.109375 -1.421875 33.890625 -1.421875 
Q 20.796875 -1.421875 13.15625 6.1875 
Q 5.515625 13.8125 5.515625 26.8125 
Q 5.515625 40.234375 12.765625 48.109375 
Q 20.015625 56 32.328125 56 
Q 43.359375 56 49.78125 48.890625 
Q 56.203125 41.796875 56.203125 29.59375 
z
M 47.21875 32.234375 
Q 47.125 39.59375 43.09375 43.984375 
Q 39.0625 48.390625 32.421875 48.390625 
Q 24.90625 48.390625 20.390625 44.140625 
Q 15.875 39.890625 15.1875 32.171875 
z
" id="DejaVuSans-65"/>
      <path d="M 34.28125 27.484375 
Q 23.390625 27.484375 19.1875 25 
Q 14.984375 22.515625 14.984375 16.5 
Q 14.984375 11.71875 18.140625 8.90625 
Q 21.296875 6.109375 26.703125 6.109375 
Q 34.1875 6.109375 38.703125 11.40625 
Q 43.21875 16.703125 43.21875 25.484375 
L 43.21875 27.484375 
z
M 52.203125 31.203125 
L 52.203125 0 
L 43.21875 0 
L 43.21875 8.296875 
Q 40.140625 3.328125 35.546875 0.953125 
Q 30.953125 -1.421875 24.3125 -1.421875 
Q 15.921875 -1.421875 10.953125 3.296875 
Q 6 8.015625 6 15.921875 
Q 6 25.140625 12.171875 29.828125 
Q 18.359375 34.515625 30.609375 34.515625 
L 43.21875 34.515625 
L 43.21875 35.40625 
Q 43.21875 41.609375 39.140625 45 
Q 35.0625 48.390625 27.6875 48.390625 
Q 23 48.390625 18.546875 47.265625 
Q 14.109375 46.140625 10.015625 43.890625 
L 10.015625 52.203125 
Q 14.9375 54.109375 19.578125 55.046875 
Q 24.21875 56 28.609375 56 
Q 40.484375 56 46.34375 49.84375 
Q 52.203125 43.703125 52.203125 31.203125 
z
" id="DejaVuSans-61"/>
      <path d="M 54.890625 33.015625 
L 54.890625 0 
L 45.90625 0 
L 45.90625 32.71875 
Q 45.90625 40.484375 42.875 44.328125 
Q 39.84375 48.1875 33.796875 48.1875 
Q 26.515625 48.1875 22.3125 43.546875 
Q 18.109375 38.921875 18.109375 30.90625 
L 18.109375 0 
L 9.078125 0 
L 9.078125 54.6875 
L 18.109375 54.6875 
L 18.109375 46.1875 
Q 21.34375 51.125 25.703125 53.5625 
Q 30.078125 56 35.796875 56 
Q 45.21875 56 50.046875 50.171875 
Q 54.890625 44.34375 54.890625 33.015625 
z
" id="DejaVuSans-6e"/>
      <path d="M 9.8125 72.90625 
L 23.09375 72.90625 
L 55.421875 11.921875 
L 55.421875 72.90625 
L 64.984375 72.90625 
L 64.984375 0 
L 51.703125 0 
L 19.390625 60.984375 
L 19.390625 0 
L 9.8125 0 
z
" id="DejaVuSans-4e"/>
      <path d="M 30.609375 48.390625 
Q 23.390625 48.390625 19.1875 42.75 
Q 14.984375 37.109375 14.984375 27.296875 
Q 14.984375 17.484375 19.15625 11.84375 
Q 23.34375 6.203125 30.609375 6.203125 
Q 37.796875 6.203125 41.984375 11.859375 
Q 46.1875 17.53125 46.1875 27.296875 
Q 46.1875 37.015625 41.984375 42.703125 
Q 37.796875 48.390625 30.609375 48.390625 
z
M 30.609375 56 
Q 42.328125 56 49.015625 48.375 
Q 55.71875 40.765625 55.71875 27.296875 
Q 55.71875 13.875 49.015625 6.21875 
Q 42.328125 -1.421875 30.609375 -1.421875 
Q 18.84375 -1.421875 12.171875 6.21875 
Q 5.515625 13.875 5.515625 27.296875 
Q 5.515625 40.765625 12.171875 48.375 
Q 18.84375 56 30.609375 56 
z
" id="DejaVuSans-6f"/>
      <path d="M 41.109375 46.296875 
Q 39.59375 47.171875 37.8125 47.578125 
Q 36.03125 48 33.890625 48 
Q 26.265625 48 22.1875 43.046875 
Q 18.109375 38.09375 18.109375 28.8125 
L 18.109375 0 
L 9.078125 0 
L 9.078125 54.6875 
L 18.109375 54.6875 
L 18.109375 46.1875 
Q 20.953125 51.171875 25.484375 53.578125 
Q 30.03125 56 36.53125 56 
Q 37.453125 56 38.578125 55.875 
Q 39.703125 55.765625 41.0625 55.515625 
z
" id="DejaVuSans-72"/>
      <path d="M 31 75.875 
Q 24.46875 64.65625 21.28125 53.65625 
Q 18.109375 42.671875 18.109375 31.390625 
Q 18.109375 20.125 21.3125 9.0625 
Q 24.515625 -2 31 -13.1875 
L 23.1875 -13.1875 
Q 15.875 -1.703125 12.234375 9.375 
Q 8.59375 20.453125 8.59375 31.390625 
Q 8.59375 42.28125 12.203125 53.3125 
Q 15.828125 64.359375 23.1875 75.875 
z
" id="DejaVuSans-28"/>
      <path d="M 9.421875 75.984375 
L 18.40625 75.984375 
L 18.40625 0 
L 9.421875 0 
z
" id="DejaVuSans-6c"/>
      <path d="M 45.40625 27.984375 
Q 45.40625 37.75 41.375 43.109375 
Q 37.359375 48.484375 30.078125 48.484375 
Q 22.859375 48.484375 18.828125 43.109375 
Q 14.796875 37.75 14.796875 27.984375 
Q 14.796875 18.265625 18.828125 12.890625 
Q 22.859375 7.515625 30.078125 7.515625 
Q 37.359375 7.515625 41.375 12.890625 
Q 45.40625 18.265625 45.40625 27.984375 
z
M 54.390625 6.78125 
Q 54.390625 -7.171875 48.1875 -13.984375 
Q 42 -20.796875 29.203125 -20.796875 
Q 24.46875 -20.796875 20.265625 -20.09375 
Q 16.0625 -19.390625 12.109375 -17.921875 
L 12.109375 -9.1875 
Q 16.0625 -11.328125 19.921875 -12.34375 
Q 23.78125 -13.375 27.78125 -13.375 
Q 36.625 -13.375 41.015625 -8.765625 
Q 45.40625 -4.15625 45.40625 5.171875 
L 45.40625 9.625 
Q 42.625 4.78125 38.28125 2.390625 
Q 33.9375 0 27.875 0 
Q 17.828125 0 11.671875 7.65625 
Q 5.515625 15.328125 5.515625 27.984375 
Q 5.515625 40.671875 11.671875 48.328125 
Q 17.828125 56 27.875 56 
Q 33.9375 56 38.28125 53.609375 
Q 42.625 51.21875 45.40625 46.390625 
L 45.40625 54.6875 
L 54.390625 54.6875 
z
" id="DejaVuSans-67"/>
      <path d="M 46 62.703125 
L 46 35.5 
L 73.1875 35.5 
L 73.1875 27.203125 
L 46 27.203125 
L 46 0 
L 37.796875 0 
L 37.796875 27.203125 
L 10.59375 27.203125 
L 10.59375 35.5 
L 37.796875 35.5 
L 37.796875 62.703125 
z
" id="DejaVuSans-2b"/>
      <path d="M 19.671875 64.796875 
L 19.671875 37.40625 
L 32.078125 37.40625 
Q 38.96875 37.40625 42.71875 40.96875 
Q 46.484375 44.53125 46.484375 51.125 
Q 46.484375 57.671875 42.71875 61.234375 
Q 38.96875 64.796875 32.078125 64.796875 
z
M 9.8125 72.90625 
L 32.078125 72.90625 
Q 44.34375 72.90625 50.609375 67.359375 
Q 56.890625 61.8125 56.890625 51.125 
Q 56.890625 40.328125 50.609375 34.8125 
Q 44.34375 29.296875 32.078125 29.296875 
L 19.671875 29.296875 
L 19.671875 0 
L 9.8125 0 
z
" id="DejaVuSans-50"/>
      <path d="M 9.8125 72.90625 
L 24.515625 72.90625 
L 43.109375 23.296875 
L 61.8125 72.90625 
L 76.515625 72.90625 
L 76.515625 0 
L 66.890625 0 
L 66.890625 64.015625 
L 48.09375 14.015625 
L 38.1875 14.015625 
L 19.390625 64.015625 
L 19.390625 0 
L 9.8125 0 
z
" id="DejaVuSans-4d"/>
      <path d="M 50.984375 -16.609375 
L 50.984375 -23.578125 
L -0.984375 -23.578125 
L -0.984375 -16.609375 
z
" id="DejaVuSans-5f"/>
      <path d="M 8.015625 75.875 
L 15.828125 75.875 
Q 23.140625 64.359375 26.78125 53.3125 
Q 30.421875 42.28125 30.421875 31.390625 
Q 30.421875 20.453125 26.78125 9.375 
Q 23.140625 -1.703125 15.828125 -13.1875 
L 8.015625 -13.1875 
Q 14.5 -2 17.703125 9.0625 
Q 20.90625 20.125 20.90625 31.390625 
Q 20.90625 42.671875 17.703125 53.65625 
Q 14.5 64.65625 8.015625 75.875 
z
" id="DejaVuSans-29"/>
     </defs>
     <g transform="translate(14.798438 304.525156)rotate(-90)scale(0.1 -0.1)">
      <use xlink:href="#DejaVuSans-6d"/>
      <use x="97.412109" xlink:href="#DejaVuSans-65"/>
      <use x="158.935547" xlink:href="#DejaVuSans-61"/>
      <use x="220.214844" xlink:href="#DejaVuSans-6e"/>
      <use x="283.59375" xlink:href="#DejaVuSans-4e"/>
      <use x="358.398438" xlink:href="#DejaVuSans-6f"/>
      <use x="419.580078" xlink:href="#DejaVuSans-72"/>
      <use x="460.677734" xlink:href="#DejaVuSans-6d"/>
      <use x="558.089844" xlink:href="#DejaVuSans-28"/>
      <use x="597.103516" xlink:href="#DejaVuSans-6c"/>
      <use x="624.886719" xlink:href="#DejaVuSans-6f"/>
      <use x="686.068359" xlink:href="#DejaVuSans-67"/>
      <use x="749.544922" xlink:href="#DejaVuSans-32"/>
      <use x="813.167969" xlink:href="#DejaVuSans-28"/>
      <use x="852.181641" xlink:href="#DejaVuSans-20"/>
      <use x="883.96875" xlink:href="#DejaVuSans-31"/>
      <use x="947.591797" xlink:href="#DejaVuSans-2b"/>
      <use x="1031.380859" xlink:href="#DejaVuSans-20"/>
      <use x="1063.167969" xlink:href="#DejaVuSans-43"/>
      <use x="1132.992188" xlink:href="#DejaVuSans-50"/>
      <use x="1193.294922" xlink:href="#DejaVuSans-4d"/>
      <use x="1279.574219" xlink:href="#DejaVuSans-5f"/>
      <use x="1329.574219" xlink:href="#DejaVuSans-6f"/>
      <use x="1390.755859" xlink:href="#DejaVuSans-72"/>
      <use x="1431.869141" xlink:href="#DejaVuSans-5f"/>
      <use x="1481.869141" xlink:href="#DejaVuSans-54"/>
      <use x="1542.953125" xlink:href="#DejaVuSans-50"/>
      <use x="1603.255859" xlink:href="#DejaVuSans-4d"/>
      <use x="1689.535156" xlink:href="#DejaVuSans-29"/>
      <use x="1728.548828" xlink:href="#DejaVuSans-29"/>
     </g>
    </g>
   </g>
   <g id="line2d_33">
    <path clip-path="url(#p021f9ee13d)" d="M 52.663438 223.95418 
L 72.193438 223.95418 
L 72.193438 201.483901 
L 52.663438 201.483901 
L 52.663438 223.95418 
" style="fill:none;stroke:#1f77b4;stroke-linecap:square;"/>
   </g>
   <g id="line2d_34">
    <path clip-path="url(#p021f9ee13d)" d="M 62.428438 223.95418 
L 62.428438 255.405027 
" style="fill:none;stroke:#1f77b4;stroke-linecap:square;"/>
   </g>
   <g id="line2d_35">
    <path clip-path="url(#p021f9ee13d)" d="M 62.428438 201.483901 
L 62.428438 167.869577 
" style="fill:none;stroke:#1f77b4;stroke-linecap:square;"/>
   </g>
   <g id="line2d_36">
    <path clip-path="url(#p021f9ee13d)" d="M 57.545938 255.405027 
L 67.310938 255.405027 
" style="fill:none;stroke:#000000;stroke-linecap:square;"/>
   </g>
   <g id="line2d_37">
    <path clip-path="url(#p021f9ee13d)" d="M 57.545938 167.869577 
L 67.310938 167.869577 
" style="fill:none;stroke:#000000;stroke-linecap:square;"/>
   </g>
   <g id="line2d_38">
    <defs>
     <path d="M 0 3 
C 0.795609 3 1.55874 2.683901 2.12132 2.12132 
C 2.683901 1.55874 3 0.795609 3 0 
C 3 -0.795609 2.683901 -1.55874 2.12132 -2.12132 
C 1.55874 -2.683901 0.795609 -3 0 -3 
C -0.795609 -3 -1.55874 -2.683901 -2.12132 -2.12132 
C -2.683901 -1.55874 -3 -0.795609 -3 0 
C -3 0.795609 -2.683901 1.55874 -2.12132 2.12132 
C -1.55874 2.683901 -0.795609 3 0 3 
z
" id="m5847d45626" style="stroke:#000000;"/>
    </defs>
    <g clip-path="url(#p021f9ee13d)">
     <use style="fill-opacity:0;stroke:#000000;" x="62.428438" xlink:href="#m5847d45626" y="261.097439"/>
     <use style="fill-opacity:0;stroke:#000000;" x="62.428438" xlink:href="#m5847d45626" y="261.355125"/>
     <use style="fill-opacity:0;stroke:#000000;" x="62.428438" xlink:href="#m5847d45626" y="259.878045"/>
     <use style="fill-opacity:0;stroke:#000000;" x="62.428438" xlink:href="#m5847d45626" y="258.959506"/>
     <use style="fill-opacity:0;stroke:#000000;" x="62.428438" xlink:href="#m5847d45626" y="276.23552"/>
     <use style="fill-opacity:0;stroke:#000000;" x="62.428438" xlink:href="#m5847d45626" y="282.121566"/>
     <use style="fill-opacity:0;stroke:#000000;" x="62.428438" xlink:href="#m5847d45626" y="161.579047"/>
     <use style="fill-opacity:0;stroke:#000000;" x="62.428438" xlink:href="#m5847d45626" y="154.444693"/>
     <use style="fill-opacity:0;stroke:#000000;" x="62.428438" xlink:href="#m5847d45626" y="161.50017"/>
     <use style="fill-opacity:0;stroke:#000000;" x="62.428438" xlink:href="#m5847d45626" y="160.833945"/>
     <use style="fill-opacity:0;stroke:#000000;" x="62.428438" xlink:href="#m5847d45626" y="148.053725"/>
     <use style="fill-opacity:0;stroke:#000000;" x="62.428438" xlink:href="#m5847d45626" y="123.712105"/>
    </g>
   </g>
   <g id="line2d_39">
    <path clip-path="url(#p021f9ee13d)" d="M 91.723438 170.502502 
L 111.253438 170.502502 
L 111.253438 138.747058 
L 91.723438 138.747058 
L 91.723438 170.502502 
" style="fill:none;stroke:#1f77b4;stroke-linecap:square;"/>
   </g>
   <g id="line2d_40">
    <path clip-path="url(#p021f9ee13d)" d="M 101.488438 170.502502 
L 101.488438 205.806511 
" style="fill:none;stroke:#1f77b4;stroke-linecap:square;"/>
   </g>
   <g id="line2d_41">
    <path clip-path="url(#p021f9ee13d)" d="M 101.488438 138.747058 
L 101.488438 95.290536 
" style="fill:none;stroke:#1f77b4;stroke-linecap:square;"/>
   </g>
   <g id="line2d_42">
    <path clip-path="url(#p021f9ee13d)" d="M 96.605938 205.806511 
L 106.370937 205.806511 
" style="fill:none;stroke:#000000;stroke-linecap:square;"/>
   </g>
   <g id="line2d_43">
    <path clip-path="url(#p021f9ee13d)" d="M 96.605938 95.290536 
L 106.370937 95.290536 
" style="fill:none;stroke:#000000;stroke-linecap:square;"/>
   </g>
   <g id="line2d_44">
    <g clip-path="url(#p021f9ee13d)">
     <use style="fill-opacity:0;stroke:#000000;" x="101.488438" xlink:href="#m5847d45626" y="223.000441"/>
     <use style="fill-opacity:0;stroke:#000000;" x="101.488438" xlink:href="#m5847d45626" y="221.348451"/>
     <use style="fill-opacity:0;stroke:#000000;" x="101.488438" xlink:href="#m5847d45626" y="88.368552"/>
     <use style="fill-opacity:0;stroke:#000000;" x="101.488438" xlink:href="#m5847d45626" y="49.025569"/>
     <use style="fill-opacity:0;stroke:#000000;" x="101.488438" xlink:href="#m5847d45626" y="81.612219"/>
     <use style="fill-opacity:0;stroke:#000000;" x="101.488438" xlink:href="#m5847d45626" y="76.138895"/>
     <use style="fill-opacity:0;stroke:#000000;" x="101.488438" xlink:href="#m5847d45626" y="77.290943"/>
     <use style="fill-opacity:0;stroke:#000000;" x="101.488438" xlink:href="#m5847d45626" y="86.358368"/>
     <use style="fill-opacity:0;stroke:#000000;" x="101.488438" xlink:href="#m5847d45626" y="85.964763"/>
     <use style="fill-opacity:0;stroke:#000000;" x="101.488438" xlink:href="#m5847d45626" y="68.883597"/>
     <use style="fill-opacity:0;stroke:#000000;" x="101.488438" xlink:href="#m5847d45626" y="88.952029"/>
     <use style="fill-opacity:0;stroke:#000000;" x="101.488438" xlink:href="#m5847d45626" y="84.714455"/>
    </g>
   </g>
   <g id="line2d_45">
    <path clip-path="url(#p021f9ee13d)" d="M 130.783438 211.856427 
L 150.313438 211.856427 
L 150.313438 177.62295 
L 130.783438 177.62295 
L 130.783438 211.856427 
" style="fill:none;stroke:#1f77b4;stroke-linecap:square;"/>
   </g>
   <g id="line2d_46">
    <path clip-path="url(#p021f9ee13d)" d="M 140.548438 211.856427 
L 140.548438 258.073452 
" style="fill:none;stroke:#1f77b4;stroke-linecap:square;"/>
   </g>
   <g id="line2d_47">
    <path clip-path="url(#p021f9ee13d)" d="M 140.548438 177.62295 
L 140.548438 139.064749 
" style="fill:none;stroke:#1f77b4;stroke-linecap:square;"/>
   </g>
   <g id="line2d_48">
    <path clip-path="url(#p021f9ee13d)" d="M 135.665938 258.073452 
L 145.430937 258.073452 
" style="fill:none;stroke:#000000;stroke-linecap:square;"/>
   </g>
   <g id="line2d_49">
    <path clip-path="url(#p021f9ee13d)" d="M 135.665938 139.064749 
L 145.430937 139.064749 
" style="fill:none;stroke:#000000;stroke-linecap:square;"/>
   </g>
   <g id="line2d_50">
    <g clip-path="url(#p021f9ee13d)">
     <use style="fill-opacity:0;stroke:#000000;" x="140.548438" xlink:href="#m5847d45626" y="290.608325"/>
     <use style="fill-opacity:0;stroke:#000000;" x="140.548438" xlink:href="#m5847d45626" y="268.135175"/>
     <use style="fill-opacity:0;stroke:#000000;" x="140.548438" xlink:href="#m5847d45626" y="270.861384"/>
     <use style="fill-opacity:0;stroke:#000000;" x="140.548438" xlink:href="#m5847d45626" y="263.881008"/>
     <use style="fill-opacity:0;stroke:#000000;" x="140.548438" xlink:href="#m5847d45626" y="270.513988"/>
     <use style="fill-opacity:0;stroke:#000000;" x="140.548438" xlink:href="#m5847d45626" y="268.111186"/>
     <use style="fill-opacity:0;stroke:#000000;" x="140.548438" xlink:href="#m5847d45626" y="283.459072"/>
     <use style="fill-opacity:0;stroke:#000000;" x="140.548438" xlink:href="#m5847d45626" y="264.801451"/>
     <use style="fill-opacity:0;stroke:#000000;" x="140.548438" xlink:href="#m5847d45626" y="267.258536"/>
     <use style="fill-opacity:0;stroke:#000000;" x="140.548438" xlink:href="#m5847d45626" y="278.087813"/>
     <use style="fill-opacity:0;stroke:#000000;" x="140.548438" xlink:href="#m5847d45626" y="91.106652"/>
     <use style="fill-opacity:0;stroke:#000000;" x="140.548438" xlink:href="#m5847d45626" y="120.475349"/>
    </g>
   </g>
   <g id="line2d_51">
    <path clip-path="url(#p021f9ee13d)" d="M 169.843438 228.664371 
L 189.373437 228.664371 
L 189.373437 203.808245 
L 169.843438 203.808245 
L 169.843438 228.664371 
" style="fill:none;stroke:#1f77b4;stroke-linecap:square;"/>
   </g>
   <g id="line2d_52">
    <path clip-path="url(#p021f9ee13d)" d="M 179.608438 228.664371 
L 179.608438 264.837276 
" style="fill:none;stroke:#1f77b4;stroke-linecap:square;"/>
   </g>
   <g id="line2d_53">
    <path clip-path="url(#p021f9ee13d)" d="M 179.608438 203.808245 
L 179.608438 173.313975 
" style="fill:none;stroke:#1f77b4;stroke-linecap:square;"/>
   </g>
   <g id="line2d_54">
    <path clip-path="url(#p021f9ee13d)" d="M 174.725938 264.837276 
L 184.490938 264.837276 
" style="fill:none;stroke:#000000;stroke-linecap:square;"/>
   </g>
   <g id="line2d_55">
    <path clip-path="url(#p021f9ee13d)" d="M 174.725938 173.313975 
L 184.490938 173.313975 
" style="fill:none;stroke:#000000;stroke-linecap:square;"/>
   </g>
   <g id="line2d_56">
    <g clip-path="url(#p021f9ee13d)">
     <use style="fill-opacity:0;stroke:#000000;" x="179.608438" xlink:href="#m5847d45626" y="267.357609"/>
     <use style="fill-opacity:0;stroke:#000000;" x="179.608438" xlink:href="#m5847d45626" y="274.221958"/>
     <use style="fill-opacity:0;stroke:#000000;" x="179.608438" xlink:href="#m5847d45626" y="268.547183"/>
     <use style="fill-opacity:0;stroke:#000000;" x="179.608438" xlink:href="#m5847d45626" y="280.301749"/>
     <use style="fill-opacity:0;stroke:#000000;" x="179.608438" xlink:href="#m5847d45626" y="267.7147"/>
     <use style="fill-opacity:0;stroke:#000000;" x="179.608438" xlink:href="#m5847d45626" y="272.698592"/>
     <use style="fill-opacity:0;stroke:#000000;" x="179.608438" xlink:href="#m5847d45626" y="267.183752"/>
     <use style="fill-opacity:0;stroke:#000000;" x="179.608438" xlink:href="#m5847d45626" y="275.670387"/>
     <use style="fill-opacity:0;stroke:#000000;" x="179.608438" xlink:href="#m5847d45626" y="279.576804"/>
     <use style="fill-opacity:0;stroke:#000000;" x="179.608438" xlink:href="#m5847d45626" y="277.622319"/>
     <use style="fill-opacity:0;stroke:#000000;" x="179.608438" xlink:href="#m5847d45626" y="268.344038"/>
    </g>
   </g>
   <g id="line2d_57">
    <path clip-path="url(#p021f9ee13d)" d="M 208.903438 179.673473 
L 228.433437 179.673473 
L 228.433437 146.594922 
L 208.903438 146.594922 
L 208.903438 179.673473 
" style="fill:none;stroke:#1f77b4;stroke-linecap:square;"/>
   </g>
   <g id="line2d_58">
    <path clip-path="url(#p021f9ee13d)" d="M 218.668438 179.673473 
L 218.668438 227.440164 
" style="fill:none;stroke:#1f77b4;stroke-linecap:square;"/>
   </g>
   <g id="line2d_59">
    <path clip-path="url(#p021f9ee13d)" d="M 218.668438 146.594922 
L 218.668438 99.455342 
" style="fill:none;stroke:#1f77b4;stroke-linecap:square;"/>
   </g>
   <g id="line2d_60">
    <path clip-path="url(#p021f9ee13d)" d="M 213.785938 227.440164 
L 223.550938 227.440164 
" style="fill:none;stroke:#000000;stroke-linecap:square;"/>
   </g>
   <g id="line2d_61">
    <path clip-path="url(#p021f9ee13d)" d="M 213.785938 99.455342 
L 223.550938 99.455342 
" style="fill:none;stroke:#000000;stroke-linecap:square;"/>
   </g>
   <g id="line2d_62">
    <g clip-path="url(#p021f9ee13d)">
     <use style="fill-opacity:0;stroke:#000000;" x="218.668438" xlink:href="#m5847d45626" y="241.281227"/>
     <use style="fill-opacity:0;stroke:#000000;" x="218.668438" xlink:href="#m5847d45626" y="68.652169"/>
     <use style="fill-opacity:0;stroke:#000000;" x="218.668438" xlink:href="#m5847d45626" y="86.466989"/>
     <use style="fill-opacity:0;stroke:#000000;" x="218.668438" xlink:href="#m5847d45626" y="77.88008"/>
     <use style="fill-opacity:0;stroke:#000000;" x="218.668438" xlink:href="#m5847d45626" y="96.209508"/>
     <use style="fill-opacity:0;stroke:#000000;" x="218.668438" xlink:href="#m5847d45626" y="95.29955"/>
     <use style="fill-opacity:0;stroke:#000000;" x="218.668438" xlink:href="#m5847d45626" y="93.886148"/>
     <use style="fill-opacity:0;stroke:#000000;" x="218.668438" xlink:href="#m5847d45626" y="94.653442"/>
     <use style="fill-opacity:0;stroke:#000000;" x="218.668438" xlink:href="#m5847d45626" y="78.059643"/>
     <use style="fill-opacity:0;stroke:#000000;" x="218.668438" xlink:href="#m5847d45626" y="78.232691"/>
     <use style="fill-opacity:0;stroke:#000000;" x="218.668438" xlink:href="#m5847d45626" y="92.929901"/>
     <use style="fill-opacity:0;stroke:#000000;" x="218.668438" xlink:href="#m5847d45626" y="85.807047"/>
     <use style="fill-opacity:0;stroke:#000000;" x="218.668438" xlink:href="#m5847d45626" y="93.908502"/>
     <use style="fill-opacity:0;stroke:#000000;" x="218.668438" xlink:href="#m5847d45626" y="90.867803"/>
    </g>
   </g>
   <g id="line2d_63">
    <path clip-path="url(#p021f9ee13d)" d="M 247.963438 206.066381 
L 267.493438 206.066381 
L 267.493438 179.113201 
L 247.963438 179.113201 
L 247.963438 206.066381 
" style="fill:none;stroke:#1f77b4;stroke-linecap:square;"/>
   </g>
   <g id="line2d_64">
    <path clip-path="url(#p021f9ee13d)" d="M 257.728438 206.066381 
L 257.728438 243.44496 
" style="fill:none;stroke:#1f77b4;stroke-linecap:square;"/>
   </g>
   <g id="line2d_65">
    <path clip-path="url(#p021f9ee13d)" d="M 257.728438 179.113201 
L 257.728438 143.583971 
" style="fill:none;stroke:#1f77b4;stroke-linecap:square;"/>
   </g>
   <g id="line2d_66">
    <path clip-path="url(#p021f9ee13d)" d="M 252.845938 243.44496 
L 262.610938 243.44496 
" style="fill:none;stroke:#000000;stroke-linecap:square;"/>
   </g>
   <g id="line2d_67">
    <path clip-path="url(#p021f9ee13d)" d="M 252.845938 143.583971 
L 262.610938 143.583971 
" style="fill:none;stroke:#000000;stroke-linecap:square;"/>
   </g>
   <g id="line2d_68">
    <g clip-path="url(#p021f9ee13d)">
     <use style="fill-opacity:0;stroke:#000000;" x="257.728438" xlink:href="#m5847d45626" y="257.716829"/>
     <use style="fill-opacity:0;stroke:#000000;" x="257.728438" xlink:href="#m5847d45626" y="115.451577"/>
     <use style="fill-opacity:0;stroke:#000000;" x="257.728438" xlink:href="#m5847d45626" y="133.772827"/>
     <use style="fill-opacity:0;stroke:#000000;" x="257.728438" xlink:href="#m5847d45626" y="131.131822"/>
     <use style="fill-opacity:0;stroke:#000000;" x="257.728438" xlink:href="#m5847d45626" y="122.752916"/>
     <use style="fill-opacity:0;stroke:#000000;" x="257.728438" xlink:href="#m5847d45626" y="115.938512"/>
     <use style="fill-opacity:0;stroke:#000000;" x="257.728438" xlink:href="#m5847d45626" y="111.180474"/>
     <use style="fill-opacity:0;stroke:#000000;" x="257.728438" xlink:href="#m5847d45626" y="125.528006"/>
     <use style="fill-opacity:0;stroke:#000000;" x="257.728438" xlink:href="#m5847d45626" y="115.451145"/>
     <use style="fill-opacity:0;stroke:#000000;" x="257.728438" xlink:href="#m5847d45626" y="128.356559"/>
     <use style="fill-opacity:0;stroke:#000000;" x="257.728438" xlink:href="#m5847d45626" y="129.420572"/>
     <use style="fill-opacity:0;stroke:#000000;" x="257.728438" xlink:href="#m5847d45626" y="93.725049"/>
     <use style="fill-opacity:0;stroke:#000000;" x="257.728438" xlink:href="#m5847d45626" y="93.800971"/>
    </g>
   </g>
   <g id="line2d_69">
    <path clip-path="url(#p021f9ee13d)" d="M 287.023438 200.066975 
L 306.553438 200.066975 
L 306.553438 170.053251 
L 287.023438 170.053251 
L 287.023438 200.066975 
" style="fill:none;stroke:#1f77b4;stroke-linecap:square;"/>
   </g>
   <g id="line2d_70">
    <path clip-path="url(#p021f9ee13d)" d="M 296.788438 200.066975 
L 296.788438 242.316056 
" style="fill:none;stroke:#1f77b4;stroke-linecap:square;"/>
   </g>
   <g id="line2d_71">
    <path clip-path="url(#p021f9ee13d)" d="M 296.788438 170.053251 
L 296.788438 129.658042 
" style="fill:none;stroke:#1f77b4;stroke-linecap:square;"/>
   </g>
   <g id="line2d_72">
    <path clip-path="url(#p021f9ee13d)" d="M 291.905938 242.316056 
L 301.670938 242.316056 
" style="fill:none;stroke:#000000;stroke-linecap:square;"/>
   </g>
   <g id="line2d_73">
    <path clip-path="url(#p021f9ee13d)" d="M 291.905938 129.658042 
L 301.670938 129.658042 
" style="fill:none;stroke:#000000;stroke-linecap:square;"/>
   </g>
   <g id="line2d_74">
    <g clip-path="url(#p021f9ee13d)">
     <use style="fill-opacity:0;stroke:#000000;" x="296.788438" xlink:href="#m5847d45626" y="245.591862"/>
     <use style="fill-opacity:0;stroke:#000000;" x="296.788438" xlink:href="#m5847d45626" y="124.646302"/>
     <use style="fill-opacity:0;stroke:#000000;" x="296.788438" xlink:href="#m5847d45626" y="93.923741"/>
     <use style="fill-opacity:0;stroke:#000000;" x="296.788438" xlink:href="#m5847d45626" y="78.267837"/>
    </g>
   </g>
   <g id="line2d_75">
    <path clip-path="url(#p021f9ee13d)" d="M 326.083438 245.558179 
L 345.613438 245.558179 
L 345.613438 176.492621 
L 326.083438 176.492621 
L 326.083438 245.558179 
" style="fill:none;stroke:#1f77b4;stroke-linecap:square;"/>
   </g>
   <g id="line2d_76">
    <path clip-path="url(#p021f9ee13d)" d="M 335.848438 245.558179 
L 335.848438 342.389984 
" style="fill:none;stroke:#1f77b4;stroke-linecap:square;"/>
   </g>
   <g id="line2d_77">
    <path clip-path="url(#p021f9ee13d)" d="M 335.848438 176.492621 
L 335.848438 93.055257 
" style="fill:none;stroke:#1f77b4;stroke-linecap:square;"/>
   </g>
   <g id="line2d_78">
    <path clip-path="url(#p021f9ee13d)" d="M 330.965938 342.389984 
L 340.730938 342.389984 
" style="fill:none;stroke:#000000;stroke-linecap:square;"/>
   </g>
   <g id="line2d_79">
    <path clip-path="url(#p021f9ee13d)" d="M 330.965938 93.055257 
L 340.730938 93.055257 
" style="fill:none;stroke:#000000;stroke-linecap:square;"/>
   </g>
   <g id="line2d_80">
    <g clip-path="url(#p021f9ee13d)">
     <use style="fill-opacity:0;stroke:#000000;" x="335.848438" xlink:href="#m5847d45626" y="349.169231"/>
     <use style="fill-opacity:0;stroke:#000000;" x="335.848438" xlink:href="#m5847d45626" y="392.54625"/>
     <use style="fill-opacity:0;stroke:#000000;" x="335.848438" xlink:href="#m5847d45626" y="362.11001"/>
    </g>
   </g>
   <g id="line2d_81">
    <path clip-path="url(#p021f9ee13d)" d="M 365.143438 159.152497 
L 384.673438 159.152497 
L 384.673438 131.89141 
L 365.143438 131.89141 
L 365.143438 159.152497 
" style="fill:none;stroke:#1f77b4;stroke-linecap:square;"/>
   </g>
   <g id="line2d_82">
    <path clip-path="url(#p021f9ee13d)" d="M 374.908438 159.152497 
L 374.908438 192.116474 
" style="fill:none;stroke:#1f77b4;stroke-linecap:square;"/>
   </g>
   <g id="line2d_83">
    <path clip-path="url(#p021f9ee13d)" d="M 374.908438 131.89141 
L 374.908438 94.021831 
" style="fill:none;stroke:#1f77b4;stroke-linecap:square;"/>
   </g>
   <g id="line2d_84">
    <path clip-path="url(#p021f9ee13d)" d="M 370.025938 192.116474 
L 379.790938 192.116474 
" style="fill:none;stroke:#000000;stroke-linecap:square;"/>
   </g>
   <g id="line2d_85">
    <path clip-path="url(#p021f9ee13d)" d="M 370.025938 94.021831 
L 379.790938 94.021831 
" style="fill:none;stroke:#000000;stroke-linecap:square;"/>
   </g>
   <g id="line2d_86">
    <g clip-path="url(#p021f9ee13d)">
     <use style="fill-opacity:0;stroke:#000000;" x="374.908438" xlink:href="#m5847d45626" y="212.657279"/>
     <use style="fill-opacity:0;stroke:#000000;" x="374.908438" xlink:href="#m5847d45626" y="216.283816"/>
     <use style="fill-opacity:0;stroke:#000000;" x="374.908438" xlink:href="#m5847d45626" y="209.476019"/>
     <use style="fill-opacity:0;stroke:#000000;" x="374.908438" xlink:href="#m5847d45626" y="90.061943"/>
     <use style="fill-opacity:0;stroke:#000000;" x="374.908438" xlink:href="#m5847d45626" y="39.74625"/>
     <use style="fill-opacity:0;stroke:#000000;" x="374.908438" xlink:href="#m5847d45626" y="77.897377"/>
     <use style="fill-opacity:0;stroke:#000000;" x="374.908438" xlink:href="#m5847d45626" y="48.687577"/>
     <use style="fill-opacity:0;stroke:#000000;" x="374.908438" xlink:href="#m5847d45626" y="85.178082"/>
     <use style="fill-opacity:0;stroke:#000000;" x="374.908438" xlink:href="#m5847d45626" y="87.371702"/>
     <use style="fill-opacity:0;stroke:#000000;" x="374.908438" xlink:href="#m5847d45626" y="80.155212"/>
     <use style="fill-opacity:0;stroke:#000000;" x="374.908438" xlink:href="#m5847d45626" y="89.061216"/>
     <use style="fill-opacity:0;stroke:#000000;" x="374.908438" xlink:href="#m5847d45626" y="79.903501"/>
    </g>
   </g>
   <g id="line2d_87">
    <path clip-path="url(#p021f9ee13d)" d="M 404.203438 182.19117 
L 423.733438 182.19117 
L 423.733438 145.084204 
L 404.203438 145.084204 
L 404.203438 182.19117 
" style="fill:none;stroke:#1f77b4;stroke-linecap:square;"/>
   </g>
   <g id="line2d_88">
    <path clip-path="url(#p021f9ee13d)" d="M 413.968438 182.19117 
L 413.968438 231.487871 
" style="fill:none;stroke:#1f77b4;stroke-linecap:square;"/>
   </g>
   <g id="line2d_89">
    <path clip-path="url(#p021f9ee13d)" d="M 413.968438 145.084204 
L 413.968438 92.770583 
" style="fill:none;stroke:#1f77b4;stroke-linecap:square;"/>
   </g>
   <g id="line2d_90">
    <path clip-path="url(#p021f9ee13d)" d="M 409.085938 231.487871 
L 418.850938 231.487871 
" style="fill:none;stroke:#000000;stroke-linecap:square;"/>
   </g>
   <g id="line2d_91">
    <path clip-path="url(#p021f9ee13d)" d="M 409.085938 92.770583 
L 418.850938 92.770583 
" style="fill:none;stroke:#000000;stroke-linecap:square;"/>
   </g>
   <g id="line2d_92">
    <g clip-path="url(#p021f9ee13d)">
     <use style="fill-opacity:0;stroke:#000000;" x="413.968438" xlink:href="#m5847d45626" y="238.525553"/>
     <use style="fill-opacity:0;stroke:#000000;" x="413.968438" xlink:href="#m5847d45626" y="247.99705"/>
     <use style="fill-opacity:0;stroke:#000000;" x="413.968438" xlink:href="#m5847d45626" y="239.016624"/>
     <use style="fill-opacity:0;stroke:#000000;" x="413.968438" xlink:href="#m5847d45626" y="85.087449"/>
     <use style="fill-opacity:0;stroke:#000000;" x="413.968438" xlink:href="#m5847d45626" y="86.131496"/>
    </g>
   </g>
   <g id="line2d_93">
    <path clip-path="url(#p021f9ee13d)" d="M 52.663438 213.116833 
L 72.193438 213.116833 
" style="fill:none;stroke:#2ca02c;stroke-linecap:square;"/>
   </g>
   <g id="line2d_94">
    <path clip-path="url(#p021f9ee13d)" d="M 91.723438 156.993406 
L 111.253438 156.993406 
" style="fill:none;stroke:#2ca02c;stroke-linecap:square;"/>
   </g>
   <g id="line2d_95">
    <path clip-path="url(#p021f9ee13d)" d="M 130.783438 190.411346 
L 150.313438 190.411346 
" style="fill:none;stroke:#2ca02c;stroke-linecap:square;"/>
   </g>
   <g id="line2d_96">
    <path clip-path="url(#p021f9ee13d)" d="M 169.843438 215.375573 
L 189.373437 215.375573 
" style="fill:none;stroke:#2ca02c;stroke-linecap:square;"/>
   </g>
   <g id="line2d_97">
    <path clip-path="url(#p021f9ee13d)" d="M 208.903438 168.603014 
L 228.433437 168.603014 
" style="fill:none;stroke:#2ca02c;stroke-linecap:square;"/>
   </g>
   <g id="line2d_98">
    <path clip-path="url(#p021f9ee13d)" d="M 247.963438 193.321489 
L 267.493438 193.321489 
" style="fill:none;stroke:#2ca02c;stroke-linecap:square;"/>
   </g>
   <g id="line2d_99">
    <path clip-path="url(#p021f9ee13d)" d="M 287.023438 183.224689 
L 306.553438 183.224689 
" style="fill:none;stroke:#2ca02c;stroke-linecap:square;"/>
   </g>
   <g id="line2d_100">
    <path clip-path="url(#p021f9ee13d)" d="M 326.083438 208.026481 
L 345.613438 208.026481 
" style="fill:none;stroke:#2ca02c;stroke-linecap:square;"/>
   </g>
   <g id="line2d_101">
    <path clip-path="url(#p021f9ee13d)" d="M 365.143438 145.305561 
L 384.673438 145.305561 
" style="fill:none;stroke:#2ca02c;stroke-linecap:square;"/>
   </g>
   <g id="line2d_102">
    <path clip-path="url(#p021f9ee13d)" d="M 404.203438 161.50059 
L 423.733438 161.50059 
" style="fill:none;stroke:#2ca02c;stroke-linecap:square;"/>
   </g>
   <g id="patch_3">
    <path d="M 42.898438 410.18625 
L 42.898438 22.10625 
" style="fill:none;stroke:#000000;stroke-linecap:square;stroke-linejoin:miter;stroke-width:0.8;"/>
   </g>
   <g id="patch_4">
    <path d="M 433.498438 410.18625 
L 433.498438 22.10625 
" style="fill:none;stroke:#000000;stroke-linecap:square;stroke-linejoin:miter;stroke-width:0.8;"/>
   </g>
   <g id="patch_5">
    <path d="M 42.898438 410.18625 
L 433.498438 410.18625 
" style="fill:none;stroke:#000000;stroke-linecap:square;stroke-linejoin:miter;stroke-width:0.8;"/>
   </g>
   <g id="patch_6">
    <path d="M 42.898438 22.10625 
L 433.498438 22.10625 
" style="fill:none;stroke:#000000;stroke-linecap:square;stroke-linejoin:miter;stroke-width:0.8;"/>
   </g>
   <g id="text_18">
    <!-- src/BOXPLOT2_mutants.tsv -->
    <defs>
     <path d="M 44.28125 53.078125 
L 44.28125 44.578125 
Q 40.484375 46.53125 36.375 47.5 
Q 32.28125 48.484375 27.875 48.484375 
Q 21.1875 48.484375 17.84375 46.4375 
Q 14.5 44.390625 14.5 40.28125 
Q 14.5 37.15625 16.890625 35.375 
Q 19.28125 33.59375 26.515625 31.984375 
L 29.59375 31.296875 
Q 39.15625 29.25 43.1875 25.515625 
Q 47.21875 21.78125 47.21875 15.09375 
Q 47.21875 7.46875 41.1875 3.015625 
Q 35.15625 -1.421875 24.609375 -1.421875 
Q 20.21875 -1.421875 15.453125 -0.5625 
Q 10.6875 0.296875 5.421875 2 
L 5.421875 11.28125 
Q 10.40625 8.6875 15.234375 7.390625 
Q 20.0625 6.109375 24.8125 6.109375 
Q 31.15625 6.109375 34.5625 8.28125 
Q 37.984375 10.453125 37.984375 14.40625 
Q 37.984375 18.0625 35.515625 20.015625 
Q 33.0625 21.96875 24.703125 23.78125 
L 21.578125 24.515625 
Q 13.234375 26.265625 9.515625 29.90625 
Q 5.8125 33.546875 5.8125 39.890625 
Q 5.8125 47.609375 11.28125 51.796875 
Q 16.75 56 26.8125 56 
Q 31.78125 56 36.171875 55.265625 
Q 40.578125 54.546875 44.28125 53.078125 
z
" id="DejaVuSans-73"/>
     <path d="M 48.78125 52.59375 
L 48.78125 44.1875 
Q 44.96875 46.296875 41.140625 47.34375 
Q 37.3125 48.390625 33.40625 48.390625 
Q 24.65625 48.390625 19.8125 42.84375 
Q 14.984375 37.3125 14.984375 27.296875 
Q 14.984375 17.28125 19.8125 11.734375 
Q 24.65625 6.203125 33.40625 6.203125 
Q 37.3125 6.203125 41.140625 7.25 
Q 44.96875 8.296875 48.78125 10.40625 
L 48.78125 2.09375 
Q 45.015625 0.34375 40.984375 -0.53125 
Q 36.96875 -1.421875 32.421875 -1.421875 
Q 20.0625 -1.421875 12.78125 6.34375 
Q 5.515625 14.109375 5.515625 27.296875 
Q 5.515625 40.671875 12.859375 48.328125 
Q 20.21875 56 33.015625 56 
Q 37.15625 56 41.109375 55.140625 
Q 45.0625 54.296875 48.78125 52.59375 
z
" id="DejaVuSans-63"/>
     <path d="M 25.390625 72.90625 
L 33.6875 72.90625 
L 8.296875 -9.28125 
L 0 -9.28125 
z
" id="DejaVuSans-2f"/>
     <path d="M 19.671875 34.8125 
L 19.671875 8.109375 
L 35.5 8.109375 
Q 43.453125 8.109375 47.28125 11.40625 
Q 51.125 14.703125 51.125 21.484375 
Q 51.125 28.328125 47.28125 31.5625 
Q 43.453125 34.8125 35.5 34.8125 
z
M 19.671875 64.796875 
L 19.671875 42.828125 
L 34.28125 42.828125 
Q 41.5 42.828125 45.03125 45.53125 
Q 48.578125 48.25 48.578125 53.8125 
Q 48.578125 59.328125 45.03125 62.0625 
Q 41.5 64.796875 34.28125 64.796875 
z
M 9.8125 72.90625 
L 35.015625 72.90625 
Q 46.296875 72.90625 52.390625 68.21875 
Q 58.5 63.53125 58.5 54.890625 
Q 58.5 48.1875 55.375 44.234375 
Q 52.25 40.28125 46.1875 39.3125 
Q 53.46875 37.75 57.5 32.78125 
Q 61.53125 27.828125 61.53125 20.40625 
Q 61.53125 10.640625 54.890625 5.3125 
Q 48.25 0 35.984375 0 
L 9.8125 0 
z
" id="DejaVuSans-42"/>
     <path d="M 8.5 21.578125 
L 8.5 54.6875 
L 17.484375 54.6875 
L 17.484375 21.921875 
Q 17.484375 14.15625 20.5 10.265625 
Q 23.53125 6.390625 29.59375 6.390625 
Q 36.859375 6.390625 41.078125 11.03125 
Q 45.3125 15.671875 45.3125 23.6875 
L 45.3125 54.6875 
L 54.296875 54.6875 
L 54.296875 0 
L 45.3125 0 
L 45.3125 8.40625 
Q 42.046875 3.421875 37.71875 1 
Q 33.40625 -1.421875 27.6875 -1.421875 
Q 18.265625 -1.421875 13.375 4.4375 
Q 8.5 10.296875 8.5 21.578125 
z
M 31.109375 56 
z
" id="DejaVuSans-75"/>
     <path d="M 18.3125 70.21875 
L 18.3125 54.6875 
L 36.8125 54.6875 
L 36.8125 47.703125 
L 18.3125 47.703125 
L 18.3125 18.015625 
Q 18.3125 11.328125 20.140625 9.421875 
Q 21.96875 7.515625 27.59375 7.515625 
L 36.8125 7.515625 
L 36.8125 0 
L 27.59375 0 
Q 17.1875 0 13.234375 3.875 
Q 9.28125 7.765625 9.28125 18.015625 
L 9.28125 47.703125 
L 2.6875 47.703125 
L 2.6875 54.6875 
L 9.28125 54.6875 
L 9.28125 70.21875 
z
" id="DejaVuSans-74"/>
     <path d="M 10.6875 12.40625 
L 21 12.40625 
L 21 0 
L 10.6875 0 
z
" id="DejaVuSans-2e"/>
     <path d="M 2.984375 54.6875 
L 12.5 54.6875 
L 29.59375 8.796875 
L 46.6875 54.6875 
L 56.203125 54.6875 
L 35.6875 0 
L 23.484375 0 
z
" id="DejaVuSans-76"/>
    </defs>
    <g transform="translate(156.289062 16.10625)scale(0.12 -0.12)">
     <use xlink:href="#DejaVuSans-73"/>
     <use x="52.099609" xlink:href="#DejaVuSans-72"/>
     <use x="93.181641" xlink:href="#DejaVuSans-63"/>
     <use x="148.162109" xlink:href="#DejaVuSans-2f"/>
     <use x="181.853516" xlink:href="#DejaVuSans-42"/>
     <use x="250.441406" xlink:href="#DejaVuSans-4f"/>
     <use x="329.058594" xlink:href="#DejaVuSans-58"/>
     <use x="397.564453" xlink:href="#DejaVuSans-50"/>
     <use x="457.867188" xlink:href="#DejaVuSans-4c"/>
     <use x="513.533203" xlink:href="#DejaVuSans-4f"/>
     <use x="592.244141" xlink:href="#DejaVuSans-54"/>
     <use x="653.328125" xlink:href="#DejaVuSans-32"/>
     <use x="716.951172" xlink:href="#DejaVuSans-5f"/>
     <use x="766.951172" xlink:href="#DejaVuSans-6d"/>
     <use x="864.363281" xlink:href="#DejaVuSans-75"/>
     <use x="927.742188" xlink:href="#DejaVuSans-74"/>
     <use x="966.951172" xlink:href="#DejaVuSans-61"/>
     <use x="1028.230469" xlink:href="#DejaVuSans-6e"/>
     <use x="1091.609375" xlink:href="#DejaVuSans-74"/>
     <use x="1130.818359" xlink:href="#DejaVuSans-73"/>
     <use x="1182.917969" xlink:href="#DejaVuSans-2e"/>
     <use x="1214.705078" xlink:href="#DejaVuSans-74"/>
     <use x="1253.914062" xlink:href="#DejaVuSans-73"/>
     <use x="1306.013672" xlink:href="#DejaVuSans-76"/>
    </g>
   </g>
  </g>
 </g>
 <defs>
  <clipPath id="p021f9ee13d">
   <rect height="388.08" width="390.6" x="42.898438" y="22.10625"/>
  </clipPath>
 </defs>
</svg>
